<svg width="115" height="37" viewBox="0 0 115 37" fill="none" xmlns="http://www.w3.org/2000/svg">
<path d="M105.571 9.00866e-05H9.53369C9.18362 9.00866e-05 8.83775 9.00864e-05 8.48854 0.00189182C8.19632 0.00369355 7.90639 0.00891857 7.61131 0.0133328C6.97028 0.0204484 6.33075 0.0736636 5.69829 0.172516C5.06671 0.27352 4.45491 0.463948 3.8836 0.737359C3.313 1.01309 2.79163 1.37138 2.3384 1.79921C1.88279 2.22581 1.503 2.71889 1.21364 3.25951C0.923463 3.79911 0.722261 4.37733 0.61698 4.97422C0.51069 5.57033 0.453495 6.17331 0.445907 6.77775C0.437029 7.05396 0.436074 7.33106 0.431396 7.60736V28.4301C0.436074 28.7099 0.437029 28.9808 0.445907 29.2607C0.453502 29.8651 0.510698 30.4681 0.61698 31.0641C0.721979 31.6613 0.923192 32.2398 1.21364 32.7796C1.50287 33.3185 1.88271 33.8096 2.3384 34.2339C2.78991 34.6636 3.31162 35.0221 3.8836 35.2957C4.45491 35.5699 5.06664 35.7614 5.69829 35.864C6.33086 35.9621 6.97032 36.0153 7.61131 36.0233C7.9063 36.0294 8.19632 36.0329 8.48863 36.0329C8.83775 36.0347 9.18362 36.0347 9.53369 36.0347H105.571C105.915 36.0347 106.263 36.0347 106.606 36.0329C106.897 36.0329 107.195 36.0294 107.486 36.0233C108.126 36.0157 108.764 35.9625 109.396 35.864C110.029 35.7607 110.643 35.5692 111.217 35.2957C111.789 35.022 112.31 34.6635 112.761 34.2339C113.216 33.808 113.596 33.3172 113.889 32.7796C114.177 32.2394 114.377 31.661 114.48 31.0641C114.587 30.4679 114.646 29.8651 114.657 29.2607C114.661 28.9808 114.661 28.7099 114.661 28.4301C114.669 28.1029 114.669 27.7774 114.669 27.4448V8.59092C114.669 8.26094 114.669 7.93374 114.661 7.60736C114.661 7.33106 114.661 7.05396 114.657 6.77766C114.646 6.17317 114.587 5.57032 114.48 4.97413C114.376 4.37765 114.177 3.79953 113.889 3.2596C113.3 2.1759 112.365 1.29376 111.217 0.737268C110.643 0.464529 110.029 0.274151 109.396 0.172426C108.765 0.0731531 108.126 0.0199345 107.486 0.0132427C107.195 0.00882848 106.897 0.00351338 106.606 0.00180173C106.263 0 105.915 0 105.571 0L105.571 9.00866e-05Z" fill="#A6A6A6"/>
<path d="M8.49306 35.2463C8.20217 35.2463 7.91836 35.2428 7.62977 35.2366C7.03196 35.2293 6.43556 35.1802 5.84543 35.0898C5.29517 35.0003 4.76212 34.834 4.26387 34.5961C3.77016 34.3603 3.31986 34.0511 2.93022 33.6803C2.53491 33.3139 2.20579 32.889 1.95591 32.4223C1.7033 31.9525 1.52848 31.4491 1.43754 30.9293C1.33936 30.3709 1.28625 29.8062 1.27868 29.2402C1.27257 29.0502 1.26465 28.4177 1.26465 28.4177V7.6071C1.26465 7.6071 1.27305 6.98424 1.27868 6.80118C1.28596 6.23608 1.33877 5.67231 1.43668 5.11476C1.5278 4.59363 1.70277 4.08869 1.95553 3.61743C2.20445 3.15106 2.5317 2.72576 2.92459 2.35802C3.31706 1.9868 3.76882 1.67598 4.26339 1.43689C4.76051 1.19987 5.29256 1.0347 5.84171 0.946909C6.43378 0.855579 7.03227 0.806224 7.63215 0.799257L8.49353 0.788086H106.602L107.473 0.799527C108.068 0.806191 108.661 0.855157 109.247 0.946008C109.802 1.03492 110.34 1.20128 110.842 1.43959C111.833 1.92141 112.639 2.68369 113.148 3.6196C113.397 4.08763 113.569 4.58847 113.659 5.10512C113.758 5.66723 113.813 6.23542 113.825 6.80515C113.828 7.06027 113.828 7.33432 113.828 7.6071C113.835 7.94492 113.835 8.26644 113.835 8.59066V27.4445C113.835 27.7718 113.835 28.0912 113.828 28.4131C113.828 28.7061 113.828 28.9745 113.824 29.2507C113.813 29.8103 113.758 30.3683 113.661 30.9204C113.571 31.4439 113.398 31.9513 113.145 32.4249C112.893 32.8865 112.566 33.3078 112.176 33.6732C111.786 34.046 111.335 34.357 110.84 34.5943C110.338 34.834 109.801 35.0009 109.247 35.0896C108.657 35.1806 108.061 35.2297 107.463 35.2366C107.177 35.2429 106.892 35.2461 106.606 35.2462L105.571 35.248L8.49306 35.2463Z" fill="black"/>
<path d="M24.077 18.2878C24.0873 17.5359 24.2989 16.7986 24.6922 16.1447C25.0856 15.4907 25.6478 14.9412 26.3266 14.5474C25.8954 13.9662 25.3265 13.4879 24.6651 13.1505C24.0037 12.813 23.268 12.6258 22.5165 12.6036C20.9134 12.4448 19.3593 13.5088 18.5423 13.5088C17.7097 13.5088 16.4519 12.6194 15.0976 12.6457C14.2215 12.6724 13.3677 12.9127 12.6194 13.3434C11.871 13.7741 11.2537 14.3803 10.8274 15.103C8.98113 18.1196 10.3583 22.5528 12.127 24.991C13.0118 26.185 14.0459 27.5187 15.3991 27.4714C16.7232 27.4196 17.2177 26.6746 18.8162 26.6746C20.3998 26.6746 20.8637 27.4714 22.2443 27.4413C23.6652 27.4196 24.5604 26.2421 25.4143 25.0368C26.05 24.1861 26.5392 23.2458 26.8638 22.2509C26.0383 21.9214 25.3338 21.3699 24.8383 20.6652C24.3427 19.9604 24.0779 19.1336 24.077 18.2878ZM21.4693 11C22.244 10.1223 22.6256 8.9943 22.5332 7.8554C21.3496 7.97271 20.2563 8.50652 19.4711 9.35048C19.0872 9.76278 18.7932 10.2424 18.6058 10.762C18.4185 11.2816 18.3415 11.831 18.3793 12.3786C18.9713 12.3844 19.557 12.2633 20.0922 12.0245C20.6275 11.7857 21.0983 11.4354 21.4693 11ZM40.8152 24.4488H36.2965L35.2113 27.4725H33.2973L37.5774 16.2855H39.566L43.846 27.4725H41.8994L40.8152 24.4488ZM36.7645 23.0535H40.3463L38.5806 18.1463H38.5311L36.7645 23.0535ZM53.0895 23.3949C53.0895 25.9294 51.6519 27.5578 49.4826 27.5578C48.933 27.5849 48.3865 27.4655 47.9055 27.2131C47.4245 26.9607 47.0286 26.5857 46.7631 26.1308H46.722V30.1707H44.9479V19.3163H46.6652V20.6729H46.6979C46.9756 20.2203 47.3782 19.8471 47.8628 19.5932C48.3474 19.3393 48.8959 19.2141 49.4499 19.231C51.6435 19.231 53.0895 20.8673 53.0895 23.3948V23.3949ZM51.2659 23.3949C51.2659 21.7436 50.3617 20.658 48.9819 20.658C47.6263 20.658 46.7147 21.7664 46.7147 23.3948C46.7147 25.0382 47.6263 26.1388 48.9819 26.1388C50.3617 26.1388 51.2659 25.0611 51.2659 23.3948V23.3949ZM62.6024 23.3949C62.6024 25.9294 61.1649 27.5578 58.9954 27.5578C58.4459 27.5849 57.8994 27.4654 57.4184 27.2131C56.9375 26.9607 56.5416 26.5856 56.276 26.1308H56.235V30.1707H54.4609V19.3163H56.1781V20.6729H56.2107C56.4885 20.2203 56.8911 19.8471 57.3757 19.5932C57.8603 19.3393 58.4088 19.2141 58.9628 19.231C61.1565 19.231 62.6024 20.8673 62.6024 23.3948V23.3949ZM60.7789 23.3949C60.7789 21.7436 59.8746 20.658 58.4948 20.658C57.1392 20.658 56.2275 21.7664 56.2275 23.3948C56.2275 25.0382 57.1392 26.1388 58.4948 26.1388C59.8746 26.1388 60.7789 25.0611 60.7789 23.3948V23.3949ZM68.8897 24.3556C69.0212 25.4649 70.1632 26.1933 71.7238 26.1933C73.2191 26.1933 74.295 25.4649 74.295 24.4646C74.295 23.5962 73.6461 23.0763 72.1098 22.72L70.5733 22.3708C68.3965 21.8746 67.3859 20.9139 67.3859 19.355C67.3859 17.4248 69.1685 16.099 71.6995 16.099C74.2045 16.099 75.9218 17.4248 75.9796 19.355H74.1887C74.0815 18.2386 73.1035 17.5647 71.6743 17.5647C70.2452 17.5647 69.2673 18.2465 69.2673 19.2388C69.2673 20.0298 69.8919 20.4952 71.4198 20.8514L72.726 21.1541C75.1582 21.6968 76.1689 22.6189 76.1689 24.2551C76.1689 26.3481 74.4022 27.659 71.5923 27.659C68.9632 27.659 67.1882 26.3788 67.0736 24.3555L68.8897 24.3556ZM79.9977 17.3862V19.3163H81.6413V20.6421H79.9977V25.1385C79.9977 25.837 80.3268 26.1625 81.0493 26.1625C81.2445 26.1593 81.4392 26.1464 81.6329 26.1238V27.4418C81.3081 27.499 80.9779 27.5249 80.6475 27.519C78.8977 27.519 78.2152 26.8989 78.2152 25.3171V20.6421H76.9585V19.3163H78.2152V17.3862H79.9977ZM82.5932 23.3949C82.5932 20.8286 84.1948 19.216 86.6925 19.216C89.1984 19.216 90.7926 20.8286 90.7926 23.3949C90.7926 25.9681 89.2067 27.5736 86.6924 27.5736C84.179 27.5736 82.5932 25.9681 82.5932 23.3949ZM88.9849 23.3949C88.9849 21.6345 88.13 20.5954 86.6924 20.5954C85.2549 20.5954 84.4008 21.6423 84.4008 23.3949C84.4008 25.1623 85.2549 26.1933 86.6924 26.1933C88.13 26.1933 88.9849 25.1623 88.9849 23.3949ZM92.2552 19.3163H93.9473V20.7045H93.9884C94.1029 20.271 94.372 19.8878 94.7506 19.6194C95.1293 19.3511 95.5942 19.2139 96.0674 19.231C96.2718 19.2303 96.4757 19.2513 96.6752 19.2934V20.8594C96.4171 20.785 96.1479 20.7508 95.8781 20.7582C95.6204 20.7484 95.3634 20.7912 95.1249 20.8839C94.8864 20.9766 94.672 21.1169 94.4963 21.2952C94.3207 21.4735 94.188 21.6855 94.1074 21.9167C94.0268 22.1479 94.0002 22.3929 94.0294 22.6347V27.4725H92.2552V19.3163ZM104.855 25.0769C104.616 26.5576 103.088 27.5736 101.133 27.5736C98.619 27.5736 97.0583 25.984 97.0583 23.4335C97.0583 20.8753 98.6274 19.216 101.059 19.216C103.45 19.216 104.954 20.7662 104.954 23.2391V23.8127H98.8492V23.9139C98.8211 24.214 98.8609 24.5164 98.966 24.801C99.0712 25.0855 99.2393 25.3457 99.4593 25.5642C99.6792 25.7827 99.9458 25.9545 100.242 26.0683C100.537 26.1821 100.855 26.2352 101.174 26.2241C101.594 26.2612 102.014 26.1696 102.374 25.9629C102.734 25.7562 103.013 25.4454 103.17 25.0769H104.855ZM98.8576 22.6427H103.179C103.195 22.3728 103.151 22.1027 103.051 21.8493C102.951 21.596 102.797 21.3649 102.598 21.1705C102.399 20.9761 102.159 20.8227 101.895 20.7198C101.63 20.6169 101.345 20.5668 101.059 20.5726C100.77 20.5709 100.483 20.6233 100.216 20.7267C99.9487 20.8301 99.7057 20.9824 99.5011 21.1748C99.2965 21.3673 99.1342 21.5961 99.0238 21.848C98.9134 22.1 98.8569 22.37 98.8576 22.6427ZM36.5421 7.86504C36.9141 7.83985 37.2873 7.89287 37.6349 8.02029C37.9825 8.1477 38.2958 8.34633 38.5522 8.60184C38.8086 8.85736 39.0017 9.16339 39.1176 9.49787C39.2335 9.83234 39.2693 10.1869 39.2224 10.536C39.2224 12.2532 38.2388 13.2404 36.5421 13.2404H34.4846V7.86495L36.5421 7.86504ZM35.3693 12.4802H36.4433C36.7091 12.4952 36.975 12.454 37.2218 12.3598C37.4687 12.2655 37.6901 12.1205 37.87 11.9353C38.05 11.7502 38.1839 11.5294 38.262 11.2893C38.3402 11.0491 38.3606 10.7955 38.3218 10.5469C38.3578 10.2993 38.3353 10.0473 38.2559 9.80888C38.1766 9.57046 38.0424 9.35155 37.8628 9.16783C37.6833 8.98412 37.4629 8.84015 37.2175 8.74624C36.9721 8.65234 36.7077 8.61081 36.4433 8.62465H35.3693V12.4802ZM40.2218 11.2103C40.1948 10.9437 40.2271 10.6748 40.3167 10.4207C40.4062 10.1665 40.5511 9.93291 40.742 9.73473C40.9329 9.53656 41.1655 9.37821 41.425 9.26986C41.6846 9.16151 41.9652 9.10553 42.249 9.10553C42.5328 9.10553 42.8134 9.16151 43.073 9.26986C43.3325 9.37821 43.5651 9.53656 43.756 9.73473C43.9469 9.93291 44.0918 10.1665 44.1813 10.4207C44.2709 10.6748 44.3032 10.9437 44.2762 11.2103C44.3038 11.4772 44.2719 11.7466 44.1826 12.0012C44.0933 12.2558 43.9486 12.4899 43.7576 12.6885C43.5667 12.8871 43.3338 13.0458 43.074 13.1545C42.8142 13.2631 42.5332 13.3192 42.249 13.3192C41.9648 13.3192 41.6838 13.2631 41.424 13.1545C41.1642 13.0458 40.9313 12.8871 40.7404 12.6885C40.5494 12.4899 40.4047 12.2558 40.3154 12.0012C40.2261 11.7466 40.1942 11.4772 40.2218 11.2103ZM43.4036 11.2103C43.4036 10.331 42.985 9.81677 42.2504 9.81677C41.513 9.81677 41.0982 10.331 41.0982 11.2103C41.0982 12.0967 41.5131 12.6069 42.2504 12.6069C42.985 12.6069 43.4036 12.0932 43.4036 11.2103ZM49.6658 13.2403H48.7856L47.8972 10.2527H47.8301L46.9454 13.2403H46.0737L44.8888 9.18373H45.7492L46.5193 12.2791H46.5827L47.4665 9.18373H48.2804L49.1642 12.2791H49.2313L49.9976 9.18373H50.846L49.6658 13.2403ZM51.8425 9.18382H52.6592V9.82821H52.7226C52.8302 9.59674 53.0116 9.4027 53.2415 9.27315C53.4715 9.14359 53.7386 9.08496 54.0055 9.10544C54.2147 9.09061 54.4247 9.12037 54.62 9.19253C54.8153 9.26469 54.9909 9.37739 55.1338 9.52229C55.2767 9.66718 55.3832 9.84056 55.4455 10.0296C55.5077 10.2186 55.5241 10.4184 55.4934 10.6142V13.2402H54.645V10.8153C54.645 10.1634 54.3448 9.8392 53.7174 9.8392C53.5754 9.83297 53.4336 9.85578 53.3018 9.90608C53.17 9.95638 53.0513 10.033 52.9538 10.1306C52.8563 10.2282 52.7824 10.3446 52.737 10.4718C52.6916 10.5989 52.6759 10.7338 52.6909 10.8672V13.2403H51.8425V9.18382ZM56.8452 7.60019H57.6935V13.2403H56.8452V7.60019ZM58.8729 11.2103C58.8458 10.9437 58.8781 10.6747 58.9677 10.4205C59.0573 10.1664 59.2022 9.93274 59.3931 9.73453C59.584 9.53633 59.8167 9.37797 60.0763 9.2696C60.3358 9.16123 60.6165 9.10525 60.9003 9.10525C61.1842 9.10525 61.4649 9.16123 61.7244 9.2696C61.984 9.37797 62.2167 9.53633 62.4076 9.73453C62.5985 9.93274 62.7434 10.1664 62.833 10.4205C62.9225 10.6747 62.9549 10.9437 62.9278 11.2103C62.9553 11.4772 62.9233 11.7465 62.8339 12.001C62.7445 12.2555 62.5997 12.4895 62.4088 12.6881C62.2178 12.8866 61.985 13.0452 61.7252 13.1538C61.4654 13.2624 61.1845 13.3185 60.9003 13.3185C60.6162 13.3185 60.3353 13.2624 60.0755 13.1538C59.8157 13.0452 59.5829 12.8866 59.3919 12.6881C59.201 12.4895 59.0562 12.2555 58.9668 12.001C58.8774 11.7465 58.8454 11.4772 58.8729 11.2103ZM62.0547 11.2103C62.0547 10.331 61.6361 9.81677 60.9015 9.81677C60.164 9.81677 59.7492 10.331 59.7492 11.2103C59.7492 12.0967 60.1641 12.6069 60.9015 12.6069C61.6361 12.6069 62.0547 12.0932 62.0547 11.2103ZM63.8209 12.0932C63.8209 11.3629 64.397 10.9419 65.4197 10.8821L66.5841 10.8188V10.4686C66.5841 10.0402 66.284 9.7983 65.7041 9.7983C65.2305 9.7983 64.9023 9.96235 64.8082 10.2492H63.9868C64.0735 9.55236 64.7681 9.10553 65.7433 9.10553C66.821 9.10553 67.4288 9.61182 67.4288 10.4686V13.2403H66.6121V12.6703H66.545C66.4088 12.8747 66.2174 13.0414 65.9906 13.1533C65.7638 13.2652 65.5095 13.3183 65.2538 13.3072C65.0734 13.3249 64.891 13.3067 64.7184 13.2538C64.5459 13.201 64.387 13.1145 64.2519 13.0002C64.1169 12.8858 64.0088 12.746 63.9346 12.5898C63.8604 12.4335 63.8216 12.2644 63.8209 12.0932ZM66.5841 11.7465V11.4073L65.5344 11.4707C64.9424 11.5081 64.6739 11.6981 64.6739 12.0557C64.6739 12.4208 65.0095 12.6333 65.471 12.6333C65.6062 12.6462 65.7428 12.6334 65.8727 12.5954C66.0025 12.5575 66.1229 12.4953 66.2268 12.4126C66.3307 12.3299 66.4158 12.2283 66.4772 12.1138C66.5386 11.9994 66.575 11.8745 66.5841 11.7465ZM68.5438 11.2103C68.5438 9.92847 69.2421 9.11652 70.3282 9.11652C70.5968 9.10484 70.8635 9.16555 71.0969 9.29158C71.3303 9.41761 71.521 9.60374 71.6464 9.82821H71.7098V7.6001H72.5581V13.2402H71.7452V12.5993H71.6781C71.543 12.8222 71.3457 13.006 71.1078 13.1308C70.8699 13.2556 70.6003 13.3165 70.3283 13.3071C69.2346 13.3071 68.5438 12.495 68.5438 11.2102V11.2103ZM69.4202 11.2103C69.4202 12.0706 69.85 12.5885 70.5686 12.5885C71.2837 12.5885 71.7257 12.0633 71.7257 11.2137C71.7257 10.3684 71.2791 9.83569 70.5686 9.83569C69.8546 9.83569 69.4202 10.3569 69.4202 11.2103ZM76.0682 11.2103C76.0412 10.9437 76.0735 10.6748 76.163 10.4207C76.2526 10.1665 76.3975 9.93291 76.5884 9.73473C76.7792 9.53656 77.0119 9.37821 77.2714 9.26986C77.5309 9.16151 77.8116 9.10553 78.0954 9.10553C78.3792 9.10553 78.6598 9.16151 78.9193 9.26986C79.1789 9.37821 79.4115 9.53656 79.6024 9.73473C79.7933 9.93291 79.9381 10.1665 80.0277 10.4207C80.1173 10.6748 80.1496 10.9437 80.1226 11.2103C80.1502 11.4772 80.1183 11.7466 80.029 12.0012C79.9397 12.2558 79.7949 12.4899 79.604 12.6885C79.4131 12.8871 79.1802 13.0458 78.9204 13.1545C78.6606 13.2631 78.3795 13.3192 78.0954 13.3192C77.8112 13.3192 77.5302 13.2631 77.2703 13.1545C77.0105 13.0458 76.7777 12.8871 76.5868 12.6885C76.3958 12.4899 76.251 12.2558 76.1617 12.0012C76.0724 11.7466 76.0406 11.4772 76.0682 11.2103ZM79.25 11.2103C79.25 10.331 78.8314 9.81677 78.0968 9.81677C77.3593 9.81677 76.9445 10.331 76.9445 11.2103C76.9445 12.0967 77.3594 12.6069 78.0968 12.6069C78.8314 12.6069 79.25 12.0932 79.25 11.2103ZM81.2609 9.18382H82.0776V9.82821H82.141C82.2485 9.59674 82.4299 9.4027 82.6599 9.27315C82.8898 9.14359 83.1569 9.08496 83.4238 9.10544C83.633 9.09061 83.843 9.12037 84.0383 9.19253C84.2337 9.26469 84.4093 9.37739 84.5522 9.52229C84.6951 9.66718 84.8016 9.84056 84.8638 10.0296C84.9261 10.2186 84.9424 10.4184 84.9118 10.6142V13.2402H84.0634V10.8153C84.0634 10.1634 83.7631 9.8392 83.1357 9.8392C82.9937 9.83297 82.852 9.85578 82.7202 9.90608C82.5884 9.95638 82.4697 10.033 82.3722 10.1306C82.2747 10.2282 82.2007 10.3446 82.1553 10.4718C82.11 10.5989 82.0943 10.7338 82.1093 10.8672V13.2403H81.261L81.2609 9.18382ZM89.7055 8.17386V9.20229H90.6369V9.87658H89.7055V11.9624C89.7055 12.3874 89.891 12.5735 90.3133 12.5735C90.4214 12.5732 90.5294 12.567 90.6368 12.5549V13.2219C90.4844 13.2476 90.3301 13.2613 90.1753 13.2628C89.2319 13.2628 88.8562 12.9495 88.8562 12.1675V9.87658H88.1738V9.2022H88.8562V8.17395L89.7055 8.17386ZM91.7956 7.60019H92.6366V9.83569H92.7037C92.8165 9.60206 93.0028 9.40693 93.2374 9.27688C93.4719 9.14684 93.7433 9.0882 94.0144 9.10896C94.2225 9.09827 94.4305 9.13105 94.6236 9.20496C94.8168 9.27888 94.9902 9.3921 95.1316 9.53655C95.273 9.681 95.3789 9.85313 95.4417 10.0406C95.5045 10.2282 95.5226 10.4264 95.4949 10.6213V13.2403H94.6456V10.8188C94.6456 10.1708 94.3258 9.84271 93.7264 9.84271C93.5806 9.83144 93.4339 9.85036 93.2967 9.89815C93.1594 9.94595 93.0349 10.0215 92.9318 10.1194C92.8287 10.2174 92.7495 10.3354 92.6998 10.4653C92.6501 10.5951 92.6311 10.7336 92.644 10.8711V13.2403H91.7956V7.60019ZM100.442 12.145C100.326 12.5157 100.077 12.8364 99.7361 13.051C99.3956 13.2655 98.9859 13.3603 98.5789 13.3186C98.2957 13.3257 98.0142 13.2745 97.7541 13.1686C97.4939 13.0627 97.2613 12.9047 97.0724 12.7055C96.8834 12.5063 96.7427 12.2706 96.66 12.015C96.5772 11.7593 96.5544 11.4897 96.5931 11.2248C96.5554 10.9592 96.5786 10.689 96.6611 10.4325C96.7437 10.176 96.8837 9.93929 97.0716 9.73833C97.2596 9.53736 97.4911 9.37685 97.7505 9.26766C98.0099 9.15846 98.2911 9.10315 98.5752 9.10544C99.7712 9.10544 100.493 9.87659 100.493 11.1504V11.4298H97.4574V11.4746C97.4441 11.6235 97.4639 11.7733 97.5156 11.9145C97.5672 12.0558 97.6496 12.1852 97.7574 12.2946C97.8652 12.404 97.996 12.491 98.1415 12.5499C98.287 12.6088 98.4439 12.6384 98.6022 12.6367C98.8051 12.6597 99.0107 12.6253 99.1928 12.5377C99.3749 12.4501 99.5253 12.3134 99.6249 12.145H100.442ZM97.4574 10.8377H99.6286C99.6393 10.7016 99.6197 10.5648 99.571 10.4363C99.5224 10.3077 99.4458 10.1901 99.3461 10.0912C99.2465 9.99221 99.126 9.91401 98.9924 9.8616C98.8588 9.80919 98.7151 9.78373 98.5705 9.78686C98.4238 9.78512 98.2781 9.81111 98.1422 9.86331C98.0063 9.91551 97.8828 9.99286 97.7791 10.0908C97.6754 10.1887 97.5934 10.3053 97.5382 10.4336C97.4829 10.5618 97.4555 10.6993 97.4574 10.8377Z" fill="white"/>
</svg>
