<svg width="20" height="20" viewBox="0 0 20 20" fill="none" xmlns="http://www.w3.org/2000/svg">
<path fill-rule="evenodd" clip-rule="evenodd" d="M2.60059 3.20072C2.60059 2.86927 2.86927 2.60059 3.20072 2.60059H6.40143C6.6875 2.60059 6.9338 2.80251 6.98991 3.08302L7.79009 7.08391C7.82944 7.28067 7.76785 7.48408 7.62597 7.62597L5.33687 9.91506C5.80276 10.7654 6.36856 11.5212 7.02583 12.1784C7.6831 12.8357 8.43891 13.4015 9.28922 13.8674L11.5783 11.5783C11.7202 11.4364 11.9236 11.3748 12.1204 11.4142L16.1213 12.2144C16.4018 12.2705 16.6037 12.5168 16.6037 12.8028V12.8091V12.8154V12.8216V12.8279V12.8341V12.8404V12.8466V12.8529V12.8591V12.8654V12.8716V12.8779V12.8841V12.8904V12.8966V12.9029V12.9091V12.9154V12.9216V12.9279V12.9341V12.9404V12.9466V12.9529V12.9591V12.9654V12.9716V12.9779V12.9841V12.9904V12.9966V13.0029V13.0091V13.0154V13.0216V13.0279V13.0342V13.0404V13.0467V13.0529V13.0592V13.0654V13.0717V13.0779V13.0842V13.0904V13.0967V13.1029V13.1092V13.1154V13.1217V13.1279V13.1342V13.1404V13.1467V13.1529V13.1592V13.1654V13.1717V13.1779V13.1842V13.1904V13.1967V13.2029V13.2092V13.2154V13.2217V13.2279V13.2342V13.2404V13.2467V13.2529V13.2592V13.2655V13.2717V13.278V13.2842V13.2905V13.2967V13.303V13.3092V13.3155V13.3217V13.328V13.3342V13.3405V13.3467V13.353V13.3592V13.3655V13.3717V13.378V13.3842V13.3905V13.3967V13.403V13.4092V13.4155V13.4217V13.428V13.4342V13.4405V13.4467V13.453V13.4592V13.4655V13.4717V13.478V13.4843V13.4905V13.4968V13.503V13.5093V13.5155V13.5218V13.528V13.5343V13.5405V13.5468V13.553V13.5593V13.5655V13.5718V13.578V13.5843V13.5905V13.5968V13.603V13.6093V13.6155V13.6218V13.628V13.6343V13.6405V13.6468V13.653V13.6593V13.6655V13.6718V13.678V13.6843V13.6905V13.6968V13.703V13.7093V13.7156V13.7218V13.7281V13.7343V13.7406V13.7468V13.7531V13.7593V13.7656V13.7718V13.7781V13.7843V13.7906V13.7968V13.8031V13.8093V13.8156V13.8218V13.8281V13.8343V13.8406V13.8468V13.8531V13.8593V13.8656V13.8718V13.8781V13.8843V13.8906V13.8968V13.9031V13.9093V13.9156V13.9218V13.9281V13.9344V13.9406V13.9469V13.9531V13.9594V13.9656V13.9719V13.9781V13.9844V13.9906V13.9969V14.0031V14.0094V14.0156V14.0219V14.0281V14.0344V14.0406V14.0469V14.0531V14.0594V14.0656V14.0719V14.0781V14.0844V14.0906V14.0969V14.1031V14.1094V14.1156V14.1219V14.1281V14.1344V14.1406V14.1469V14.1531V14.1594V14.1657V14.1719V14.1782V14.1844V14.1907V14.1969V14.2032V14.2094V14.2157V14.2219V14.2282V14.2344V14.2407V14.2469V14.2532V14.2594V14.2657V14.2719V14.2782V14.2844V14.2907V14.2969V14.3032V14.3094V14.3157V14.3219V14.3282V14.3344V14.3407V14.3469V14.3532V14.3594V14.3657V14.3719V14.3782V14.3845V14.3907V14.397V14.4032V14.4095V14.4157V14.422V14.4282V14.4345V14.4407V14.447V14.4532V14.4595V14.4657V14.472V14.4782V14.4845V14.4907V14.497V14.5032V14.5095V14.5157V14.522V14.5282V14.5345V14.5407V14.547V14.5532V14.5595V14.5657V14.572V14.5782V14.5845V14.5907V14.597V14.6032V14.6095V14.6158V14.622V14.6283V14.6345V14.6408V14.647V14.6533V14.6595V14.6658V14.672V14.6783V14.6845V14.6908V14.697V14.7033V14.7095V14.7158V14.722V14.7283V14.7345V14.7408V14.747V14.7533V14.7595V14.7658V14.772V14.7783V14.7845V14.7908V14.797V14.8033V14.8095V14.8158V14.822V14.8283V14.8346V14.8408V14.8471V14.8533V14.8596V14.8658V14.8721V14.8783V14.8846V14.8908V14.8971V14.9033V14.9096V14.9158V14.9221V14.9283V14.9346V14.9408V14.9471V14.9533V14.9596V14.9658V14.9721V14.9783V14.9846V14.9908V14.9971V15.0033V15.0096V15.0158V15.0221V15.0283V15.0346V15.0408V15.0471V15.0533V15.0596V15.0659V15.0721V15.0784V15.0846V15.0909V15.0971V15.1034V15.1096V15.1159V15.1221V15.1284V15.1346V15.1409V15.1471V15.1534V15.1596V15.1659V15.1721V15.1784V15.1846V15.1909V15.1971V15.2034V15.2096V15.2159V15.2221V15.2284V15.2346V15.2409V15.2471V15.2534V15.2596V15.2659V15.2721V15.2784V15.2847V15.2909V15.2972V15.3034V15.3097V15.3159V15.3222V15.3284V15.3347V15.3409V15.3472V15.3534V15.3597V15.3659V15.3722V15.3784V15.3847V15.3909V15.3972V15.4034V15.4097V15.4159V15.4222V15.4284V15.4347V15.4409V15.4472V15.4534V15.4597V15.4659V15.4722V15.4784V15.4847V15.4909V15.4972V15.5034V15.5097V15.516V15.5222V15.5285V15.5347V15.541V15.5472V15.5535V15.5597V15.566V15.5722V15.5785V15.5847V15.591V15.5972V15.6035V15.6097V15.616V15.6222V15.6285V15.6347V15.641V15.6472V15.6535V15.6597V15.666V15.6722V15.6785V15.6847V15.691V15.6972V15.7035V15.7097V15.716V15.7222V15.7285V15.7348V15.741V15.7473V15.7535V15.7598V15.766V15.7723V15.7785V15.7848V15.791V15.7973V15.8035V15.8098V15.816V15.8223V15.8285V15.8348V15.841V15.8473V15.8535V15.8598V15.866V15.8723V15.8785V15.8848V15.891V15.8973V15.9035V15.9098V15.916V15.9223V15.9285V15.9348V15.941V15.9473V15.9535V15.9598V15.9661V15.9723V15.9786V15.9848V15.9911V15.9973V16.0036C16.6037 16.335 16.335 16.6037 16.0036 16.6037C11.8823 16.6037 8.51492 15.365 6.17712 13.0272C3.83931 10.6894 2.60059 7.32194 2.60059 3.20072ZM10.4407 14.4133C11.8786 14.9975 13.5378 15.3347 15.4034 15.394V15.3909V15.3847V15.3784V15.3722V15.3659V15.3597V15.3534V15.3472V15.3409V15.3347V15.3284V15.3222V15.3159V15.3097V15.3034V15.2972V15.2909V15.2847V15.2784V15.2721V15.2659V15.2596V15.2534V15.2471V15.2409V15.2346V15.2284V15.2221V15.2159V15.2096V15.2034V15.1971V15.1909V15.1846V15.1784V15.1721V15.1659V15.1596V15.1534V15.1471V15.1409V15.1346V15.1284V15.1221V15.1159V15.1096V15.1034V15.0971V15.0909V15.0846V15.0784V15.0721V15.0659V15.0596V15.0533V15.0471V15.0408V15.0346V15.0283V15.0221V15.0158V15.0096V15.0033V14.9971V14.9908V14.9846V14.9783V14.9721V14.9658V14.9596V14.9533V14.9471V14.9408V14.9346V14.9283V14.9221V14.9158V14.9096V14.9033V14.8971V14.8908V14.8846V14.8783V14.8721V14.8658V14.8596V14.8533V14.8471V14.8408V14.8346V14.8283V14.822V14.8158V14.8095V14.8033V14.797V14.7908V14.7845V14.7783V14.772V14.7658V14.7595V14.7533V14.747V14.7408V14.7345V14.7283V14.722V14.7158V14.7095V14.7033V14.697V14.6908V14.6845V14.6783V14.672V14.6658V14.6595V14.6533V14.647V14.6408V14.6345V14.6283V14.622V14.6158V14.6095V14.6032V14.597V14.5907V14.5845V14.5782V14.572V14.5657V14.5595V14.5532V14.547V14.5407V14.5345V14.5282V14.522V14.5157V14.5095V14.5032V14.497V14.4907V14.4845V14.4782V14.472V14.4657V14.4595V14.4532V14.447V14.4407V14.4345V14.4282V14.422V14.4157V14.4095V14.4032V14.397V14.3907V14.3845V14.3782V14.3719V14.3657V14.3594V14.3532V14.3469V14.3407V14.3344V14.3282V14.3219V14.3157V14.3094V14.3032V14.2969V14.2907V14.2844V14.2782V14.2719V14.2657V14.2594V14.2532V14.2469V14.2407V14.2344V14.2282V14.2219V14.2157V14.2094V14.2032V14.1969V14.1907V14.1844V14.1782V14.1719V14.1657V14.1594V14.1531V14.1469V14.1406V14.1344V14.1281V14.1219V14.1156V14.1094V14.1031V14.0969V14.0906V14.0844V14.0781V14.0719V14.0656V14.0594V14.0531V14.0469V14.0406V14.0344V14.0281V14.0219V14.0156V14.0094V14.0031V13.9969V13.9906V13.9844V13.9781V13.9719V13.9656V13.9594V13.9531V13.9469V13.9406V13.9344V13.9281V13.9218V13.9156V13.9093V13.9031V13.8968V13.8906V13.8843V13.8781V13.8718V13.8656V13.8593V13.8531V13.8468V13.8406V13.8343V13.8281V13.8218V13.8156V13.8093V13.8031V13.7968V13.7906V13.7843V13.7781V13.7718V13.7656V13.7593V13.7531V13.7468V13.7406V13.7343V13.7281V13.7218V13.7156V13.7093V13.703V13.6968V13.6905V13.6843V13.678V13.6718V13.6655V13.6593V13.653V13.6468V13.6405V13.6343V13.628V13.6218V13.6155V13.6093V13.603V13.5968V13.5905V13.5843V13.578V13.5718V13.5655V13.5593V13.553V13.5468V13.5405V13.5343V13.528V13.5218V13.5155V13.5093V13.503V13.4968V13.4905V13.4843V13.478V13.4717V13.4655V13.4592V13.453V13.4467V13.4405V13.4342V13.428V13.4217V13.4155V13.4092V13.403V13.3967V13.3905V13.3842V13.378V13.3717V13.3655V13.3592V13.353V13.3467V13.3405V13.3342V13.328V13.3217V13.3155V13.3092V13.303V13.2967V13.2948L12.1999 12.6541L10.4407 14.4133ZM4.79094 8.76356L6.55014 7.00436L5.90944 3.80085H3.81029C3.86956 5.66652 4.20678 7.32569 4.79094 8.76356Z" fill="#5D5D5D"/>
</svg>
