<svg width="20" height="20" viewBox="0 0 20 20" fill="none" xmlns="http://www.w3.org/2000/svg">
<path fill-rule="evenodd" clip-rule="evenodd" d="M10 3.10041C6.18934 3.10041 3.10017 6.18959 3.10017 10.0003C3.10017 13.811 6.18934 16.9001 10 16.9001C13.8107 16.9001 16.8999 13.811 16.8999 10.0003C16.8999 6.18959 13.8107 3.10041 10 3.10041ZM1.8999 10.0003C1.8999 5.5267 5.52646 1.90015 10 1.90015C14.4736 1.90015 18.1002 5.5267 18.1002 10.0003C18.1002 14.4739 14.4736 18.1004 10 18.1004C5.52646 18.1004 1.8999 14.4739 1.8999 10.0003ZM10.8334 13.3335C10.8334 13.7937 10.4603 14.1668 10 14.1668C9.5398 14.1668 9.1667 13.7937 9.1667 13.3335C9.1667 12.8733 9.5398 12.5002 10 12.5002C10.4603 12.5002 10.8334 12.8733 10.8334 13.3335ZM8.93349 8.3335C8.93349 7.74447 9.411 7.26696 10 7.26696C10.5891 7.26696 11.0666 7.74447 11.0666 8.3335V8.4346C11.0666 8.74427 10.9435 9.04126 10.7246 9.26024L9.57567 10.4091C9.3413 10.6435 9.3413 11.0235 9.57567 11.2579C9.81004 11.4922 10.19 11.4922 10.4244 11.2579L11.5733 10.109C12.0174 9.66489 12.2668 9.0626 12.2668 8.4346V8.3335C12.2668 7.08158 11.2519 6.0667 10 6.0667C8.74811 6.0667 7.73323 7.08158 7.73323 8.3335V8.75016C7.73323 9.08161 8.00192 9.3503 8.33336 9.3503C8.66481 9.3503 8.93349 9.08161 8.93349 8.75016V8.3335Z" fill="#494949"/>
</svg>
