<svg width="14" height="14" viewBox="0 0 14 14" fill="none" xmlns="http://www.w3.org/2000/svg">
<mask id="mask0_1403_48358" style="mask-type:alpha" maskUnits="userSpaceOnUse" x="1" y="1" width="12" height="12">
<path d="M3.87573 12.2474H1.63887V5.04568H3.87573V12.2474ZM2.75609 4.06329C2.04098 4.06329 1.46069 3.47097 1.46069 2.75585C1.46069 2.04073 2.04098 1.46045 2.75609 1.46045C3.47121 1.46045 4.0515 2.04073 4.0515 2.75585C4.0515 3.47097 3.47121 4.06329 2.75609 4.06329ZM12.2477 12.2474H10.0156V8.74166C10.0156 7.90615 9.99878 6.83468 8.85266 6.83468C7.68969 6.83468 7.51152 7.74242 7.51152 8.68147V12.2474H5.27707V5.04568H7.42243V6.02806H7.45373C7.7523 5.46223 8.48186 4.86509 9.57019 4.86509C11.8335 4.86509 12.2501 6.35552 12.2501 8.2914V12.2474H12.2477Z" fill="white"/>
</mask>
<g mask="url(#mask0_1403_48358)">
<path d="M14.2631 0.227539H-0.530518V15.0211H14.2631V0.227539Z" fill="#AEAEAE"/>
</g>
</svg>
