<svg width="20" height="20" viewBox="0 0 20 20" fill="none" xmlns="http://www.w3.org/2000/svg">
<path fill-rule="evenodd" clip-rule="evenodd" d="M6.72151 2.60059L6.69511 2.60059C5.8212 2.60058 5.12865 2.60058 4.57042 2.64619C3.99959 2.69283 3.51658 2.79013 3.07554 3.01485C2.36037 3.37925 1.77891 3.96071 1.41451 4.67588C1.18979 5.11692 1.09248 5.59993 1.04584 6.17076C1.00024 6.72898 1.00024 7.42154 1.00024 8.29545L1.00024 8.32185V10.8824L1.00024 10.9088C1.00024 11.7827 1.00024 12.4753 1.04584 13.0335C1.09248 13.6044 1.18979 14.0874 1.41451 14.5284C1.77891 15.2436 2.36037 15.825 3.07554 16.1894C3.51658 16.4141 3.99959 16.5115 4.57042 16.5581C5.12864 16.6037 5.82118 16.6037 6.69508 16.6037H6.72152H12.4828H12.5092C13.3831 16.6037 14.0757 16.6037 14.6339 16.5581C15.2047 16.5115 15.6877 16.4141 16.1288 16.1894C16.8439 15.825 17.4254 15.2436 17.7898 14.5284C18.0145 14.0874 18.1118 13.6044 18.1585 13.0335C18.2041 12.4753 18.2041 11.7827 18.2041 10.9088V10.9088V10.8824V8.32186V8.29552V8.29548C18.2041 7.42156 18.2041 6.72899 18.1585 6.17077C18.1118 5.59993 18.0145 5.11692 17.7898 4.67588C17.4254 3.96071 16.8439 3.37925 16.1288 3.01485C15.6877 2.79013 15.2047 2.69283 14.6339 2.64619C14.0757 2.60058 13.3831 2.60058 12.5092 2.60059L12.4828 2.60059H6.72151ZM3.62045 4.0843C3.86408 3.96016 4.17155 3.88304 4.66816 3.84247C5.17178 3.80132 5.81533 3.80085 6.72151 3.80085H12.4828C13.389 3.80085 14.0325 3.80132 14.5361 3.84247C15.0328 3.88304 15.3402 3.96016 15.5839 4.0843C16.0732 4.33362 16.471 4.73146 16.7203 5.22079C16.8445 5.46442 16.9216 5.77189 16.9622 6.26851C17.0033 6.77212 17.0038 7.41567 17.0038 8.32186V10.8824C17.0038 11.7886 17.0033 12.4322 16.9622 12.9358C16.9216 13.4324 16.8445 13.7399 16.7203 13.9835C16.471 14.4728 16.0732 14.8707 15.5839 15.12C15.3402 15.2441 15.0328 15.3212 14.5361 15.3618C14.0325 15.403 13.389 15.4034 12.4828 15.4034H6.72152C5.81533 15.4034 5.17178 15.403 4.66816 15.3618C4.17155 15.3212 3.86408 15.2441 3.62045 15.12C3.13112 14.8707 2.73328 14.4728 2.48396 13.9835C2.35982 13.7399 2.2827 13.4324 2.24212 12.9358C2.20098 12.4322 2.20051 11.7886 2.20051 10.8824V8.32185C2.20051 7.41567 2.20098 6.77212 2.24212 6.2685C2.2827 5.77189 2.35982 5.46442 2.48396 5.22079C2.73328 4.73146 3.13112 4.33362 3.62045 4.0843ZM5.13398 5.90209C4.8582 5.71824 4.4856 5.79276 4.30175 6.06854C4.11789 6.34431 4.19242 6.71692 4.46819 6.90077L9.26926 10.1015C9.47084 10.2359 9.73346 10.2359 9.93505 10.1015L14.7361 6.90077C15.0119 6.71692 15.0864 6.34431 14.9026 6.06854C14.7187 5.79276 14.3461 5.71824 14.0703 5.90209L9.60215 8.88087L5.13398 5.90209Z" fill="#494949"/>
</svg>
