<svg width="200" height="200" viewBox="0 0 200 200" fill="none" xmlns="http://www.w3.org/2000/svg">
<path d="M99.9997 186.256C141.889 186.256 175.848 183.496 175.848 180.092C175.848 176.688 141.889 173.928 99.9997 173.928C58.11 173.928 24.1517 176.688 24.1517 180.092C24.1517 183.496 58.11 186.256 99.9997 186.256Z" fill="#EBEBEB"/>
<path d="M15.6438 140.028L36.7318 139.932L57.8238 139.896L99.9998 139.828L142.176 139.896L163.268 139.928L184.356 140.028L163.268 140.124L142.176 140.16L99.9998 140.228L57.8238 140.16L36.7318 140.124L15.6438 140.028Z" fill="#263238"/>
<path d="M183.452 137.12H16.5436V140.028H183.452V137.12Z" fill="#C7C7C7"/>
<path d="M28.2475 137.12C28.5088 138.072 28.5088 139.076 28.2475 140.028C28.1069 139.557 28.0395 139.067 28.0475 138.576C28.0409 138.083 28.1083 137.592 28.2475 137.12Z" fill="#263238"/>
<path d="M41.2918 137.12C41.431 137.592 41.4984 138.083 41.4918 138.576C41.4999 139.067 41.4324 139.557 41.2918 140.028C41.0305 139.076 41.0305 138.072 41.2918 137.12Z" fill="#263238"/>
<path d="M54.3398 137.12C54.6011 138.072 54.6011 139.076 54.3398 140.028C54.1992 139.557 54.1317 139.067 54.1398 138.576C54.1332 138.083 54.2006 137.592 54.3398 137.12Z" fill="#263238"/>
<path d="M67.3841 137.12C67.5233 137.592 67.5907 138.083 67.5841 138.576C67.5921 139.067 67.5247 139.557 67.3841 140.028C67.1228 139.076 67.1228 138.072 67.3841 137.12Z" fill="#263238"/>
<path d="M80.4315 137.12C80.6928 138.072 80.6928 139.076 80.4315 140.028C80.2909 139.557 80.2234 139.067 80.2315 138.576C80.2249 138.083 80.2923 137.592 80.4315 137.12Z" fill="#263238"/>
<path d="M93.4758 137.12C93.6149 137.592 93.6824 138.083 93.6758 138.576C93.6838 139.067 93.6164 139.557 93.4758 140.028C93.2145 139.076 93.2145 138.072 93.4758 137.12Z" fill="#263238"/>
<path d="M106.524 137.12C106.785 138.072 106.785 139.076 106.524 140.028C106.383 139.557 106.316 139.067 106.324 138.576C106.317 138.083 106.385 137.592 106.524 137.12Z" fill="#263238"/>
<path d="M119.568 137.12C119.707 137.592 119.775 138.083 119.768 138.576C119.776 139.067 119.709 139.557 119.568 140.028C119.307 139.076 119.307 138.072 119.568 137.12Z" fill="#263238"/>
<path d="M132.616 137.12C132.877 138.072 132.877 139.076 132.616 140.028C132.475 139.557 132.408 139.067 132.416 138.576C132.409 138.083 132.476 137.592 132.616 137.12Z" fill="#263238"/>
<path d="M145.66 137.12C145.799 137.592 145.866 138.083 145.86 138.576C145.868 139.067 145.8 139.557 145.66 140.028C145.399 139.076 145.399 138.072 145.66 137.12Z" fill="#263238"/>
<path d="M158.708 137.12C158.969 138.072 158.969 139.076 158.708 140.028C158.567 139.557 158.5 139.067 158.508 138.576C158.501 138.083 158.569 137.592 158.708 137.12Z" fill="#263238"/>
<path d="M171.752 137.12C171.891 137.592 171.959 138.083 171.952 138.576C171.96 139.067 171.893 139.557 171.752 140.028C171.491 139.076 171.491 138.072 171.752 137.12Z" fill="#263238"/>
<path d="M35.3681 137.12C35.3681 137.12 35.0321 135.548 34.3601 135.308C33.6881 135.068 33.2761 135.772 33.2761 135.772C33.2761 135.772 33.1201 134.268 32.1641 133.82C31.2081 133.372 30.4961 134.292 30.4961 134.292C30.4961 134.292 29.7641 132.4 28.4561 132.4C27.1481 132.4 26.4921 135.2 26.4921 135.2C26.4921 135.2 25.7201 134.372 24.9281 134.84C24.1361 135.308 24.1281 137.148 24.1281 137.148L35.3681 137.12Z" fill="#37474F"/>
<path d="M146.904 137.12C146.904 137.12 146.568 135.548 145.896 135.308C145.224 135.068 144.816 135.772 144.816 135.772C144.816 135.772 144.656 134.268 143.704 133.82C142.752 133.372 142.036 134.292 142.036 134.292C142.036 134.292 141.304 132.4 140 132.4C138.696 132.4 138.032 135.2 138.032 135.2C138.032 135.2 137.264 134.372 136.472 134.84C135.68 135.308 135.672 137.148 135.672 137.148L146.904 137.12Z" fill="#455A64"/>
<path d="M65.0796 137.12H53.2596C53.2596 137.12 53.6596 135.456 54.4316 135.336C54.6711 135.313 54.912 135.364 55.1211 135.483C55.3303 135.601 55.4975 135.782 55.5996 136C55.5996 136 55.5636 133.676 57.0276 133.28C58.4916 132.884 59.7156 134.936 59.7156 134.936C59.7156 134.936 60.6356 133.764 61.8836 133.84C63.1316 133.916 63.4556 135.84 63.4556 135.84C63.4556 135.84 64.5756 135.172 65.0796 137.12Z" fill="#37474F"/>
<path d="M24.864 137.12H18.644C18.644 137.12 18.644 136.196 19.268 135.948C19.4343 135.876 19.6194 135.861 19.7954 135.903C19.9714 135.946 20.1289 136.044 20.244 136.184C20.244 136.184 20.492 134.48 21.632 134.48C22.772 134.48 23.32 135.948 23.32 135.948C23.4167 135.808 23.5524 135.699 23.7102 135.635C23.868 135.571 24.041 135.555 24.208 135.588C24.84 135.668 24.864 137.12 24.864 137.12Z" fill="#455A64"/>
<path d="M69.9603 137.12H63.7404C63.7404 137.12 63.7404 136.196 64.3644 135.948C64.5307 135.876 64.7157 135.861 64.8917 135.903C65.0677 135.946 65.2252 136.044 65.3404 136.184C65.3404 136.184 65.5924 134.48 66.7324 134.48C67.8724 134.48 68.4163 135.948 68.4163 135.948C68.513 135.808 68.6487 135.699 68.8065 135.635C68.9643 135.571 69.1373 135.555 69.3043 135.588C69.9363 135.668 69.9603 137.12 69.9603 137.12Z" fill="#455A64"/>
<path d="M172.28 137.12H166.06C166.06 137.12 166.06 136.196 166.684 135.948C166.851 135.876 167.036 135.861 167.212 135.903C167.388 135.946 167.545 136.044 167.66 136.184C167.66 136.184 167.908 134.48 169.048 134.48C170.188 134.48 170.736 135.948 170.736 135.948C170.833 135.808 170.968 135.698 171.126 135.634C171.284 135.57 171.457 135.554 171.624 135.588C172.256 135.668 172.28 137.12 172.28 137.12Z" fill="#455A64"/>
<path d="M181.356 137.12H171.1C171.1 137.12 171.124 135.592 172.132 135.188C172.406 135.073 172.71 135.049 172.999 135.122C173.287 135.194 173.544 135.357 173.732 135.588C173.732 135.588 174.132 132.788 176.024 132.788C177.916 132.788 178.8 135.2 178.8 135.2C178.959 134.969 179.183 134.789 179.443 134.683C179.703 134.577 179.989 134.55 180.264 134.604C181.316 134.728 181.356 137.12 181.356 137.12Z" fill="#37474F"/>
<path d="M135.14 19.34H128.3V23.216H135.14V19.34Z" fill="#263238"/>
<path d="M136.104 18.036H127.332V20.572H136.104V18.036Z" fill="#455A64"/>
<path d="M119.847 23.1709L117.983 25.0348L120.927 27.9792L122.791 26.1153L119.847 23.1709Z" fill="#263238"/>
<path d="M119.406 21.6302L116.445 24.5915L118.368 26.5149L121.329 23.5535L119.406 21.6302Z" fill="#455A64"/>
<path d="M140.649 26.1117L142.513 27.9757L145.458 25.0313L143.594 23.1673L140.649 26.1117Z" fill="#263238"/>
<path d="M142.103 23.5554L145.064 26.5167L146.987 24.5934L144.026 21.6321L142.103 23.5554Z" fill="#455A64"/>
<path d="M147.899 43.1474C149.996 34.2067 144.448 25.2588 135.508 23.1617C126.567 21.0647 117.619 26.6126 115.522 35.5534C113.425 44.4941 118.973 53.442 127.914 55.5391C136.854 57.6361 145.802 52.0882 147.899 43.1474Z" fill="#455A64"/>
<path d="M131.516 54.944C140.277 54.944 147.38 47.8414 147.38 39.08C147.38 30.3185 140.277 23.216 131.516 23.216C122.755 23.216 115.652 30.3185 115.652 39.08C115.652 47.8414 122.755 54.944 131.516 54.944Z" fill="#263238"/>
<path d="M145.579 41.3062C146.699 33.6491 141.399 26.5339 133.742 25.4142C126.085 24.2944 118.97 29.594 117.85 37.2511C116.73 44.9083 122.03 52.0234 129.687 53.1432C137.344 54.263 144.459 48.9634 145.579 41.3062Z" fill="white"/>
<path opacity="0.5" d="M145.732 39.2838H131.732V25.2838C135.445 25.2838 139.006 26.7588 141.631 29.3843C144.257 32.0098 145.732 35.5708 145.732 39.2838Z" fill="#3A8DFE"/>
<path d="M131.856 26.288H131.584V28.412H131.856V26.288Z" fill="#C7C7C7"/>
<path d="M125.336 27.9523L125.1 28.0883L126.162 29.9277L126.398 29.7917L125.336 27.9523Z" fill="#C7C7C7"/>
<path d="M120.527 32.6627L120.391 32.8982L122.231 33.9602L122.367 33.7247L120.527 32.6627Z" fill="#C7C7C7"/>
<path d="M120.848 39.148H118.724V39.42H120.848V39.148Z" fill="#C7C7C7"/>
<path d="M122.712 44.737L120.864 45.799L121 46.0356L122.848 44.9736L122.712 44.737Z" fill="#C7C7C7"/>
<path d="M126.164 48.6318L125.103 50.4718L125.338 50.6077L126.399 48.7677L126.164 48.6318Z" fill="#C7C7C7"/>
<path d="M131.856 50.1558H131.584V52.2798H131.856V50.1558Z" fill="#C7C7C7"/>
<path d="M137.27 48.6247L137.034 48.7607L138.096 50.6002L138.332 50.4642L137.27 48.6247Z" fill="#C7C7C7"/>
<path d="M141.2 44.5921L141.064 44.8276L142.903 45.8896L143.039 45.6541L141.2 44.5921Z" fill="#C7C7C7"/>
<path d="M144.716 39.148H142.592V39.42H144.716V39.148Z" fill="#C7C7C7"/>
<path d="M142.904 32.6607L141.064 33.7227L141.2 33.9583L143.04 32.8963L142.904 32.6607Z" fill="#C7C7C7"/>
<path d="M138.097 27.9578L137.035 29.7976L137.271 29.9336L138.332 28.0937L138.097 27.9578Z" fill="#C7C7C7"/>
<path d="M131.816 29.1439L132.44 40.1159L131.032 40.0959L131.436 29.1399L131.816 29.1439Z" fill="#3A8DFE"/>
<path d="M132.2 39.2838C132.2 39.3797 132.171 39.4735 132.118 39.5531C132.065 39.6328 131.989 39.6948 131.9 39.7314C131.811 39.7679 131.714 39.7772 131.62 39.7582C131.526 39.7392 131.44 39.6927 131.372 39.6246C131.305 39.5565 131.259 39.4699 131.241 39.3758C131.222 39.2816 131.233 39.1842 131.27 39.0958C131.307 39.0074 131.37 38.9321 131.45 38.8794C131.53 38.8267 131.624 38.799 131.72 38.7998C131.783 38.7998 131.846 38.8124 131.904 38.8367C131.963 38.8611 132.016 38.8968 132.061 38.9418C132.105 38.9868 132.141 39.0402 132.164 39.0989C132.188 39.1576 132.2 39.2205 132.2 39.2838Z" fill="#3A8DFE"/>
<path d="M141.876 39.448L130.904 40.068L130.924 38.66L141.88 39.064L141.876 39.448Z" fill="#263238"/>
<path d="M132.2 39.2838C132.2 39.3797 132.171 39.4735 132.118 39.5531C132.065 39.6328 131.989 39.6948 131.9 39.7314C131.811 39.7679 131.714 39.7772 131.62 39.7582C131.526 39.7392 131.44 39.6927 131.372 39.6246C131.305 39.5565 131.259 39.4699 131.241 39.3758C131.222 39.2816 131.233 39.1842 131.27 39.0958C131.307 39.0074 131.37 38.9321 131.45 38.8794C131.53 38.8267 131.624 38.799 131.72 38.7998C131.783 38.7998 131.846 38.8124 131.904 38.8367C131.963 38.8611 132.016 38.8968 132.061 38.9418C132.105 38.9868 132.141 39.0402 132.164 39.0989C132.188 39.1576 132.2 39.2205 132.2 39.2838Z" fill="#3A8DFE"/>
<path d="M74.748 69.4C76.808 77.26 79.492 82.392 81.292 84.168C85.604 88.424 94.892 89.368 100.116 91.536C101.816 92.244 106.516 81.46 104.776 80.516C103.492 79.816 88.58 77.928 87.312 77.54C86.66 77.34 81.712 70.896 78.912 67.272C74.4 61.464 73.62 65.108 74.748 69.4Z" fill="#F7A9A0"/>
<path d="M108.28 93.0479C107.48 93.0279 107.452 93.4479 108.568 94.3719C109.684 95.2959 114.88 97.9719 113.788 99.7119C112.696 101.452 105.42 97.5479 103.68 95.8759C101.94 94.2039 99.7042 90.8919 99.7042 90.8919C101.276 91.3679 105.2 92.1559 108.28 93.0479Z" fill="#F7A9A0"/>
<path d="M103.52 80.1759C111.264 81.3759 114.344 82.8919 117.736 86.8519C118.123 87.2797 118.357 87.8244 118.4 88.3999C119.952 90.1439 119.6 91.4039 119.6 91.4039C120.544 93.4719 120 94.7079 120 94.7079C120 94.7079 121.8 96.7759 120.728 98.0719C119.528 99.5279 117.24 96.3359 114.908 95.3519C109.56 93.0919 101.308 91.3799 99.7078 90.8839L103.52 80.1759Z" fill="#F7A9A0"/>
<path d="M110.952 89.0561C112.525 89.6966 114.053 90.445 115.524 91.2961C117.074 92.3256 118.545 93.4701 119.924 94.7201C119.933 94.7254 119.944 94.7275 119.955 94.7259C119.965 94.7243 119.975 94.7192 119.983 94.7113C119.99 94.7035 119.995 94.6933 119.995 94.6826C119.996 94.6718 119.994 94.6611 119.988 94.6521C117.561 91.9747 114.447 90.0143 110.984 88.9841C110.904 88.9601 110.872 89.0201 110.952 89.0561Z" fill="#263238"/>
<path d="M111.844 85.6279C113.328 86.3879 115.92 87.7439 119.548 91.4479C119.548 91.4479 119.584 91.4479 119.572 91.4479C117.603 88.8133 114.94 86.7788 111.88 85.5719C111.784 85.5159 111.748 85.5759 111.844 85.6279Z" fill="#263238"/>
<path d="M112.36 83.796C114.828 85.188 116.208 86.376 118.38 88.408C118.38 88.408 118.412 88.408 118.4 88.388C116.18 85.82 115.084 85.14 112.4 83.704C112.304 83.656 112.264 83.74 112.36 83.796Z" fill="#263238"/>
<path d="M83.532 72.964L76.4 79.648C76.4 79.648 73.52 69.28 73.54 66C73.54 62.3 75.444 63.116 77.94 65.6C80.436 68.084 83.532 72.964 83.532 72.964Z" fill="#3A8DFE"/>
<path opacity="0.1" d="M83.532 72.964L76.4 79.648C76.4 79.648 73.52 69.28 73.54 66C73.54 62.3 75.444 63.116 77.94 65.6C80.436 68.084 83.532 72.964 83.532 72.964Z" fill="black"/>
<path d="M82.0718 71.9081C81.0478 72.636 78.2838 75.252 77.8198 75.68C77.5758 75.908 76.6478 76.848 76.4037 77.072C76.3717 77.1 76.4038 77.144 76.4518 77.116C76.9198 76.692 77.4318 76.316 77.8998 75.888C78.3678 75.46 81.2798 72.904 82.1038 71.944C82.1238 71.924 82.0958 71.8921 82.0718 71.9081Z" fill="#263238"/>
<path d="M121.328 153.172C120.36 153.488 92.4883 152.372 91.4443 151.696C91.3163 151.62 90.8203 146.26 90.8203 146.26L94.0443 125.664L112.344 125.908L108.812 143.508C108.812 143.508 112.844 145.364 116.168 146.984C118.216 147.976 119.996 148.884 120.404 149.216C121.476 150.072 122.3 152.86 121.328 153.172Z" fill="#F7A9A0"/>
<path d="M121.332 153.172C120.364 153.488 92.484 152.372 91.444 151.7C91.32 151.62 90.816 146.26 90.816 146.26L91.812 139.916L109.368 140.716L108.8 143.492C108.8 143.492 112.828 145.348 116.156 146.964C118.204 147.956 119.984 148.864 120.392 149.196C121.472 150.076 122.296 152.864 121.332 153.172Z" fill="#EBEBEB"/>
<path d="M121.316 153.2C120.328 153.508 92.2724 152.856 91.2204 152.152C90.8204 151.892 90.6724 147.796 90.6404 142.844V142.692L108.748 142.912V143.216C108.748 143.216 119.376 148.272 120.452 149.168C121.528 150.064 122.304 152.904 121.316 153.2Z" fill="#C7C7C7"/>
<path d="M119.716 153.28C113.576 153.344 92.1164 152.768 91.2204 152.156C90.8204 151.896 90.6724 147.8 90.6404 142.848V142.696L101.98 142.832L119.716 153.28Z" fill="#A6A6A6"/>
<path d="M121.024 152.112C116.296 151.884 97.2082 151.416 92.5202 151.552C92.4802 151.552 92.4802 151.58 92.5202 151.584C97.2002 151.908 116.288 152.22 121.02 152.188C121.12 152.188 121.124 152.116 121.024 152.112Z" fill="#263238"/>
<path d="M110.252 143.312C108.4 142.912 106.116 143.152 104.652 144.448C104.596 144.496 104.652 144.576 104.728 144.556C106.52 144.024 108.364 143.686 110.228 143.548C110.257 143.547 110.284 143.535 110.305 143.515C110.326 143.495 110.339 143.469 110.342 143.44C110.345 143.412 110.337 143.383 110.321 143.36C110.304 143.336 110.28 143.319 110.252 143.312Z" fill="#263238"/>
<path d="M111.576 144.152C109.724 143.752 107.44 143.996 105.976 145.288C105.92 145.336 105.976 145.416 106.052 145.4C107.848 144.87 109.696 144.535 111.564 144.4C111.597 144.402 111.629 144.39 111.654 144.368C111.678 144.346 111.693 144.315 111.694 144.282C111.696 144.249 111.684 144.217 111.662 144.193C111.64 144.168 111.609 144.154 111.576 144.152Z" fill="#263238"/>
<path d="M112.9 144.992C111.048 144.592 108.764 144.836 107.3 146.128C107.244 146.18 107.3 146.256 107.376 146.24C109.168 145.707 111.012 145.368 112.876 145.228C112.905 145.227 112.932 145.215 112.953 145.195C112.974 145.175 112.987 145.149 112.989 145.12C112.992 145.092 112.985 145.063 112.969 145.04C112.952 145.016 112.928 144.999 112.9 144.992Z" fill="#263238"/>
<path d="M110.348 140.844L89.9203 139.916C89.9203 139.916 96.9803 111.248 96.2283 110.316C95.4283 109.316 65.8523 116.716 59.9403 109.38C53.8843 101.864 56.9203 91.044 56.9203 91.044H77.0923C77.0923 91.044 76.6923 93.752 76.9643 95.044C76.9643 95.044 105.364 90.7 111.54 93.972C112.74 94.616 117.14 98.232 117.212 101.66C117.6 116.8 110.348 140.844 110.348 140.844Z" fill="#455A64"/>
<path d="M110.552 137.144C108.128 136.84 105.7 136.656 103.264 136.472C100.828 136.288 98.392 136.144 95.956 136.052C94.58 135.996 93.204 136.008 91.828 135.96C91.8209 135.962 91.8148 135.967 91.8105 135.973C91.8062 135.979 91.8038 135.987 91.8038 135.994C91.8038 136.001 91.8062 136.009 91.8105 136.015C91.8148 136.021 91.8209 136.026 91.828 136.028C93.052 136.116 94.272 136.272 95.496 136.368L99.12 136.632C101.556 136.792 103.992 136.928 106.428 137.076C107.8 137.16 109.172 137.204 110.548 137.236C110.558 137.234 110.567 137.228 110.574 137.22C110.58 137.212 110.584 137.202 110.584 137.191C110.585 137.181 110.582 137.171 110.576 137.162C110.57 137.154 110.562 137.147 110.552 137.144Z" fill="#263238"/>
<path d="M99.3758 108.28C95.4518 108.408 91.5478 108.748 87.6438 109.132C83.7398 109.516 79.8118 109.932 75.8758 110.188C73.9238 110.312 71.9638 110.392 70.0038 110.404C68.3758 110.474 66.7464 110.304 65.1678 109.9C63.6005 109.442 62.2609 108.415 61.4118 107.02C60.5582 105.607 59.999 104.035 59.7678 102.4C59.2518 99.0921 59.7678 95.7121 60.3718 92.4481C60.4478 92.0481 60.5238 91.6481 60.5958 91.2161C60.5958 91.1801 60.5438 91.1641 60.5318 91.2161C59.7318 94.5081 58.9838 97.8961 59.2238 101.296C59.3219 102.964 59.7288 104.6 60.4238 106.12C61.0507 107.597 62.1288 108.837 63.5038 109.664C64.9078 110.464 66.5678 110.7 68.1798 110.78C70.0598 110.876 71.9638 110.78 73.8438 110.696C77.8678 110.5 81.8758 110.084 85.8758 109.668C89.8758 109.252 93.8558 108.844 97.8758 108.644C98.3198 108.62 98.7638 108.604 99.2078 108.588C98.5998 112.188 93.4518 133.62 93.1638 135.316C93.1358 135.484 93.2958 135.536 93.3398 135.364C94.2198 132.024 99.2158 110.564 99.5478 108.468C99.5531 108.444 99.5525 108.418 99.546 108.394C99.5395 108.37 99.5273 108.348 99.5105 108.33C99.4936 108.311 99.4726 108.297 99.4492 108.288C99.4257 108.28 99.4006 108.277 99.3758 108.28Z" fill="#263238"/>
<path d="M115.124 154.008H71.4683V158.836H115.124V154.008Z" fill="#3A8DFE"/>
<path d="M33.104 111.652H35.58L51.58 129.956H49.104L33.104 111.652Z" fill="#A6A6A6"/>
<path d="M64.288 110.2H29.88V111.648H64.288V110.2Z" fill="#A6A6A6"/>
<path d="M42.4401 111.652H44.9161L60.9161 129.956H58.4401L42.4401 111.652Z" fill="#A6A6A6"/>
<path d="M58.3597 145.396C70.7917 145.396 77.9957 154.032 77.9957 164.196C77.9957 174.36 71.3237 182.8 59.1997 182.8C45.7837 182.8 39.3757 172.128 39.3757 164.104C39.3757 156.08 45.7757 145.396 58.3597 145.396Z" fill="#37474F"/>
<path d="M56.4478 145.396C68.2678 145.396 75.1118 154.032 75.1118 164.196C75.1118 174.36 68.7718 182.8 57.2398 182.8C44.4838 182.8 38.3998 172.112 38.3998 164.088C38.3998 156.064 44.4838 145.396 56.4478 145.396Z" fill="#263238"/>
<path d="M56.5683 152.696C63.7683 152.696 67.9403 157.96 67.9403 164.152C67.9403 170.344 64.0763 175.484 57.0523 175.484C49.2763 175.484 45.5643 168.98 45.5643 164.088C45.5643 159.196 49.2763 152.696 56.5683 152.696Z" fill="#C7C7C7"/>
<path d="M93.552 122.608V120.972L51.716 122.32V126C51.716 126 39.6 139.38 38.376 153.288L80.328 154.176L87.068 154.008H95.344V145.6C95.344 145.6 89.088 141.04 90.184 131.724C90.548 128.632 93.552 122.608 93.552 122.608Z" fill="#3A8DFE"/>
<path d="M76.4203 152.228C75.9843 153.028 69.6203 154.176 57.5563 154.5C46.6963 154.792 38.5843 154.552 37.9563 153.852C37.3283 153.152 38.9283 140.772 46.2803 134.068C53.6323 127.364 64.0403 126.4 70.9043 130.4C76.9403 133.908 81.4443 142.824 76.4203 152.228Z" fill="#3A8DFE"/>
<path opacity="0.1" d="M78.4678 140.508C77.8228 137.576 76.3351 134.897 74.1878 132.8C72.0351 130.643 69.3471 129.098 66.3998 128.324C63.1122 127.503 59.6689 127.541 56.3998 128.432C54.7637 128.861 53.1816 129.474 51.6838 130.26C50.1024 131.11 48.6119 132.119 47.2358 133.272C46.8678 133.576 46.4958 133.88 46.1318 134.192C46.0998 134.216 46.1318 134.26 46.1798 134.236C47.5644 133.018 49.0633 131.937 50.6558 131.008C52.1089 130.178 53.6505 129.514 55.2518 129.028C58.4264 128.035 61.7978 127.845 65.0638 128.476C68.0155 129.069 70.7512 130.452 72.9798 132.476C75.1272 134.409 76.7065 136.892 77.5478 139.656C78.5478 143.024 78.2198 146.732 77.2238 150.056C77.0918 150.504 76.9478 150.944 76.7998 151.384C76.7998 151.432 76.8558 151.448 76.8718 151.404C78.2158 147.952 79.2198 144.232 78.4678 140.508Z" fill="black"/>
<path d="M49.3879 155.776C42.1039 155.776 38.2479 155.552 36.2919 154.776L37.1999 152.492C39.4879 153.4 46.6519 153.384 58.1799 153.252C66.6959 153.152 72.9799 152.348 76.8999 150.852L77.7759 153.148C73.5359 154.748 67.1359 155.596 58.2079 155.7C54.8199 155.748 51.8999 155.776 49.3879 155.776Z" fill="#DBDBDB"/>
<path d="M94.2401 122.048C94.2401 122.048 94.5201 112.896 94.2401 112.536C93.9601 112.176 51.6081 111.412 50.3401 111.524C49.0721 111.636 48.9441 122.324 49.0401 122.824C49.1361 123.324 93.1361 122.144 94.2401 122.048Z" fill="#37474F"/>
<path d="M98.208 112.72C98.084 112.576 92.716 112.424 92.42 112.416C92.124 112.408 92.02 122.164 92.18 122.156C92.34 122.148 98.012 122.228 98.2 122.02C98.388 121.812 98.476 113.032 98.208 112.72Z" fill="#455A64"/>
<path d="M68.5444 111.532C68.3926 111.69 68.2934 111.891 68.2604 112.108C68.2101 112.336 68.174 112.567 68.1524 112.8C68.1004 113.264 68.0724 113.736 68.0484 114.204C68.0084 115.148 67.9844 116.096 67.9684 117.048C67.9524 118 67.9284 118.944 67.9684 119.884C67.9719 120.349 68.004 120.814 68.0644 121.276C68.0884 121.499 68.1408 121.718 68.2204 121.928C68.2496 122.022 68.3013 122.108 68.371 122.177C68.4407 122.247 68.5263 122.299 68.6204 122.328C68.5148 122.325 68.4123 122.292 68.3251 122.232C68.2379 122.172 68.1696 122.089 68.1284 121.992C68.0164 121.783 67.9292 121.561 67.8684 121.332C67.7552 120.863 67.6816 120.385 67.6484 119.904C67.5745 118.946 67.5505 117.985 67.5764 117.024C67.6004 116.068 67.6404 115.108 67.7484 114.152C67.8003 113.674 67.8764 113.198 67.9764 112.728C68.0322 112.495 68.1003 112.266 68.1804 112.04C68.2444 111.844 68.3564 111.6 68.5444 111.532Z" fill="#455A64"/>
<path d="M31.4723 110.18H71.4683V85.3161H31.4723V110.18Z" fill="#37474F"/>
<path d="M31.4723 110.18H60.3683V85.3161H31.4723L31.4723 110.18Z" fill="#263238"/>
<path d="M47.476 85.312H44.368V110.176H47.476V85.312Z" fill="#3A8DFE"/>
<path d="M60.3719 83.0121H30.6599V85.3121H60.3719V83.0121Z" fill="#37474F"/>
<path d="M72.3643 83.0121H60.3683V85.3121H72.3643V83.0121Z" fill="#263238"/>
<path d="M47.7364 83.0121H44.1044V85.3121H47.7364V83.0121Z" fill="#3A8DFE"/>
<path d="M35.7077 83.116H64.9037V64.964H35.7077V83.116Z" fill="#37474F"/>
<path d="M35.7083 83.116H56.8003V64.964H35.7083V83.116Z" fill="#263238"/>
<path d="M47.388 64.968H45.12V83.12H47.388V64.968Z" fill="#3A8DFE"/>
<path d="M56.8003 63.288H35.1123V64.968H56.8003V63.288Z" fill="#37474F"/>
<path d="M65.5563 63.288H56.8003V64.968H65.5563V63.288Z" fill="#263238"/>
<path d="M47.58 63.288H44.928V64.968H47.58V63.288Z" fill="#3A8DFE"/>
<path d="M149.672 145.244C162.108 145.244 169.308 153.88 169.308 164.044C169.308 174.208 162.636 182.636 150.508 182.636C137.088 182.636 130.68 171.964 130.68 163.944C130.68 155.924 137.088 145.244 149.672 145.244Z" fill="#37474F"/>
<path d="M147.76 145.244C159.58 145.244 166.428 153.88 166.428 164.044C166.428 174.208 160.084 182.636 148.556 182.636C135.8 182.636 129.708 171.964 129.708 163.944C129.708 155.924 135.8 145.244 147.76 145.244Z" fill="#263238"/>
<path d="M147.88 152.544C155.08 152.544 159.256 157.808 159.256 164C159.256 170.192 155.392 175.332 148.364 175.332C140.592 175.332 136.88 168.828 136.88 163.94C136.88 159.052 140.592 152.544 147.88 152.544Z" fill="#C7C7C7"/>
<path d="M129.556 102.784H124.664L121.312 97.864H127.044L129.556 102.784Z" fill="#3A8DFE"/>
<path d="M121.312 97.864L123.276 100.744L124.664 102.784H129.556L128.232 100.192L127.04 97.864H121.312Z" fill="#3A8DFE"/>
<path opacity="0.1" d="M121.312 97.864L123.276 100.744L128.232 100.192L127.04 97.864H121.312Z" fill="black"/>
<path d="M141.444 139.5L136.68 140.596L132.312 136.548L137.896 135.268L141.444 139.5Z" fill="#3A8DFE"/>
<path d="M132.312 136.548L134.868 138.92L136.676 140.596L141.448 139.5L139.576 137.272L137.896 135.268L132.312 136.548Z" fill="#3A8DFE"/>
<path opacity="0.1" d="M132.312 136.548L134.868 138.92L139.576 137.272L137.896 135.268L132.312 136.548Z" fill="black"/>
<path d="M168.228 147.644L163.6 150.076C163.6 150.076 150.196 147.644 141.6 149.484C133.004 151.324 130.684 155.916 130.684 155.916H126.34C126.34 155.916 130.068 142.672 136.392 137.864C142.716 133.056 152.88 134.132 158.5 137.16C164.12 140.188 168.228 147.644 168.228 147.644Z" fill="#3A8DFE"/>
<path opacity="0.1" d="M163.112 149.16C162.215 148.224 161.244 147.362 160.208 146.584C159.181 145.786 158.095 145.066 156.96 144.432C154.759 143.209 152.345 142.416 149.848 142.096C144.96 141.496 139.848 142.92 136.248 146.676C134.224 148.804 132.784 151.416 131.416 154.052C131.396 154.092 131.452 154.124 131.472 154.084C132.631 151.766 134.095 149.614 135.824 147.684C137.49 145.865 139.564 144.466 141.876 143.604C146.488 141.912 151.476 142.56 155.908 144.604C157.177 145.179 158.402 145.848 159.572 146.604C160.769 147.41 161.924 148.276 163.032 149.2C163.039 149.206 163.048 149.211 163.058 149.212C163.067 149.213 163.077 149.212 163.086 149.207C163.094 149.203 163.101 149.196 163.106 149.188C163.111 149.179 163.113 149.17 163.112 149.16Z" fill="black"/>
<path d="M112.252 100.136C112.18 100.304 102.52 102.08 102.52 102.08C102.52 102.08 100.92 101 101.908 99.6319L111.6 97.5399C111.973 97.8455 112.237 98.2628 112.355 98.7302C112.472 99.1977 112.436 99.6904 112.252 100.136Z" fill="#263238"/>
<path d="M132.528 87.648V99.108C132.528 99.108 126.34 98.568 124.692 98.512C123.044 98.456 115.72 99.404 115.72 99.404L115.152 96.836C115.152 96.836 120.8 94.864 123.2 93.324C125.6 91.784 128.364 88.84 129.848 88.188C130.688 87.8042 131.605 87.6194 132.528 87.648Z" fill="#3A8DFE"/>
<path d="M115.744 96.512C116.112 96.8904 116.39 97.3471 116.556 97.8479C116.722 98.3488 116.773 98.8808 116.704 99.404C116.704 99.404 112.092 100.248 112.036 100.248C112.074 99.7054 111.943 99.1643 111.66 98.6999C111.377 98.2354 110.956 97.8706 110.456 97.656L115.744 96.512Z" fill="#DBDBDB"/>
<path d="M132.588 99.1082C134.263 99.1082 135.62 96.5437 135.62 93.3802C135.62 90.2167 134.263 87.6522 132.588 87.6522C130.914 87.6522 129.556 90.2167 129.556 93.3802C129.556 96.5437 130.914 99.1082 132.588 99.1082Z" fill="#DBDBDB"/>
<path d="M132.776 98.492C134.21 98.492 135.372 96.2033 135.372 93.38C135.372 90.5567 134.21 88.268 132.776 88.268C131.342 88.268 130.18 90.5567 130.18 93.38C130.18 96.2033 131.342 98.492 132.776 98.492Z" fill="white"/>
<path d="M133.564 102.8C134.572 104.276 138.608 124.348 139.4 125.356C140.192 126.364 141.708 126.436 141.708 126.436L144.376 133.068C144.376 133.068 137.748 135.16 134.068 138.184C129.312 142.092 124.916 155.048 124.916 155.048C124.196 155.552 115.26 159.228 112.808 159.372C112.808 159.372 124.204 146.86 125.132 129.544C125.492 122.836 121.364 113.388 121.096 108.708C120.8 103.684 122.32 102.8 124.988 102.8H133.564Z" fill="#3A8DFE"/>
<path d="M112.26 160.8L110.476 159.112C120.476 148.528 124.164 131.852 123.872 127.3C123.72 124.968 122.972 122.36 122.176 119.596C121.328 116.648 120.368 113.308 119.96 109.68C119.58 106.312 119.96 104.136 121.108 102.836C122.256 101.536 123.832 101.54 124.88 101.544H134.4V104H124.876C123.96 104 123.336 104.032 122.94 104.476C122.544 104.92 122.028 106.076 122.404 109.408C122.804 112.828 123.68 115.924 124.54 118.916C125.372 121.812 126.14 124.544 126.324 127.14C126.636 132 122.8 149.692 112.26 160.8Z" fill="#DBDBDB"/>
<path d="M139.448 130.832C140.008 132.896 141.772 134.208 143.388 133.768C145.004 133.328 145.864 131.3 145.3 129.24C144.736 127.18 142.972 125.86 141.356 126.3C139.74 126.74 138.884 128.772 139.448 130.832Z" fill="#DBDBDB"/>
<path d="M140.048 130.668C140.548 132.508 142.076 133.692 143.46 133.316C144.844 132.94 145.556 131.144 145.06 129.316C144.564 127.488 143.032 126.292 141.652 126.668C140.272 127.044 139.548 128.828 140.048 130.668Z" fill="white"/>
<path opacity="0.1" d="M132.372 130.5C131.928 128.424 131.448 126.356 131.032 124.276C130.616 122.196 130.232 120.112 129.908 118.02C129.592 116.072 129.252 114.104 129.128 112.132C129.004 110.072 129.128 107.992 130.128 106.132C130.13 106.128 130.132 106.124 130.132 106.12C130.133 106.116 130.133 106.112 130.131 106.108C130.13 106.103 130.128 106.1 130.126 106.096C130.123 106.093 130.12 106.09 130.116 106.088C130.113 106.086 130.109 106.085 130.104 106.084C130.1 106.083 130.096 106.084 130.092 106.085C130.088 106.086 130.084 106.088 130.081 106.09C130.077 106.093 130.074 106.096 130.072 106.1C129.044 107.6 128.708 109.404 128.652 111.192C128.658 113.163 128.832 115.13 129.172 117.072C129.756 121.335 130.557 125.566 131.572 129.748C132.152 132.112 132.9 134.436 133.7 136.732C133.7 136.739 133.703 136.747 133.709 136.752C133.714 136.757 133.721 136.76 133.728 136.76C133.736 136.76 133.743 136.757 133.748 136.752C133.753 136.747 133.756 136.739 133.756 136.732C133.279 134.644 132.818 132.567 132.372 130.5Z" fill="black"/>
<path opacity="0.1" d="M95.3441 145.6V154H88.176V147.64C88.176 147.64 84.176 145.62 83.376 138.272C82.656 131.616 87.968 122.732 88.9761 121.12L93.5401 120.972V122.608C93.5401 122.608 90.536 128.632 90.172 131.724C89.088 141.04 95.3441 145.6 95.3441 145.6Z" fill="black"/>
<path d="M113.372 155.964C112.404 156.276 84.528 155.164 83.484 154.488C83.36 154.412 82.864 149.048 82.864 149.048L86.088 128.452L104.388 128.696L100.856 146.296C100.856 146.296 104.884 148.148 108.212 149.768C110.26 150.764 112.04 151.672 112.448 152C113.516 152.864 114.34 155.652 113.372 155.964Z" fill="#F7A9A0"/>
<path d="M113.376 155.964C112.404 156.276 84.528 155.164 83.488 154.488C83.36 154.412 82.86 149.052 82.86 149.052L83.856 142.704L101.412 143.504L100.856 146.272C100.856 146.272 104.884 148.128 108.212 149.744C110.256 150.74 112.04 151.648 112.448 151.976C113.516 152.868 114.34 155.652 113.376 155.964Z" fill="#EBEBEB"/>
<path d="M113.356 156C112.372 156.308 84.312 155.652 83.26 154.948C82.86 154.688 82.716 150.596 82.684 145.644V145.488L100.788 145.708V146.016C100.788 146.016 111.416 151.068 112.492 151.964C113.568 152.86 114.344 155.692 113.356 156Z" fill="#C7C7C7"/>
<path d="M113.064 154.9C108.34 154.676 89.2521 154.208 84.5641 154.344C84.5241 154.344 84.5241 154.372 84.5641 154.372C89.2441 154.7 108.332 155.012 113.064 154.98C113.164 154.976 113.164 154.904 113.064 154.9Z" fill="#263238"/>
<path d="M102.296 146.1C100.444 145.7 98.1597 145.944 96.6957 147.236C96.6357 147.288 96.6957 147.364 96.7717 147.348C98.5636 146.815 100.407 146.476 102.272 146.336C102.3 146.335 102.328 146.323 102.348 146.303C102.369 146.283 102.382 146.257 102.385 146.228C102.388 146.2 102.38 146.171 102.364 146.148C102.348 146.124 102.323 146.107 102.296 146.1Z" fill="#263238"/>
<path d="M103.62 146.944C101.768 146.544 99.484 146.784 98.02 148.076C97.964 148.128 98.02 148.208 98.096 148.188C99.8892 147.655 101.734 147.315 103.6 147.176C103.615 147.177 103.631 147.175 103.645 147.171C103.66 147.166 103.673 147.159 103.685 147.149C103.697 147.139 103.706 147.127 103.713 147.114C103.72 147.1 103.725 147.085 103.726 147.07C103.727 147.055 103.726 147.039 103.721 147.025C103.716 147.01 103.709 146.997 103.699 146.985C103.689 146.973 103.677 146.964 103.664 146.957C103.65 146.949 103.635 146.945 103.62 146.944Z" fill="#263238"/>
<path d="M104.944 147.784C103.092 147.384 100.808 147.624 99.344 148.92C99.288 148.968 99.344 149.048 99.42 149.028C101.212 148.498 103.056 148.16 104.92 148.02C104.949 148.019 104.976 148.007 104.997 147.987C105.017 147.967 105.03 147.941 105.033 147.912C105.036 147.884 105.029 147.855 105.012 147.832C104.996 147.808 104.972 147.791 104.944 147.784Z" fill="#263238"/>
<path d="M102.4 143.636L81.9721 142.704C81.9721 142.704 89.0361 114.036 88.2841 113.104C87.4841 112.1 60.5481 119.504 54.6321 112.168C48.5761 104.652 54.6321 92.0722 54.6321 92.0722H75.3401C75.3401 92.0722 75.3401 94.3762 73.9321 97.8242C73.9321 97.8242 97.4121 93.4762 103.6 96.7482C104.82 97.3962 109.2 101.012 109.272 104.44C109.632 119.6 102.4 143.636 102.4 143.636Z" fill="#455A64"/>
<path d="M102.596 139.936C100.172 139.632 97.7398 139.444 95.3038 139.264C92.8678 139.084 90.4358 138.936 87.9958 138.84C86.6238 138.788 85.2478 138.8 83.8718 138.748C83.8623 138.748 83.8531 138.752 83.8464 138.759C83.8396 138.765 83.8358 138.774 83.8358 138.784C83.8358 138.794 83.8396 138.803 83.8464 138.809C83.8531 138.816 83.8623 138.82 83.8718 138.82C85.0958 138.908 86.3158 139.06 87.5398 139.156C88.7638 139.252 89.9398 139.34 91.1638 139.42C93.5958 139.584 96.0318 139.716 98.4678 139.868C99.8438 139.952 101.216 139.996 102.592 140.028C102.602 140.025 102.611 140.02 102.617 140.012C102.624 140.004 102.628 139.994 102.628 139.983C102.629 139.973 102.626 139.963 102.62 139.954C102.614 139.946 102.606 139.939 102.596 139.936Z" fill="#263238"/>
<path d="M63.2918 93.804C63.2647 93.8883 63.2298 93.97 63.1878 94.048C63.1832 94.0536 63.1807 94.0607 63.1807 94.068C63.1807 94.0752 63.1832 94.0823 63.1878 94.088C62.9478 94.836 62.8478 95.628 62.6158 96.38C62.3954 97.1782 61.9066 97.8761 61.2318 98.356C59.8158 99.34 58.1158 99.784 56.4678 100.192C56.4579 100.195 56.4492 100.201 56.443 100.209C56.4368 100.218 56.4335 100.228 56.4335 100.238C56.4335 100.248 56.4368 100.258 56.443 100.267C56.4492 100.275 56.4579 100.281 56.4678 100.284C57.4178 100.289 58.3627 100.145 59.2678 99.856C60.1182 99.6206 60.92 99.2359 61.6358 98.72C62.3081 98.2112 62.7876 97.489 62.9958 96.672C63.0964 96.2375 63.1752 95.7983 63.2318 95.356C63.3243 94.8474 63.3792 94.3326 63.3958 93.816C63.3899 93.8081 63.3825 93.8015 63.374 93.7967C63.3655 93.7918 63.3561 93.7887 63.3463 93.7876C63.3366 93.7864 63.3267 93.7873 63.3174 93.7901C63.308 93.793 63.2993 93.7977 63.2918 93.804Z" fill="#263238"/>
<path d="M77.2637 96.7999C76.1373 97.1249 75.0401 97.5437 73.9837 98.0519L73.9317 98.0759C73.9534 98.0108 73.9694 97.9439 73.9797 97.8759C73.9797 97.7959 74.0037 97.7199 74.0197 97.6399C74.0357 97.5599 74.0197 97.4759 74.0437 97.3919V97.2639C74.1798 97.2551 74.3126 97.2183 74.4338 97.1556C74.5549 97.093 74.6618 97.0059 74.7477 96.8999C74.9686 96.593 75.1176 96.2403 75.1837 95.8679C75.3077 95.4039 75.4237 94.9319 75.5237 94.4599C75.6237 93.9879 75.7317 93.4079 75.8157 92.8599C75.9173 92.3415 75.9775 91.8159 75.9957 91.2879C75.9957 91.2688 75.9881 91.2505 75.9746 91.237C75.9611 91.2235 75.9428 91.2159 75.9237 91.2159C75.9046 91.2159 75.8863 91.2235 75.8728 91.237C75.8593 91.2505 75.8517 91.2688 75.8517 91.2879C75.7277 91.7719 75.6717 92.2719 75.5797 92.7599C75.4877 93.2479 75.3837 93.7399 75.2717 94.2279C75.1597 94.7159 75.0397 95.2039 74.9037 95.6839C74.7677 96.1639 74.6637 96.7359 74.1677 96.8839C73.1437 97.1759 73.6037 94.8839 73.6477 94.4279C73.7517 93.3879 73.8157 92.3239 73.9997 91.2919C73.9997 91.2519 73.9397 91.2319 73.9317 91.2919C73.7077 92.2399 73.4557 93.1719 73.2877 94.1319C73.2037 94.6039 73.1437 95.0799 73.0917 95.5519C73.0086 95.9609 73.0419 96.3849 73.1877 96.7759C73.2511 96.908 73.3459 97.0226 73.4637 97.1097C73.5815 97.1969 73.7188 97.2539 73.8637 97.2759L73.8317 97.3839C73.8077 97.4599 73.7837 97.5359 73.7637 97.6119C73.7437 97.6879 73.7277 97.7679 73.7117 97.8439C73.6765 97.9342 73.6641 98.0318 73.6757 98.1279C73.6846 98.1549 73.7031 98.1777 73.7277 98.1919C73.2917 98.3799 72.8517 98.5679 72.4197 98.7719C71.8766 98.9853 71.351 99.2407 70.8477 99.5359C70.7877 99.5639 70.8477 99.6439 70.8917 99.6319C71.4548 99.4739 72.0057 99.2747 72.5397 99.0359C73.0877 98.8279 73.6277 98.6039 74.1717 98.3759C75.2493 97.9803 76.2916 97.4946 77.2877 96.9239C77.3041 96.9208 77.3186 96.9112 77.328 96.8973C77.3374 96.8834 77.3409 96.8664 77.3377 96.8499C77.3345 96.8335 77.3249 96.819 77.311 96.8096C77.2972 96.8002 77.2801 96.7968 77.2637 96.7999Z" fill="#263238"/>
<path d="M108.664 101.836C107.956 99.7529 106.522 97.994 104.624 96.88C102.676 95.804 100.404 95.516 98.2243 95.448C95.6883 95.372 93.1363 95.504 90.6043 95.664C87.9083 95.832 85.2123 96.088 82.5323 96.464C79.8523 96.84 77.2203 97.3 74.5843 97.868C73.9523 98.004 73.3243 98.172 72.6963 98.348C72.6483 98.348 72.6563 98.452 72.6963 98.444C75.3163 98.076 77.9243 97.644 80.5443 97.284C83.1643 96.924 85.8123 96.64 88.4603 96.44C91.1083 96.24 93.7283 96.128 96.3643 96.088C98.5243 96.056 100.764 96.088 102.816 96.784C103.831 97.1082 104.771 97.6318 105.58 98.324C106.376 99.0351 107.027 99.8919 107.5 100.848C108.58 102.972 108.68 105.408 108.788 107.76C109.1 114.74 104.08 136.92 103.188 140.484C103.186 140.515 103.195 140.546 103.213 140.571C103.231 140.596 103.257 140.614 103.287 140.622C103.318 140.629 103.349 140.626 103.377 140.613C103.405 140.599 103.428 140.576 103.44 140.548C104.444 136.524 109.44 115.572 109.44 109.276C109.444 106.764 109.536 104.204 108.664 101.836Z" fill="#263238"/>
<path d="M91.2837 110.688C87.6237 110.816 83.9837 111.156 80.3437 111.54C76.7037 111.924 73.0357 112.34 69.3717 112.596C67.5477 112.72 65.7197 112.8 63.8917 112.812C62.3719 112.883 60.8503 112.713 59.3837 112.308C57.8942 111.827 56.6422 110.799 55.8797 109.432C55.0794 107.999 54.5595 106.427 54.3477 104.8C53.8677 101.492 54.3477 98.112 54.9117 94.848C54.9837 94.448 55.0517 94.048 55.1237 93.62C55.1237 93.58 55.0717 93.564 55.0637 93.62C54.2997 96.912 53.6157 100.3 53.8637 103.7C53.9546 105.362 54.3321 106.995 54.9797 108.528C55.5442 109.979 56.5485 111.217 57.8517 112.068C59.1938 112.786 60.6897 113.169 62.2117 113.184C63.9733 113.25 65.7371 113.222 67.4957 113.1C71.2477 112.904 74.9837 112.488 78.7157 112.072C82.4477 111.656 86.1557 111.248 89.8917 111.048C90.2917 111.028 90.7197 111.008 91.1317 110.996C90.5677 114.576 85.7677 136.024 85.4997 137.72C85.4717 137.888 85.6237 137.94 85.6637 137.772C86.4637 134.428 91.1437 112.972 91.4517 110.872C91.4571 110.848 91.4566 110.823 91.4503 110.8C91.444 110.776 91.4321 110.754 91.4157 110.736C91.3992 110.718 91.3786 110.704 91.3556 110.696C91.3326 110.688 91.308 110.685 91.2837 110.688Z" fill="#263238"/>
<path d="M53.444 94.628C53.5 94.708 80.864 96.812 81.152 96.556C81.552 96.192 78.844 68.156 76.4 64.044C75.876 63.168 73.872 62.708 72.116 62.724C71.6588 62.7218 71.2023 62.7606 70.752 62.84H70.708C70.3445 62.9018 69.9942 63.0249 69.672 63.204C64.416 66.484 58.808 79.436 57.396 83.356C55.056 89.82 53.24 94.34 53.444 94.628Z" fill="#3A8DFE"/>
<path d="M75.14 67.62C73.78 67.62 71.484 65.424 71.028 63.364C70.996 63.22 71.56 61.992 72.168 60.464C72.536 59.532 72.924 58.492 73.208 57.516C73.264 57.312 78.9 60.784 78.9 60.784C78.1959 61.9043 77.6317 63.1065 77.22 64.364C77.183 64.4948 77.1575 64.6287 77.144 64.764C77.1456 64.7866 77.1456 64.8094 77.144 64.832C77.036 65.644 76.592 67.64 75.14 67.62Z" fill="#F7A9A0"/>
<path d="M77.1438 64.776C77.1454 64.7986 77.1454 64.8213 77.1438 64.844C76.9281 64.8125 76.7153 64.763 76.5078 64.696C72.9078 63.568 73.2838 58.776 73.4358 57.58C74.4798 58.052 78.9118 60.78 78.9118 60.78C78.2084 61.9011 77.6429 63.1032 77.2278 64.36C77.189 64.4962 77.1609 64.6353 77.1438 64.776Z" fill="#263238"/>
<path d="M73.7082 50.0199C72.7202 52.1719 73.0242 58.8199 74.4202 60.4679C76.4482 62.8679 80.2082 63.5919 82.3642 61.0559C84.4522 58.5959 83.9042 49.9519 82.3042 48.3959C79.9402 46.1079 75.1722 46.8479 73.7082 50.0199Z" fill="#F7A9A0"/>
<path d="M79.5 54.756C79.5 54.756 79.468 54.78 79.468 54.8C79.5 55.244 79.468 55.764 79.068 55.928C79.068 55.928 79.068 55.956 79.068 55.952C79.56 55.864 79.6 55.176 79.5 54.756Z" fill="#263238"/>
<path d="M79.0798 54.3079C78.3598 54.2799 78.3638 55.7278 79.0318 55.7518C79.6998 55.7758 79.6878 54.3279 79.0798 54.3079Z" fill="#263238"/>
<path d="M82.0923 54.8282C82.0923 54.8282 82.1283 54.8482 82.1243 54.8682C82.1243 55.3122 82.1723 55.8282 82.5763 55.9762C82.5763 55.9762 82.5763 56.0042 82.5763 56.0002C82.0803 55.9322 82.0003 55.2482 82.0923 54.8282Z" fill="#263238"/>
<path d="M82.4922 54.36C83.2082 54.304 83.2682 55.748 82.6002 55.796C81.9322 55.844 81.8882 54.4 82.4922 54.36Z" fill="#263238"/>
<path d="M78.5119 53.6481C78.7007 53.5916 78.8863 53.5248 79.0679 53.4481C79.2748 53.4082 79.4623 53.2997 79.5999 53.1401C79.6339 53.0815 79.6477 53.0132 79.639 52.9459C79.6304 52.8787 79.5997 52.8162 79.5519 52.7681C79.4429 52.6884 79.3146 52.6393 79.1802 52.6259C79.0459 52.6125 78.9104 52.6354 78.7879 52.6921C78.5212 52.7671 78.2927 52.9399 78.1479 53.1761C78.1187 53.2317 78.1061 53.2944 78.1116 53.3569C78.117 53.4194 78.1403 53.4791 78.1786 53.5287C78.2169 53.5784 78.2687 53.6161 78.3278 53.6372C78.3868 53.6584 78.4507 53.6621 78.5119 53.6481Z" fill="#263238"/>
<path d="M83.0479 53.6279C82.8531 53.5904 82.6607 53.5409 82.4719 53.4799C82.2624 53.4588 82.0664 53.3671 81.9159 53.2199C81.8753 53.1664 81.8534 53.1011 81.8534 53.0339C81.8534 52.9668 81.8753 52.9014 81.9159 52.8479C82.0175 52.7584 82.1412 52.6978 82.2742 52.6725C82.4072 52.6472 82.5445 52.658 82.6719 52.7039C82.9437 52.7551 83.1863 52.9064 83.3519 53.1279C83.3855 53.1791 83.4039 53.2388 83.4049 53.3001C83.406 53.3613 83.3896 53.4216 83.3578 53.4739C83.326 53.5263 83.28 53.5685 83.2251 53.5958C83.1703 53.623 83.1088 53.6342 83.0479 53.6279Z" fill="#263238"/>
<path d="M79.0921 58.912C79.2001 59.016 79.3081 59.16 79.4921 59.176C79.6584 59.1711 79.8219 59.1316 79.9721 59.06C79.9721 59.06 80.0001 59.06 79.9921 59.084C79.9282 59.1721 79.8417 59.2413 79.7417 59.2842C79.6417 59.3272 79.532 59.3423 79.4241 59.328C79.332 59.3046 79.2491 59.2538 79.1863 59.1825C79.1235 59.1111 79.0837 59.0224 79.0721 58.928C79.0441 58.908 79.0761 58.896 79.0921 58.912Z" fill="#263238"/>
<path d="M80.9243 58.0961C80.7362 58.344 80.4867 58.5384 80.2003 58.6601C80.0434 58.721 79.8717 58.7321 79.7083 58.6921C79.3523 58.6001 79.3403 58.2921 79.4043 57.9881C79.4424 57.8402 79.4961 57.6967 79.5643 57.5601C79.9486 57.8796 80.4253 58.0675 80.9243 58.0961Z" fill="#263238"/>
<path d="M80.2003 58.66C80.0434 58.7209 79.8717 58.7321 79.7083 58.692C79.3523 58.6 79.3403 58.292 79.4043 57.988C79.5932 57.9941 79.7746 58.0638 79.919 58.1857C80.0635 58.3077 80.1626 58.4748 80.2003 58.66Z" fill="#FF9BBC"/>
<path d="M83.26 50.592C83.016 50.024 82.732 49.452 82.388 49.336C82.044 49.22 81.824 50.06 81.044 50.112C79.996 50.184 79.488 49.22 78.02 49.116C75.908 48.972 74.98 50.716 74.932 53.724C74.888 56.396 73.272 56.648 73.272 56.648C73.272 56.648 72.292 50.756 73.952 48.804C75.612 46.852 79.424 46.004 81.984 47.852C82.916 48.528 83.26 50.592 83.26 50.592Z" fill="#263238"/>
<path d="M74.62 55.6C74.62 55.6 73.392 53.332 72.38 53.744C71.368 54.156 72.12 57.344 73.18 57.876C73.3128 57.9558 73.4604 58.0079 73.6139 58.0291C73.7674 58.0504 73.9236 58.0403 74.0731 57.9996C74.2226 57.9588 74.3623 57.8882 74.4838 57.7921C74.6053 57.6959 74.7061 57.5761 74.78 57.44L74.62 55.6Z" fill="#F7A9A0"/>
<path d="M72.62 54.644V54.672C73.368 55.072 73.696 55.872 73.9 56.644C73.8635 56.5602 73.8092 56.4853 73.741 56.4245C73.6727 56.3637 73.5921 56.3184 73.5046 56.2918C73.4171 56.2652 73.3249 56.2578 73.2344 56.2703C73.1438 56.2828 73.057 56.3147 72.98 56.364C72.956 56.364 72.98 56.412 72.98 56.408C73.1231 56.3806 73.2711 56.3977 73.4042 56.4571C73.5372 56.5164 73.6488 56.6152 73.724 56.74C73.8452 56.952 73.9444 57.1758 74.02 57.408C74.048 57.48 74.18 57.46 74.16 57.376V57.356C74.296 56.356 73.68 54.868 72.62 54.644Z" fill="#263238"/>
<path d="M83.008 48.836C82.388 48.688 78.952 48.792 77.408 49.456C75.864 50.12 73.12 52.34 72.98 52.456C72.84 52.572 72.132 46.908 76.728 45.876C81.732 44.748 83.008 48.836 83.008 48.836Z" fill="#3A8DFE"/>
<path d="M73.2443 52.2241C73.2443 52.2241 76.2803 48.2241 77.9683 47.3041C79.6563 46.3841 83.4363 45.8721 85.7763 46.9041C87.5963 47.7041 83.1483 50.0481 83.1483 50.0481C83.1062 49.8562 83.0199 49.6767 82.8963 49.524C82.7727 49.3712 82.6152 49.2494 82.4363 49.1681C81.3003 48.7161 79.1403 49.0641 77.9083 49.4761C76.3563 50.0001 73.2443 52.2241 73.2443 52.2241Z" fill="#3A8DFE"/>
<path opacity="0.2" d="M73.2443 52.244C73.2443 52.244 76.2803 48.2201 77.9683 47.3041C79.6563 46.3881 83.4363 45.8721 85.7763 46.9041C87.5963 47.7041 83.1483 50.0481 83.1483 50.0481C83.1062 49.8561 83.0199 49.6767 82.8963 49.5239C82.7727 49.3711 82.6152 49.2493 82.4363 49.1681C81.3003 48.7161 79.1403 49.0641 77.9083 49.4761C76.3563 50.0001 73.2443 52.244 73.2443 52.244Z" fill="black"/>
<path d="M67.9399 70.6842C67.6839 78.5722 70.5959 93.3442 72.7399 94.3482C79.6599 97.5802 91.3038 97.7842 95.2918 97.8202C97.0118 97.8202 99.6518 85.5882 97.9478 84.9002C96.8158 84.4442 79.7439 84.4402 79.4439 83.8322C79.1439 83.2242 75.0759 74.4402 73.3199 69.5762C70.9879 63.1082 68.0879 66.0522 67.9399 70.6842Z" fill="#F7A9A0"/>
<path d="M96.1159 84.7361C96.1159 84.7361 101.344 85.0561 104.748 85.4241C106.652 85.6281 109.88 86.2721 111.204 87.0601C113.204 88.2601 120.74 94.4521 119.276 96.3161C117.948 98.0001 112.14 91.8441 112.14 91.8441C112.14 91.8441 118.54 97.5361 116.58 99.2761C114.62 101.016 108.98 93.1801 108.98 93.1801C108.98 93.1801 115.436 99.1801 113.12 100.652C111.372 101.76 105.864 94.9561 105.864 94.9561C105.864 94.9561 111.38 100.156 109.628 101.356C107.692 102.704 102.216 96.7401 102.216 96.7401C97.2439 99.0921 93.9159 98.1761 91.6239 97.2441C91.0599 97.0361 96.1159 84.7361 96.1159 84.7361Z" fill="#F7A9A0"/>
<path d="M110.048 89.7318C110.824 90.3718 111.616 91.0158 112.332 91.7318C113.048 92.4478 113.744 93.1758 114.392 93.9478C115.259 94.9408 116.011 96.0292 116.632 97.1918C115.38 95.1918 112.852 92.6318 112.132 91.9238C111.412 91.2158 110.736 90.4718 110.02 89.7639C110 89.7399 110.028 89.7158 110.048 89.7318Z" fill="#263238"/>
<path d="M107.444 92.2761C108.4 93.1361 109.38 93.9601 110.3 94.8641C111.22 95.7681 112.004 96.7001 112.856 97.6641C112.92 97.7361 112.856 97.7481 112.788 97.6641C111.9 96.7401 111.008 95.9521 110.112 95.0361C109.216 94.1201 108.348 93.1681 107.42 92.2881C107.404 92.2841 107.428 92.2641 107.444 92.2761Z" fill="#263238"/>
<path d="M104.8 94.056C106.3 95.3427 107.663 96.781 108.868 98.348C108.928 98.424 108.848 98.432 108.78 98.348C107.456 96.896 106.428 95.748 104.756 94.104C104.744 94.084 104.8 94.032 104.8 94.056Z" fill="#263238"/>
<path d="M110.544 86.428C109.301 85.8971 107.982 85.5663 106.636 85.448C103.732 85.092 100.812 84.86 97.892 84.648C94.972 84.436 92.008 84.248 89.064 84.14C87.408 84.076 85.752 84.0267 84.096 83.992C82.44 83.96 82.096 84.02 80.432 84.04C80.388 84.04 80.392 84.1 80.432 84.104C83.332 84.256 84.932 84.376 87.832 84.528C90.732 84.68 93.624 84.852 96.516 85.052C99.408 85.252 102.252 85.452 105.108 85.772C106.489 85.8657 107.859 86.0867 109.2 86.432C110.514 86.9145 111.732 87.6239 112.8 88.528C114.024 89.492 118.612 93.904 119.032 94.476C119.084 94.544 119.104 94.524 119.076 94.436C118.744 93.24 113.228 87.68 110.544 86.428Z" fill="#263238"/>
<path d="M76.2003 75.7759L67.6923 80.5999C67.6923 80.5999 67.3323 69.8479 68.1203 66.6559C69.0083 63.0559 70.6483 64.3039 72.4963 67.2959C74.3443 70.2879 76.2003 75.7759 76.2003 75.7759Z" fill="#3A8DFE"/>
<path opacity="0.1" d="M76.2003 75.7759L67.6923 80.5999C67.6923 80.5999 67.3323 69.8479 68.1203 66.6559C69.0083 63.0559 70.6483 64.3039 72.4963 67.2959C74.3443 70.2879 76.2003 75.7759 76.2003 75.7759Z" fill="black"/>
<path d="M75.028 74.4C73.864 74.868 70.56 76.764 70.012 77.072C69.724 77.232 68.596 77.932 68.308 78.092C68.272 78.112 68.308 78.164 68.344 78.144C68.9 77.84 69.484 77.592 70.044 77.292C70.604 76.992 74.044 75.184 75.052 74.44C75.0558 74.4362 75.0583 74.4313 75.059 74.4259C75.0596 74.4206 75.0585 74.4152 75.0557 74.4106C75.053 74.406 75.0487 74.4024 75.0437 74.4005C75.0387 74.3986 75.0331 74.3984 75.028 74.4Z" fill="#263238"/>
<path d="M74.8597 71.7959C74.7277 71.2959 74.5917 70.7999 74.4397 70.3039C74.5237 70.6719 74.6197 71.0399 74.7157 71.4079C74.4077 70.7119 74.0917 70.0239 73.7477 69.3559H73.7277C74.0997 70.4399 74.5277 71.5039 74.9277 72.5799C75.3277 73.6559 75.7277 74.6839 76.1277 75.7359C75.9477 75.8759 75.7717 76.0119 75.5877 76.1359C75.5802 76.1407 75.575 76.1482 75.5731 76.1569C75.5713 76.1655 75.5729 76.1745 75.5777 76.1819C75.5824 76.1894 75.59 76.1946 75.5986 76.1965C75.6072 76.1983 75.6162 76.1967 75.6237 76.1919C75.8437 76.0799 76.0637 75.9679 76.2917 75.8679C76.318 75.858 76.3397 75.8384 76.3523 75.8132C76.3649 75.788 76.3675 75.759 76.3597 75.7319C75.9117 74.4239 75.4157 73.0959 74.8597 71.7959Z" fill="#263238"/>
<g opacity="0.5">
<path opacity="0.5" d="M169.848 67.0361C169.848 67.4073 169.738 67.7702 169.531 68.0788C169.325 68.3873 169.032 68.6278 168.689 68.7697C168.346 68.9115 167.968 68.9485 167.604 68.8757C167.24 68.803 166.906 68.624 166.644 68.3612C166.382 68.0984 166.203 67.7638 166.131 67.3996C166.059 67.0355 166.097 66.6581 166.24 66.3154C166.382 65.9727 166.623 65.68 166.932 65.4743C167.242 65.2687 167.605 65.1593 167.976 65.1601C168.222 65.1601 168.466 65.2087 168.693 65.303C168.921 65.3973 169.127 65.5356 169.301 65.7098C169.475 65.8841 169.613 66.0909 169.706 66.3185C169.8 66.5461 169.848 66.7899 169.848 67.0361Z" fill="#3A8DFE"/>
<path opacity="0.5" d="M167.976 70.2161C167.341 70.22 166.72 70.0352 166.19 69.6851C165.661 69.335 165.248 68.8355 165.003 68.2499C164.759 67.6644 164.694 67.0193 164.816 66.3968C164.939 65.7742 165.244 65.2021 165.693 64.7534C166.142 64.3047 166.714 63.9995 167.336 63.8767C167.959 63.7538 168.604 63.8189 169.19 64.0636C169.775 64.3082 170.275 64.7215 170.625 65.2508C170.975 65.7801 171.16 66.4015 171.156 67.0361C171.151 67.8779 170.814 68.6837 170.219 69.2789C169.623 69.8741 168.818 70.2108 167.976 70.2161ZM167.976 64.2561C167.427 64.2561 166.89 64.4187 166.433 64.7232C165.977 65.0278 165.62 65.4608 165.409 65.9677C165.198 66.4745 165.142 67.0324 165.248 67.5711C165.354 68.1098 165.616 68.6052 166.003 68.9948C166.39 69.3844 166.883 69.6507 167.421 69.7602C167.959 69.8697 168.518 69.8175 169.026 69.6102C169.534 69.4028 169.97 69.0496 170.278 68.5951C170.585 68.1406 170.752 67.6051 170.756 67.0561C170.758 66.6893 170.688 66.3257 170.55 65.9861C170.411 65.6465 170.207 65.3377 169.949 65.0774C169.69 64.8171 169.383 64.6106 169.044 64.4696C168.706 64.3286 168.343 64.2561 167.976 64.2561Z" fill="#3A8DFE"/>
<path opacity="0.5" d="M55.1359 49.0961C55.1367 49.4673 55.0274 49.8304 54.8217 50.1395C54.616 50.4485 54.3233 50.6896 53.9806 50.8322C53.6379 50.9748 53.2606 51.0125 52.8964 50.9406C52.5322 50.8686 52.1976 50.6903 51.9348 50.4281C51.672 50.1659 51.493 49.8316 51.4203 49.4676C51.3475 49.1036 51.3845 48.7262 51.5263 48.3831C51.6682 48.0401 51.9087 47.7469 52.2172 47.5406C52.5258 47.3342 52.8887 47.2241 53.2599 47.2241C53.7568 47.2241 54.2333 47.4212 54.585 47.7722C54.9367 48.1231 55.1349 48.5993 55.1359 49.0961Z" fill="#3A8DFE"/>
<path opacity="0.5" d="M53.2598 52.2803C52.6261 52.2842 52.0054 52.0999 51.4766 51.7507C50.9477 51.4015 50.5344 50.9031 50.2892 50.3188C50.0439 49.7344 49.9777 49.0904 50.0989 48.4683C50.2201 47.8463 50.5232 47.2742 50.97 46.8247C51.4167 46.3751 51.9868 46.0684 52.6081 45.9433C53.2294 45.8182 53.8738 45.8804 54.4597 46.122C55.0456 46.3636 55.5466 46.7737 55.8991 47.3004C56.2516 47.827 56.4398 48.4465 56.4398 49.0803C56.4398 49.9255 56.1054 50.7364 55.5096 51.336C54.9138 51.9355 54.105 52.275 53.2598 52.2803ZM53.2598 46.3162C52.7043 46.3123 52.1602 46.4737 51.6967 46.7798C51.2332 47.0859 50.8712 47.523 50.6568 48.0355C50.4424 48.5479 50.3853 49.1125 50.4927 49.6575C50.6001 50.2025 50.8672 50.7033 51.26 51.0961C51.6528 51.4889 52.1535 51.756 52.6985 51.8634C53.2435 51.9708 53.8081 51.9136 54.3206 51.6992C54.833 51.4848 55.2701 51.1228 55.5762 50.6593C55.8824 50.1958 56.0437 49.6517 56.0398 49.0963C56.0346 48.3606 55.74 47.6565 55.2198 47.1363C54.6995 46.6161 53.9955 46.3215 53.2598 46.3162Z" fill="#3A8DFE"/>
<path opacity="0.5" d="M124.04 76.9401H99.7996V39.4681H67.8116V49.2961H56.2396V48.8961H67.4116V39.0681H100.2V76.5401H123.64V66.1601H151.076V56.0521H168.176V64.0561H167.776V56.4521H151.476V66.5601H124.04V76.9401Z" fill="#3A8DFE"/>
</g>
<path d="M59.9198 29.5998C59.5878 26.2718 57.2918 22.9558 53.2598 22.9558C49.2278 22.9558 46.9358 26.2878 46.6038 29.5998C46.0958 34.7398 49.5598 39.3958 53.2598 43.6438C56.9598 39.4118 60.4278 34.7558 59.9198 29.5998ZM53.2598 33.2958C52.5381 33.2958 51.8327 33.0818 51.2327 32.6808C50.6327 32.2797 50.1651 31.7098 49.8891 31.0429C49.6131 30.3761 49.5411 29.6424 49.6822 28.9347C49.8233 28.2269 50.1711 27.5769 50.6817 27.0669C51.1923 26.5569 51.8427 26.2098 52.5506 26.0694C53.2585 25.9291 53.9921 26.002 54.6586 26.2787C55.3251 26.5554 55.8946 27.0236 56.295 27.624C56.6953 28.2245 56.9086 28.9302 56.9078 29.6518C56.9099 30.1321 56.8171 30.608 56.6347 31.0522C56.4522 31.4964 56.1838 31.9002 55.8448 32.2403C55.5058 32.5804 55.1029 32.8502 54.6593 33.0341C54.2156 33.218 53.74 33.3124 53.2598 33.3118V33.2958Z" fill="#3A8DFE"/>
</svg>
