<svg width="200" height="200" viewBox="0 0 200 200" fill="none" xmlns="http://www.w3.org/2000/svg">
<path d="M115.484 123.52C115.364 123.52 115.244 123.52 115.12 123.52C115.241 123.504 115.363 123.504 115.484 123.52V123.52Z" fill="#EBEBEB"/>
<path d="M98.6557 35.752V177.736H97.5596L86.4636 177.716H86.3957L64.9757 177.68H64.5037L57.6637 177.672L56.3757 177.668H56.3037L37.7157 177.636L34.8877 177.624L34.4117 177.62L25.1277 177.576V35.752H98.6557Z" fill="#EBEBEB"/>
<path d="M56.34 45.468L50.916 45.412H45.496L34.648 45.376H34.248V45.776L34.312 63.068V63.392H34.632L45.556 63.256L56.324 63.068L45.404 62.88L34.952 62.748V63.068L34.632 62.744H34.952L35.02 46.156H34.62L35.02 45.756V46.156L45.48 46.12L50.9 46.096L56.052 46.044V45.772L56.328 46.04H56.056L56.104 50.04L56.168 54.336L56.328 63.052L56.484 54.468L56.548 50.124L56.6 45.76V45.488L56.34 45.468Z" fill="#DBDBDB"/>
<path d="M86.6559 50.1079L86.7079 45.7439V45.4719H86.4279L81.0079 45.4159H75.5798L64.7358 45.3799H64.3358V45.7799L64.4038 63.0719V63.3959H64.7198L75.6439 63.2599L86.4119 63.0719L75.4879 62.8839L65.0438 62.7519V63.0719L64.7198 62.7479H65.0438L65.1078 46.1599H64.7078L65.1078 45.7599V46.1599L75.5639 46.1239L80.9918 46.0999L86.1439 46.0479V45.7759L86.4158 46.0439H86.1479L86.1919 50.0439L86.2599 54.3399L86.4158 63.0559L86.5718 54.4719L86.6399 50.1279" fill="#DBDBDB"/>
<path d="M56.34 72.3679L34.648 72.3239H34.248V72.7239L34.292 97.5599C34.292 101.699 34.3094 105.839 34.344 109.98L34.432 122.4V122.616H34.644L45.536 122.516L56.336 122.404L45.444 122.288L34.86 122.192V122.4L34.644 122.184H34.86L34.932 109.972C34.9587 105.831 34.976 101.691 34.984 97.5519L35.032 73.1039H34.632L35.032 72.7039V73.1039L55.992 73.0639V72.7159L56.336 73.0639H56C56 77.0639 56 81.0639 56.04 85.0639L56.128 97.4639L56.344 122.396L56.556 97.6479L56.648 85.1919C56.684 81.0399 56.676 76.8759 56.688 72.7159V72.3719L56.34 72.3679Z" fill="#DBDBDB"/>
<path d="M86.4321 72.3679L64.7401 72.3239H64.3401V72.7239L64.3921 97.5599C64.3921 101.7 64.4161 105.84 64.4401 109.98L64.5161 122.404V122.62H64.7281L75.6201 122.52L86.4201 122.408L75.5281 122.292L64.9441 122.196V122.4L64.7281 122.184H64.9441L65.0161 109.972C65.0481 105.831 65.0655 101.691 65.0681 97.5519L65.1161 73.1039H64.7161L65.1161 72.7039V73.1039L86.0721 73.0639V72.7159L86.4201 73.0639H86.0721C86.0721 77.0639 86.0721 81.0639 86.1161 85.0639L86.2041 97.4639L86.4201 122.396L86.6361 97.6479L86.7201 85.1919C86.7601 81.0399 86.7521 76.8759 86.7641 72.7159V72.3719L86.4321 72.3679Z" fill="#DBDBDB"/>
<path d="M56.3401 131.72L34.648 131.68H34.248V132.08L34.292 156.92C34.292 161.061 34.3094 165.201 34.344 169.34L34.4 177.464V177.62H34.876V177.456L34.92 169.324C34.9467 165.185 34.964 161.045 34.972 156.904L35.02 132.452H34.62L35.02 132.052V132.452L56 132.4V132.056L56.344 132.4H56C56 136.4 56.0001 140.4 56.0401 144.4L56.1281 156.8L56.304 177.396V177.648H56.376V177.396L56.548 156.976L56.6401 144.524C56.6761 140.368 56.668 136.208 56.68 132.048V131.7L56.3401 131.72Z" fill="#DBDBDB"/>
<path d="M86.4321 131.72L64.7401 131.68H64.3401V132.08L64.3921 156.92C64.3921 161.06 64.4161 165.2 64.4401 169.34L64.4881 177.416V177.692H64.9601V177.416L65.0081 169.34C65.0401 165.201 65.0575 161.061 65.0601 156.92L65.1081 132.468H64.7081L65.1081 132.068V132.468L86.0641 132.424V132.08L86.4121 132.424H86.0641C86.0641 136.424 86.0641 140.424 86.1081 144.424L86.1961 156.824L86.3721 177.372V177.72H86.4401V177.372L86.6201 157L86.7041 144.548C86.7441 140.392 86.7361 136.232 86.7481 132.072V131.724L86.4321 131.72Z" fill="#DBDBDB"/>
<path d="M105.232 28.9879V177.724L98.6561 177.736V35.7519H25.1281V177.576L18.5561 177.548V28.9879H105.232Z" fill="#DBDBDB"/>
<path d="M96.036 122.392H89.368V140.652H96.036V122.392Z" fill="#DBDBDB"/>
<path d="M95.3921 125.572C95.378 126.101 95.2081 126.614 94.9038 127.047C94.5996 127.481 94.1744 127.814 93.6814 128.007C93.1884 128.2 92.6495 128.243 92.1322 128.131C91.6148 128.019 91.1419 127.757 90.7726 127.378C90.4033 126.999 90.1539 126.519 90.0558 125.999C89.9576 125.479 90.015 124.942 90.2207 124.454C90.4264 123.966 90.7713 123.55 91.2123 123.257C91.6533 122.964 92.1708 122.808 92.7001 122.808C93.0584 122.813 93.4122 122.888 93.7414 123.029C94.0706 123.171 94.3686 123.376 94.6186 123.632C94.8686 123.889 95.0656 124.192 95.1983 124.525C95.331 124.858 95.3969 125.214 95.3921 125.572V125.572Z" fill="#C7C7C7"/>
<path d="M128.832 77.8159H115.12V83.6119H128.832V77.8159Z" fill="#EBEBEB"/>
<path d="M157.932 150.208H171.644V144.412H157.932V150.208Z" fill="#EBEBEB"/>
<path d="M165.583 142.9H179.295V137.104H165.583V142.9Z" fill="#EBEBEB"/>
<path d="M134.813 40.5552L134.067 61.6099L167.266 62.7867L168.012 41.7319L134.813 40.5552Z" fill="#EBEBEB"/>
<path d="M168 41.732C166.616 42.968 165.2 44.132 163.812 45.36C162.424 46.588 161.012 47.736 159.58 48.908C158.103 50.132 156.624 51.3453 155.144 52.548L155.012 52.664L151.068 55.864L150.876 56.012L150.696 55.848C149.461 54.6987 148.228 53.5453 146.996 52.388C146.949 52.3513 146.905 52.3112 146.864 52.268C145.468 50.964 144.064 49.652 142.692 48.316C141.368 47.056 140.044 45.772 138.728 44.488C137.412 43.204 136.1 41.904 134.804 40.572C136.192 41.724 137.552 42.924 138.92 44.1C140.288 45.276 141.652 46.5 143.008 47.7C144.515 49.0333 146.021 50.3947 147.528 51.784L150.908 54.872C152.108 53.924 153.308 52.968 154.508 52.032C156.108 50.768 157.708 49.5147 159.308 48.272C160.743 47.1627 162.184 46.0613 163.632 44.968C165.104 43.884 166.544 42.8 168 41.732Z" fill="white"/>
<path d="M147.572 52.2639L147.528 52.2959C147.348 52.4399 147.168 52.5839 146.988 52.7199C146.132 53.3959 145.256 54.0359 144.364 54.6599C143.28 55.4319 142.172 56.1639 141.056 56.8919C139.94 57.6199 138.816 58.3159 137.668 58.9959C136.52 59.6759 135.364 60.3359 134.168 60.9359C135.208 60.0919 136.284 59.3039 137.368 58.5359C138.452 57.7679 139.568 57.0319 140.68 56.3039C141.792 55.5759 142.924 54.8759 144.072 54.1959C144.984 53.6559 145.912 53.1239 146.872 52.6279C147.088 52.5119 147.308 52.3999 147.532 52.2879L147.572 52.2639Z" fill="white"/>
<path d="M167.2 62.108C166.052 61.424 164.94 60.68 163.848 59.924C162.756 59.168 161.68 58.38 160.612 57.588C159.544 56.796 158.496 55.968 157.468 55.124C156.628 54.44 155.8 53.744 155 53.012L154.484 52.544C154.473 52.531 154.461 52.519 154.448 52.508L154.496 52.532L155.132 52.932C156.04 53.496 156.924 54.088 157.8 54.696C158.896 55.452 159.964 56.24 161.032 57.036C162.1 57.832 163.144 58.636 164.172 59.5C165.2 60.364 166.232 61.2 167.2 62.108Z" fill="white"/>
<path d="M17.744 177.536L38.308 177.44L58.872 177.404L100 177.336L141.128 177.404L161.692 177.44L182.256 177.536L161.692 177.632L141.128 177.668L100 177.736L58.872 177.668L38.308 177.632L17.744 177.536Z" fill="#1E1E2C"/>
<path d="M68.1439 138.3C68.1439 138.3 77.4479 172.488 79.6919 177.536H115.78C109.552 161.228 102.96 139.888 102.772 138.404C102.772 138.336 102.772 138.3 102.772 138.3H68.1439Z" fill="#49556B"/>
<path d="M73.1996 142.848C73.4276 145.624 83.5236 175.148 84.3716 177.536H84.8916C84.8916 177.536 73.9276 144.872 73.3396 142.848C73.3236 142.764 73.1996 142.764 73.1996 142.848Z" fill="#1E1E2C"/>
<path d="M97.7599 138.296L93.0999 168.992L92.9359 170.032L92.5359 172.808L92.5039 173.004L92.3919 173.744L91.8199 177.524H79.6919C77.4519 172.476 68.1439 138.284 68.1439 138.284L97.7599 138.296Z" fill="#1E1E2C"/>
<path d="M50.0481 177.536H84.1961C84.1961 177.392 84.2201 177.276 84.2241 177.18C84.2281 177.084 84.2441 176.948 84.2441 176.948L84.8161 176.64C86.8161 175.544 88.5881 174.692 90.0401 174.044C90.2881 173.936 90.5241 173.832 90.7561 173.724C91.4121 173.44 92.0001 173.2 92.4881 173.008C93.7481 172.512 94.4441 172.288 94.4441 172.288C94.4881 172.184 94.5241 172.084 94.5601 171.98C99.5081 159.384 102.492 140.192 102.772 138.404C102.772 138.308 102.772 138.268 102.772 138.268H54.0001C51.1041 147.348 45.2841 164.044 50.0481 177.536Z" fill="#49556B"/>
<path d="M96.1881 171.388C92.0521 172.812 88.0601 174.832 84.244 176.952C84.2172 176.97 84.1977 176.997 84.189 177.028C84.1802 177.059 84.1828 177.093 84.1963 177.122C84.2097 177.151 84.2332 177.175 84.2625 177.188C84.2918 177.202 84.3249 177.205 84.356 177.196C88.3801 175.468 92.4801 173.816 96.4041 171.868C96.4623 171.836 96.5064 171.784 96.5274 171.721C96.5485 171.658 96.5451 171.589 96.5179 171.528C96.4906 171.468 96.4415 171.42 96.3804 171.394C96.3193 171.368 96.2506 171.366 96.1881 171.388V171.388Z" fill="#1E1E2C"/>
<path d="M97.4679 143.776C97.4679 143.636 97.2119 143.604 97.2119 143.756C97.2439 148.532 96.9399 152.736 96.5399 157.2C96.3519 159.272 94.6839 170.728 91.0879 169.892C90.4879 169.752 90.1799 169.16 90.0879 168.256C89.9719 167.164 90.3839 165.824 90.5639 164.74C90.9639 162.34 91.2839 159.94 91.4879 157.516C91.906 153.006 91.8578 148.465 91.3439 143.964C91.3439 143.933 91.3316 143.904 91.3099 143.882C91.2881 143.86 91.2586 143.848 91.2279 143.848C91.1971 143.848 91.1676 143.86 91.1458 143.882C91.1241 143.904 91.1119 143.933 91.1119 143.964C91.1119 150.224 90.9519 156.472 90.0159 162.672C89.5679 165.652 88.0679 170.136 91.1839 170.596C94.2999 171.056 96.3999 163.56 96.7999 161.504C97.8759 155.772 97.9199 149.6 97.4679 143.776Z" fill="#1E1E2C"/>
<path d="M91.2 170.2C90.884 170.975 90.6168 171.768 90.4001 172.576C90.1682 173.2 90.0543 173.862 90.0641 174.528C90.0702 174.554 90.0835 174.578 90.1026 174.596C90.1216 174.615 90.1455 174.627 90.1716 174.633C90.1976 174.638 90.2246 174.636 90.2495 174.627C90.2743 174.618 90.2961 174.601 90.3121 174.58C90.7361 174.048 90.912 173.316 91.148 172.68C91.424 171.948 91.712 171.22 91.948 170.476C91.9749 170.379 91.9645 170.276 91.9187 170.187C91.873 170.097 91.7953 170.028 91.7011 169.994C91.6069 169.959 91.5031 169.961 91.4103 169.999C91.3175 170.037 91.2424 170.109 91.2 170.2Z" fill="#1E1E2C"/>
<path d="M74.9199 147.524C74.9298 147.024 74.8788 146.524 74.7679 146.036C74.7628 146.021 74.7531 146.008 74.7402 145.999C74.7273 145.989 74.7118 145.984 74.6959 145.984C74.68 145.984 74.6645 145.989 74.6516 145.999C74.6387 146.008 74.629 146.021 74.6239 146.036C74.5217 146.457 74.4654 146.887 74.4559 147.32C74.4039 147.812 74.3399 148.304 74.2879 148.8C74.182 149.809 74.0056 150.808 73.7599 151.792C73.3055 153.653 72.3575 155.357 71.0159 156.724C69.6832 158.036 68.107 159.074 66.3759 159.78C64.4439 160.58 62.4119 160.9 60.4199 161.488C60.4028 161.494 60.3884 161.506 60.3791 161.521C60.3698 161.536 60.3663 161.555 60.3692 161.572C60.3721 161.59 60.3812 161.606 60.3948 161.618C60.4085 161.63 60.4259 161.636 60.4439 161.636C62.655 161.631 64.8443 161.199 66.8919 160.364C68.7038 159.685 70.3527 158.633 71.7319 157.276C73.1185 155.875 74.0951 154.121 74.5559 152.204C74.7871 151.22 74.9211 150.215 74.9559 149.204C74.9778 148.644 74.9657 148.083 74.9199 147.524V147.524Z" fill="#1E1E2C"/>
<path d="M54.8356 177.536C53.8196 174.58 53.1878 171.505 52.9556 168.388C52.6916 165.27 52.6756 162.136 52.9076 159.016C53.0676 157.464 53.1876 155.904 53.4516 154.364C53.5796 153.592 53.6716 152.816 53.8516 152.052L54.3316 149.76C54.4156 149.36 54.4876 148.996 54.5796 148.616L54.8836 147.484L55.4956 145.228C55.7116 144.48 55.9836 143.748 56.2236 143.008C56.4636 142.268 56.7236 141.532 56.9836 140.8C56.6396 142.32 56.2156 143.812 55.8756 145.328L55.3716 147.6L55.1276 148.736C55.0476 149.116 54.9916 149.496 54.9236 149.88L54.5236 152.168C54.3836 152.928 54.3116 153.7 54.2036 154.464C53.9636 155.992 53.8516 157.536 53.7036 159.076C53.473 162.159 53.4302 165.252 53.5756 168.34C53.6196 169.112 53.6556 169.884 53.7396 170.652L53.8436 171.808L53.9876 172.96C54.1719 174.502 54.4551 176.031 54.8356 177.536V177.536Z" fill="#1E1E2C"/>
<path d="M85.4882 92.0642C92.0322 102.812 104.988 119.744 111.24 123.512C118.188 127.7 138.04 113.484 150.896 104.972C153.448 103.28 141.544 82.6442 138.896 84.5722C132.02 89.6562 117.8 101.464 115.912 101.064C114.368 100.736 101.24 91.5922 93.8842 86.3522C82.1962 78.0242 80.8802 84.5002 85.4882 92.0642Z" fill="#D3766A"/>
<path d="M133.876 87.6001L144.916 111.316C144.916 111.316 120.88 127.032 113.404 125.12C105.928 123.208 90.0399 101.2 85.3799 92.5601C80.7199 83.9201 82.8879 79.0681 91.9199 84.8641C100.952 90.6601 114.856 99.9281 116.32 99.9761C117.784 100.024 133.876 87.6001 133.876 87.6001Z" fill="#3A8DFE"/>
<path d="M138.108 114.148C134.952 104.016 130.108 93.8441 129.372 92.0121C129.34 91.9281 129.204 91.9921 129.24 92.0761C130.04 93.8361 134.332 106.076 137.964 114.22C138 114.312 138.14 114.244 138.108 114.148Z" fill="#1E1E2C"/>
<path opacity="0.1" d="M120.644 124.132C117.756 125.108 115.184 125.568 113.404 125.112C105.928 123.2 90.036 101.2 85.376 92.5643C83.376 88.8683 82.64 85.8683 83.152 84.0883C92.108 93.7123 113.064 116.06 120.644 124.132Z" fill="#151520"/>
<path d="M143.752 109.744L133.956 88.4001C134.3 87.9561 135.772 87.0761 137.224 85.7081C137.224 85.7081 141.032 80.4681 142.568 74.7841C143.864 70.0081 145.244 62.7841 147.84 63.3721C151.624 64.2401 150.976 73.6001 150.28 78.9721C153 77.8761 155.448 77.1881 157.016 77.3081C162.216 77.7081 163.416 101.24 159.016 104.24C154.768 107.092 146.636 110.16 143.752 109.744Z" fill="#D3766A"/>
<path d="M157.88 111.952L123.316 109.372L126.716 63.8281L161.28 66.4121L157.88 111.952Z" fill="#49556B"/>
<path d="M157.784 69.0839L129.774 66.9925L126.81 106.69L154.82 108.781L157.784 69.0839Z" fill="white"/>
<path d="M140.269 67.7758L129.775 66.9922L126.811 106.69L137.305 107.473L140.269 67.7758Z" fill="#EBEBEB"/>
<path d="M136.06 75.5443C135.666 75.7528 135.227 75.8643 134.782 75.8694C134.336 75.8745 133.895 75.773 133.496 75.5735C133.098 75.3739 132.752 75.0821 132.489 74.7222C132.226 74.3623 132.053 73.9447 131.984 73.5043C131.904 72.9961 131.965 72.4758 132.162 72.0004C132.358 71.525 132.682 71.1129 133.097 70.8093C133.512 70.5057 134.003 70.3224 134.516 70.2794C135.028 70.2364 135.543 70.3355 136.003 70.5657C136.463 70.7959 136.85 71.1484 137.123 71.5845C137.396 72.0205 137.544 72.5233 137.549 73.0377C137.555 73.552 137.419 74.058 137.157 74.5002C136.894 74.9424 136.514 75.3036 136.06 75.5443V75.5443Z" fill="#A6A6A6"/>
<path d="M135.64 72.8003C135.628 72.97 135.567 73.1325 135.463 73.2672C135.359 73.402 135.218 73.5029 135.056 73.5572C134.895 73.6116 134.722 73.6169 134.557 73.5726C134.393 73.5282 134.246 73.4362 134.134 73.308C134.022 73.1799 133.951 73.0215 133.929 72.8528C133.907 72.6841 133.936 72.5128 134.011 72.3604C134.087 72.208 134.206 72.0814 134.353 71.9966C134.501 71.9119 134.67 71.8728 134.84 71.8843C135.067 71.8997 135.279 72.0048 135.429 72.1766C135.579 72.3484 135.655 72.5727 135.64 72.8003Z" fill="white"/>
<path d="M136.084 75.2002L136.06 75.5562C135.595 75.7956 135.072 75.9014 134.55 75.8619C134.029 75.8224 133.528 75.639 133.104 75.3322L133.132 74.9802C133.147 74.7864 133.199 74.5973 133.287 74.4238C133.374 74.2502 133.495 74.0956 133.642 73.9688C133.789 73.8419 133.96 73.7453 134.145 73.6845C134.329 73.6237 134.524 73.5998 134.718 73.6142C134.912 73.6287 135.101 73.6812 135.275 73.7687C135.448 73.8562 135.603 73.977 135.73 74.1243C135.856 74.2716 135.953 74.4424 136.014 74.627C136.075 74.8116 136.099 75.0064 136.084 75.2002V75.2002Z" fill="white"/>
<path d="M149.429 71.8349L141.87 71.2706L141.831 71.7931L149.39 72.3575L149.429 71.8349Z" fill="#EBEBEB"/>
<path d="M154.828 73.6886L141.764 72.7132L141.725 73.2358L154.789 74.2112L154.828 73.6886Z" fill="#EBEBEB"/>
<path d="M151.809 74.9158L141.657 74.1578L141.618 74.6803L151.77 75.4383L151.809 74.9158Z" fill="#EBEBEB"/>
<path d="M147.302 77.4882L141.442 77.0507L141.403 77.5733L147.263 78.0108L147.302 77.4882Z" fill="#EBEBEB"/>
<path d="M151.487 79.252L141.335 78.494L141.296 79.0165L151.448 79.7745L151.487 79.252Z" fill="#EBEBEB"/>
<path d="M154.291 80.9127L141.228 79.9373L141.189 80.4598L154.252 81.4352L154.291 80.9127Z" fill="#EBEBEB"/>
<path d="M148.674 81.9466L141.115 81.3822L141.076 81.9047L148.635 82.4691L148.674 81.9466Z" fill="#EBEBEB"/>
<path d="M154.774 84.7978L141.674 83.8808L141.637 84.4048L154.737 85.3218L154.774 84.7978Z" fill="#EBEBEB"/>
<path d="M150.274 86.4254L140.796 85.7178L140.757 86.2403L150.235 86.948L150.274 86.4254Z" fill="#EBEBEB"/>
<path d="M147.724 87.6878L140.688 87.1624L140.649 87.6849L147.685 88.2103L147.724 87.6878Z" fill="#EBEBEB"/>
<path d="M152.347 89.4838L140.58 88.6053L140.541 89.1278L152.308 90.0064L152.347 89.4838Z" fill="#EBEBEB"/>
<path d="M149.841 92.2012L140.363 91.4936L140.324 92.0161L149.802 92.7237L149.841 92.2012Z" fill="#EBEBEB"/>
<path d="M153.322 93.9162L140.258 92.9408L140.219 93.4634L153.283 94.4387L153.322 93.9162Z" fill="#EBEBEB"/>
<path d="M151.806 96.7073L140.039 95.8287L140 96.3512L151.767 97.2298L151.806 96.7073Z" fill="#EBEBEB"/>
<path d="M146.902 97.7982L139.933 97.2779L139.894 97.8004L146.863 98.3207L146.902 97.7982Z" fill="#EBEBEB"/>
<path d="M153.755 99.29L140.655 98.373L140.618 98.897L153.718 99.814L153.755 99.29Z" fill="#EBEBEB"/>
<path d="M149.086 102.321L139.608 101.613L139.569 102.136L149.047 102.843L149.086 102.321Z" fill="#EBEBEB"/>
<path d="M153.448 103.635L140.348 102.718L140.311 103.242L153.411 104.159L153.448 103.635Z" fill="#EBEBEB"/>
<path d="M152.046 104.997L140.246 104.171L140.209 104.695L152.009 105.521L152.046 104.997Z" fill="#EBEBEB"/>
<path d="M135.779 77.6369L132.299 77.3933L132.262 77.9173L135.742 78.1609L135.779 77.6369Z" fill="#A6A6A6"/>
<path d="M137.253 79.642L131.477 79.2107L131.438 79.7333L137.214 80.1645L137.253 79.642Z" fill="#A6A6A6"/>
<path d="M136.195 81.0153L131.369 80.6549L131.33 81.1774L136.156 81.5378L136.195 81.0153Z" fill="#A6A6A6"/>
<path d="M136.931 83.9779L131.155 83.5467L131.116 84.0692L136.892 84.5005L136.931 83.9779Z" fill="#A6A6A6"/>
<path d="M137.182 85.4448L131.047 84.9867L131.008 85.5093L137.143 85.9673L137.182 85.4448Z" fill="#A6A6A6"/>
<path d="M135.241 86.7561L130.937 86.4347L130.898 86.9573L135.202 87.2786L135.241 86.7561Z" fill="#A6A6A6"/>
<path d="M136.683 87.8971L131.583 87.5401L131.546 88.0641L136.646 88.4212L136.683 87.8971Z" fill="#A6A6A6"/>
<path d="M152.957 63.1278L135.437 61.8198L134.974 68.0265L152.493 69.3346L152.957 63.1278Z" fill="#A6A6A6"/>
<path d="M150.248 65.3521L137.784 64.4201L138.144 59.6041L150.608 60.5321L150.248 65.3521Z" fill="#A6A6A6"/>
<path d="M148.856 78.2562C147.724 80.7322 151.288 80.6562 151.288 80.6562C151.288 80.6562 146.188 82.0002 146 85.0042C145.836 87.9002 150.136 87.6482 150.444 87.6322C150.176 87.7082 145.52 89.0762 145.644 92.1082C145.78 95.2642 150.044 94.2722 150.328 94.2042C150.096 94.3562 147.06 96.3842 147.68 98.6682C148.752 102.592 156.664 97.6122 159.84 98.4802C159.84 98.4802 158.992 104.032 159 104.196C159 104.196 166.62 99.6122 167.548 95.2642C167.692 94.6338 167.616 93.9733 167.334 93.3916C167.052 92.8099 166.58 92.3417 165.996 92.0642C165.996 92.0642 168.616 90.8642 168.592 88.4642C168.572 87.2362 166.592 86.1682 166.592 86.1682C166.592 86.1682 168.652 85.1162 168.496 82.9882C168.376 81.2922 166.408 80.4842 166.408 80.4842C166.408 80.4842 167.916 78.5562 167.232 76.8642C165.868 73.4402 151.284 72.9642 148.856 78.2562Z" fill="#D3766A"/>
<path d="M166.132 80.3121C166.14 80.3095 166.147 80.3044 166.152 80.2976C166.157 80.2908 166.159 80.2826 166.159 80.2741C166.159 80.2657 166.157 80.2575 166.152 80.2507C166.147 80.2439 166.14 80.2388 166.132 80.2361C161.372 78.9081 155.732 78.9081 151.08 80.6361C150.924 80.6921 150.952 80.9681 151.132 80.9361C156.292 80.0721 160.924 79.7201 166.132 80.3121Z" fill="#1E1E2C"/>
<path d="M166.68 86.1401C166.736 86.1401 166.748 86.0561 166.68 86.0401C161.772 84.6961 155.424 84.8721 150.28 87.4921C150.104 87.5841 150.036 87.8401 150.244 87.7521C153.808 86.2681 162 85.6001 166.68 86.1401Z" fill="#1E1E2C"/>
<path d="M150.044 94.5123C155.068 92.1883 160.332 91.7123 165.808 91.9923C165.88 91.9923 165.876 91.8963 165.808 91.8763C163.164 91.0083 159.656 91.1883 156.936 91.5643C154.405 91.8613 151.997 92.8171 149.952 94.3363C149.884 94.4003 149.94 94.5603 150.044 94.5123Z" fill="#1E1E2C"/>
<path d="M102.756 138.3L101.344 122.86C101.344 122.86 105.468 116.556 104.864 109.108C104.428 103.684 88.9439 84.7081 87.9479 83.7961C83.9479 80.0641 77.1919 81.5521 74.4199 83.6481C59.0679 95.2481 59.1999 113.796 54.0199 138.268L102.756 138.3Z" fill="#3A8DFE"/>
<path d="M102.756 138.3L101.344 122.86C101.344 122.86 106.656 115.78 104.864 109.108C103.072 102.436 97.7917 96.348 97.7917 96.348H74.9597C74.9597 96.348 72.8917 116.324 67.6637 119.724C64.4895 121.841 60.6159 122.638 56.8637 121.948L53.9997 138.268L102.756 138.3Z" fill="#49556B"/>
<path d="M86.7756 120.84C88.9872 120.711 91.2052 120.745 93.4116 120.944C94.5076 121.056 95.5876 121.22 96.6716 121.404C97.2156 121.5 97.7556 121.572 98.2956 121.644C98.8627 121.736 99.439 121.759 100.012 121.712C100.022 121.712 100.032 121.716 100.04 121.724C100.047 121.731 100.052 121.741 100.052 121.752C100.052 121.763 100.047 121.773 100.04 121.78C100.032 121.788 100.022 121.792 100.012 121.792C98.9607 122.02 97.8791 122.07 96.8116 121.94C95.6996 121.836 94.5956 121.68 93.4836 121.564C91.2436 121.328 89.0036 121.096 86.7516 121.024C86.6716 121.02 86.6716 120.848 86.7756 120.84Z" fill="#1E1E2C"/>
<path d="M81.672 123.576C83.4411 123.12 85.2347 122.765 87.044 122.512C87.952 122.388 88.856 122.316 89.772 122.268C90.204 122.248 90.644 122.232 91.08 122.224C91.516 122.216 92.04 122.268 92.52 122.252C92.572 122.252 92.58 122.328 92.52 122.328C92.068 122.36 91.616 122.464 91.168 122.52L89.812 122.684C88.908 122.796 88.008 122.92 87.1 123.024C85.288 123.232 83.5 123.456 81.68 123.724C81.6 123.74 81.6 123.6 81.672 123.576Z" fill="#1E1E2C"/>
<path d="M77.6842 90.2121C74.8602 94.2321 53.4842 119.636 47.4482 123.476C42.8602 126.4 30.8002 128.184 31.4202 116.8C31.8202 109.2 62.2202 87.7601 74.4842 82.5641C80.1202 80.1601 83.6002 81.7801 77.6842 90.2121Z" fill="#3A8DFE"/>
<path d="M36.2598 125.244C38.0605 125.732 39.947 125.816 41.7838 125.488C43.6087 125.19 45.3609 124.55 46.9478 123.6C47.738 123.123 48.4921 122.588 49.2038 122C49.9158 121.416 50.5958 120.78 51.2678 120.14C52.6078 118.848 53.9038 117.504 55.1798 116.14C57.7558 113.444 60.2438 110.652 62.7358 107.872L70.1838 99.4723C69.0438 100.952 67.8598 102.396 66.6838 103.872C65.5078 105.348 64.2838 106.748 63.0838 108.176C60.6598 111.019 58.1651 113.808 55.5998 116.544C54.3038 117.9 52.9918 119.236 51.6278 120.524C50.9438 121.164 50.2518 121.8 49.5158 122.396C48.7793 122.998 47.9909 123.534 47.1598 123.996C45.5063 124.93 43.6898 125.54 41.8078 125.792C40.8787 125.906 39.9404 125.924 39.0078 125.844C38.0684 125.772 37.1436 125.57 36.2598 125.244V125.244Z" fill="#1E1E2C"/>
<path d="M67.3242 102.884C67.8144 102.484 68.3258 102.11 68.8562 101.764L70.4282 100.712C70.043 101.227 69.5673 101.668 69.0242 102.012C68.497 102.374 67.9257 102.667 67.3242 102.884V102.884Z" fill="#1E1E2C"/>
<path d="M74.9599 96.3481H78.4479C78.5863 91.3308 77.8722 86.3264 76.3359 81.5481L74.0799 82.1201C74.0799 82.1201 76.2999 91.3681 74.9599 96.3481Z" fill="#49556B"/>
<path d="M89.1279 82.9321C89.1279 82.9321 93.8319 89.7081 97.7919 96.3481H95.5759L86.6999 82.0001L89.1279 82.9321Z" fill="#49556B"/>
<path d="M77.5999 84.1601C77.8759 85.1281 82.2879 90.8201 86.7679 90.3921C88.2279 90.2521 88.3959 82.7161 88.3959 82.7161L88.4999 82.1161L89.9519 73.7521L79.9319 68.0001L78.4879 67.2401C78.4879 67.2401 78.2439 69.5561 77.9639 72.4401C77.9639 72.5721 77.9399 72.7081 77.9279 72.8401C77.9159 72.9721 77.8839 73.1561 77.8719 73.3081C77.8279 73.7361 77.7799 74.1761 77.7439 74.6161C77.7159 74.9521 77.6839 75.2761 77.6679 75.6281C77.6519 75.9801 77.6199 76.3201 77.5919 76.6761C77.3999 80.1561 77.4919 83.7441 77.5999 84.1601Z" fill="#D3766A"/>
<path d="M77.9639 72.4281C78.9124 74.7112 80.3465 76.7603 82.1666 78.4333C83.9867 80.1063 86.1492 81.363 88.5039 82.1161L89.9559 73.7521L79.9319 68.0001L78.4879 67.2401C78.4879 67.2401 78.2439 69.5441 77.9639 72.4281Z" fill="#1E1E2C"/>
<path d="M80.9879 66.4321C78.3199 64.6441 70.8239 62.0121 66.8639 67.8361C61.2079 76.1441 73.4559 90.7162 74.0839 98.3762C75.2239 112.252 82.4319 120.044 88.8279 116.168C95.9999 111.824 95.5519 100 82.0959 86.6682C73.6959 78.3281 72.3999 72.2361 74.3359 70.8361C76.2719 69.4361 79.2839 70.6721 79.2839 70.6721L80.9879 66.4321Z" fill="#1E1E2C"/>
<path d="M79.9281 65.8163C78.5556 65.1096 77.1023 64.5724 75.6001 64.2163C74.0714 63.8363 72.4802 63.779 70.9281 64.0483C69.3357 64.336 67.8744 65.1184 66.7521 66.2843C65.6333 67.4406 64.81 68.8498 64.3521 70.3923C63.9428 71.9346 63.8678 73.5466 64.1321 75.1203C64.3974 76.6587 64.8376 78.1618 65.4441 79.6003C66.6768 82.4313 68.2238 85.1149 70.0561 87.6003C68.5197 84.961 67.1827 82.2107 66.0561 79.3723C65.5362 77.9609 65.1622 76.4999 64.9401 75.0123C64.7136 73.5526 64.7967 72.0617 65.1841 70.6363C65.5888 69.2232 66.3253 67.9272 67.3321 66.8563C68.3248 65.7802 69.6228 65.0334 71.0521 64.7163C72.517 64.4008 74.0294 64.375 75.5041 64.6403C76.2557 64.7518 76.9998 64.9094 77.7321 65.1123C78.4734 65.3176 79.2054 65.5523 79.9281 65.8163Z" fill="#1E1E2C"/>
<path d="M77.5719 81.9601C78.8119 83.3761 80.2039 84.6481 81.5439 85.9601C82.8839 87.2721 84.2479 88.5601 85.5439 89.8961C86.8399 91.2321 88.1199 92.6081 89.2759 94.0601C90.4542 95.488 91.4885 97.0289 92.3639 98.6601C93.2506 100.261 93.8273 102.014 94.0639 103.828C94.2301 105.654 94.0758 107.495 93.6079 109.268C93.1491 111.053 92.2762 112.704 91.0599 114.088C90.4488 114.785 89.7496 115.4 88.9799 115.916C88.5961 116.173 88.1952 116.403 87.7799 116.604C87.3646 116.822 86.92 116.978 86.4599 117.068C87.4003 116.933 88.3031 116.607 89.1119 116.108C89.9402 115.634 90.7027 115.053 91.3799 114.38C92.0552 113.696 92.6424 112.93 93.1279 112.1C93.6089 111.265 93.9928 110.378 94.2719 109.456C94.5511 108.543 94.7413 107.606 94.8399 106.656L94.9039 105.936L94.9319 105.22C94.9525 104.734 94.9391 104.248 94.8919 103.764C94.6664 101.84 94.073 99.9765 93.1439 98.2761C91.3239 94.8881 88.7439 92.0441 86.0319 89.4361C84.6719 88.1281 83.2559 86.8881 81.8279 85.6681C80.3999 84.4481 78.9519 83.2361 77.5719 81.9601Z" fill="#1E1E2C"/>
<path d="M81.4279 66.0761C80.8959 65.3721 79.6879 64.8761 79.1439 65.1241C78.5999 65.3721 76.4519 69.4362 76.8519 70.5082C77.2519 71.5802 79.3159 71.1442 79.3159 71.1442L81.4279 66.0761Z" fill="#3A8DFE"/>
<path d="M100.904 58.992C104.044 73.556 95.6797 77.08 92.5357 77.756C89.6837 78.364 79.8997 80.088 75.2717 65.928C70.6437 51.768 76.4197 45.704 82.8717 43.96C89.3237 42.216 97.7637 44.428 100.904 58.992Z" fill="#D3766A"/>
<path d="M96.1359 56.8442C95.7936 56.8396 95.4518 56.8169 95.1119 56.7762C94.7463 56.8049 94.3817 56.7105 94.0759 56.5082C93.9924 56.4264 93.9381 56.3194 93.9215 56.2037C93.9049 56.0881 93.9268 55.9701 93.9839 55.8681C94.1287 55.6841 94.3199 55.5419 94.5378 55.4562C94.7557 55.3704 94.9925 55.3442 95.2239 55.3801C95.7034 55.3818 96.1652 55.5614 96.5199 55.8841C96.597 55.9623 96.6497 56.0612 96.6714 56.1688C96.6931 56.2764 96.683 56.388 96.6422 56.4899C96.6015 56.5918 96.5318 56.6796 96.4419 56.7425C96.352 56.8055 96.2456 56.8408 96.1359 56.8442V56.8442Z" fill="#1E1E2C"/>
<path d="M85.9276 60.6282C86.2565 60.5288 86.5796 60.4112 86.8956 60.2762C87.2527 60.1988 87.5745 60.0062 87.8116 59.7282C87.8693 59.6264 87.8916 59.5083 87.875 59.3924C87.8583 59.2766 87.8037 59.1696 87.7196 59.0882C87.5297 58.9517 87.3068 58.8685 87.0739 58.8474C86.8411 58.8263 86.6068 58.868 86.3956 58.9682C85.9339 59.1017 85.5396 59.4045 85.2915 59.8162C85.2402 59.9126 85.2179 60.0218 85.2275 60.1306C85.237 60.2395 85.2779 60.3432 85.3453 60.4292C85.4127 60.5151 85.5035 60.5797 85.6069 60.6151C85.7102 60.6504 85.8217 60.655 85.9276 60.6282V60.6282Z" fill="#1E1E2C"/>
<path d="M88.4281 62.4441C88.4281 62.4081 88.3561 62.5041 88.3641 62.5441C88.5641 63.5401 88.6241 64.7161 87.7761 65.1961C87.7481 65.1961 87.7761 65.2641 87.7761 65.2521C88.8721 64.9121 88.7761 63.3561 88.4281 62.4441Z" fill="#1E1E2C"/>
<path d="M87.3602 61.5483C85.7322 61.6963 86.1602 64.9443 87.6562 64.8083C89.1522 64.6723 88.7242 61.4283 87.3602 61.5483Z" fill="#1E1E2C"/>
<path d="M86.7439 61.804C86.4839 62.024 86.2479 62.384 85.908 62.46C85.568 62.536 85.176 62.248 84.876 61.952C84.844 61.924 84.82 61.952 84.824 61.996C84.896 62.62 85.224 63.228 85.896 63.236C86.5159 63.236 86.8799 62.636 86.9559 61.992C86.9719 61.872 86.8479 61.712 86.7439 61.804Z" fill="#1E1E2C"/>
<path d="M94.4557 61.1482C94.4557 61.1082 94.5397 61.1882 94.5397 61.2322C94.5757 62.2442 94.7917 63.4002 95.7396 63.6722C95.7676 63.6722 95.7676 63.7322 95.7396 63.7282C94.5997 63.6482 94.3277 62.1122 94.4557 61.1482Z" fill="#1E1E2C"/>
<path d="M95.2876 60.0283C96.9076 59.7923 97.2596 63.0483 95.7596 63.2643C94.2596 63.4803 93.9276 60.2243 95.2876 60.0283Z" fill="#1E1E2C"/>
<path d="M95.9442 60.1283C96.2482 60.2843 96.5642 60.5763 96.9082 60.5763C97.2522 60.5763 97.5722 60.1963 97.7962 59.8403C97.8202 59.8043 97.8522 59.8403 97.8562 59.8723C97.9322 60.4963 97.7642 61.1603 97.1042 61.3283C96.5042 61.4803 96.0042 60.9723 95.7802 60.3643C95.7402 60.2523 95.8242 60.0683 95.9442 60.1283Z" fill="#1E1E2C"/>
<path d="M90.2759 70.2281C90.5359 70.4441 90.8039 70.7521 91.1759 70.7521C91.5508 70.7134 91.9133 70.5962 92.2399 70.4081C92.2719 70.4081 92.3079 70.4081 92.2879 70.4561C92.16 70.6675 91.9771 70.8402 91.7587 70.9558C91.5403 71.0713 91.2946 71.1253 91.0479 71.1121C90.838 71.0744 90.6438 70.9758 90.4894 70.8286C90.3351 70.6814 90.2275 70.492 90.1799 70.2841C90.1599 70.2241 90.2359 70.1961 90.2759 70.2281Z" fill="#1E1E2C"/>
<path d="M93.9677 66.0002C93.9677 66.0002 94.3677 67.4722 94.4837 68.1802C94.4837 68.2442 94.3277 68.3002 94.0837 68.3482C94.0837 68.3482 94.0837 68.3482 94.0557 68.3482C93.4634 68.5426 92.8291 68.5708 92.2218 68.4297C91.6146 68.2887 91.0577 67.9838 90.6117 67.5482C90.5969 67.536 90.5875 67.5184 90.5856 67.4992C90.5837 67.4801 90.5895 67.461 90.6017 67.4462C90.6139 67.4313 90.6315 67.4219 90.6506 67.42C90.6698 67.4182 90.6889 67.424 90.7037 67.4362C91.694 67.927 92.8162 68.0855 93.9037 67.8882C93.9277 67.6842 93.1037 65.3922 93.2157 65.3682C93.7726 65.3394 94.3309 65.3851 94.8757 65.5042C94.0957 62.4162 92.8277 59.4762 92.0997 56.3882C92.0757 56.2762 92.2317 56.2202 92.2757 56.3162C93.8237 59.3042 94.7997 62.8402 95.6837 66.0082C95.7997 66.4202 94.2677 66.0922 93.9677 66.0002Z" fill="#1E1E2C"/>
<path d="M74.4361 65.5561C76.9681 65.7521 77.5481 60.4441 77.5481 60.4441C77.5481 60.4441 82.6921 60.4441 84.3921 53.0601C84.3921 53.0601 84.2801 56.5041 82.1121 59.1761C82.1121 59.1761 91.1841 58.2161 95.0041 50.6241C95.0041 50.6241 93.4801 54.4921 92.0521 55.8681C92.0521 55.8681 95.8561 54.8041 97.7121 51.7161C97.7121 51.7161 99.3121 56.1161 100.512 57.3161C100.512 57.3161 100.14 41.4441 85.4361 43.1321C85.4361 43.1321 76.2361 43.7441 72.9241 51.0321C69.6121 58.3201 74.4361 65.5561 74.4361 65.5561Z" fill="#1E1E2C"/>
<path d="M77.8242 66.548C77.8242 66.548 74.0162 62.34 72.0682 63.748C70.1202 65.156 73.3922 71.544 75.9682 72.148C76.2927 72.2482 76.6342 72.2816 76.972 72.2462C77.3098 72.2108 77.6369 72.1074 77.9337 71.9422C78.2305 71.777 78.4907 71.5534 78.6987 71.2849C78.9068 71.0165 79.0583 70.7086 79.1442 70.38L77.8242 66.548Z" fill="#D3766A"/>
<path d="M73.0519 65.5641C73.0119 65.5641 73.0119 65.6201 73.0519 65.6281C74.8639 66.1081 75.9719 67.5921 76.8159 69.1681C76.2239 68.5961 75.4839 68.3361 74.7039 69.0521C74.6639 69.0921 74.7039 69.1561 74.7639 69.1401C75.0544 69.0054 75.3795 68.9638 75.6946 69.0211C76.0097 69.0783 76.2994 69.2317 76.5239 69.4601C76.8959 69.8468 77.2257 70.2718 77.5079 70.7281C77.6079 70.8721 77.8759 70.7521 77.7919 70.5841C77.7912 70.5708 77.7912 70.5575 77.7919 70.5441C77.5359 68.3441 75.4399 65.4841 73.0519 65.5641Z" fill="#1E1E2C"/>
<path d="M76.3359 72.2562C76.3359 72.4144 76.3828 72.5691 76.4707 72.7006C76.5586 72.8322 76.6836 72.9347 76.8297 72.9953C76.9759 73.0558 77.1368 73.0717 77.292 73.0408C77.4471 73.0099 77.5897 72.9337 77.7016 72.8218C77.8135 72.71 77.8897 72.5674 77.9205 72.4122C77.9514 72.257 77.9355 72.0962 77.875 71.95C77.8144 71.8038 77.7119 71.6789 77.5803 71.591C77.4488 71.5031 77.2941 71.4561 77.1359 71.4561C76.9237 71.4561 76.7202 71.5404 76.5702 71.6905C76.4202 71.8405 76.3359 72.044 76.3359 72.2562Z" fill="white"/>
<path d="M96.3359 45.2961C94.6039 45.4321 85.7239 48.6241 82.2639 51.6681C78.8039 54.7121 73.5399 62.8401 73.2719 63.2681C73.0039 63.6961 66.3399 49.5161 77.4439 42.9121C89.5359 35.7161 96.3359 45.2961 96.3359 45.2961Z" fill="#3A8DFE"/>
<path d="M73.7639 62.4361C73.7639 62.4361 78.2759 49.4041 81.8999 45.5841C85.5239 41.7641 94.9399 37.1841 101.9 37.8921C107.336 38.4361 97.7279 48.3361 97.7279 48.3361C97.7279 48.3361 96.8519 46.7361 95.1279 46.6401C91.7759 46.4321 86.4359 49.1761 83.5759 51.3041C79.9999 54.0001 73.7639 62.4361 73.7639 62.4361Z" fill="#3A8DFE"/>
<path opacity="0.2" d="M73.7639 62.4361C73.7639 62.4361 78.2759 49.4041 81.8999 45.5841C85.5239 41.7641 94.9399 37.1841 101.9 37.8921C107.336 38.4361 97.7279 48.3361 97.7279 48.3361C97.7279 48.3361 96.8519 46.7361 95.1279 46.6401C91.7759 46.4321 86.4359 49.1761 83.5759 51.3041C79.9999 54.0001 73.7639 62.4361 73.7639 62.4361Z" fill="#151520"/>
<path d="M106.736 111.948H53.1201V145.212H106.736V111.948Z" fill="#3A8DFE"/>
<path opacity="0.2" d="M106.736 111.948H53.1201V145.212H106.736V111.948Z" fill="#151520"/>
<path opacity="0.2" d="M53.1237 145.212H73.4277V111.948H53.1237V145.212Z" fill="#151520"/>
<path d="M54.5201 142.92C56.0241 140.555 57.5148 138.181 58.9921 135.8L63.3921 128.648L67.7401 121.448C69.1828 119.048 70.6108 116.648 72.0241 114.248C70.5201 116.611 69.0308 118.983 67.5561 121.364L63.1561 128.52L58.8081 135.72C57.3654 138.104 55.9361 140.504 54.5201 142.92Z" fill="#3A8DFE"/>
<path d="M54.5201 114.24C55.9361 116.64 57.3641 119.04 58.8041 121.44L63.1521 128.64L67.5521 135.792C69.0241 138.176 70.5134 140.549 72.0201 142.912C70.6068 140.496 69.1788 138.089 67.7361 135.692L63.3881 128.492L58.9881 121.336C57.5161 118.971 56.0268 116.605 54.5201 114.24Z" fill="#3A8DFE"/>
<path d="M66.3201 111.948H60.1521V118.116H66.3201V111.948Z" fill="#EBEBEB"/>
<path d="M95.4719 136.356H95.0399V142.448H95.4719V136.356Z" fill="#1E1E2C"/>
<path d="M96.5076 136.356H96.0756V142.448H96.5076V136.356Z" fill="#1E1E2C"/>
<path d="M97.5442 136.356H97.1122V142.448H97.5442V136.356Z" fill="#1E1E2C"/>
<path d="M98.5799 136.356H98.1479V142.448H98.5799V136.356Z" fill="#1E1E2C"/>
<path d="M99.6159 136.356H99.1839V142.448H99.6159V136.356Z" fill="#1E1E2C"/>
<path d="M100.652 136.356H100.22V142.448H100.652V136.356Z" fill="#1E1E2C"/>
<path d="M101.688 136.356H101.256V142.448H101.688V136.356Z" fill="#1E1E2C"/>
<path d="M102.724 136.356H102.292V142.448H102.724V136.356Z" fill="#1E1E2C"/>
<path d="M103.764 136.356H103.332V142.448H103.764V136.356Z" fill="#1E1E2C"/>
<path d="M90.7996 142L92.4596 142.46H88.5596L90.2236 141.992V139.756C89.0236 139.6 88.5596 138.424 88.5596 136.372H92.4596C92.4596 138.42 91.9876 139.6 90.7996 139.756V142Z" fill="#1E1E2C"/>
<path d="M87.6516 139.464H86.6316V142.444H84.0236V139.464H83.0036L85.3276 136.356L87.6516 139.464Z" fill="#1E1E2C"/>
<path opacity="0.1" d="M106.736 145.212V142.296L73.4277 136.896V145.208L106.736 145.212Z" fill="#151520"/>
<path d="M103.764 110.876H58.4277V111.948H103.764V110.876Z" fill="#EBEBEB"/>
<path d="M102.588 109.808H57.2517V110.88H102.588V109.808Z" fill="#C7C7C7"/>
<path d="M105.641 119.713L72.8244 125.348L76.3978 146.158L109.214 140.523L105.641 119.713Z" fill="white"/>
<path d="M104.688 119.728C103.58 121.212 102.436 122.648 101.316 124.128C100.196 125.608 99.0361 127.012 97.8881 128.44C96.6881 129.932 95.4881 131.412 94.2881 132.888L94.1801 133.028C93.1121 134.328 92.0361 135.628 90.9801 136.928L90.8201 137.112L90.6121 136.988C89.1721 136.111 87.7348 135.231 86.3001 134.348L86.1481 134.256C84.5241 133.256 82.9001 132.256 81.2801 131.224C79.7321 130.256 78.1841 129.264 76.6401 128.276C75.0961 127.288 73.5521 126.276 72.0201 125.232C73.6201 126.076 75.1761 126.98 76.7521 127.856C78.3281 128.732 79.9001 129.652 81.4681 130.568C83.2121 131.582 84.9574 132.612 86.7041 133.66C88.0134 134.439 89.3201 135.22 90.6241 136.004C91.6001 134.84 92.5801 133.664 93.5641 132.512C94.8721 130.96 96.1801 129.412 97.5041 127.88C98.6881 126.51 99.8774 125.144 101.072 123.784C102.276 122.4 103.464 121.044 104.688 119.728Z" fill="#DBDBDB"/>
<path d="M86.8001 134.108L86.7681 134.148C86.6201 134.324 86.4761 134.5 86.3281 134.672C85.6241 135.504 84.8961 136.308 84.1481 137.092C83.2401 138.064 82.3041 139.004 81.3481 139.94C80.3921 140.876 79.4401 141.776 78.4561 142.668C77.4721 143.56 76.4561 144.44 75.4241 145.268C76.2681 144.232 77.1641 143.248 78.0721 142.284C78.9801 141.32 79.9201 140.376 80.8721 139.44C81.8241 138.504 82.7841 137.596 83.7681 136.7C84.5681 135.992 85.3681 135.284 86.1681 134.612C86.3601 134.452 86.5481 134.3 86.7441 134.148L86.8001 134.108Z" fill="#DBDBDB"/>
<path d="M107.976 139.808C106.716 139.368 105.48 138.864 104.264 138.34C103.048 137.816 101.836 137.264 100.632 136.704C99.4282 136.144 98.2322 135.548 97.0682 134.924C96.1122 134.424 95.1602 133.908 94.2282 133.352L93.6362 133C93.6211 132.989 93.605 132.98 93.5882 132.972H93.6442C93.8802 133.056 94.1122 133.14 94.3402 133.228C95.3442 133.596 96.3402 134 97.3042 134.428C98.5242 134.948 99.7282 135.504 100.928 136.072C102.128 136.64 103.328 137.228 104.496 137.848C105.664 138.468 106.84 139.104 107.976 139.808Z" fill="#DBDBDB"/>
<path d="M80.5919 125.859L79.917 146.868L113.048 147.932L113.723 126.923L80.5919 125.859Z" fill="#EBEBEB"/>
<path d="M113.724 126.92C112.344 128.16 110.944 129.34 109.552 130.556C108.16 131.772 106.752 132.932 105.344 134.108C103.877 135.337 102.41 136.553 100.944 137.756L100.808 137.872L96.8876 141.072L96.6916 141.224L96.5116 141.06C95.2769 139.916 94.0422 138.769 92.8076 137.62C92.762 137.583 92.7192 137.543 92.6796 137.5C91.2796 136.204 89.8862 134.895 88.4996 133.572C87.1756 132.316 85.8516 131.04 84.5356 129.764C83.2196 128.488 81.9036 127.192 80.6076 125.868C81.9916 127.012 83.3556 128.208 84.7276 129.376C86.0996 130.544 87.4596 131.756 88.8156 132.976C90.3236 134.312 91.8356 135.672 93.3396 137.04L96.7196 140.108C97.9196 139.16 99.0996 138.2 100.288 137.264C101.888 136 103.48 134.745 105.064 133.5C106.496 132.388 107.932 131.284 109.372 130.188C110.832 129.08 112.268 127.972 113.724 126.92Z" fill="#C7C7C7"/>
<path d="M93.3641 137.496C93.3489 137.506 93.3354 137.518 93.3241 137.532L92.8001 137.956C91.9441 138.632 91.0721 139.276 90.1841 139.9C89.1041 140.672 88.0001 141.408 86.8921 142.14C85.7841 142.872 84.6601 143.568 83.5161 144.248C82.3721 144.928 81.2241 145.592 80.0321 146.196C81.0641 145.348 82.1361 144.56 83.2321 143.796C84.3281 143.032 85.4241 142.284 86.5281 141.556C87.6321 140.828 88.7641 140.12 89.9081 139.44C90.8161 138.896 91.7401 138.364 92.6841 137.868C92.9001 137.748 93.1201 137.636 93.3401 137.524L93.3641 137.496Z" fill="#C7C7C7"/>
<path d="M112.992 147.256C111.844 146.576 110.732 145.84 109.64 145.088C108.548 144.336 107.472 143.552 106.404 142.768C105.336 141.984 104.288 141.168 103.26 140.32C102.42 139.64 101.588 138.944 100.788 138.216C100.612 138.064 100.444 137.908 100.272 137.752L100.236 137.716C100.249 137.729 100.266 137.739 100.284 137.744L100.92 138.144C101.828 138.7 102.708 139.292 103.588 139.892C104.684 140.648 105.752 141.428 106.82 142.22C107.888 143.012 108.932 143.82 109.964 144.664C110.996 145.508 112 146.344 112.992 147.256Z" fill="#C7C7C7"/>
<path d="M78.4719 133.376C73.9119 129.324 47.7079 114.672 42.3999 112.84C37.0919 111.008 29.5999 113.416 31.9999 121.396C34.3999 129.376 61.3159 152.94 71.4759 154.596C75.0479 155.2 80.1239 134.84 78.4719 133.376Z" fill="#D3766A"/>
<path d="M86.1956 140.464C85.1516 139.664 85.5676 139.104 87.9156 139.084C90.2636 139.064 99.5596 140.972 99.9516 137.672C100.344 134.372 87.1996 131.868 83.2796 132.2C79.3596 132.532 73.1996 134.44 73.1996 134.44C75.6476 135.44 81.3916 138.44 86.1956 140.464Z" fill="#D3766A"/>
<path d="M67.8481 153.276C74.8881 155.84 83.4961 159.464 91.8121 157.928C92.7344 157.779 93.5797 157.324 94.2121 156.636C97.9521 156.016 98.7801 154.064 98.7801 154.064C102.088 152.416 102.66 150.304 102.66 150.304C102.66 150.304 107.06 149.528 107.012 146.8C106.988 143.744 100.836 145.432 96.8881 144.296C87.8361 141.688 75.6881 135.452 73.1681 134.44L67.8481 153.276Z" fill="#D3766A"/>
<path d="M85.4998 148.228C88.1798 148.944 90.7918 149.716 93.5518 150.06C96.5838 150.46 99.5518 150.304 102.6 150.236C102.619 150.236 102.637 150.244 102.651 150.257C102.664 150.271 102.672 150.289 102.672 150.308C102.672 150.327 102.664 150.345 102.651 150.359C102.637 150.372 102.619 150.38 102.6 150.38C97.1238 151.372 90.5758 150.5 85.4518 148.348C85.3398 148.296 85.3638 148.192 85.4998 148.228Z" fill="#1E1E2C"/>
<path d="M83.1316 153.464C85.7756 154.012 90.4316 154.948 98.7876 153.972C98.8156 153.972 98.8276 154.016 98.7876 154.024C93.6228 155.34 88.1938 155.193 83.1076 153.6C82.9436 153.54 82.9556 153.424 83.1316 153.464Z" fill="#1E1E2C"/>
<path d="M81.9116 156.3C86.4436 157.064 89.3996 156.972 94.2076 156.62C94.2356 156.62 94.2476 156.664 94.2076 156.668C88.7876 157.644 86.7076 157.38 81.8556 156.452C81.6956 156.42 81.7356 156.268 81.9116 156.3Z" fill="#1E1E2C"/>
<path d="M79.8399 132.176L67.1079 157.2C67.1079 157.2 44.8279 144.252 32.8839 123.804C28.9039 117.004 32.9039 107.852 44.9719 112.74C57.0399 117.628 79.8399 132.176 79.8399 132.176Z" fill="#3A8DFE"/>
<path d="M74.7038 130.352C72.7038 134.012 64.9878 149.276 63.5478 152.688C63.4478 152.924 63.5718 153.048 63.7078 152.812C70.0118 142.012 73.0518 134.124 74.8438 130.436C74.8918 130.344 74.7558 130.26 74.7038 130.352Z" fill="#1E1E2C"/>
<path d="M136.032 43.1521C135.768 45.6827 134.806 48.0902 133.254 50.1059C131.701 52.1217 129.619 53.6663 127.24 54.5674C124.861 55.4685 122.278 55.6907 119.779 55.2091C117.281 54.7275 114.966 53.5612 113.092 51.8401L106.22 52.8481L109.656 46.9081C108.869 44.9751 108.533 42.8881 108.673 40.8057C108.813 38.7233 109.427 36.7002 110.466 34.8903C111.505 33.0804 112.944 31.5313 114.672 30.3606C116.4 29.1899 118.372 28.4285 120.438 28.1343C122.504 27.8401 124.61 28.0207 126.596 28.6625C128.582 29.3043 130.396 30.3903 131.899 31.8382C133.403 33.286 134.556 35.0574 135.272 37.0179C135.988 38.9783 136.248 41.0762 136.032 43.1521V43.1521Z" fill="white"/>
<path d="M136.032 43.1521C135.768 45.6847 134.808 48.0948 133.26 50.1162C132.875 50.6182 132.459 51.0964 132.016 51.5481C131.559 51.9874 131.076 52.3975 130.568 52.7762C129.556 53.5428 128.441 54.1635 127.256 54.6202C126.07 55.082 124.827 55.3781 123.56 55.5002C122.926 55.5582 122.288 55.5702 121.652 55.5362C121.014 55.5232 120.379 55.4576 119.752 55.3402C117.217 54.876 114.862 53.7137 112.952 51.9842L113.116 52.0362L106.252 53.0882L105.752 53.1642L106.004 52.7242L109.424 46.7762V47.0081C108.618 45.0402 108.275 42.9134 108.421 40.7919C108.567 38.6703 109.199 36.6107 110.268 34.7721C111.337 32.9406 112.807 31.3749 114.568 30.1921C116.327 29.0266 118.326 28.2749 120.417 27.9936C122.508 27.7123 124.636 27.9088 126.64 28.5681C128.625 29.2413 130.434 30.3497 131.936 31.8121C133.432 33.2695 134.578 35.0472 135.287 37.0115C135.997 38.9757 136.251 41.0753 136.032 43.1521V43.1521ZM136.032 43.1521C136.248 41.0849 135.988 38.9956 135.271 37.0448C134.553 35.0939 133.399 33.3334 131.895 31.8984C130.391 30.4635 128.579 29.3923 126.596 28.7671C124.614 28.142 122.515 27.9795 120.46 28.2921C118.428 28.5994 116.492 29.3654 114.8 30.5321C113.118 31.7104 111.712 33.2405 110.68 35.0161C109.667 36.7956 109.071 38.7813 108.936 40.8241C108.806 42.8714 109.137 44.9217 109.904 46.8242L109.956 46.9442L109.888 47.0602L106.432 52.9842L106.184 52.6242L113.06 51.6601H113.156L113.224 51.7242C115.058 53.4419 117.336 54.6139 119.8 55.1082C120.414 55.2343 121.037 55.3105 121.664 55.3362C123.548 55.4707 125.439 55.1978 127.208 54.5362C128.394 54.1086 129.51 53.5074 130.52 52.7522C131.029 52.3831 131.514 51.9823 131.972 51.5522C132.416 51.106 132.833 50.6331 133.22 50.1362C134.786 48.1137 135.76 45.6957 136.032 43.1521Z" fill="#1E1E2C"/>
<path d="M120.768 49.5562L114.904 43.6202L116.872 41.6722L120.3 45.1402L127.416 33.9802L129.752 35.4722L120.768 49.5562Z" fill="#3A8DFE"/>
<path d="M176.944 131.708H117.812V177.536H176.944V131.708Z" fill="#3A8DFE"/>
<path opacity="0.2" d="M176.944 131.708H117.812V177.536H176.944V131.708Z" fill="#151520"/>
<path opacity="0.2" d="M117.812 177.54H140.208V131.712H117.812V177.54Z" fill="#151520"/>
<path d="M119.355 174.4C121.017 171.141 122.661 167.872 124.287 164.592L129.143 154.736L133.943 144.836C135.543 141.532 137.118 138.215 138.667 134.884C137.011 138.143 135.369 141.412 133.739 144.692L128.879 154.552L124.079 164.452C122.487 167.743 120.913 171.059 119.355 174.4Z" fill="#3A8DFE"/>
<path d="M119.355 134.864C120.915 138.192 122.49 141.509 124.079 144.816L128.879 154.716L133.739 164.572C135.363 167.852 137.006 171.121 138.667 174.38C137.11 171.052 135.535 167.736 133.943 164.432L129.143 154.532L124.287 144.672C122.658 141.392 121.014 138.123 119.355 134.864Z" fill="#3A8DFE"/>
<path d="M132.364 131.708H125.564V137.3H132.364V131.708Z" fill="#EBEBEB"/>
<path d="M164.52 167.768H164.044V174.488H164.52V167.768Z" fill="#1E1E2C"/>
<path d="M165.66 167.768H165.184V174.488H165.66V167.768Z" fill="#1E1E2C"/>
<path d="M166.804 167.768H166.328V174.488H166.804V167.768Z" fill="#1E1E2C"/>
<path d="M167.948 167.768H167.472V174.488H167.948V167.768Z" fill="#1E1E2C"/>
<path d="M169.092 167.768H168.616V174.488H169.092V167.768Z" fill="#1E1E2C"/>
<path d="M170.236 167.768H169.76V174.488H170.236V167.768Z" fill="#1E1E2C"/>
<path d="M171.376 167.768H170.9V174.488H171.376V167.768Z" fill="#1E1E2C"/>
<path d="M172.52 167.768H172.044V174.488H172.52V167.768Z" fill="#1E1E2C"/>
<path d="M173.664 167.768H173.188V174.488H173.664V167.768Z" fill="#1E1E2C"/>
<path d="M159.368 173.976L161.2 174.484H156.9L158.732 173.972V171.5C157.42 171.328 156.9 170.036 156.9 167.772H161.2C161.2 170.028 160.68 171.328 159.368 171.5V173.976Z" fill="#1E1E2C"/>
<path d="M155.896 171.196H154.772V174.484H151.896V171.196H150.768L153.336 167.772L155.896 171.196Z" fill="#1E1E2C"/>
<path opacity="0.1" d="M176.944 177.536V174.32L140.208 168.364V177.536H176.944Z" fill="#151520"/>
<path d="M174.812 115.548H129.128V131.708H174.812V115.548Z" fill="#3A8DFE"/>
<path opacity="0.2" d="M174.812 115.548H129.128V131.708H174.812V115.548Z" fill="#151520"/>
<path opacity="0.2" d="M129.132 131.708H143.092V115.548H129.132V131.708Z" fill="#151520"/>
<path d="M130.092 130.596C131.124 129.444 132.152 128.292 133.164 127.136L136.192 123.66L139.184 120.168C140.176 119.002 141.157 117.833 142.128 116.66C141.093 117.809 140.069 118.962 139.056 120.12L136.024 123.6L133.036 127.092C132.044 128.252 131.063 129.42 130.092 130.596Z" fill="#3A8DFE"/>
<path d="M130.092 116.66C131.063 117.83 132.044 119 133.036 120.168L136.024 123.66L139.056 127.136C140.069 128.293 141.093 129.446 142.128 130.596C141.155 129.42 140.173 128.25 139.184 127.088L136.192 123.6L133.164 120.124C132.152 118.96 131.124 117.808 130.092 116.66Z" fill="#3A8DFE"/>
<path d="M138.2 115.548H133.96V119.332H138.2V115.548Z" fill="#EBEBEB"/>
<path d="M167.068 125.62H166.772V129.808H167.068V125.62Z" fill="#1E1E2C"/>
<path d="M167.78 125.62H167.484V129.808H167.78V125.62Z" fill="#1E1E2C"/>
<path d="M168.492 125.62H168.196V129.808H168.492V125.62Z" fill="#1E1E2C"/>
<path d="M169.204 125.62H168.908V129.808H169.204V125.62Z" fill="#1E1E2C"/>
<path d="M169.916 125.62H169.62V129.808H169.916V125.62Z" fill="#1E1E2C"/>
<path d="M170.628 125.62H170.332V129.808H170.628V125.62Z" fill="#1E1E2C"/>
<path d="M171.344 125.62H171.048V129.808H171.344V125.62Z" fill="#1E1E2C"/>
<path d="M172.056 125.62H171.76V129.808H172.056V125.62Z" fill="#1E1E2C"/>
<path d="M172.768 125.62H172.472V129.808H172.768V125.62Z" fill="#1E1E2C"/>
<path d="M163.856 129.488L165 129.808H162.316L163.46 129.484V127.944C162.66 127.84 162.316 127.032 162.316 125.62H165C165 127.028 164.676 127.84 163.856 127.944V129.488Z" fill="#1E1E2C"/>
<path d="M161.692 127.756H160.992V129.808H159.2V127.756H158.496L160.096 125.62L161.692 127.756Z" fill="#1E1E2C"/>
<path opacity="0.1" d="M174.812 131.708V129.704L143.088 125.992V131.708H174.812Z" fill="#151520"/>
</svg>
