<svg width="200" height="200" viewBox="0 0 200 200" fill="none" xmlns="http://www.w3.org/2000/svg">
<path d="M35.0359 105.732L29.7879 105.844L27.1239 105.888C26.2319 105.888 25.3359 105.888 24.4439 105.912H24.2679V105.732L24.2439 101.256V101.056H24.4439L29.7399 101.084C31.5079 101.084 33.2719 101.128 35.0359 101.148H35.1479V101.256C35.1479 102.016 35.1119 102.772 35.0959 103.52L35.0359 105.732ZM35.0359 105.732L34.9799 103.472C34.9799 102.728 34.9359 101.988 34.9279 101.256L35.0359 101.368C33.2719 101.388 31.5079 101.432 29.7399 101.432L24.4439 101.456L24.6439 101.256V105.732L24.4639 105.556C25.3359 105.556 26.2079 105.556 27.0839 105.576L29.7159 105.62L35.0359 105.732Z" fill="#EBEBEB"/>
<path d="M29.1277 111.376L23.8797 111.488L21.2157 111.532C20.3237 111.552 19.4277 111.532 18.5357 111.556H18.3597V111.376L18.3357 106.9V106.7H18.5357L23.8317 106.728C25.5957 106.728 27.3637 106.772 29.1277 106.792H29.2397V106.9C29.2397 107.66 29.2077 108.416 29.1877 109.164L29.1277 111.376ZM29.1277 111.376L29.0717 109.116C29.0517 108.372 29.0277 107.632 29.0197 106.9L29.1277 107.012C27.3637 107.032 25.5957 107.072 23.8317 107.076L18.5357 107.1L18.7357 106.9L18.7157 111.376L18.5357 111.2C19.4077 111.2 20.2797 111.2 21.1557 111.22L23.7877 111.264L29.1277 111.376Z" fill="#EBEBEB"/>
<path d="M145.431 146.74L140.183 146.852L137.519 146.896C136.627 146.896 135.731 146.896 134.839 146.916H134.663V146.736L134.639 142.26V142.06H134.839L140.135 142.084C141.903 142.084 143.667 142.128 145.431 142.148H145.543V142.256C145.543 143.016 145.507 143.768 145.487 144.516L145.431 146.74ZM145.431 146.74L145.375 144.476C145.375 143.732 145.331 142.996 145.323 142.264L145.431 142.372C143.667 142.392 141.903 142.436 140.135 142.436L134.839 142.464L135.039 142.264L135.019 146.74L134.839 146.56C135.711 146.56 136.583 146.56 137.459 146.584L140.091 146.628L145.431 146.74Z" fill="#EBEBEB"/>
<path d="M139.523 152.4L134.275 152.512L131.607 152.556C130.719 152.556 129.823 152.556 128.931 152.556H128.755V152.4L128.735 147.924V147.724H128.935L134.231 147.748C135.995 147.748 137.763 147.792 139.527 147.812H139.639V147.92C139.639 148.68 139.607 149.432 139.587 150.18L139.523 152.4ZM139.523 152.4L139.467 150.136C139.447 149.392 139.423 148.656 139.415 147.924L139.523 148.032C137.759 148.032 135.991 148.096 134.227 148.096L128.931 148.124L129.131 147.924L129.111 152.4L128.931 152.22C129.803 152.22 130.675 152.22 131.551 152.244L134.179 152.288L139.523 152.4Z" fill="#EBEBEB"/>
<path d="M181.464 89.2679L176.212 89.3799L173.548 89.4239C172.66 89.4439 171.764 89.4239 170.872 89.4439H170.692V89.2639L170.672 84.7999V84.5999H170.872L176.168 84.6239C177.932 84.6239 179.7 84.6679 181.464 84.6919H181.572V84.7999C181.572 85.5599 181.54 86.3159 181.52 87.0599L181.464 89.2679ZM181.464 89.2679L181.408 87.0039C181.408 86.2599 181.36 85.5239 181.356 84.7919L181.464 84.8999C179.7 84.9199 177.932 84.9639 176.168 84.9639L170.872 84.9919L171.072 84.7919L171.048 89.2679L170.872 89.0879C171.744 89.0879 172.616 89.0879 173.488 89.1119L176.12 89.1559L181.464 89.2679Z" fill="#EBEBEB"/>
<path d="M175.556 24.4559L170.304 24.5679L167.64 24.6119C166.752 24.6119 165.856 24.6119 164.964 24.6359H164.8V24.4559V19.9799V19.7799H165.004L170.3 19.8039C172.064 19.8039 173.828 19.8519 175.596 19.8719H175.704V19.9999C175.704 20.7599 175.668 21.5159 175.652 22.2639L175.556 24.4559ZM175.556 24.4559L175.5 22.1959C175.48 21.4479 175.452 20.7119 175.444 19.9799L175.556 20.0879C173.788 20.1119 172.024 20.1519 170.26 20.1559L164.964 20.1799L165.164 19.9799L165.14 24.4559L164.964 24.2799C165.836 24.2799 166.704 24.2799 167.58 24.2799L170.212 24.3239L175.556 24.4559Z" fill="#EBEBEB"/>
<path d="M181.464 30.0998L176.212 30.2118L173.548 30.2558C172.66 30.2558 171.764 30.2558 170.872 30.2798H170.692V30.0998L170.672 25.6238V25.4238H170.872L176.168 25.4478C177.932 25.4478 179.7 25.4958 181.464 25.5158H181.572V25.6238C181.572 26.3838 181.54 27.1398 181.52 27.8878L181.464 30.0998ZM181.464 30.0998L181.408 27.8398C181.408 27.0918 181.36 26.3558 181.356 25.6238L181.464 25.7318C179.7 25.7558 177.932 25.7958 176.168 25.7998L170.872 25.8238L171.072 25.6238L171.048 30.0998L170.872 29.9238C171.744 29.9238 172.616 29.9238 173.488 29.9238L176.12 29.9678L181.464 30.0998Z" fill="#EBEBEB"/>
<path d="M170.224 105.2H131.108V157.548H170.224V105.2Z" fill="#EBEBEB"/>
<path d="M172.12 103.192H129.216V105.2H172.12V103.192Z" fill="#DBDBDB"/>
<path d="M185.612 103.192H172.12V105.2H185.612V103.192Z" fill="#EBEBEB"/>
<path d="M183.476 105.2H170.224V157.548H183.476V105.2Z" fill="#DBDBDB"/>
<path d="M165.964 110.748H135.368V127.996H165.964V110.748Z" stroke="#C7C7C7" stroke-width="0.25" stroke-miterlimit="10"/>
<path d="M152.36 115.772H146.384V119.208H152.36V115.772Z" fill="#C7C7C7"/>
<path d="M154.123 116.028H148.147V118.944H154.123V116.028Z" stroke="#C7C7C7" stroke-width="0.25" stroke-miterlimit="10"/>
<path d="M165.964 132.54H135.368V149.788H165.964V132.54Z" stroke="#C7C7C7" stroke-width="0.25" stroke-miterlimit="10"/>
<path d="M152.36 137.564H146.384V141H152.36V137.564Z" fill="#C7C7C7"/>
<path d="M154.123 137.82H148.147V140.736H154.123V137.82Z" stroke="#C7C7C7" stroke-width="0.25" stroke-miterlimit="10"/>
<path d="M100 183.964C133.91 183.964 161.4 180.66 161.4 176.584C161.4 172.508 133.91 169.204 100 169.204C66.0898 169.204 38.6001 172.508 38.6001 176.584C38.6001 180.66 66.0898 183.964 100 183.964Z" fill="#EBEBEB"/>
<path d="M14.0283 157.548L35.5203 157.452L57.0123 157.416L100 157.352L142.988 157.416L164.48 157.452L185.972 157.548L164.48 157.648L142.988 157.684L100 157.748L57.0123 157.68L35.5203 157.648L14.0283 157.548Z" fill="#1C2B46"/>
<path d="M132.632 24.94H67.3601C66.4849 24.9484 65.62 25.129 64.8147 25.4717C64.0094 25.8143 63.2794 26.3122 62.6666 26.937C62.0537 27.5618 61.5699 28.3011 61.2428 29.1129C60.9157 29.9246 60.7516 30.7929 60.7601 31.668V166.024C60.7451 167.79 61.4318 169.491 62.6692 170.751C63.9066 172.012 65.5937 172.73 67.3601 172.748H132.632C134.4 172.731 136.088 172.014 137.327 170.753C138.566 169.492 139.254 167.791 139.24 166.024V31.668C139.248 30.7923 139.083 29.9237 138.756 29.1117C138.428 28.2996 137.943 27.5601 137.33 26.9354C136.716 26.3106 135.985 25.8128 135.179 25.4705C134.373 25.1281 133.508 24.9478 132.632 24.94V24.94ZM135.108 161.868C135.108 165.404 132.46 168.268 129.196 168.268H70.8001C67.5281 168.268 64.8801 165.408 64.8801 161.868V36.76C64.8801 29.56 67.5281 29.204 70.8001 29.204H82.5001C83.1801 29.204 83.7361 29.976 83.7361 30.932V31.332C83.7361 33.576 84.9641 33.584 86.4681 33.584H113.52C115.04 33.584 116.26 33.584 116.26 31.332V30.932C116.26 29.976 116.808 29.204 117.5 29.204H129.2C132.464 29.204 135.112 30.16 135.112 36.76L135.108 161.868Z" fill="#1C2B46"/>
<path d="M135.112 36.76V161.868C135.112 165.404 132.464 168.268 129.2 168.268H70.8001C67.5281 168.268 64.8801 165.408 64.8801 161.868V36.76C64.8801 29.56 67.5281 29.204 70.8001 29.204H82.5001C83.1801 29.204 83.7361 29.976 83.7361 30.932V31.332C83.7361 33.576 84.9641 33.584 86.4681 33.584H113.516C115.036 33.584 116.256 33.584 116.256 31.332V30.932C116.256 29.976 116.804 29.204 117.496 29.204H129.2C132.464 29.2 135.112 30.16 135.112 36.76Z" fill="white"/>
<path d="M135.112 36.7601V48.8241H64.8879V36.7601C64.8879 29.5601 67.5359 29.2041 70.8079 29.2041H82.5079C83.1879 29.2041 83.7439 29.9761 83.7439 30.9361V31.3361C83.7439 33.5801 84.9719 33.5881 86.4759 33.5881H113.524C115.044 33.5881 116.264 33.5881 116.264 31.3361V30.9361C116.264 29.9761 116.812 29.2041 117.504 29.2041H129.2C132.464 29.2001 135.112 30.1641 135.112 36.7601Z" fill="#3A8DFE"/>
<path d="M103.688 30.8H96.3078C96.1869 30.8 96.0709 30.752 95.9854 30.6665C95.8998 30.581 95.8518 30.465 95.8518 30.344C95.8518 30.2231 95.8998 30.1071 95.9854 30.0216C96.0709 29.9361 96.1869 29.888 96.3078 29.888H103.688C103.809 29.888 103.925 29.9361 104.01 30.0216C104.096 30.1071 104.144 30.2231 104.144 30.344C104.144 30.465 104.096 30.581 104.01 30.6665C103.925 30.752 103.809 30.8 103.688 30.8Z" fill="white"/>
<path d="M80.4843 32L80.3723 32.112L80.3083 32.176C80.0194 31.8879 79.6284 31.7254 79.2203 31.724C79.017 31.7232 78.8157 31.7631 78.6281 31.8414C78.4405 31.9197 78.2706 32.0349 78.1283 32.18L78.0683 32.116L77.9563 32.004L78.1003 31.876C78.2006 31.7934 78.3108 31.7235 78.4283 31.668C78.5676 31.5991 78.7156 31.5494 78.8683 31.52L79.0883 31.492H79.2763H79.4283C79.5653 31.506 79.6999 31.5382 79.8283 31.588C79.9225 31.6211 80.0135 31.6626 80.1003 31.712C80.1917 31.7664 80.2786 31.828 80.3603 31.896L80.4803 32.004L80.4843 32Z" fill="white"/>
<path d="M78.4886 32.5442L78.3086 32.3682C78.5036 32.1687 78.76 32.0405 79.0366 32.0042C79.2341 31.9746 79.4358 31.9917 79.6254 32.0542C79.8151 32.1168 79.9874 32.2229 80.1286 32.3642L79.9486 32.5442C79.853 32.4478 79.7393 32.3713 79.614 32.3191C79.4887 32.2669 79.3543 32.24 79.2186 32.24C79.0829 32.24 78.9485 32.2669 78.8232 32.3191C78.6979 32.3713 78.5842 32.4478 78.4886 32.5442Z" fill="white"/>
<path d="M79.7683 32.724L79.5923 32.9C79.5433 32.8508 79.485 32.8117 79.4208 32.7851C79.3566 32.7584 79.2878 32.7447 79.2183 32.7447C79.1488 32.7447 79.08 32.7584 79.0158 32.7851C78.9516 32.8117 78.8934 32.8508 78.8443 32.9L78.6643 32.724C78.7365 32.651 78.8224 32.593 78.9172 32.5534C79.012 32.5138 79.1136 32.4934 79.2163 32.4934C79.319 32.4934 79.4207 32.5138 79.5154 32.5534C79.6102 32.593 79.6961 32.651 79.7683 32.724V32.724Z" fill="white"/>
<path d="M79.3764 33.06C79.3764 33.0917 79.367 33.1226 79.3494 33.1489C79.3319 33.1752 79.3069 33.1957 79.2776 33.2079C79.2484 33.22 79.2162 33.2231 79.1852 33.217C79.1541 33.2108 79.1256 33.1955 79.1033 33.1732C79.0809 33.1508 79.0656 33.1223 79.0595 33.0912C79.0533 33.0602 79.0565 33.028 79.0686 32.9988C79.0807 32.9696 79.1012 32.9446 79.1275 32.927C79.1538 32.9094 79.1848 32.9 79.2164 32.9C79.2374 32.9 79.2582 32.9042 79.2776 32.9122C79.297 32.9202 79.3147 32.932 79.3295 32.9469C79.3444 32.9617 79.3562 32.9794 79.3642 32.9988C79.3723 33.0182 79.3764 33.039 79.3764 33.06V33.06Z" fill="white"/>
<path d="M69.4636 32.356C69.4628 32.2631 69.4897 32.1721 69.5408 32.0945C69.592 32.017 69.665 31.9564 69.7507 31.9205C69.8364 31.8845 69.9308 31.8749 70.022 31.8929C70.1131 31.9108 70.1969 31.9554 70.2626 32.0211C70.3282 32.0868 70.3729 32.1706 70.3908 32.2617C70.4088 32.3529 70.3992 32.4473 70.3632 32.533C70.3273 32.6187 70.2667 32.6917 70.1891 32.7428C70.1116 32.794 70.0205 32.8208 69.9276 32.82C69.8046 32.82 69.6866 32.7712 69.5995 32.6841C69.5125 32.5971 69.4636 32.4791 69.4636 32.356V32.356Z" fill="white"/>
<path d="M70.928 32.3561C70.9272 32.2633 70.954 32.1725 71.0049 32.095C71.0559 32.0175 71.1287 31.9569 71.2141 31.9208C71.2996 31.8848 71.3938 31.875 71.4848 31.8926C71.5759 31.9102 71.6596 31.9544 71.7255 32.0197C71.7913 32.085 71.8363 32.1684 71.8547 32.2593C71.8731 32.3502 71.864 32.4445 71.8287 32.5302C71.7934 32.616 71.7335 32.6893 71.6564 32.7409C71.5794 32.7925 71.4887 32.8201 71.396 32.8201C71.2726 32.8201 71.1541 32.7713 71.0665 32.6844C70.9788 32.5975 70.9291 32.4795 70.928 32.3561V32.3561Z" fill="white"/>
<path d="M72.4004 32.356C72.3996 32.2631 72.4265 32.1721 72.4776 32.0945C72.5287 32.017 72.6018 31.9564 72.6875 31.9205C72.7731 31.8845 72.8676 31.8749 72.9587 31.8929C73.0499 31.9108 73.1336 31.9554 73.1993 32.0211C73.265 32.0868 73.3097 32.1706 73.3276 32.2617C73.3455 32.3529 73.3359 32.4473 73.3 32.533C73.2641 32.6187 73.2035 32.6917 73.1259 32.7428C73.0483 32.794 72.9573 32.8208 72.8644 32.82C72.7414 32.82 72.6233 32.7712 72.5363 32.6841C72.4493 32.5971 72.4004 32.4791 72.4004 32.356Z" fill="white"/>
<path d="M73.8604 32.3561C73.8596 32.2633 73.8864 32.1725 73.9373 32.095C73.9882 32.0175 74.061 31.9569 74.1465 31.9208C74.2319 31.8848 74.3262 31.875 74.4172 31.8926C74.5083 31.9102 74.592 31.9544 74.6579 32.0197C74.7237 32.085 74.7687 32.1684 74.7871 32.2593C74.8055 32.3502 74.7964 32.4445 74.7611 32.5302C74.7258 32.616 74.6658 32.6893 74.5888 32.7409C74.5117 32.7925 74.4211 32.8201 74.3284 32.8201C74.2049 32.8201 74.0865 32.7713 73.9989 32.6844C73.9112 32.5975 73.8614 32.4795 73.8604 32.3561V32.3561Z" fill="white"/>
<path d="M75.3281 32.356C75.3274 32.2631 75.3542 32.1721 75.4053 32.0945C75.4565 32.0169 75.5295 31.9563 75.6152 31.9204C75.7009 31.8845 75.7953 31.8749 75.8864 31.8928C75.9776 31.9107 76.0613 31.9554 76.127 32.0211C76.1927 32.0868 76.2374 32.1705 76.2553 32.2617C76.2732 32.3528 76.2636 32.4473 76.2277 32.533C76.1918 32.6186 76.1312 32.6917 76.0536 32.7428C75.9761 32.7939 75.885 32.8208 75.7921 32.82C75.6691 32.82 75.5511 32.7711 75.464 32.6841C75.377 32.5971 75.3281 32.4791 75.3281 32.356Z" fill="white"/>
<path d="M129.844 33.3722H126.052V31.6002H129.844V33.3722ZM126.244 33.1762H129.644V31.8082H126.244V33.1762Z" fill="white"/>
<path d="M128.812 31.912H126.368V33.072H128.812V31.912Z" fill="white"/>
<path d="M130.18 32.0239H129.844V32.9639H130.18V32.0239Z" fill="white"/>
<path d="M71.5404 43.876L69.4644 41.932L71.5404 39.992L71.8604 40.332L70.1524 41.932L71.8604 43.536L71.5404 43.876Z" fill="white"/>
<path d="M128.744 44.0199H127.344V43.5319C127.344 43.5109 127.338 43.4904 127.327 43.4728C127.315 43.4551 127.299 43.4409 127.28 43.4319C127.228 43.4065 127.177 43.3771 127.128 43.3439C127.11 43.333 127.09 43.3272 127.068 43.3272C127.047 43.3272 127.027 43.333 127.008 43.3439L126.608 43.5839L125.908 42.3839L126.332 42.1399C126.349 42.1284 126.363 42.1128 126.372 42.0946C126.381 42.0765 126.385 42.0562 126.384 42.0359C126.382 42.0053 126.382 41.9746 126.384 41.9439C126.382 41.916 126.382 41.8879 126.384 41.8599C126.386 41.839 126.381 41.8181 126.372 41.7992C126.363 41.7803 126.35 41.7641 126.332 41.7519L125.908 41.5079L126.608 40.3079L127.008 40.5479C127.026 40.5585 127.046 40.5641 127.066 40.5641C127.087 40.5641 127.107 40.5585 127.124 40.5479L127.28 40.4559C127.299 40.448 127.316 40.4347 127.327 40.4176C127.338 40.4005 127.344 40.3805 127.344 40.3599V39.8479H128.744V40.3359C128.745 40.3559 128.75 40.3755 128.761 40.3924C128.771 40.4094 128.787 40.423 128.804 40.4319C128.858 40.4593 128.91 40.4901 128.96 40.5239C128.979 40.5349 128.999 40.5407 129.02 40.5407C129.042 40.5407 129.062 40.5349 129.08 40.5239L129.5 40.2839L130.2 41.4839L129.776 41.7279C129.758 41.7381 129.744 41.7535 129.735 41.772C129.725 41.7905 129.722 41.8114 129.724 41.8319V42.0079C129.721 42.0291 129.725 42.0506 129.734 42.0698C129.743 42.089 129.758 42.1051 129.776 42.1159L130.2 42.3599L129.5 43.5599L129.076 43.3199C129.059 43.3084 129.039 43.3023 129.018 43.3023C128.998 43.3023 128.978 43.3084 128.96 43.3199C128.911 43.3539 128.859 43.3834 128.804 43.4079C128.787 43.4178 128.772 43.4323 128.761 43.4498C128.75 43.4674 128.745 43.4874 128.744 43.5079V44.0199ZM127.644 43.7199H128.444V43.5319C128.444 43.4563 128.464 43.3819 128.504 43.3175C128.543 43.2531 128.601 43.2012 128.668 43.1679C128.712 43.145 128.755 43.1196 128.796 43.0919C128.861 43.0506 128.936 43.0286 129.012 43.0286C129.089 43.0286 129.164 43.0506 129.228 43.0919L129.388 43.1839L129.788 42.4919L129.624 42.3999C129.555 42.3608 129.499 42.3018 129.463 42.2305C129.428 42.1592 129.414 42.0789 129.424 41.9999V41.8519C129.414 41.7729 129.428 41.6926 129.463 41.6214C129.499 41.5501 129.555 41.4911 129.624 41.4519L129.788 41.3599L129.388 40.6679L129.228 40.7599C129.164 40.8013 129.089 40.8233 129.012 40.8233C128.936 40.8233 128.861 40.8013 128.796 40.7599C128.755 40.7323 128.712 40.7069 128.668 40.6839C128.601 40.6506 128.543 40.5988 128.504 40.5344C128.464 40.4699 128.444 40.3956 128.444 40.3199V40.1319H127.644V40.3199C127.645 40.396 127.624 40.4707 127.583 40.5351C127.543 40.5996 127.485 40.6512 127.416 40.6839L127.288 40.7599C127.224 40.8005 127.15 40.822 127.074 40.822C126.999 40.822 126.924 40.8005 126.86 40.7599L126.696 40.6679L126.296 41.3599L126.456 41.4519C126.527 41.4905 126.584 41.5493 126.62 41.6206C126.656 41.6919 126.67 41.7725 126.66 41.8519V41.9999C126.67 42.0794 126.656 42.1599 126.62 42.2313C126.584 42.3026 126.527 42.3613 126.456 42.3999L126.296 42.4919L126.696 43.1839L126.86 43.0919C126.925 43.0506 127 43.0286 127.076 43.0286C127.153 43.0286 127.228 43.0506 127.292 43.0919L127.416 43.1679C127.485 43.2006 127.543 43.2523 127.583 43.3167C127.624 43.3812 127.645 43.4559 127.644 43.5319V43.7199ZM128.044 42.9839C127.836 42.9847 127.632 42.9237 127.459 42.8086C127.285 42.6935 127.15 42.5294 127.07 42.3373C126.989 42.1451 126.968 41.9335 127.008 41.7292C127.048 41.5248 127.148 41.337 127.295 41.1895C127.442 41.042 127.63 40.9414 127.834 40.9004C128.038 40.8595 128.25 40.8801 128.442 40.9596C128.635 41.0391 128.799 41.174 128.915 41.3471C129.031 41.5201 129.092 41.7237 129.092 41.9319C129.092 42.2102 128.982 42.4772 128.786 42.6744C128.589 42.8716 128.323 42.9829 128.044 42.9839V42.9839ZM128.044 41.1839C127.895 41.1831 127.749 41.2267 127.625 41.309C127.501 41.3913 127.404 41.5087 127.346 41.6463C127.289 41.7839 127.274 41.9354 127.303 42.0817C127.332 42.2279 127.403 42.3623 127.509 42.4677C127.614 42.5731 127.748 42.6448 127.895 42.6737C128.041 42.7026 128.193 42.6873 128.33 42.6299C128.468 42.5725 128.585 42.4755 128.667 42.3512C128.75 42.2269 128.793 42.081 128.792 41.9319C128.787 41.7367 128.706 41.5511 128.567 41.4145C128.427 41.2778 128.24 41.2009 128.044 41.1999V41.1839Z" fill="white"/>
<path d="M127.144 72.5439H70.3999V155.776H127.144V72.5439Z" fill="#EBEBEB"/>
<path d="M114.284 148.592C114.425 148.615 114.553 148.69 114.64 148.804C114.733 148.924 114.781 149.072 114.776 149.224C114.778 149.329 114.756 149.433 114.712 149.528C114.667 149.616 114.604 149.693 114.528 149.756C114.441 149.823 114.342 149.874 114.236 149.904C114.106 149.94 113.971 149.958 113.836 149.956C113.672 149.958 113.509 149.928 113.356 149.868C113.221 149.812 113.101 149.724 113.008 149.612L113.28 149.276C113.34 149.351 113.415 149.412 113.5 149.456C113.6 149.503 113.71 149.524 113.82 149.52C113.937 149.528 114.053 149.498 114.152 149.436C114.191 149.404 114.222 149.364 114.242 149.318C114.262 149.272 114.271 149.222 114.268 149.172C114.271 149.117 114.26 149.062 114.237 149.012C114.214 148.962 114.18 148.918 114.136 148.884C114.016 148.812 113.876 148.778 113.736 148.788H113.636V148.428H113.748C113.869 148.435 113.989 148.402 114.088 148.332C114.127 148.302 114.157 148.264 114.178 148.22C114.199 148.177 114.209 148.129 114.208 148.08C114.211 148.038 114.204 147.997 114.186 147.959C114.169 147.921 114.142 147.888 114.108 147.864C114.031 147.813 113.94 147.787 113.848 147.792C113.746 147.79 113.645 147.816 113.556 147.868C113.469 147.918 113.396 147.99 113.344 148.076L113.044 147.744C113.086 147.687 113.139 147.638 113.2 147.6C113.262 147.554 113.329 147.515 113.4 147.484C113.479 147.451 113.56 147.427 113.644 147.412C113.733 147.393 113.825 147.383 113.916 147.384C114.027 147.383 114.137 147.398 114.244 147.428C114.337 147.456 114.425 147.499 114.504 147.556C114.574 147.61 114.631 147.678 114.672 147.756C114.713 147.835 114.733 147.923 114.732 148.012C114.739 148.156 114.694 148.299 114.604 148.412C114.564 148.464 114.515 148.509 114.46 148.544C114.405 148.571 114.345 148.587 114.284 148.592Z" fill="white"/>
<path d="M116.924 148.4C116.925 148.547 116.902 148.692 116.856 148.832C116.812 148.956 116.747 149.071 116.664 149.172C116.584 149.269 116.483 149.348 116.369 149.401C116.255 149.454 116.13 149.481 116.004 149.48C115.878 149.48 115.754 149.453 115.64 149.4C115.528 149.345 115.428 149.267 115.348 149.172C115.265 149.071 115.2 148.956 115.156 148.832C115.065 148.551 115.065 148.249 115.156 147.968C115.2 147.843 115.265 147.727 115.348 147.624C115.428 147.529 115.528 147.453 115.64 147.4C115.753 147.344 115.878 147.315 116.004 147.316C116.132 147.315 116.257 147.344 116.372 147.4C116.484 147.453 116.584 147.529 116.664 147.624C116.747 147.727 116.812 147.843 116.856 147.968C116.902 148.107 116.925 148.253 116.924 148.4ZM116.444 148.4C116.444 148.311 116.433 148.222 116.412 148.136C116.394 148.063 116.363 147.993 116.32 147.932C116.284 147.879 116.238 147.834 116.184 147.8C116.128 147.772 116.067 147.757 116.004 147.757C115.942 147.757 115.88 147.772 115.824 147.8C115.77 147.834 115.724 147.879 115.688 147.932C115.645 147.993 115.614 148.063 115.596 148.136C115.575 148.222 115.564 148.311 115.564 148.4C115.564 148.488 115.575 148.575 115.596 148.66C115.615 148.733 115.646 148.801 115.688 148.864C115.723 148.917 115.769 148.961 115.824 148.992C115.879 149.023 115.941 149.04 116.004 149.04C116.067 149.04 116.129 149.023 116.184 148.992C116.239 148.961 116.285 148.917 116.32 148.864C116.362 148.801 116.393 148.733 116.412 148.66C116.433 148.575 116.444 148.488 116.444 148.4V148.4Z" fill="white"/>
<path d="M118.436 149.336C118.359 149.369 118.28 149.397 118.2 149.42C118.105 149.449 118.007 149.464 117.908 149.464C117.844 149.465 117.78 149.456 117.72 149.436C117.664 149.422 117.612 149.394 117.568 149.356C117.522 149.318 117.487 149.27 117.464 149.216C117.435 149.149 117.421 149.077 117.424 149.004V147.932H117.176V147.564H117.424V146.96H117.9V147.564H118.3V147.932H117.9V148.844C117.897 148.87 117.9 148.896 117.909 148.92C117.918 148.944 117.933 148.966 117.952 148.984C117.988 149.012 118.034 149.026 118.08 149.024C118.129 149.024 118.177 149.016 118.224 149L118.34 148.956L118.436 149.336Z" fill="white"/>
<path d="M120.4 149.432H119.924V148.4C119.932 148.285 119.904 148.171 119.844 148.072C119.816 148.038 119.78 148.011 119.74 147.993C119.7 147.975 119.656 147.966 119.612 147.968C119.565 147.97 119.519 147.98 119.476 147.996C119.427 148.017 119.382 148.044 119.34 148.076C119.297 148.114 119.258 148.155 119.224 148.2C119.188 148.247 119.161 148.3 119.144 148.356V149.448H118.668V146.848H119.144V147.924C119.209 147.808 119.306 147.712 119.424 147.648C119.545 147.579 119.684 147.544 119.824 147.548C119.926 147.544 120.028 147.566 120.12 147.612C120.191 147.652 120.251 147.708 120.296 147.776C120.34 147.848 120.37 147.928 120.384 148.012C120.4 148.102 120.408 148.193 120.408 148.284L120.4 149.432Z" fill="white"/>
<path d="M109.384 151.62V151.108H109.784V151.62H109.384ZM109.384 152.952V152.44H109.784V152.952H109.384Z" fill="white"/>
<path d="M112.028 151.908C112.029 152.055 112.006 152.201 111.96 152.34C111.916 152.465 111.851 152.581 111.768 152.684C111.687 152.78 111.586 152.857 111.472 152.91C111.358 152.963 111.233 152.989 111.108 152.988C110.983 152.989 110.859 152.962 110.746 152.909C110.633 152.857 110.532 152.78 110.452 152.684C110.368 152.581 110.303 152.465 110.26 152.34C110.169 152.059 110.169 151.757 110.26 151.476C110.303 151.352 110.368 151.237 110.452 151.136C110.532 151.041 110.632 150.963 110.744 150.908C110.857 150.853 110.982 150.826 111.108 150.828C111.235 150.826 111.361 150.853 111.476 150.908C111.587 150.964 111.686 151.042 111.768 151.136C111.851 151.237 111.916 151.352 111.96 151.476C112.006 151.615 112.029 151.761 112.028 151.908ZM111.548 151.908C111.548 151.82 111.537 151.733 111.516 151.648C111.497 151.576 111.465 151.507 111.424 151.444C111.39 151.388 111.341 151.343 111.284 151.312C111.231 151.28 111.17 151.263 111.108 151.264C111.044 151.265 110.982 151.281 110.926 151.313C110.871 151.344 110.825 151.39 110.792 151.444C110.749 151.506 110.717 151.575 110.7 151.648C110.679 151.733 110.668 151.82 110.668 151.908C110.667 151.996 110.678 152.083 110.7 152.168C110.717 152.241 110.749 152.31 110.792 152.372C110.827 152.426 110.873 152.471 110.928 152.504C110.982 152.536 111.045 152.552 111.108 152.552C111.17 152.553 111.231 152.536 111.284 152.504C111.34 152.471 111.387 152.426 111.424 152.372C111.465 152.31 111.497 152.241 111.516 152.168C111.538 152.083 111.548 151.996 111.548 151.908Z" fill="white"/>
<path d="M114.216 151.908C114.217 152.055 114.193 152.201 114.144 152.34C114.104 152.466 114.038 152.583 113.952 152.684C113.872 152.779 113.773 152.856 113.66 152.908C113.546 152.961 113.422 152.989 113.296 152.988C113.169 152.989 113.043 152.961 112.928 152.908C112.817 152.856 112.718 152.779 112.64 152.684C112.554 152.583 112.488 152.466 112.448 152.34C112.352 152.06 112.352 151.756 112.448 151.476C112.488 151.351 112.554 151.235 112.64 151.136C112.719 151.041 112.817 150.963 112.928 150.908C113.043 150.852 113.169 150.825 113.296 150.828C113.422 150.826 113.547 150.853 113.66 150.908C113.772 150.963 113.871 151.041 113.952 151.136C114.038 151.235 114.104 151.351 114.144 151.476C114.193 151.615 114.217 151.761 114.216 151.908V151.908ZM113.732 151.908C113.734 151.82 113.723 151.733 113.7 151.648C113.682 151.576 113.652 151.507 113.612 151.444C113.577 151.389 113.529 151.344 113.472 151.312C113.419 151.28 113.358 151.263 113.296 151.264C113.233 151.263 113.17 151.279 113.116 151.312C113.059 151.344 113.011 151.389 112.976 151.444C112.934 151.506 112.904 151.575 112.888 151.648C112.865 151.733 112.854 151.82 112.856 151.908C112.854 151.996 112.864 152.083 112.888 152.168C112.904 152.241 112.934 152.31 112.976 152.372C113.013 152.425 113.061 152.47 113.116 152.504C113.17 152.537 113.233 152.553 113.296 152.552C113.358 152.553 113.419 152.536 113.472 152.504C113.527 152.47 113.575 152.425 113.612 152.372C113.652 152.309 113.682 152.24 113.7 152.168C113.724 152.083 113.734 151.996 113.732 151.908V151.908Z" fill="white"/>
<path d="M116.58 152.988C116.44 152.995 116.301 152.961 116.18 152.892C116.072 152.828 115.983 152.735 115.924 152.624V153.712H115.444V151.088H115.844V151.408C115.911 151.302 116.003 151.212 116.112 151.148C116.228 151.084 116.359 151.052 116.492 151.056C116.612 151.055 116.731 151.081 116.84 151.132C116.945 151.18 117.039 151.25 117.116 151.336C117.193 151.427 117.254 151.532 117.296 151.644C117.341 151.763 117.364 151.889 117.364 152.016C117.365 152.145 117.345 152.274 117.304 152.396C117.266 152.51 117.208 152.615 117.132 152.708C117.063 152.794 116.975 152.864 116.876 152.912C116.784 152.959 116.683 152.985 116.58 152.988V152.988ZM116.42 152.588C116.488 152.589 116.556 152.573 116.616 152.54C116.675 152.509 116.728 152.467 116.772 152.416C116.817 152.362 116.851 152.299 116.872 152.232C116.896 152.164 116.908 152.092 116.908 152.02C116.911 151.873 116.858 151.73 116.76 151.62C116.713 151.571 116.657 151.532 116.596 151.504C116.532 151.475 116.462 151.46 116.392 151.46C116.344 151.46 116.297 151.468 116.252 151.484C116.205 151.499 116.16 151.52 116.12 151.548C116.08 151.577 116.044 151.611 116.012 151.648C115.981 151.685 115.957 151.727 115.94 151.772V152.212C115.979 152.317 116.047 152.409 116.136 152.476C116.214 152.546 116.315 152.584 116.42 152.584V152.588Z" fill="white"/>
<path d="M120.616 152.952H120.14V151.904C120.149 151.79 120.122 151.675 120.064 151.576C120.04 151.543 120.008 151.517 119.971 151.5C119.934 151.482 119.893 151.474 119.852 151.476C119.752 151.477 119.657 151.516 119.584 151.584C119.499 151.66 119.438 151.759 119.408 151.868V152.952H118.928V151.904C118.937 151.79 118.91 151.675 118.852 151.576C118.828 151.543 118.796 151.517 118.759 151.5C118.722 151.482 118.681 151.474 118.64 151.476C118.542 151.477 118.448 151.514 118.376 151.58C118.29 151.656 118.228 151.754 118.196 151.864V152.952H117.72V151.088H118.152V151.432C118.216 151.314 118.314 151.217 118.432 151.152C118.556 151.088 118.693 151.055 118.832 151.056C118.963 151.048 119.092 151.088 119.196 151.168C119.279 151.242 119.336 151.34 119.36 151.448C119.429 151.327 119.528 151.227 119.648 151.156C119.77 151.087 119.908 151.053 120.048 151.056C120.145 151.052 120.242 151.074 120.328 151.12C120.399 151.158 120.458 151.215 120.5 151.284C120.541 151.358 120.569 151.437 120.584 151.52C120.599 151.609 120.605 151.698 120.604 151.788L120.616 152.952Z" fill="white"/>
<path d="M74.112 118.232C73.9087 117.566 73.8088 116.872 73.816 116.176C73.8318 115.808 73.9144 115.446 74.06 115.108C74.218 114.826 74.4354 114.582 74.6972 114.393C74.959 114.204 75.2589 114.074 75.576 114.012C76.608 113.744 77.392 114.012 77.928 114.856C78.2962 115.477 78.566 116.152 78.728 116.856L79.076 118.18L77.696 118.54L77.348 117.208C77.2357 116.681 77.057 116.17 76.816 115.688C76.7189 115.495 76.5655 115.336 76.376 115.232C76.2194 115.177 76.0487 115.177 75.892 115.232C75.7191 115.267 75.5627 115.358 75.4469 115.491C75.3312 115.624 75.2627 115.792 75.252 115.968C75.2269 116.555 75.3027 117.142 75.476 117.704L76.828 122.884C76.9632 123.531 77.1952 124.154 77.516 124.732C77.6032 124.881 77.7386 124.997 77.8999 125.059C78.0612 125.122 78.2389 125.128 78.404 125.076C78.5734 125.041 78.7256 124.949 78.8349 124.815C78.9442 124.681 79.0039 124.513 79.004 124.34C78.9953 123.678 78.8916 123.021 78.696 122.388L78.348 121.064L79.74 120.7L80.084 122.012C80.412 123.268 80.4814 124.236 80.292 124.916C80.1027 125.596 79.5827 126.047 78.732 126.268C78.3817 126.394 78.0033 126.419 77.6394 126.341C77.2755 126.263 76.9405 126.086 76.672 125.828C76.152 125.312 75.732 124.444 75.412 123.216L74.112 118.232Z" fill="#E85347"/>
<path d="M80.8 112.8L82.492 112.36L87.6 123.804L86.272 124.148L85.34 121.952L83.172 122.52L83.452 124.884L82.116 125.232L80.8 112.8ZM83.016 121.336L84.852 120.856L82.264 114.8L83.016 121.336Z" fill="#E85347"/>
<path d="M89.5999 110.508L90.8439 110.184L93.9639 122.144L92.9279 122.416L88.1039 114.904L88.9719 117.9L90.3279 123.1L89.0279 123.44L85.9119 111.48L86.9719 111.204L91.8679 118.62L90.7999 115.2L89.5999 110.508Z" fill="#E85347"/>
<path d="M93.552 113.164C93.3486 112.498 93.2488 111.804 93.256 111.108C93.2712 110.74 93.3553 110.377 93.504 110.04C93.6613 109.758 93.878 109.515 94.1391 109.325C94.4002 109.136 94.6995 109.006 95.016 108.944C96.048 108.677 96.832 108.959 97.368 109.788C97.7361 110.409 98.006 111.084 98.168 111.788L98.516 113.112L97.136 113.472L96.788 112.14C96.6757 111.613 96.4969 111.102 96.256 110.62C96.1588 110.427 96.0054 110.268 95.816 110.164C95.6593 110.109 95.4886 110.109 95.332 110.164C95.1591 110.199 95.0026 110.29 94.8868 110.423C94.7711 110.556 94.7026 110.724 94.692 110.9C94.6668 111.487 94.7426 112.074 94.916 112.636L96.268 117.816C96.4032 118.463 96.6351 119.086 96.956 119.664C97.0451 119.814 97.1808 119.931 97.3425 119.997C97.5043 120.063 97.6831 120.074 97.8517 120.028C98.0203 119.983 98.1695 119.884 98.2764 119.746C98.3833 119.608 98.4422 119.439 98.444 119.264C98.4352 118.602 98.3315 117.945 98.136 117.312L97.788 115.988L99.184 115.624L99.524 116.936C99.852 118.192 99.9213 119.16 99.732 119.84C99.5426 120.52 99.0226 120.971 98.172 121.192C97.8222 121.317 97.4446 121.342 97.0815 121.264C96.7184 121.186 96.384 121.009 96.116 120.752C95.5826 120.24 95.1613 119.369 94.852 118.14L93.552 113.164Z" fill="#E85347"/>
<path d="M99.0278 108.048L102.6 107.12L102.908 108.288L100.74 108.852L101.804 112.944L103.856 112.408L104.16 113.576L102.108 114.112L103.248 118.472L105.44 117.9L105.748 119.072L102.148 120.008L99.0278 108.048Z" fill="#E85347"/>
<path d="M104.268 106.684L105.672 106.316L108.472 117.116L110.68 116.54L110.984 117.7L107.384 118.644L104.268 106.684Z" fill="#E85347"/>
<path d="M109.104 105.424L110.512 105.056L113.312 115.856L115.52 115.28L115.824 116.444L112.224 117.388L109.104 105.424Z" fill="#E85347"/>
<path d="M113.944 104.16L117.516 103.232L117.82 104.4L115.656 104.964L116.72 109.056L118.772 108.52L119.076 109.688L117.024 110.224L118.164 114.584L120.356 114.012L120.66 115.184L117.06 116.12L113.944 104.16Z" fill="#E85347"/>
<path d="M119.176 102.8L121.424 102.212C122.34 101.972 123.024 102.092 123.532 102.564C124.11 103.203 124.506 103.987 124.676 104.832L126.052 110.084C126.372 111.312 126.412 112.244 126.18 112.884C125.948 113.524 125.38 113.956 124.492 114.188L122.292 114.76L119.176 102.8ZM123.268 105.164C123.161 104.605 122.927 104.078 122.584 103.624C122.461 103.488 122.301 103.391 122.123 103.344C121.946 103.297 121.759 103.303 121.584 103.36L120.864 103.548L123.396 113.256L124.116 113.068C124.344 113.024 124.553 112.909 124.712 112.74C124.98 112.42 124.98 111.728 124.712 110.668L123.268 105.164Z" fill="#E85347"/>
<path d="M132.152 116.512L73.2442 131.868L68.0002 111.808L126.908 96.4519L132.152 116.512ZM74.0362 130.512L130.8 115.72L126.132 97.8079L69.3682 112.608L74.0362 130.512Z" fill="#E85347"/>
<path d="M93.0881 43.724V40.316H93.6241V43.724H93.0881Z" fill="white"/>
<path d="M94.9321 41.324V43.724H94.4001V40.316H94.8001L96.7481 42.776V40.32H97.2921V43.724H96.8441L94.9321 41.324Z" fill="white"/>
<path d="M100.752 42.848C100.754 42.9756 100.725 43.1018 100.668 43.216C100.613 43.3222 100.537 43.4161 100.444 43.492C100.344 43.5696 100.23 43.6279 100.108 43.664C99.9785 43.7044 99.8436 43.7246 99.708 43.724H98.084V40.316H99.84C99.9512 40.3156 100.061 40.3416 100.16 40.392C100.254 40.4428 100.338 40.5106 100.408 40.592C100.473 40.6766 100.525 40.7711 100.56 40.872C100.598 40.9716 100.617 41.0774 100.616 41.184C100.618 41.3483 100.575 41.51 100.492 41.652C100.409 41.7965 100.281 41.9101 100.128 41.976C100.313 42.0286 100.475 42.1395 100.592 42.292C100.705 42.4549 100.761 42.6502 100.752 42.848ZM98.612 40.8V41.8H99.6C99.6632 41.8012 99.7259 41.789 99.784 41.764C99.84 41.7378 99.8913 41.7027 99.936 41.66C99.9784 41.6144 100.012 41.5616 100.036 41.504C100.061 41.4402 100.073 41.3723 100.072 41.304C100.078 41.1714 100.034 41.0414 99.948 40.94C99.9091 40.8945 99.8606 40.8583 99.8059 40.8341C99.7512 40.8099 99.6918 40.7982 99.632 40.8H98.612ZM100.212 42.76C100.212 42.6258 100.165 42.4959 100.08 42.392C100.041 42.3437 99.9915 42.3042 99.936 42.276C99.8774 42.2473 99.8132 42.2323 99.748 42.232H98.624V43.276H99.712C99.7806 43.2755 99.8485 43.2619 99.912 43.236C99.9709 43.2095 100.024 43.1714 100.068 43.124C100.113 43.0758 100.15 43.0204 100.176 42.96C100.199 42.8904 100.207 42.8169 100.2 42.744L100.212 42.76Z" fill="white"/>
<path d="M102.732 43.748C102.503 43.751 102.276 43.7017 102.068 43.604C101.871 43.506 101.696 43.3701 101.552 43.204C101.407 43.0423 101.293 42.8551 101.216 42.652C101.14 42.4472 101.101 42.2305 101.1 42.012C101.099 41.7887 101.141 41.5672 101.224 41.36C101.304 41.1565 101.421 40.9694 101.568 40.808C101.71 40.64 101.886 40.5037 102.084 40.408C102.289 40.311 102.513 40.2618 102.74 40.264C102.97 40.2616 103.198 40.3137 103.404 40.416C103.601 40.5142 103.776 40.6501 103.92 40.816C104.062 40.9802 104.173 41.1685 104.248 41.372C104.327 41.572 104.368 41.785 104.368 42C104.367 42.4436 104.202 42.8712 103.904 43.2C103.757 43.366 103.579 43.5019 103.38 43.6C103.178 43.6962 102.956 43.7467 102.732 43.748V43.748ZM101.648 42.02C101.647 42.1791 101.673 42.3373 101.724 42.488C101.773 42.6326 101.846 42.7678 101.94 42.888C102.035 43.0024 102.152 43.0964 102.284 43.164C102.424 43.234 102.579 43.2697 102.736 43.268C102.896 43.2707 103.054 43.2336 103.196 43.16C103.326 43.089 103.44 42.9924 103.532 42.876C103.625 42.7558 103.697 42.6205 103.744 42.476C103.792 42.3301 103.816 42.1775 103.816 42.024C103.816 41.865 103.79 41.707 103.74 41.556C103.693 41.4098 103.618 41.274 103.52 41.156C103.426 41.0428 103.31 40.9491 103.18 40.88C103.039 40.8117 102.885 40.7762 102.728 40.7762C102.572 40.7762 102.417 40.8117 102.276 40.88C102.144 40.9494 102.027 41.0446 101.932 41.16C101.839 41.2804 101.768 41.4156 101.72 41.56C101.672 41.7085 101.647 41.8638 101.648 42.02V42.02Z" fill="white"/>
<path d="M104.984 40.316L105.928 41.66L106.872 40.316H107.464L106.216 42.044L107.416 43.724H106.828L105.92 42.428L105.012 43.724H104.416L105.616 42.044L104.4 40.316H104.984Z" fill="white"/>
<path d="M70.0003 63.2773C70.0012 62.8741 70.0733 62.4742 70.2135 62.0961C70.3553 61.7099 70.5692 61.3543 70.844 61.0481C71.1291 60.7376 71.4733 60.487 71.8564 60.311C72.2816 60.1133 72.7465 60.016 73.2152 60.0268C73.7595 60.0102 74.2977 60.1455 74.7694 60.4176C75.1867 60.6608 75.5256 61.0182 75.7463 61.4478L74.7783 62.1139C74.6969 61.9439 74.589 61.7881 74.4586 61.652C74.347 61.5317 74.2146 61.4324 74.0678 61.359C73.9292 61.2807 73.7794 61.2238 73.6238 61.1902C73.476 61.1776 73.3275 61.1776 73.1797 61.1902C72.8892 61.182 72.6016 61.2493 72.3449 61.3856C72.1171 61.5089 71.9175 61.6783 71.7588 61.883C71.5988 62.0901 71.4784 62.3249 71.4035 62.5757C71.3264 62.829 71.2875 63.0924 71.2881 63.3572C71.2875 63.6379 71.3325 63.9169 71.4213 64.1831C71.5082 64.4387 71.6405 64.6763 71.812 64.8847C71.9796 65.0853 72.1848 65.2512 72.416 65.3732C72.6573 65.4984 72.9256 65.5624 73.1975 65.5597C73.3529 65.5585 73.5077 65.5407 73.6593 65.5064C73.8172 65.4667 73.9694 65.407 74.1122 65.3288C74.2609 65.2467 74.3957 65.1418 74.5119 65.018C74.6336 64.884 74.7326 64.731 74.8049 64.565L75.844 65.1601C75.739 65.4049 75.5849 65.6256 75.3911 65.8084C75.1982 65.9974 74.98 66.1588 74.7428 66.2879C74.4971 66.4145 74.2379 66.5128 73.9701 66.581C73.7051 66.6431 73.4341 66.6759 73.162 66.6787C72.7184 66.6848 72.2798 66.5843 71.8831 66.3856C71.5068 66.1952 71.1695 65.9362 70.8884 65.6219C70.608 65.305 70.3855 64.9412 70.2312 64.5473C70.0758 64.142 69.9974 63.7113 70.0003 63.2773V63.2773Z" fill="#A6A6A6"/>
<path d="M78.4557 60.0621H79.5747L82.0525 66.5807H80.7558L80.143 64.9555H77.8695L77.2745 66.5807H75.969L78.4557 60.0621ZM79.921 64.0674L79.0329 61.5008L78.1004 64.0674H79.921Z" fill="#A6A6A6"/>
<path d="M84.0141 62.3978V66.5807H82.7708V60.0621H83.7565L87.1491 64.3427V60.0709H88.4546V66.5807H87.3888L84.0141 62.3978Z" fill="#A6A6A6"/>
<path d="M89.3438 63.2771C89.3478 62.8734 89.423 62.4736 89.5658 62.096C89.7077 61.7069 89.9252 61.3496 90.2056 61.0448C90.486 60.74 90.8239 60.4936 91.1999 60.3198C91.625 60.122 92.0899 60.0248 92.5587 60.0356C93.1058 60.0187 93.6469 60.154 94.1217 60.4264C94.539 60.6695 94.8779 61.027 95.0986 61.4565L94.1217 62.1226C94.043 61.9533 93.9381 61.7974 93.8109 61.6608C93.6958 61.5444 93.5641 61.4456 93.4201 61.3677C93.2808 61.2909 93.1313 61.2341 92.9761 61.199C92.8254 61.1859 92.6738 61.1859 92.5231 61.199C92.2354 61.1898 91.9504 61.2572 91.6972 61.3944C91.4647 61.5143 91.2615 61.6841 91.1022 61.8917C90.9484 62.1014 90.8313 62.3356 90.7558 62.5844C90.6757 62.8373 90.6338 63.1007 90.6315 63.3659C90.6296 63.6475 90.6777 63.9271 90.7736 64.1919C90.857 64.4489 90.9897 64.6872 91.1644 64.8935C91.3299 65.0961 91.5355 65.2624 91.7683 65.3819C92.0064 65.5071 92.2719 65.5712 92.5409 65.5684C92.6963 65.5678 92.8512 65.5499 93.0027 65.5151C93.1616 65.4785 93.3142 65.4186 93.4557 65.3375C93.6043 65.2554 93.7391 65.1505 93.8553 65.0267C93.9829 64.8973 94.0826 64.7431 94.1484 64.5738L95.1874 65.1688C95.0858 65.4132 94.9346 65.6339 94.7434 65.8171C94.5488 66.0041 94.3309 66.1653 94.0951 66.2967C93.8457 66.4218 93.5837 66.52 93.3136 66.5897C93.0487 66.6523 92.7776 66.6851 92.5054 66.6874C92.062 66.6918 91.6238 66.5914 91.2265 66.3943C90.8442 66.1753 90.5068 65.886 90.2318 65.5418C89.9537 65.2249 89.7342 64.861 89.5835 64.4672C89.4308 64.0887 89.3495 63.6852 89.3438 63.2771V63.2771Z" fill="#A6A6A6"/>
<path d="M100.605 65.4706V66.5807H96.0757V60.0621H100.516V61.1722H97.3368V62.7441H100.081V63.7654H97.3368V65.4706H100.605Z" fill="#A6A6A6"/>
<path d="M101.599 66.5807V60.0621H102.86V65.4706H106.217V66.5807H101.599Z" fill="#A6A6A6"/>
<path d="M106.954 66.5807V60.0621H108.224V65.4706H111.545V66.5807H106.954Z" fill="#A6A6A6"/>
<path d="M116.874 65.4706V66.5807H112.345V60.0621H116.786V61.1722H113.589V62.7441H116.333V63.7654H113.589V65.4706H116.874Z" fill="#A6A6A6"/>
<path d="M117.833 66.5809V60.0623H120.205C120.685 60.0493 121.163 60.137 121.608 60.3198C121.989 60.4746 122.332 60.7111 122.611 61.0125C122.883 61.3127 123.089 61.6667 123.215 62.0516C123.357 62.4567 123.426 62.8836 123.42 63.3127C123.428 63.7695 123.353 64.224 123.198 64.6537C123.06 65.0387 122.84 65.3891 122.553 65.6805C122.266 65.9719 121.92 66.1973 121.537 66.3411C121.112 66.5057 120.66 66.5871 120.205 66.5809H117.833ZM122.141 63.3127C122.15 63.0118 122.108 62.7115 122.016 62.4246C121.938 62.1747 121.811 61.9424 121.643 61.7408C121.473 61.5505 121.264 61.399 121.031 61.2967C120.768 61.1933 120.487 61.142 120.205 61.1458H119.103V65.4441H120.205C120.492 65.4512 120.777 65.3935 121.04 65.2754C121.274 65.1742 121.481 65.019 121.643 64.8225C121.809 64.6196 121.936 64.3877 122.016 64.1386C122.101 63.8716 122.143 63.5929 122.141 63.3127V63.3127Z" fill="#A6A6A6"/>
<path d="M124.531 64.1297V60H125.756V64.1297H124.531ZM124.531 66.5808V65.1954H125.756V66.5808H124.531Z" fill="#A6A6A6"/>
<path d="M173.284 34.18C173.101 35.9456 172.431 37.6256 171.348 39.0322C170.266 40.4389 168.813 41.5167 167.153 42.1455C165.493 42.7742 163.691 42.9289 161.948 42.5924C160.205 42.256 158.59 41.4415 157.284 40.24L152.484 40.944L154.884 36.8C154.337 35.4523 154.105 33.9979 154.204 32.547C154.304 31.0961 154.732 29.6869 155.458 28.4263C156.183 27.1657 157.186 26.0869 158.39 25.2716C159.594 24.4564 160.968 23.9261 162.408 23.7211C163.848 23.5161 165.315 23.6417 166.699 24.0884C168.083 24.5351 169.347 25.2912 170.396 26.2992C171.444 27.3073 172.249 28.5409 172.749 29.9064C173.25 31.2718 173.432 32.7334 173.284 34.18V34.18Z" fill="white"/>
<path d="M173.284 34.18C173.098 35.9455 172.43 37.6256 171.352 39.036C171.082 39.3859 170.792 39.7198 170.484 40.036C170.164 40.3416 169.826 40.6275 169.472 40.892C168.048 41.9643 166.357 42.6244 164.584 42.8C164.141 42.84 163.696 42.848 163.252 42.824C162.808 42.8146 162.365 42.7691 161.928 42.688C160.164 42.3597 158.527 41.5467 157.2 40.34L157.312 40.376L152.512 41.108L152.164 41.164L152.34 40.856L154.74 36.708V36.872C154.181 35.5118 153.94 34.0421 154.034 32.5745C154.128 31.107 154.556 29.6803 155.285 28.403C156.014 27.1257 157.024 26.0314 158.24 25.2033C159.455 24.3752 160.843 23.8351 162.298 23.6241C163.754 23.4131 165.238 23.5367 166.638 23.9856C168.039 24.4345 169.318 25.1968 170.38 26.2146C171.441 27.2323 172.257 28.4787 172.764 29.859C173.271 31.2393 173.457 32.7171 173.308 34.18H173.284ZM173.284 34.18C173.436 32.7379 173.256 31.28 172.757 29.9185C172.257 28.5571 171.452 27.3284 170.403 26.3272C169.354 25.326 168.089 24.579 166.705 24.1436C165.322 23.7083 163.857 23.5962 162.424 23.816C161.003 24.0277 159.649 24.5628 158.468 25.38C157.296 26.2009 156.318 27.2669 155.6 28.504C154.898 29.7463 154.488 31.1319 154.4 32.556C154.309 33.9795 154.538 35.4052 155.072 36.728L155.108 36.816L155.064 36.892L152.664 41.028L152.492 40.776L157.292 40.104H157.356L157.404 40.148C158.683 41.3485 160.272 42.1674 161.992 42.512C162.42 42.6001 162.855 42.6523 163.292 42.668C163.727 42.7 164.164 42.7 164.6 42.668C165.475 42.6009 166.337 42.411 167.16 42.104C167.986 41.8059 168.764 41.3867 169.468 40.86C169.822 40.5996 170.16 40.3178 170.48 40.016C170.792 39.7045 171.083 39.3731 171.352 39.024C172.43 37.6186 173.099 35.942 173.284 34.18Z" fill="#1C2B46"/>
<path d="M162.852 34.1242V27.8122H164.728V34.1242H162.852ZM162.852 37.8682V35.7522H164.728V37.8682H162.852Z" fill="#3A8DFE"/>
<path d="M30.976 133.2C30.976 133.2 24.34 131.696 20.704 128.344C17.068 124.992 15.032 118.988 15.032 118.988C17.5545 119.472 20.0415 120.125 22.476 120.944C23.3885 121.887 24.1483 122.967 24.728 124.144C24.7851 123.386 24.7851 122.625 24.728 121.868C25.5781 122.234 26.3736 122.716 27.092 123.3C30.124 125.916 30.976 133.2 30.976 133.2Z" fill="#3A8DFE"/>
<path d="M19.1758 121.9C18.2718 121.272 17.3518 120.668 16.4518 120.036C16.3958 120 16.4518 119.912 16.5038 119.948C18.2158 120.968 19.8998 122.06 21.5318 123.204C22.0998 123.604 22.6598 124.004 23.2118 124.44L23.0958 124.244C22.8958 123.912 22.6958 123.584 22.4758 123.256C22.0588 122.592 21.5879 121.963 21.0678 121.376C21.0478 121.356 21.0678 121.324 21.0998 121.344C21.6158 121.94 22.1318 122.544 22.6038 123.164C22.8278 123.464 23.0358 123.776 23.2358 124.092C23.3398 124.26 23.4398 124.424 23.5318 124.596C23.5638 124.652 23.5998 124.708 23.6318 124.768C24.4918 125.44 25.3278 126.144 26.1238 126.884C26.6144 127.345 27.0891 127.821 27.5478 128.312C27.2918 127.512 27.0678 126.712 26.7718 125.912C26.7718 125.884 26.8038 125.872 26.8158 125.912C27.1038 126.744 27.4198 127.576 27.6438 128.428C28.1518 128.976 28.6398 129.548 29.0958 130.14L29.0718 130.032C28.9958 129.716 28.9198 129.404 28.8358 129.096C28.6718 128.496 28.4958 127.896 28.2958 127.312C27.9142 126.089 27.3094 124.947 26.5118 123.944C26.5118 123.92 26.5118 123.888 26.5438 123.912C27.7836 125.458 28.6537 127.266 29.0878 129.2C29.1558 129.48 29.2238 129.764 29.2878 130.048C29.3238 130.2 29.3638 130.352 29.3878 130.508C29.5878 130.78 29.7878 131.052 29.9758 131.336C31.1031 133.065 32.0418 134.91 32.7758 136.84C33.6055 139.01 34.3146 141.224 34.8998 143.472C34.8998 143.516 34.8478 143.532 34.8318 143.472C33.5438 139.6 32.2158 135.668 29.9998 132.196C29.5318 131.463 29.0258 130.755 28.4838 130.076C27.3844 130.002 26.2993 129.786 25.2558 129.432C24.1162 129.05 23.0301 128.525 22.0238 127.868C21.4484 127.48 20.8943 127.063 20.3638 126.616C20.3617 126.614 20.3599 126.612 20.3587 126.609C20.3575 126.607 20.3567 126.604 20.3566 126.601C20.3564 126.598 20.3567 126.596 20.3576 126.593C20.3585 126.59 20.3599 126.588 20.3618 126.586C20.3636 126.584 20.3658 126.582 20.3683 126.581C20.3708 126.58 20.3736 126.579 20.3763 126.579C20.3791 126.578 20.3819 126.579 20.3846 126.58C20.3872 126.581 20.3897 126.582 20.3918 126.584C21.3201 127.33 22.3438 127.949 23.4358 128.424C24.5139 128.917 25.6416 129.294 26.7998 129.548C27.2878 129.652 27.7838 129.732 28.2838 129.8C27.6689 129.044 27.0161 128.321 26.3278 127.632C26.1038 127.408 25.8718 127.192 25.6398 126.976C24.8658 126.436 24.0453 125.966 23.1878 125.572C22.0998 125.048 21.0278 124.488 19.9518 123.944C19.3438 123.632 18.7518 123.316 18.1278 123.02C18.1038 123.02 18.1278 122.968 18.1518 122.98C19.2438 123.508 20.3518 124 21.4518 124.504C22.4878 124.98 23.5358 125.456 24.5318 126.012L24.6558 126.088C23.7598 125.288 22.8278 124.56 21.8558 123.84C20.9758 123.176 20.0838 122.524 19.1758 121.9Z" fill="#1C2B46"/>
<path d="M19.5563 125.32C20.0923 125.556 20.6443 125.768 21.1563 126.016C21.7047 126.276 22.2388 126.566 22.7563 126.884C22.7803 126.884 22.7563 126.928 22.7363 126.916C22.2083 126.664 21.6723 126.428 21.1363 126.164C20.6003 125.9 20.0683 125.604 19.5363 125.364C19.5163 125.352 19.5283 125.308 19.5563 125.32Z" fill="#1C2B46"/>
<path d="M52.536 99.7478C51.3031 101.327 50.6029 103.257 50.536 105.26C50.536 105.852 50.608 106.684 50.676 107.66C49.0204 108.62 47.5537 109.874 46.348 111.36C47.6734 110.592 49.1944 110.227 50.724 110.312C50.6905 110.984 50.6049 111.653 50.468 112.312C49.5075 112.315 48.5567 112.503 47.668 112.868C48.5391 112.859 49.4026 113.03 50.204 113.372C49.004 117.136 45.504 121.004 35.804 122.644C34.772 118.028 35.3802 113.196 37.524 108.98C40.428 103.24 52.536 99.7478 52.536 99.7478Z" fill="#3A8DFE"/>
<path d="M32.4402 138.732C32.6082 137.132 32.8176 135.532 33.0682 133.932C33.5596 130.733 34.2124 127.561 35.0242 124.428C35.4058 122.957 35.8747 121.511 36.4282 120.096C36.4003 119.838 36.3883 119.579 36.3922 119.32C36.3922 119.008 36.3922 118.696 36.3922 118.384C36.3922 117.764 36.4282 117.144 36.4802 116.524C36.5783 115.296 36.7776 114.079 37.0762 112.884C37.2522 112.192 37.4762 111.508 37.6642 110.824C37.6661 110.819 37.6692 110.816 37.6731 110.813C37.677 110.811 37.6816 110.809 37.6862 110.809C37.6909 110.809 37.6955 110.811 37.6994 110.813C37.7033 110.816 37.7064 110.819 37.7082 110.824C37.3843 112.018 37.1437 113.233 36.9882 114.46C36.8163 115.668 36.7081 116.884 36.6642 118.104C36.6642 118.436 36.6442 118.772 36.6442 119.104C36.6442 119.248 36.6442 119.392 36.6442 119.536C37.1197 118.374 37.6661 117.243 38.2802 116.148C39.2666 114.421 40.3761 112.767 41.6002 111.2C41.6027 111.016 41.6296 110.833 41.6802 110.656C41.7242 110.44 41.7722 110.224 41.8202 110.008C41.9202 109.564 42.0322 109.12 42.1522 108.684C42.3922 107.804 42.7122 106.952 42.9882 106.084C42.9901 106.079 42.9932 106.076 42.9971 106.073C43.001 106.071 43.0056 106.069 43.0102 106.069C43.0149 106.069 43.0195 106.071 43.0234 106.073C43.0273 106.076 43.0304 106.079 43.0322 106.084C42.7722 106.944 42.6042 107.836 42.4082 108.712C42.3082 109.144 42.2162 109.58 42.1202 110.012C42.0722 110.228 42.0242 110.444 41.9802 110.664C41.9802 110.664 41.9802 110.696 41.9802 110.712C42.3722 110.216 42.7722 109.728 43.1802 109.248C45.0362 107.072 47.0682 105.068 49.1162 103.076C49.3682 102.832 49.6242 102.592 49.8802 102.352C49.9002 102.328 49.9322 102.352 49.9122 102.384C47.9562 104.424 46.0282 106.488 44.2082 108.648C43.7722 109.16 43.3482 109.68 42.9282 110.204L43.6002 109.76C44.1682 109.388 44.7402 109.028 45.3282 108.7C45.9162 108.372 46.5282 108.044 47.1162 107.744C47.7042 107.444 48.4042 107.188 49.0042 106.836C49.0322 106.836 49.0522 106.864 49.0282 106.876C48.4149 107.16 47.8227 107.487 47.2562 107.856C46.6642 108.208 46.0562 108.56 45.4962 108.928C44.9362 109.296 44.3482 109.648 43.7842 110.016C43.3122 110.324 42.8442 110.66 42.3562 110.944C41.2288 112.389 40.1896 113.901 39.2442 115.472C38.6592 116.46 38.1251 117.477 37.6442 118.52L37.9922 118.368L38.8842 117.968C39.4522 117.716 40.0282 117.468 40.6002 117.22C41.6882 116.748 42.7962 116.312 43.8642 115.792C44.4662 115.508 45.0488 115.184 45.6082 114.824C45.6322 114.824 45.6522 114.848 45.6082 114.864C43.6082 116.236 41.3842 117.204 39.1802 118.176L38.2282 118.6C37.9642 118.716 37.7002 118.848 37.4282 118.948C36.775 120.407 36.2256 121.911 35.7842 123.448C34.9169 126.539 34.2119 129.674 33.6722 132.84C33.1242 136 32.7482 139.2 32.4562 142.4C32.4202 142.8 32.3842 143.2 32.3362 143.6C32.3309 143.629 32.3154 143.656 32.2924 143.675C32.2693 143.695 32.2403 143.705 32.2102 143.705C32.1802 143.705 32.1511 143.695 32.1281 143.675C32.105 143.656 32.0895 143.629 32.0842 143.6C32.1002 142 32.2682 140.352 32.4402 138.732Z" fill="#1C2B46"/>
<path d="M38.3443 111.916C38.5243 110.928 38.7883 109.964 39.0523 109C39.0541 108.996 39.0572 108.992 39.0611 108.989C39.065 108.987 39.0696 108.985 39.0743 108.985C39.079 108.985 39.0835 108.987 39.0874 108.989C39.0913 108.992 39.0944 108.996 39.0963 109C38.8523 109.948 38.6963 110.916 38.4963 111.88C38.2963 112.844 38.1523 113.844 38.0163 114.832C38.0163 114.852 37.9883 114.852 37.9883 114.832C38.0534 113.854 38.1722 112.881 38.3443 111.916V111.916Z" fill="#1C2B46"/>
<path d="M42.5319 114.596C43.206 114.145 43.9118 113.744 44.6439 113.396C44.9959 113.212 45.3559 113.036 45.7119 112.864C46.0679 112.692 46.4679 112.536 46.8319 112.352C46.837 112.35 46.8425 112.35 46.8476 112.352C46.8526 112.354 46.8568 112.358 46.8596 112.362C46.8624 112.367 46.8635 112.372 46.8628 112.378C46.8622 112.383 46.8597 112.388 46.8559 112.392C46.4999 112.568 46.1639 112.792 45.8159 112.976L44.7359 113.564C44.0279 113.944 43.3279 114.364 42.5839 114.676C42.5791 114.683 42.5726 114.689 42.565 114.693C42.5574 114.697 42.5489 114.699 42.5403 114.699C42.5317 114.699 42.5232 114.697 42.5156 114.693C42.508 114.689 42.5016 114.683 42.4969 114.675C42.4922 114.668 42.4894 114.66 42.4887 114.651C42.488 114.643 42.4894 114.634 42.4929 114.626C42.4964 114.618 42.5018 114.611 42.5086 114.606C42.5154 114.601 42.5234 114.597 42.5319 114.596V114.596Z" fill="#1C2B46"/>
<path opacity="0.1" d="M30.8557 121.696C30.8557 121.696 24.7157 120.228 21.8957 116.096C19.2037 112.164 18.3317 105.456 18.2637 104.868C18.3717 105.408 19.6397 111.268 23.8197 114C27.0237 116.104 30.1157 117.824 30.8557 121.696Z" fill="#1C2B46"/>
<path d="M25.2001 111.084C26.2863 112.085 27.067 113.373 27.4521 114.8C27.0023 113.401 26.2215 112.132 25.1761 111.1C25.1361 111.1 25.1681 111.064 25.2001 111.084Z" fill="#1C2B46"/>
<path d="M30.8555 121.696C30.8555 121.696 24.7156 120.228 21.8956 116.096C19.2036 112.164 18.3316 105.456 18.2636 104.868C18.2618 104.853 18.2618 104.838 18.2636 104.824C18.2636 104.824 21.2076 109.012 24.3036 110.08C27.3995 111.148 31.7435 114.852 30.8555 121.696Z" fill="#3A8DFE"/>
<path d="M19.3442 107.148C19.8942 108.278 20.5294 109.365 21.2442 110.4C21.9596 111.38 22.8092 112.256 23.7682 113C24.6042 113.664 25.4842 114.264 26.3282 114.912V114.884C26.1682 114.648 26.0002 114.42 25.8242 114.196C25.4722 113.744 25.0882 113.32 24.7002 112.904C23.9362 112.076 23.1602 111.26 22.4762 110.364C22.0949 109.864 21.764 109.328 21.4882 108.764C21.4882 108.736 21.5202 108.724 21.5322 108.764C22.5282 110.84 24.5202 112.168 25.9322 113.92C26.1356 114.168 26.3252 114.427 26.5002 114.696C26.6411 114.89 26.7605 115.099 26.8562 115.32C27.6327 115.944 28.3347 116.655 28.9482 117.44C28.8977 117.034 28.8162 116.633 28.7042 116.24C28.5623 115.693 28.3427 115.169 28.0522 114.684C28.0522 114.66 28.0762 114.636 28.0882 114.66C28.3874 115.145 28.629 115.663 28.8082 116.204C28.9346 116.636 29.0085 117.082 29.0282 117.532C29.3332 117.943 29.6111 118.373 29.8602 118.82C29.8322 118.688 29.8082 118.56 29.7842 118.42C29.6602 117.808 29.5242 117.196 29.3842 116.592C29.0929 115.362 28.5923 114.192 27.9042 113.132C27.9042 113.108 27.9282 113.084 27.9442 113.108C28.647 114.153 29.1978 115.292 29.5802 116.492C29.7762 117.096 29.9322 117.692 30.0722 118.328C30.1362 118.628 30.2002 118.932 30.2562 119.236C30.2882 119.392 30.3202 119.556 30.3442 119.716C30.9552 121.053 31.4309 122.448 31.7642 123.88C32.3657 126.437 32.8026 129.03 33.0722 131.644C33.3893 134.38 33.5309 137.134 33.4962 139.888C33.4962 140.236 33.4682 140.58 33.4522 140.924C33.4522 141.012 33.3122 141.028 33.3082 140.924C33.2482 139.564 33.2122 138.2 33.1322 136.836C33.0522 135.472 32.9322 134.116 32.7882 132.756C32.5079 130.088 32.0806 127.437 31.5082 124.816C31.0082 122.572 30.3642 120.312 29.1362 118.344C28.525 117.367 27.779 116.481 26.9202 115.712C26.0602 114.936 25.1202 114.26 24.2122 113.544C23.2921 112.844 22.4571 112.038 21.7242 111.144C20.9669 110.161 20.3052 109.108 19.7482 108L19.3082 107.168C19.2922 107.144 19.3322 107.12 19.3442 107.148Z" fill="#1C2B46"/>
<path d="M20.3998 108.048C20.8022 108.877 21.2592 109.679 21.7678 110.448C21.7678 110.448 21.7678 110.484 21.7398 110.448C21.2123 109.688 20.7493 108.885 20.3558 108.048C20.3478 108.036 20.3998 108.02 20.3998 108.048Z" fill="#1C2B46"/>
<path d="M53.3922 118.98C53.3922 118.98 53.4882 127.708 48.2722 130.228C43.0563 132.748 40.2723 130.648 36.7083 131.492C36.8443 131.284 39.3763 127.644 43.4003 126.644C47.5482 125.6 52.1362 122.616 53.3922 118.98Z" fill="#3A8DFE"/>
<path opacity="0.1" d="M53.3922 118.98C53.3922 118.98 53.4882 127.708 48.2722 130.228C43.0563 132.748 40.2723 130.648 36.7083 131.492C38.5812 130.6 40.5831 130.008 42.6403 129.74C45.9402 129.34 52.2242 127.2 53.3922 118.98Z" fill="#151520"/>
<path d="M36.3637 131.648C36.9849 131.082 37.684 130.608 38.4397 130.24C38.5517 130.188 38.6677 130.144 38.7837 130.096C38.8357 130.028 38.8957 129.96 38.9557 129.896C39.1103 129.731 39.2743 129.575 39.4477 129.428C39.7753 129.145 40.1273 128.892 40.4997 128.672C41.3637 128.164 42.3117 127.808 43.1957 127.336C43.2197 127.336 43.2397 127.36 43.2157 127.376C42.7797 127.604 42.3557 127.852 41.9317 128.1C41.5077 128.348 41.0957 128.572 40.6917 128.832C40.3303 129.064 39.9854 129.32 39.6597 129.6C39.5677 129.684 39.4797 129.768 39.3917 129.86C39.9689 129.665 40.5581 129.507 41.1557 129.388C42.1117 129.196 43.0757 129.06 44.0277 128.856C44.4966 128.756 44.9599 128.632 45.4157 128.484C45.8477 128.136 46.2797 127.788 46.6877 127.408C47.1846 126.955 47.6373 126.455 48.0397 125.916C48.0397 125.892 48.0957 125.916 48.0757 125.94C47.443 126.796 46.726 127.587 45.9357 128.3C46.1637 128.212 46.3837 128.12 46.6037 128.024C48.3953 127.218 49.9331 125.939 51.0517 124.324C51.0517 124.3 51.1077 124.324 51.0877 124.348C50.1386 125.735 48.9129 126.91 47.4877 127.8C46.7746 128.245 46.0122 128.607 45.2157 128.876C44.2906 129.163 43.3471 129.386 42.3917 129.544C41.4545 129.696 40.5295 129.915 39.6237 130.2C38.7919 130.481 38.0101 130.893 37.3077 131.42C35.9781 132.453 34.9072 133.781 34.1797 135.3C33.2461 137.313 32.6631 139.471 32.4557 141.68C32.4557 141.772 32.2997 141.772 32.3077 141.68C32.5557 138 33.5397 134.196 36.3637 131.648Z" fill="#1C2B46"/>
<path d="M42.4203 128.8C42.6949 128.394 43.0642 128.06 43.4963 127.828C43.9912 127.57 44.426 127.21 44.7723 126.772C44.7723 126.748 44.8283 126.772 44.8083 126.796C44.4947 127.196 44.1128 127.537 43.6803 127.804C43.2084 128.057 42.7921 128.403 42.4563 128.82C42.4403 128.84 42.4003 128.824 42.4203 128.8Z" fill="#1C2B46"/>
<path d="M39.6519 138.088L39.4159 142.888L38.6879 157.548H27.7399L27.0119 142.888L26.7759 138.088H39.6519Z" fill="#49556B"/>
<path d="M39.6519 138.088L39.4159 142.888H27.0119L26.7759 138.088H39.6519Z" fill="#1C2B46"/>
<path d="M40.4198 136.084H26.0078V140.664H40.4198V136.084Z" fill="#49556B"/>
<path d="M167.776 179.716C166.896 179.98 142.036 179.128 141.112 178.496C140.756 178.26 140.668 174.632 140.688 170.24C140.688 170.196 140.688 170.152 140.688 170.104L156.732 170.476V170.748C156.732 170.748 166.1 175.328 167.048 176.132C167.996 176.936 168.652 179.456 167.776 179.716Z" fill="#3A8DFE"/>
<path d="M167.528 178.744C163.34 178.496 146.428 177.9 142.268 177.972C142.236 177.972 142.236 177.996 142.268 178C146.412 178.336 163.328 178.8 167.524 178.8C167.6 178.8 167.6 178.748 167.528 178.744Z" fill="#1C2B46"/>
<path d="M158.064 170.84C156.428 170.476 154.4 170.66 153.1 171.792C153.052 171.836 153.1 171.908 153.168 171.892C154.762 171.437 156.399 171.154 158.052 171.048C158.066 171.049 158.08 171.047 158.093 171.042C158.106 171.038 158.118 171.031 158.128 171.022C158.138 171.013 158.146 171.001 158.152 170.989C158.158 170.977 158.162 170.963 158.162 170.95C158.163 170.936 158.161 170.922 158.157 170.91C158.152 170.897 158.145 170.885 158.136 170.875C158.127 170.864 158.116 170.856 158.104 170.85C158.091 170.844 158.078 170.841 158.064 170.84V170.84Z" fill="#1C2B46"/>
<path d="M159.232 171.6C157.592 171.236 155.568 171.42 154.268 172.552C154.216 172.596 154.268 172.664 154.332 172.652C155.919 172.197 157.552 171.914 159.2 171.808C159.227 171.812 159.256 171.806 159.278 171.789C159.301 171.773 159.316 171.748 159.32 171.72C159.324 171.693 159.317 171.664 159.301 171.642C159.284 171.619 159.259 171.604 159.232 171.6V171.6Z" fill="#1C2B46"/>
<path d="M160.4 172.356C158.764 171.992 156.736 172.176 155.436 173.308C155.388 173.352 155.436 173.424 155.504 173.408C157.101 172.952 158.742 172.669 160.4 172.564C160.427 172.564 160.454 172.553 160.473 172.533C160.493 172.514 160.504 172.488 160.504 172.46C160.504 172.432 160.493 172.406 160.473 172.386C160.454 172.367 160.427 172.356 160.4 172.356V172.356Z" fill="#1C2B46"/>
<path d="M139.732 170.928L157.132 170.58C157.132 170.58 159.256 139.264 158.86 128.824C158.432 117.484 153.56 83.7399 153.56 83.7399H138.86C138.86 83.7399 142.62 117.616 142.696 128.94C142.772 139.476 139.732 170.928 139.732 170.928Z" fill="#49556B"/>
<path d="M150.672 83.7399L141.844 114.284C140.796 99.8278 138.86 83.7399 138.86 83.7399H150.672Z" fill="#1C2B46"/>
<path d="M141.652 85.4038L142.584 95.4758L143.448 105.556C144.004 112.276 144.528 119 144.928 125.736C145.024 127.416 145.084 129.108 145.06 130.8C145.036 132.492 144.956 134.176 144.872 135.86C144.699 139.231 144.483 142.597 144.224 145.96C143.966 149.323 143.699 152.684 143.424 156.044L142.484 166.116L143.236 156.028C143.487 152.665 143.723 149.303 143.944 145.94C144.156 142.576 144.384 139.212 144.54 135.844C144.62 134.158 144.678 132.476 144.712 130.796C144.712 129.116 144.664 127.436 144.56 125.756C144.196 119.024 143.664 112.3 143.172 105.576L141.652 85.4038Z" fill="#1C2B46"/>
<path d="M156.4 167.676C153.684 167.652 154.464 167.62 151.748 167.628C150.416 167.628 141.68 167.66 140.44 167.884C140.435 167.886 140.431 167.89 140.427 167.894C140.424 167.899 140.423 167.905 140.423 167.91C140.423 167.916 140.424 167.921 140.427 167.926C140.431 167.93 140.435 167.934 140.44 167.936C141.684 168.128 150.42 167.936 151.752 167.936C154.468 167.88 153.688 167.864 156.404 167.776C156.456 167.756 156.456 167.676 156.4 167.676Z" fill="#1C2B46"/>
<path d="M113.544 145.82C113.544 145.82 105.144 159.464 105.144 159.476C103.78 162.276 102.636 164.748 102.16 166.084C102.16 166.084 102.16 166.084 102.16 166.108C102.013 166.408 101.939 166.738 101.944 167.072C101.944 167.072 101.944 167.072 101.944 167.096C102.5 168.068 124.536 179.616 125.44 179.76C126.344 179.904 126.824 177.336 126.328 176.208C125.832 175.08 119.368 166.88 119.368 166.88L127.62 153.176L113.544 145.82Z" fill="#EB9481"/>
<path d="M101.94 167.072C101.938 167.08 101.938 167.088 101.94 167.096C102.5 168.068 124.536 179.616 125.44 179.76C126.344 179.904 126.824 177.336 126.328 176.208C125.832 175.08 119.368 166.88 119.368 166.88L120.84 164.432C117.24 162.516 110.692 159.144 106.628 157.056L105.14 159.476C103.776 162.276 102.628 164.748 102.16 166.084C102.158 166.092 102.158 166.1 102.16 166.108C102.01 166.407 101.934 166.738 101.94 167.072V167.072Z" fill="white"/>
<path d="M125.444 179.76C124.536 179.616 102.504 168.068 101.948 167.096C101.728 166.728 103.224 163.42 105.148 159.476C105.168 159.436 105.188 159.392 105.212 159.352L119.508 166.644L119.376 166.88C119.376 166.88 125.832 175.072 126.336 176.208C126.84 177.344 126.348 179.908 125.444 179.76Z" fill="#3A8DFE"/>
<path d="M125.64 178.776C121.976 176.736 106.996 168.864 103.216 167.128C103.188 167.128 103.176 167.128 103.216 167.152C106.816 169.252 121.848 177 125.616 178.836C125.688 178.872 125.72 178.8 125.64 178.776Z" fill="#1C2B46"/>
<path d="M120.544 167.552C119.224 166.512 117.32 165.8 115.656 166.256C115.592 166.256 115.62 166.364 115.676 166.376C117.308 166.655 118.905 167.11 120.44 167.732C120.464 167.745 120.492 167.748 120.518 167.74C120.544 167.733 120.566 167.716 120.579 167.692C120.593 167.669 120.597 167.641 120.59 167.615C120.583 167.589 120.567 167.566 120.544 167.552V167.552Z" fill="#1C2B46"/>
<path d="M121.264 168.74C119.948 167.7 118.04 166.988 116.38 167.444C116.316 167.444 116.34 167.552 116.38 167.564C118.013 167.845 119.611 168.3 121.148 168.92C121.172 168.935 121.201 168.941 121.229 168.935C121.256 168.929 121.281 168.912 121.296 168.888C121.311 168.864 121.317 168.835 121.311 168.807C121.305 168.78 121.288 168.755 121.264 168.74V168.74Z" fill="#1C2B46"/>
<path d="M122 169.928C120.68 168.888 118.776 168.176 117.112 168.632C117.048 168.652 117.076 168.74 117.112 168.752C118.745 169.033 120.343 169.488 121.88 170.108C121.904 170.124 121.933 170.13 121.961 170.124C121.989 170.118 122.014 170.102 122.03 170.078C122.046 170.054 122.052 170.025 122.046 169.997C122.04 169.969 122.024 169.944 122 169.928Z" fill="#1C2B46"/>
<path d="M152.056 83.724C151.992 84.028 150.964 88.796 149.896 92.892C149.124 95.884 148.324 98.492 147.868 98.784C147.352 99.092 144.828 100.208 143.98 100.56C143.98 100.56 138.304 128.896 135.308 137.684C132.544 145.792 121.1 167.464 121.1 167.464L104.5 159.064C104.5 159.064 117.464 137.064 118.828 133.12C120.94 127.004 128.86 97.12 128.86 97.12C128.86 97.12 128.796 87.768 131.948 83.684L152.056 83.724Z" fill="#49556B"/>
<path d="M120.852 164.24C118.48 162.916 119.18 163.264 116.792 161.964C115.624 161.328 107.944 157.164 106.752 156.764C106.728 156.764 106.704 156.796 106.728 156.812C107.728 157.576 115.476 161.612 116.656 162.224C119.056 163.476 118.392 163.092 120.816 164.316C120.86 164.336 120.896 164.268 120.852 164.24Z" fill="#1C2B46"/>
<path d="M133.112 94.56C133.568 94.444 134.056 94.404 134.516 94.332C134.892 94.272 135.264 94.208 135.636 94.124C136.347 93.9984 137.021 93.7155 137.608 93.296C138.252 92.796 138.576 92.036 138.888 91.296C139.072 90.864 139.264 90.432 139.456 90.004C139.548 89.796 139.644 89.604 139.74 89.38C139.871 89.1395 139.988 88.891 140.088 88.636C140.088 88.6 140.16 88.616 140.148 88.636C140.085 88.8203 140.036 89.0088 140 89.2C139.936 89.412 139.876 89.62 139.812 89.828C139.696 90.2 139.584 90.572 139.464 90.94C139.277 91.6219 139.009 92.2787 138.664 92.896C137.98 93.988 136.752 94.428 135.528 94.584C135.176 94.628 134.824 94.652 134.468 94.672C134.024 94.712 133.576 94.712 133.132 94.672C133.12 94.6702 133.108 94.6645 133.099 94.6557C133.09 94.6469 133.084 94.6356 133.082 94.6232C133.08 94.6108 133.081 94.5981 133.087 94.5867C133.092 94.5754 133.101 94.566 133.112 94.56V94.56Z" fill="#1C2B46"/>
<path d="M149.2 98.1318C147.4 98.7876 145.66 99.5986 144 100.556C143.989 100.564 143.98 100.575 143.976 100.589C143.972 100.603 143.973 100.617 143.979 100.63C143.985 100.643 143.995 100.653 144.008 100.66C144.02 100.666 144.035 100.667 144.048 100.664C145.804 99.9078 147.588 99.1878 149.3 98.3398C149.325 98.3248 149.343 98.3012 149.351 98.2737C149.359 98.2461 149.357 98.2166 149.344 98.1907C149.332 98.1648 149.31 98.1445 149.284 98.1336C149.257 98.1227 149.227 98.1221 149.2 98.1318V98.1318Z" fill="#1C2B46"/>
<path d="M149.736 86.128C149.736 86.068 149.624 86.052 149.624 86.128C149.626 88.0837 149.528 90.0382 149.332 91.984C149.248 92.884 148.532 97.876 146.956 97.512C146.696 97.452 146.556 97.192 146.52 96.796C146.528 96.2802 146.598 95.7672 146.728 95.268C146.904 94.224 147.044 93.176 147.128 92.12C147.311 90.1551 147.289 88.1765 147.064 86.216C147.061 86.2051 147.054 86.1956 147.045 86.1888C147.036 86.182 147.025 86.1783 147.014 86.1783C147.003 86.1783 146.992 86.182 146.983 86.1888C146.974 86.1956 146.967 86.2051 146.964 86.216C147.01 88.9401 146.85 91.6638 146.488 94.364C146.292 95.66 145.636 97.616 146.996 97.816C148.356 98.016 149.272 94.744 149.44 93.848C149.872 91.2983 149.972 88.7033 149.736 86.128V86.128Z" fill="#1C2B46"/>
<path d="M147 97.6358C146.86 97.9733 146.743 98.3193 146.648 98.6718C146.548 98.9433 146.497 99.2306 146.5 99.5198C146.502 99.5315 146.507 99.5422 146.515 99.5507C146.524 99.5592 146.534 99.5652 146.546 99.5677C146.557 99.5703 146.569 99.5694 146.58 99.5651C146.591 99.5609 146.601 99.5535 146.608 99.5438C146.771 99.2886 146.894 99.0092 146.972 98.7158C147.092 98.3958 147.22 98.0798 147.328 97.7558C147.337 97.7141 147.331 97.6702 147.311 97.6325C147.29 97.5948 147.257 97.5659 147.217 97.5511C147.176 97.5364 147.132 97.5369 147.092 97.5525C147.052 97.5681 147.019 97.5977 147 97.6358V97.6358Z" fill="#1C2B46"/>
<path d="M108.976 156.336C111.34 151.888 113.776 147.48 116.22 143.076C117.42 140.904 118.684 138.76 119.82 136.56C120.903 134.379 121.781 132.103 122.444 129.76C123.908 125.008 125.294 120.233 126.6 115.436C127.907 110.639 129.134 105.821 130.28 100.984C130.568 99.7839 130.884 98.5839 131.116 97.3479C131.326 96.1141 131.326 94.8537 131.116 93.6199C130.939 92.4713 130.93 91.3031 131.088 90.1519C131.268 89.0025 131.536 87.8686 131.888 86.7599C132.072 86.1759 132.288 85.5959 132.472 85.0159C132.477 85.0026 132.486 84.9916 132.498 84.9852C132.511 84.9788 132.525 84.9776 132.538 84.9819C132.552 84.9861 132.563 84.9955 132.569 85.0078C132.575 85.0202 132.577 85.0346 132.572 85.0479C131.856 87.3919 131.124 89.7599 131.28 92.2479C131.352 93.4479 131.68 94.6079 131.648 95.8079C131.573 96.9991 131.372 98.1789 131.048 99.3279C129.918 104.197 128.704 109.043 127.408 113.864C126.112 118.685 124.743 123.485 123.3 128.264C122.596 130.588 121.936 132.948 120.936 135.168C119.936 137.388 118.668 139.492 117.472 141.612C115.024 146.004 112.534 150.375 110 154.724L109.028 156.372C109.023 156.377 109.016 156.381 109.008 156.382C109.001 156.382 108.993 156.381 108.987 156.376C108.981 156.372 108.976 156.365 108.974 156.358C108.972 156.351 108.973 156.343 108.976 156.336V156.336Z" fill="#1C2B46"/>
<path d="M164.952 45.9279L161.276 56.2799C161.243 56.337 161.225 56.4013 161.223 56.4671C161.221 56.5329 161.235 56.5982 161.264 56.6571C161.294 56.7161 161.337 56.7669 161.391 56.805C161.444 56.8432 161.507 56.8676 161.572 56.8759L167.044 57.3919C167.21 57.3929 167.373 57.3473 167.514 57.2604C167.656 57.1734 167.77 57.0485 167.844 56.8999L171.52 46.5519C171.66 46.2479 171.52 45.9839 171.224 45.9559L165.752 45.4359C165.586 45.4359 165.423 45.4819 165.282 45.5687C165.141 45.6556 165.027 45.7799 164.952 45.9279V45.9279Z" fill="#1C2B46"/>
<path d="M165.6 46L161.924 56.352C161.784 56.652 161.924 56.92 162.22 56.948L167.692 57.464C167.858 57.4659 168.022 57.4207 168.163 57.3337C168.305 57.2466 168.419 57.1212 168.492 56.972L172.168 46.624C172.312 46.32 172.168 46.056 171.872 46.024L166.4 45.492C166.233 45.4934 166.069 45.5418 165.927 45.6316C165.786 45.7214 165.673 45.849 165.6 46V46Z" fill="#49556B"/>
<path d="M167.056 46.6119C167.045 46.7041 167.006 46.7909 166.946 46.8613C166.885 46.9316 166.805 46.9823 166.715 47.0068C166.626 47.0313 166.531 47.0287 166.443 46.9991C166.355 46.9695 166.277 46.9144 166.221 46.8408C166.164 46.7671 166.13 46.6783 166.125 46.5856C166.119 46.4929 166.14 46.4005 166.187 46.3201C166.234 46.2398 166.303 46.1752 166.387 46.1346C166.47 46.0939 166.564 46.0791 166.656 46.0919C166.777 46.1098 166.887 46.174 166.961 46.2711C167.036 46.3681 167.07 46.4903 167.056 46.6119V46.6119Z" fill="#1C2B46"/>
<path d="M145.344 62.368C148.564 68.94 155.104 76.6 157.992 76.588C159.368 76.588 162.172 77.036 163.952 75.424C167.828 71.912 171.508 66.192 172.352 62.652C172.668 61.328 165.504 58 164.56 59.108C162.344 61.704 159.804 66.772 159.404 66.748C157.924 66.66 152.06 61.948 147.968 58.62C142.992 54.584 144.064 59.748 145.344 62.368Z" fill="#EB9481"/>
<path d="M173.02 56.4C172.62 53.62 172.08 52.968 172.984 50.436C173.576 48.776 172.772 47.684 171.424 48.928C169.216 50.96 168.988 54.656 169.276 55.964L173.02 56.4Z" fill="#EB9481"/>
<path d="M171.704 64.4C171.704 64.4 173.304 60.748 173.168 57.74C173.072 55.664 172.368 51.16 166.864 48.256C165.56 47.568 163.216 47.508 164.932 49.408C166.156 50.756 167.332 51.24 167.904 52.156C167.904 52.156 164.912 52.436 164.272 53.756C163.714 54.9213 163.238 56.1242 162.848 57.356C163.059 57.4774 163.277 57.587 163.5 57.684C163.5 57.684 162.94 58.948 163.72 60.908L171.704 64.4Z" fill="#EB9481"/>
<path d="M172.756 55.764C172.004 54.964 170.376 53.332 168.576 52.452C166.576 51.476 162.464 50.128 161.756 51.612C161.24 52.7 162.764 53.352 162.764 53.352C162.764 53.352 160.948 53.152 160.692 54.236C160.464 55.224 161.672 55.66 161.672 55.66C161.672 55.66 160.548 55.728 160.512 56.724C160.464 57.924 162.824 57.576 163.824 58.832C164.048 59.112 172.756 55.764 172.756 55.764Z" fill="#EB9481"/>
<path d="M167.896 54.736C166.38 53.759 164.603 53.2665 162.8 53.324C162.756 53.324 162.736 53.364 162.776 53.368C164.528 53.6229 166.244 54.0889 167.884 54.756L167.896 54.736Z" fill="#1C2B46"/>
<path d="M166.848 56.7242C165.256 55.8962 163.471 55.5147 161.68 55.6202C161.636 55.6202 161.616 55.6602 161.656 55.6642C163.424 55.8274 165.169 56.1897 166.856 56.7442L166.848 56.7242Z" fill="#1C2B46"/>
<path d="M162.324 60.7602L172.084 67.0402C172.084 67.0402 167.876 73.2482 163.36 76.1922C161.252 77.5642 158.032 77.3922 157.04 77.0602C153.928 76.0682 146.268 66.5722 143.692 60.8802C142.124 57.4202 144.216 55.2162 148.036 58.3722C151.964 61.6202 158.864 65.6762 159.292 65.8482C159.72 66.0202 162.324 60.7602 162.324 60.7602Z" fill="#3A8DFE"/>
<path d="M165.976 65.7998C165.244 65.3199 162.34 63.3799 161.656 62.8479C161.656 62.8479 161.656 62.8159 161.656 62.8239C162.412 63.2239 165.336 65.0479 166.056 65.5279C167.54 66.4484 168.974 67.4471 170.352 68.5198C170.372 68.5198 170.352 68.5838 170.32 68.5678C168.828 67.7398 167.412 66.7438 165.976 65.7998Z" fill="#1C2B46"/>
<path opacity="0.1" d="M143.692 60.88C145.78 65.492 151.208 72.604 154.844 75.68L145.668 57.008C143.436 56.316 142.488 58.224 143.692 60.88Z" fill="#151520"/>
<path d="M131.944 83.7241C132.004 83.7921 153.328 84.0121 153.544 83.7241C153.868 83.3241 148.868 61.8961 147.008 57.9201C146.208 56.2241 142.036 55.7761 140.3 57.2481C135.964 60.9561 131.724 83.4841 131.944 83.7241Z" fill="white"/>
<path d="M140.684 56.8C140.684 56.8 143.036 67.828 143.256 68.624C143.476 69.42 144.316 89.6 144.316 89.6L129.684 87.828C129.684 87.828 132.804 76.608 133.152 76.1C133.5 75.592 136.28 63.7 138.548 59.376C139.572 57.412 140.684 56.8 140.684 56.8Z" fill="#3A8DFE"/>
<path d="M146.508 57.296C146.508 57.296 147.664 66.12 147.708 66.644C147.752 67.168 151.708 88.988 151.708 88.988L155.492 86.964C155.492 86.964 151.452 72.6 151.268 71.932C151.084 71.264 148 60 147.496 58.764C146.992 57.528 146.508 57.296 146.508 57.296Z" fill="#3A8DFE"/>
<path d="M137.976 59.74C133.812 64.94 124.824 76.876 127.144 79.856C130.96 84.756 140.648 89.372 143.7 90.456C145.02 90.928 150.304 81.448 149.084 80.584C147.62 79.548 138.116 75.244 138.092 74.772C138.068 74.3 140.224 67.692 141.088 62.472C142.16 56 139.712 57.564 137.976 59.74Z" fill="#EB9481"/>
<path d="M146.848 79.9041C146.848 79.9041 151.028 80.7041 153.736 81.3601C155.248 81.7241 157.78 82.5601 158.768 83.3601C160.248 84.5201 165.684 90.3121 164.308 91.6641C163.064 92.8841 159.024 87.3121 159.024 87.3121C159.024 87.3121 163.596 92.5721 161.824 93.7681C160.052 94.964 156.324 88.0641 156.324 88.0641C156.324 88.0641 160.904 93.572 158.884 94.516C157.356 95.228 153.628 89.1681 153.628 89.1681C153.628 89.1681 157.528 93.9321 155.992 94.7321C154.292 95.6161 150.496 90.2401 150.496 90.2401C146.244 91.6161 143.616 90.7401 141.908 89.5401C141.512 89.2521 146.848 79.9041 146.848 79.9041Z" fill="#EB9481"/>
<path d="M157.764 85.64C161.432 89.24 162.12 92.156 162.084 92.08C161.284 90.352 159.516 88.008 159.008 87.364C158.5 86.72 158.244 86.304 157.74 85.66C157.728 85.644 157.752 85.628 157.764 85.64Z" fill="#1C2B46"/>
<path d="M155.2 87.1639C156.748 88.5601 158.034 90.2207 159 92.0679C159.032 92.1439 159 92.1399 158.948 92.0679C158.328 91.2279 155.836 87.9799 155.18 87.1759C155.16 87.1679 155.2 87.1519 155.2 87.1639Z" fill="#1C2B46"/>
<path d="M152.884 88.3281C154.063 89.4342 155.023 90.7517 155.716 92.2121C155.752 92.2801 155.692 92.2761 155.648 92.2121C154.728 90.9041 154.02 89.8681 152.848 88.3681C152.828 88.3401 152.864 88.3041 152.884 88.3281Z" fill="#1C2B46"/>
<path d="M146.18 78.928L140.124 90.288C140.124 90.288 127.472 82.612 126.656 79.264C125.84 75.916 135.432 61.88 138.256 59.06C141.08 56.24 141.908 57.496 141.66 60.868C141.412 64.24 138.224 74.612 138.276 74.812C138.328 75.012 146.18 78.928 146.18 78.928Z" fill="#3A8DFE"/>
<path d="M139.512 69.8958C139.728 69.1145 139.94 68.3345 140.148 67.5558C140.256 67.1558 140.36 66.7558 140.476 66.3558L140.632 65.7958C140.656 65.7038 140.692 65.6118 140.712 65.5198C140.735 65.3919 140.772 65.2671 140.824 65.1478C140.824 65.1478 140.868 65.1478 140.864 65.1478C140.832 65.3638 140.864 65.2798 140.828 65.4438C140.795 65.5651 140.768 65.6879 140.748 65.8118L140.628 66.3798C140.544 66.7798 140.456 67.1558 140.36 67.5398L140.324 67.6918C140.322 67.6786 140.322 67.6651 140.324 67.6518C140.488 67.2518 140.66 66.8238 140.828 66.4118H140.86C140.736 66.8438 140.6 67.2678 140.436 67.6838C140.344 67.9238 140.236 68.1598 140.128 68.3958C139.996 68.9078 139.872 69.4238 139.728 69.9358C139.308 71.5358 138.876 73.1159 138.328 74.6639C138.992 75.0119 139.676 75.3239 140.328 75.6759C140.98 76.0279 141.656 76.3799 142.328 76.7399C143 77.0999 143.652 77.4519 144.308 77.8199L145.24 78.3559C145.58 78.5519 145.896 78.7839 146.236 78.9719C146.272 78.9719 146.236 79.0399 146.204 79.0199C145.848 78.8359 145.464 78.6919 145.104 78.5159L144.152 78.0439C143.48 77.6999 142.816 77.3439 142.152 76.9919C141.488 76.6399 140.82 76.2879 140.152 75.9279C139.484 75.5679 138.852 75.1719 138.196 74.8119C138.186 74.807 138.177 74.7997 138.17 74.7907C138.163 74.7816 138.158 74.7711 138.156 74.7598C138.142 74.7497 138.131 74.7354 138.125 74.719C138.12 74.7025 138.119 74.6846 138.124 74.6679C138.576 73.0678 139.068 71.4879 139.512 69.8958Z" fill="#1C2B46"/>
<path d="M140.516 83.2399C140.968 82.4399 142.788 79.1399 143.316 78.3639C143.316 78.3639 143.348 78.3639 143.344 78.3639C142.996 79.2039 141.296 82.4919 140.848 83.3159C139.989 84.9884 139.038 86.6122 138 88.1799C137.98 88.2079 137.928 88.1799 137.944 88.1559C138.692 86.4639 139.632 84.8639 140.516 83.2399Z" fill="#1C2B46"/>
<path d="M130.576 83.668C131.288 84.096 137.524 88.688 138.976 89.552C139.06 89.6 138.952 89.624 138.872 89.576C137.388 88.68 131.816 84.936 130.536 83.728C130.492 83.68 130.516 83.628 130.576 83.668Z" fill="#1C2B46"/>
<path d="M145.2 60.892C143.868 61.044 141.6 58.608 140.924 56.892C140.876 56.776 141.184 55.636 141.488 54.236C141.668 53.384 141.848 52.432 141.952 51.552L147.316 53.552C146.874 54.6171 146.562 55.7319 146.388 56.872C146.376 56.993 146.376 57.115 146.388 57.236V57.296C146.4 58 146.484 60.74 145.2 60.892Z" fill="#EB9481"/>
<path d="M146.4 57.2359C146.398 57.2558 146.398 57.2759 146.4 57.2959C146.209 57.3003 146.017 57.2896 145.828 57.2639C142.628 56.8159 142.348 52.8159 142.332 51.6999L143.672 52.1959L147.332 53.5559C146.887 54.6188 146.576 55.7326 146.404 56.8719C146.391 56.9928 146.389 57.1147 146.4 57.2359V57.2359Z" fill="#1C2B46"/>
<path d="M141.22 46.1601C140.768 48.1601 142.228 53.7601 143.724 54.9321C145.888 56.6161 149.22 56.5321 150.596 53.9921C151.932 51.5161 149.896 44.2481 148.248 43.2161C145.82 41.6921 141.888 43.2001 141.22 46.1601Z" fill="#EB9481"/>
<path d="M143.244 48.996C143.528 47.856 142.736 46.052 143.244 45.508C144.348 44.332 146.976 46.188 148.66 46.056C150.344 45.924 150.748 44.856 150.34 43.536C149.932 42.216 148.74 41.444 146.884 41.324C145.269 41.2769 143.689 41.7994 142.42 42.8C142.42 42.8 142.776 42.104 142.604 41.912C142.432 41.72 141.688 42.42 141.464 42.712C141.308 42.9571 141.195 43.2279 141.132 43.512C140.883 43.4752 140.63 43.4752 140.38 43.512C140.02 43.5675 139.691 43.7489 139.452 44.024C139.428 44.124 140.028 44.152 140.448 44.136C140.448 44.136 139.76 45.232 139.848 46.112C139.936 46.992 141.668 51.068 142 51.084C142.428 51.108 143.128 49.456 143.244 48.996Z" fill="#1C2B46"/>
<path d="M140.6 44C140.6 44 140.636 44 140.624 44C140.248 44.3617 139.978 44.8196 139.844 45.324C139.723 45.9518 139.777 46.6009 140 47.2C140.421 48.3093 140.957 49.3711 141.6 50.368C141.62 50.396 141.568 50.428 141.548 50.396C140.803 49.3536 140.223 48.2028 139.828 46.984C139.52 45.924 139.664 44.688 140.6 44Z" fill="#1C2B46"/>
<path d="M143.384 42.244C144.018 41.8581 144.703 41.5657 145.42 41.376C146.101 41.169 146.814 41.0837 147.524 41.124C148.748 41.216 149.924 41.892 150.324 43.124C150.533 43.7472 150.503 44.4257 150.24 45.028C150.235 45.0344 150.229 45.0389 150.221 45.0409C150.213 45.0429 150.205 45.0422 150.197 45.039C150.19 45.0358 150.184 45.0302 150.18 45.0231C150.176 45.0161 150.175 45.0079 150.176 45C150.388 44.4488 150.416 43.8437 150.255 43.2755C150.094 42.7072 149.754 42.2064 149.284 41.848C148.22 41.072 146.824 41.124 145.604 41.424C144.843 41.6262 144.104 41.9063 143.4 42.26C143.4 42.26 143.38 42.244 143.384 42.244Z" fill="#1C2B46"/>
<path d="M142.8 50.696C142.8 50.696 141.344 48.984 140.556 49.52C139.768 50.056 140.984 52.624 141.996 52.892C142.123 52.9353 142.258 52.9525 142.392 52.9425C142.526 52.9326 142.657 52.8957 142.776 52.8341C142.896 52.7725 143.002 52.6874 143.088 52.5839C143.173 52.4805 143.238 52.3608 143.276 52.232L142.8 50.696Z" fill="#EB9481"/>
<path d="M146.984 49.444C146.984 49.444 146.96 49.472 146.984 49.488C147.088 49.864 147.144 50.316 146.828 50.524C146.828 50.524 146.828 50.552 146.828 50.524C147.224 50.4 147.144 49.788 146.984 49.444Z" fill="#1C2B46"/>
<path d="M146.548 49.128C145.924 49.232 146.172 50.472 146.752 50.376C147.332 50.28 147.072 49.044 146.548 49.128Z" fill="#1C2B46"/>
<path d="M149.268 48.9278C149.268 48.9278 149.3 48.9278 149.304 48.9558C149.368 49.3558 149.508 49.7558 149.88 49.8318C149.448 49.8798 149.268 49.3038 149.268 48.9278Z" fill="#1C2B46"/>
<path d="M149.528 48.456C150.14 48.284 150.436 49.516 149.872 49.656C149.308 49.796 149.02 48.6 149.528 48.456Z" fill="#1C2B46"/>
<path d="M145.66 47.9082C145.776 47.7722 145.904 47.6682 146.032 47.5442C146.146 47.3992 146.305 47.2964 146.484 47.2522C146.543 47.2474 146.602 47.2625 146.651 47.2951C146.7 47.3278 146.737 47.376 146.756 47.4322C146.775 47.5493 146.763 47.6695 146.721 47.7805C146.679 47.8915 146.608 47.9894 146.516 48.0642C146.353 48.243 146.129 48.3543 145.888 48.3762C145.833 48.3785 145.778 48.3646 145.731 48.3363C145.683 48.308 145.645 48.2665 145.621 48.2168C145.597 48.1671 145.587 48.1114 145.594 48.0566C145.601 48.0018 145.624 47.9502 145.66 47.9082V47.9082Z" fill="#1C2B46"/>
<path d="M150.152 47.7721C149.997 47.6956 149.836 47.6288 149.672 47.5721C149.514 47.4763 149.328 47.4368 149.144 47.4601C149.088 47.4779 149.04 47.5139 149.006 47.5624C148.973 47.611 148.957 47.6693 148.96 47.7281C148.984 47.8439 149.037 47.9514 149.116 48.0393C149.195 48.1273 149.296 48.1925 149.408 48.2281C149.625 48.3368 149.875 48.3596 150.108 48.2921C150.161 48.2746 150.208 48.242 150.242 48.1983C150.276 48.1547 150.297 48.1019 150.302 48.0466C150.306 47.9913 150.295 47.9358 150.268 47.887C150.242 47.8382 150.201 47.7983 150.152 47.7721V47.7721Z" fill="#1C2B46"/>
<path d="M147.6 52.372C148.059 52.1222 148.57 51.9851 149.092 51.972C149.136 51.972 149.156 51.86 149.156 51.816L148.964 51.016C149.08 51.048 149.676 51.18 149.636 51.016C149.327 49.707 148.886 48.4325 148.32 47.212C148.317 47.203 148.31 47.1956 148.302 47.1915C148.293 47.1874 148.283 47.1868 148.274 47.19C148.265 47.1932 148.258 47.1998 148.254 47.2085C148.25 47.2171 148.249 47.227 148.252 47.236C148.532 48.436 149.02 49.604 149.316 50.836C149.104 50.7858 148.886 50.7656 148.668 50.776C148.632 50.776 148.92 51.62 148.932 51.752C148.432 51.7233 147.94 51.8897 147.56 52.216C147.412 52.344 147.38 52.512 147.6 52.372Z" fill="#1C2B46"/>
<path d="M146.936 53.0999C147.044 53.1679 147.164 53.272 147.304 53.252C147.449 53.2211 147.585 53.1597 147.704 53.0719C147.704 53.0719 147.728 53.0719 147.704 53.0719C147.665 53.1577 147.603 53.2314 147.526 53.2856C147.449 53.3397 147.358 53.3723 147.264 53.38C147.182 53.3777 147.103 53.3504 147.037 53.3018C146.972 53.2531 146.922 53.1855 146.896 53.108C146.892 53.104 146.92 53.0879 146.936 53.0999Z" fill="#1C2B46"/>
<path d="M146.4 57.2L144.88 60.4L141.072 56L139.84 57.256C139.84 57.256 143.404 64.08 143.44 63.784L144.964 61.048L146.788 63.132L146.936 58.196L146.4 57.2Z" fill="white"/>
<path d="M147.02 60.696C147.02 59.896 147.02 59.06 146.996 58.244C146.996 58.216 146.952 58.2 146.944 58.244C146.732 59.016 146.756 62.136 146.708 62.88C146.632 62.788 145.012 61.04 144.992 61.064C144.672 61.496 143.552 63.488 143.476 63.668C142.912 62.584 140.74 58.636 140.056 57.604C140.053 57.5971 140.047 57.5918 140.04 57.5891C140.033 57.5865 140.025 57.5868 140.018 57.59C140.011 57.5932 140.006 57.599 140.003 57.6061C140.001 57.6132 140.001 57.6211 140.004 57.628C140.492 58.764 143.36 64.08 143.412 64.068C143.995 63.1326 144.53 62.1672 145.012 61.176C145.28 61.552 146.904 63.512 146.916 63.392C146.999 62.4959 147.034 61.5959 147.02 60.696V60.696Z" fill="#1C2B46"/>
</svg>
