<svg width="85" height="29" viewBox="0 0 85 29" fill="none" xmlns="http://www.w3.org/2000/svg">
<g style="mix-blend-mode:multiply">
<path fill-rule="evenodd" clip-rule="evenodd" d="M20.2468 10.3735V12.6633C20.2468 13.7274 21.143 14.59 22.2488 14.59C23.3544 14.59 24.2507 13.7274 24.2507 12.6633V10.3735C24.2507 5.61574 20.2431 1.7588 15.2995 1.7588C10.3559 1.7588 6.34839 5.61574 6.34839 10.3735V12.6633C6.34839 13.7274 7.24467 14.59 8.35031 14.59C9.45594 14.59 10.3522 13.7274 10.3522 12.6633V10.3735C10.3522 7.74389 12.5672 5.61217 15.2995 5.61217C18.0318 5.61217 20.2468 7.74389 20.2468 10.3735Z" fill="#16B4F8"/>
</g>
<g style="mix-blend-mode:multiply">
<path d="M0.617188 14.8711L0.617188 11.5818C0.617188 10.9156 1.17839 10.3755 1.87066 10.3755H28.7252C29.4174 10.3755 29.9787 10.9156 29.9787 11.5818V14.8711C29.9787 22.6743 23.4059 29 15.2979 29C7.18997 29 0.617187 22.6743 0.617188 14.8711Z" fill="#39EEEE"/>
</g>
<path d="M36.022 26.2583C35.562 26.2583 35.1337 26.1782 34.7372 26.0141C34.3407 25.85 33.9996 25.6287 33.7141 25.3462C33.4247 25.0638 33.1986 24.7318 33.0321 24.3578C32.8616 23.9762 32.7783 23.5716 32.7783 23.1404C32.7783 22.7015 32.8616 22.2932 33.0321 21.9115C33.2026 21.53 33.4326 21.2017 33.7221 20.9232C34.0115 20.6446 34.3565 20.4232 34.7491 20.2629C35.1456 20.1027 35.5659 20.0225 36.014 20.0225C36.3075 20.0225 36.593 20.0607 36.8705 20.1332C37.1481 20.2095 37.4019 20.3125 37.6398 20.4461C37.8777 20.5797 38.0918 20.74 38.2941 20.927C38.4923 21.114 38.6629 21.3238 38.8016 21.5528L38.1791 21.9192C37.961 21.549 37.6636 21.2476 37.2948 21.0224C36.926 20.7972 36.4978 20.6827 36.018 20.6827C35.6611 20.6827 35.328 20.7476 35.0227 20.8773C34.7174 21.0071 34.4517 21.1827 34.2257 21.404C33.9996 21.6253 33.8252 21.8849 33.6943 22.1863C33.5635 22.484 33.5 22.8045 33.5 23.1442C33.5 23.4839 33.5635 23.8006 33.6903 24.0983C33.8172 24.396 33.9917 24.6554 34.2177 24.8768C34.4438 25.0982 34.7094 25.2738 35.0148 25.3996C35.3201 25.5255 35.6532 25.5904 36.0101 25.5904C36.5335 25.5904 36.9895 25.4684 37.3702 25.2241C37.7548 24.9798 38.0443 24.6631 38.2465 24.2662L38.8849 24.5906C38.7461 24.8387 38.5796 25.0676 38.3853 25.2738C38.191 25.4798 37.9689 25.6553 37.7231 25.8004C37.4772 25.9492 37.2115 26.0598 36.9221 26.14C36.6405 26.2201 36.3352 26.2583 36.022 26.2583Z" fill="black"/>
<path d="M42.91 26.2584C42.45 26.2584 42.0217 26.1783 41.6252 26.0142C41.2287 25.85 40.8876 25.6288 40.6021 25.3463C40.3127 25.0639 40.0867 24.7319 39.9241 24.3579C39.7615 23.9801 39.6782 23.5755 39.6782 23.1443C39.6782 22.713 39.7615 22.3086 39.932 21.9307C40.1025 21.5529 40.3325 21.2247 40.6259 20.9423C40.9194 20.6599 41.2644 20.4347 41.653 20.2745C42.0455 20.1104 42.4619 20.0303 42.906 20.0303C43.3541 20.0303 43.7744 20.1104 44.1669 20.2745C44.5595 20.4385 44.9005 20.6599 45.1939 20.9423C45.4874 21.2247 45.7174 21.5567 45.8839 21.9307C46.0505 22.3086 46.1338 22.713 46.1338 23.1443C46.1338 23.5717 46.0505 23.9725 45.88 24.3503C45.7095 24.728 45.4795 25.0563 45.186 25.3386C44.8926 25.6211 44.5476 25.8462 44.159 26.0142C43.7704 26.1745 43.3541 26.2584 42.91 26.2584ZM42.91 25.5867C43.2629 25.5867 43.592 25.5218 43.9012 25.3959C44.2106 25.27 44.4763 25.0945 44.7023 24.8731C44.9283 24.6517 45.1028 24.3923 45.2336 24.0946C45.3644 23.7969 45.4279 23.4801 45.4279 23.1405C45.4279 22.8008 45.3644 22.4841 45.2336 22.1864C45.1028 21.8888 44.9283 21.6293 44.7023 21.4079C44.4763 21.1866 44.2106 21.011 43.9012 20.8812C43.592 20.7515 43.2629 20.6866 42.91 20.6866C42.557 20.6866 42.2279 20.7515 41.9226 20.8812C41.6173 21.011 41.3516 21.1866 41.1216 21.4079C40.8956 21.6293 40.7171 21.8888 40.5863 22.1864C40.4554 22.4841 40.392 22.8008 40.392 23.1405C40.392 23.4801 40.4554 23.7969 40.5863 24.0946C40.7171 24.3923 40.8916 24.6517 41.1176 24.8731C41.3437 25.0945 41.6093 25.27 41.9147 25.3959C42.22 25.5218 42.5531 25.5867 42.91 25.5867Z" fill="black"/>
<path d="M47.4146 20.1025H48.1324L50.3727 23.0907L52.6964 20.1025H53.3785V26.1743H52.6766V21.175L50.3609 24.1707L48.1205 21.2436V26.1781H47.4106V20.1025H47.4146Z" fill="black"/>
<path d="M54.8575 20.1025H55.5752L57.8156 23.0908L60.1393 20.1025H60.8214V26.1743H60.1195V21.175L57.8037 24.1707L55.5633 21.2436V26.1781H54.8535V20.1025H54.8575Z" fill="black"/>
<path d="M62.3003 20.1025H66.4916V20.759H63.0181V22.7968H66.4916V23.4533H63.0181V25.5064H66.4916V26.1705H62.3003V20.1025Z" fill="black"/>
<path d="M67.8118 20.1025H70.318C70.6351 20.1025 70.9286 20.1522 71.1942 20.2514C71.4639 20.3506 71.6899 20.488 71.8803 20.6636C72.0706 20.8391 72.2173 21.0452 72.3244 21.2856C72.4314 21.5261 72.483 21.7856 72.483 22.0641C72.483 22.2588 72.4552 22.4496 72.3957 22.6327C72.3363 22.8197 72.253 22.9914 72.142 23.1479C72.0309 23.3044 71.8921 23.4457 71.7296 23.5677C71.567 23.6898 71.3886 23.7852 71.1863 23.8501L72.5623 26.1705H71.7494L70.5123 24.0333H68.5256V26.1705H67.8079V20.1025H67.8118ZM68.5296 20.7437V23.4074H70.2585C70.5003 23.4074 70.7145 23.3693 70.9008 23.2968C71.0872 23.2205 71.2458 23.1213 71.3767 22.9991C71.5076 22.8732 71.6027 22.7319 71.6702 22.5679C71.7376 22.4038 71.7693 22.2321 71.7693 22.0565C71.7693 21.8695 71.7335 21.694 71.6661 21.5337C71.5987 21.3734 71.4956 21.236 71.3687 21.1177C71.2379 20.9994 71.0793 20.9116 70.8929 20.8467C70.7066 20.7818 70.4964 20.7513 70.2664 20.7513H68.5296V20.7437Z" fill="black"/>
<path d="M76.7538 26.2583C76.2938 26.2583 75.8656 26.1782 75.4691 26.0141C75.0725 25.85 74.7314 25.6287 74.446 25.3462C74.1565 25.0638 73.9305 24.7318 73.7639 24.3578C73.5974 23.98 73.5142 23.5754 73.5142 23.1442C73.5142 22.7053 73.5974 22.297 73.7679 21.9154C73.9385 21.5338 74.1684 21.2055 74.4579 20.927C74.7474 20.6484 75.0923 20.427 75.4849 20.2668C75.8814 20.1065 76.3018 20.0263 76.7498 20.0263C77.0433 20.0263 77.3288 20.0645 77.6064 20.137C77.8839 20.2133 78.1377 20.3164 78.3756 20.45C78.6135 20.5835 78.8277 20.7438 79.0299 20.9308C79.2282 21.1178 79.3987 21.3277 79.5375 21.5566L78.9149 21.923C78.6968 21.5528 78.3994 21.2514 78.0307 21.0262C77.6619 20.8011 77.2336 20.6865 76.7538 20.6865C76.397 20.6865 76.0639 20.7514 75.7585 20.8812C75.4532 21.0109 75.1875 21.1865 74.9614 21.4079C74.7355 21.6292 74.561 21.8887 74.4301 22.1901C74.2992 22.4878 74.2359 22.8083 74.2359 23.148C74.2359 23.4877 74.2992 23.8045 74.4261 24.1021C74.553 24.3998 74.7275 24.6593 74.9535 24.8806C75.1796 25.102 75.4453 25.2776 75.7506 25.4035C76.0559 25.5293 76.389 25.5943 76.7459 25.5943C77.2693 25.5943 77.7253 25.4722 78.106 25.2279C78.4907 24.9836 78.7801 24.667 78.9823 24.27L79.6208 24.5944C79.4819 24.8425 79.3154 25.0714 79.121 25.2776C78.9268 25.4836 78.7047 25.6592 78.4589 25.8042C78.213 25.953 77.9473 26.0637 77.6578 26.1438C77.3724 26.2201 77.0671 26.2583 76.7538 26.2583Z" fill="black"/>
<path d="M80.7468 20.1025H84.9382V20.759H81.4646V22.7968H84.9382V23.4533H81.4646V25.5064H84.9382V26.1705H80.7468V20.1025Z" fill="black"/>
<path d="M43.8181 4.49951H41.7192V14.1857H43.8181V4.49951Z" fill="black"/>
<path d="M44.7852 14.1855H47.2317L49.3306 11.2833L47.5162 10.395L44.7852 14.1855Z" fill="black"/>
<path d="M57.3463 4.49953H55.2473V14.1857H57.3463V4.49953Z" fill="black"/>
<path d="M54.3308 4.59717H51.9222L49.7159 7.74882L47.4906 4.59717H45.1008L52.017 14.186H54.4825L50.9486 9.28813L54.3308 4.59717Z" fill="black"/>
<path d="M39.4429 5.52166C39.1142 5.20529 38.7159 4.95583 38.2544 4.7733C37.7866 4.59078 37.2745 4.49951 36.7182 4.49951H32.748V14.1796H34.7015V6.20919H36.5917C36.8762 6.20919 37.1354 6.25178 37.3756 6.34304C37.6159 6.43431 37.8182 6.55599 37.9889 6.71419C38.1596 6.87238 38.2923 7.06099 38.3808 7.28611C38.4756 7.50514 38.5199 7.74851 38.5199 8.01622C38.5199 8.27175 38.4756 8.50904 38.3808 8.73416C38.286 8.9532 38.1596 9.14789 37.9889 9.30608C37.8182 9.46427 37.6159 9.59204 37.3756 9.67723C37.1354 9.76849 36.8762 9.81108 36.5917 9.81108H35.1377L35.909 11.5451H36.7055C37.2745 11.5451 37.7929 11.4538 38.2544 11.2652C38.7159 11.0766 39.1142 10.8271 39.4429 10.5047C39.7716 10.1822 40.0308 9.80499 40.2142 9.3791C40.3975 8.9532 40.4923 8.49688 40.4923 8.0223C40.4923 7.53556 40.3975 7.07924 40.2142 6.64726C40.0308 6.20919 39.7716 5.83805 39.4429 5.52166Z" fill="black"/>
</svg>
