<svg width="115" height="37" viewBox="0 0 115 37" fill="none" xmlns="http://www.w3.org/2000/svg">
<path d="M105.14 9.00866e-05H9.10229C8.75222 9.00866e-05 8.40635 9.00864e-05 8.05714 0.00189182C7.76492 0.00369355 7.47499 0.00891857 7.17991 0.0133328C6.53888 0.0204484 5.89935 0.0736636 5.26689 0.172516C4.63531 0.27352 4.02352 0.463948 3.4522 0.737359C2.8816 1.01309 2.36023 1.37138 1.90701 1.79921C1.4514 2.22581 1.07161 2.71889 0.782239 3.25951C0.492067 3.79911 0.290865 4.37733 0.185584 4.97422C0.079294 5.57033 0.0220986 6.17331 0.0145107 6.77775C0.00563243 7.05396 0.00467778 7.33106 0 7.60736V28.4301C0.00467778 28.7099 0.00563243 28.9808 0.0145107 29.2607C0.0221057 29.8651 0.0793012 30.4681 0.185584 31.0641C0.290582 31.6613 0.491796 32.2398 0.782239 32.7796C1.07147 33.3185 1.45131 33.8096 1.90701 34.2339C2.35852 34.6636 2.88022 35.0221 3.4522 35.2957C4.02351 35.5699 4.63524 35.7614 5.26689 35.864C5.89946 35.9621 6.53892 36.0153 7.17991 36.0233C7.4749 36.0294 7.76492 36.0329 8.05723 36.0329C8.40635 36.0347 8.75222 36.0347 9.10229 36.0347H105.14C105.483 36.0347 105.832 36.0347 106.175 36.0329C106.466 36.0329 106.764 36.0294 107.055 36.0233C107.695 36.0157 108.333 35.9625 108.964 35.864C109.598 35.7607 110.212 35.5692 110.786 35.2957C111.357 35.022 111.879 34.6635 112.33 34.2339C112.784 33.808 113.165 33.3172 113.458 32.7796C113.746 32.2394 113.945 31.661 114.049 31.0641C114.155 30.4679 114.214 29.8651 114.226 29.2607C114.23 28.9808 114.23 28.7099 114.23 28.4301C114.237 28.1029 114.237 27.7774 114.237 27.4448V8.59092C114.237 8.26094 114.237 7.93374 114.23 7.60736C114.23 7.33106 114.23 7.05396 114.226 6.77766C114.215 6.17317 114.155 5.57032 114.049 4.97413C113.945 4.37765 113.746 3.79953 113.458 3.2596C112.869 2.1759 111.934 1.29376 110.786 0.737268C110.212 0.464529 109.598 0.274151 108.964 0.172426C108.333 0.0731531 107.695 0.0199345 107.055 0.0132427C106.764 0.00882848 106.466 0.00351338 106.175 0.00180173C105.832 0 105.483 0 105.14 0L105.14 9.00866e-05Z" fill="#A6A6A6"/>
<path d="M8.06166 35.2463C7.77078 35.2463 7.48696 35.2428 7.19837 35.2366C6.60057 35.2293 6.00416 35.1802 5.41404 35.0898C4.86378 35.0003 4.33073 34.834 3.83247 34.5961C3.33877 34.3603 2.88847 34.0511 2.49883 33.6803C2.10352 33.3139 1.7744 32.889 1.52451 32.4223C1.2719 31.9525 1.09708 31.4491 1.00614 30.9293C0.907961 30.3709 0.854857 29.8062 0.847285 29.2402C0.841176 29.0502 0.833252 28.4177 0.833252 28.4177V7.6071C0.833252 7.6071 0.841653 6.98424 0.847285 6.80118C0.854559 6.23608 0.907376 5.67231 1.00528 5.11476C1.0964 4.59363 1.27137 4.08869 1.52413 3.61743C1.77305 3.15106 2.1003 2.72576 2.4932 2.35802C2.88567 1.9868 3.33743 1.67598 3.83199 1.43689C4.32912 1.19987 4.86117 1.0347 5.41032 0.946909C6.00239 0.855579 6.60088 0.806224 7.20076 0.799257L8.06214 0.788086H106.17L107.042 0.799527C107.636 0.806191 108.229 0.855157 108.816 0.946008C109.371 1.03492 109.908 1.20128 110.411 1.43959C111.402 1.92141 112.208 2.68369 112.717 3.6196C112.965 4.08763 113.138 4.58847 113.227 5.10512C113.327 5.66723 113.382 6.23542 113.393 6.80515C113.396 7.06027 113.396 7.33432 113.396 7.6071C113.404 7.94492 113.404 8.26644 113.404 8.59066V27.4445C113.404 27.7718 113.404 28.0912 113.396 28.4131C113.396 28.7061 113.396 28.9745 113.392 29.2507C113.381 29.8103 113.327 30.3683 113.229 30.9204C113.14 31.4439 112.966 31.9513 112.714 32.4249C112.462 32.8865 112.135 33.3078 111.744 33.6732C111.354 34.046 110.903 34.357 110.408 34.5943C109.907 34.834 109.37 35.0009 108.816 35.0896C108.226 35.1806 107.629 35.2297 107.032 35.2366C106.746 35.2429 106.46 35.2461 106.175 35.2462L105.14 35.248L8.06166 35.2463Z" fill="black"/>
<path d="M40.1607 10.6244C40.1607 11.2951 39.9505 11.8292 39.5297 12.2276C39.0516 12.7014 38.4286 12.9384 37.6627 12.9384C36.9293 12.9384 36.3057 12.6983 35.7928 12.2173C35.2791 11.7367 35.0227 11.1407 35.0227 10.4296C35.0227 9.71817 35.2791 9.12252 35.7928 8.64151C36.3057 8.16092 36.9293 7.92041 37.6627 7.92041C38.0267 7.92041 38.3751 7.98769 38.7059 8.12185C39.0367 8.25633 39.3021 8.43485 39.5006 8.65841L39.0539 9.08086C38.7175 8.70094 38.2543 8.51112 37.6627 8.51112C37.1278 8.51112 36.6653 8.68878 36.2749 9.04431C35.8845 9.4002 35.6893 9.86171 35.6893 10.4296C35.6893 10.9975 35.8845 11.459 36.2749 11.8149C36.6653 12.1704 37.1278 12.348 37.6627 12.348C38.2302 12.348 38.7033 12.1694 39.0821 11.8118C39.3279 11.5787 39.4701 11.2548 39.5082 10.8389H37.6627V10.262H40.1252C40.149 10.3874 40.1606 10.5078 40.1606 10.6244" fill="white"/>
<path d="M40.1608 10.6249H40.0761C40.0754 11.2803 39.8729 11.7893 39.4699 12.1715L39.469 12.1721L39.4687 12.1728C39.0058 12.6302 38.4109 12.8579 37.6629 12.8588C36.949 12.8579 36.3515 12.6277 35.8525 12.1612C35.3547 11.6937 35.1085 11.123 35.1075 10.43C35.1085 9.73679 35.3547 9.16641 35.8525 8.69924C36.3515 8.23236 36.949 8.00189 37.6629 8.00092C38.0159 8.00092 38.352 8.06604 38.6726 8.19577C38.9935 8.32652 39.247 8.49784 39.4359 8.71054L39.5007 8.65887L39.4409 8.60228L38.9942 9.02502L39.054 9.08132L39.1193 9.03009C38.7672 8.63135 38.273 8.43035 37.6629 8.43153C37.1081 8.43089 36.6201 8.61826 36.2165 8.98728C35.8089 9.35748 35.6041 9.84498 35.6048 10.43C35.6041 11.0151 35.8089 11.5026 36.2165 11.8728C36.6201 12.2419 37.1081 12.4292 37.6629 12.4285C38.2491 12.4295 38.7487 12.2415 39.1421 11.8688C39.4048 11.6198 39.5537 11.275 39.5927 10.8462L39.6006 10.7593H37.7476V10.3425H40.1254V10.2624L40.0419 10.2765C40.0651 10.3979 40.0761 10.5132 40.0761 10.6249H40.2455C40.2455 10.5032 40.2335 10.3782 40.2087 10.2481L40.1962 10.1824H37.5782V10.9194H39.5083V10.8394L39.424 10.8325C39.3866 11.2353 39.2509 11.5386 39.0223 11.7557C38.6584 12.0983 38.2118 12.2675 37.6629 12.2684C37.1478 12.2678 36.7108 12.1002 36.334 11.7578C35.9608 11.4166 35.7752 10.981 35.7742 10.43C35.7752 9.87905 35.9608 9.44347 36.334 9.1023C36.7108 8.7599 37.1478 8.59228 37.6629 8.59163C38.2356 8.59293 38.6681 8.77177 38.9893 9.13295L39.0489 9.19987L39.5607 8.7155L39.6156 8.66362L39.5656 8.60757C39.3575 8.37311 39.0802 8.187 38.7395 8.04884C38.3981 7.91026 38.0378 7.84082 37.6629 7.84082C36.91 7.84021 36.2602 8.09036 35.7331 8.58541C35.2042 9.07949 34.9375 9.70053 34.9382 10.43C34.9375 11.1592 35.2042 11.7806 35.7335 12.275C36.2602 12.7697 36.91 13.0196 37.6629 13.0189C38.447 13.0196 39.0975 12.7734 39.5911 12.2834L39.5298 12.2281L39.5897 12.2847C40.0284 11.8704 40.2461 11.3106 40.2455 10.6249H40.1608H40.1608ZM44.0646 8.61854H41.7504V10.1415H43.8374V10.7186H41.7504V12.2415H44.0646V12.8316H41.098V8.02848H44.0646V8.61854Z" fill="white"/>
<path d="M44.0645 8.61836V8.53831H41.6656V10.2213H43.7525V10.6382L41.6655 10.6384V12.3214H43.9798V12.7514H41.1826V8.10834H43.9798V8.61836H44.0645V8.53831V8.61836H44.1491V7.94824H41.0132V12.9115H44.1491V12.1613H41.8349V10.7985H43.9219V10.0612H41.8349V8.69841H44.1491V8.61836H44.0645ZM46.818 12.8315H46.1646V8.61832H44.7453V8.02826H48.2374V8.61832H46.818V12.8314" fill="white"/>
<path d="M46.8183 12.8314V12.7514H46.2496V8.53831H44.8303V8.10838H48.1529V8.53831H46.7336V12.8314H46.8183V12.7514V12.8314H46.903V8.69841H48.3223V7.94824H44.6609V8.69837H46.0802V12.9114H46.903V12.8314H46.8183V12.8314ZM50.7642 12.8314V8.02826H51.417V12.8314H50.7642" fill="white"/>
<path d="M50.7641 12.8315H50.8488V8.10834H51.3321V12.7514H50.7641V12.8314H50.8488H50.7641V12.9115H51.5015V7.94824H50.6794V12.9115H50.7641V12.8314V12.8315ZM54.3133 12.8315H53.6599V8.61832H52.2407V8.02826H55.7326V8.61832H54.3133V12.8314" fill="white"/>
<path d="M54.3133 12.8312V12.7511H53.7446V8.53803H52.3254V8.1081H55.6479V8.53803H54.2286V12.8311H54.3133V12.7511V12.8311H54.398V8.69813H55.8173V7.94797H52.156V8.6981H53.5752V12.9112H54.398V12.8311H54.3133V12.8312ZM59.0993 11.8083C59.4754 12.1682 59.9356 12.348 60.4799 12.348C61.0241 12.348 61.4846 12.1682 61.8601 11.8083C62.2366 11.4484 62.4252 10.9883 62.4252 10.4296C62.4252 9.87085 62.2366 9.41077 61.8601 9.05086C61.4846 8.69094 61.0241 8.51112 60.4799 8.51112C59.9356 8.51112 59.4754 8.69094 59.0993 9.05086C58.7237 9.41077 58.5352 9.87082 58.5352 10.4296C58.5352 10.9883 58.7237 11.4484 59.0993 11.8083ZM62.3431 12.2104C61.8435 12.696 61.2222 12.9384 60.4799 12.9384C59.7368 12.9384 59.1157 12.696 58.6172 12.2104C58.1173 11.7254 57.8685 11.1316 57.8685 10.4296C57.8685 9.72752 58.1173 9.13368 58.6172 8.64874C59.1158 8.16304 59.7368 7.92041 60.4799 7.92041C61.2183 7.92041 61.8379 8.16434 62.3398 8.65187C62.841 9.13936 63.0918 9.73191 63.0918 10.4296C63.0918 11.1316 62.8416 11.7254 62.3431 12.2104Z" fill="white"/>
<path d="M59.0991 11.8088L59.0389 11.8651C59.4289 12.2394 59.9156 12.4295 60.4797 12.4285C61.0434 12.4295 61.5307 12.2394 61.9202 11.8651C62.3128 11.4904 62.5103 11.0057 62.5097 10.43C62.5103 9.8544 62.3128 9.36968 61.9202 8.99501C61.5307 8.6207 61.0434 8.4306 60.4797 8.43153C59.9156 8.4306 59.4289 8.6207 59.0389 8.99501C58.6472 9.36968 58.4493 9.8544 58.4503 10.43C58.4493 11.0057 58.6472 11.4904 59.0389 11.8651L59.0991 11.8088L59.1593 11.7525C58.8 11.4069 58.6204 10.9723 58.6197 10.43C58.6204 9.88786 58.8 9.45318 59.1593 9.10758C59.5219 8.76209 59.9549 8.59261 60.4797 8.59167C61.004 8.59261 61.4381 8.76209 61.7997 9.10758C62.1597 9.45318 62.3393 9.88786 62.34 10.43C62.3393 10.9722 62.1597 11.4069 61.7997 11.7525C61.4381 12.098 61.0041 12.2675 60.4797 12.2684C59.9549 12.2675 59.5219 12.098 59.1593 11.7525L59.0991 11.8088ZM62.3429 12.2109L62.2824 12.1553C61.7968 12.6256 61.2029 12.8579 60.4797 12.8588C59.7561 12.8579 59.1623 12.6256 58.6775 12.1553L58.6753 12.1527L58.6775 12.1553C58.1929 11.6833 57.9538 11.1143 57.9531 10.43C57.9538 9.74582 58.1929 9.17673 58.6775 8.70485C59.1623 8.23452 59.7561 8.00189 60.4797 8.00096C61.1982 8.00189 61.7907 8.23549 62.2791 8.70827C62.7654 9.18235 63.0059 9.75054 63.007 10.43C63.0059 11.1143 62.7661 11.6833 62.2824 12.1553L62.3429 12.2109L62.4039 12.2665C62.9173 11.7681 63.1769 11.1499 63.1764 10.43C63.177 9.71431 62.9163 9.09733 62.4005 8.59671C61.8844 8.0941 61.238 7.83996 60.4797 7.84082C59.7174 7.83996 59.069 8.09292 58.5562 8.59358V8.59322C58.0418 9.09197 57.783 9.71021 57.7837 10.43C57.783 11.1499 58.0418 11.7681 58.5562 12.2668L58.5585 12.2691L58.5562 12.2665C59.069 12.7672 59.7174 13.0196 60.4797 13.0189C61.2416 13.0196 61.89 12.7672 62.4039 12.2665L62.3429 12.2109ZM64.008 12.8316V8.02844H64.8027L67.2724 11.7649H67.3006L67.2724 10.8393V8.02844H67.9258V12.8316H67.2443L64.6605 8.91399H64.6323L64.6605 9.83994V12.8316H64.0081" fill="white"/>
<path d="M64.008 12.8314H64.0927V8.10834H64.7557L67.2254 11.8448H67.3875L67.3571 10.838V8.10838H67.8411V12.7514H67.2913L64.7075 8.83379H64.5454L64.5758 9.84108V12.7514H64.0081V12.8314H64.0927H64.0081V12.9115H64.7451V9.83853L64.7171 8.91168L64.6323 8.91384V8.99389H64.6605V8.91384L64.5886 8.9564L67.1973 12.9115H68.0105V7.94824H67.1878V10.8401L67.2159 11.767L67.3006 11.7648V11.6847H67.2724V11.7648L67.3443 11.7223L64.8496 7.94824H63.9234V12.9115H64.0081V12.8314L64.008 12.8314ZM90.5688 26.4403H92.1491V16.4328H90.5687L90.5688 26.4403ZM104.803 20.0377L102.992 24.3765H102.938L101.057 20.0377H99.3549L102.174 26.1019L100.567 29.4751H102.216L106.561 20.0377L104.803 20.0377ZM95.8409 25.3036C95.3226 25.3036 94.601 25.0591 94.601 24.4537C94.601 23.6813 95.5005 23.3852 96.2763 23.3852C96.9717 23.3852 97.2977 23.5268 97.7203 23.7201C97.5975 24.6469 96.7531 25.3036 95.8409 25.3036ZM96.0315 19.8188C94.8873 19.8188 93.7024 20.2953 93.2121 21.3511L94.6146 21.9045C94.9144 21.3511 95.4725 21.1706 96.0586 21.1706C96.8759 21.1706 97.7068 21.6343 97.7203 22.4583V22.5612C97.4341 22.4067 96.8217 22.175 96.0722 22.175C94.5604 22.175 93.0206 22.9602 93.0206 24.428C93.0206 25.7671 94.2606 26.6298 95.6496 26.6298C96.7125 26.6298 97.2977 26.1792 97.6661 25.6514H97.7203V26.4237H99.2457V22.5868C99.2457 20.8104 97.8431 19.8188 96.0315 19.8188ZM86.2646 21.2559H84.0168V17.8256H86.2646C87.4461 17.8256 88.1168 18.7503 88.1168 19.5408C88.1168 20.3163 87.446 21.2559 86.2646 21.2559ZM86.2239 16.4328H82.4372V26.4403H84.0167V22.6488H86.2239C87.9754 22.6488 89.6972 21.4501 89.6972 19.5408C89.6972 17.6314 87.9754 16.4328 86.2239 16.4328ZM65.5746 25.3055C64.4828 25.3055 63.5687 24.4415 63.5687 23.2548C63.5687 22.0556 64.4828 21.1784 65.5746 21.1784C66.6525 21.1784 67.4984 22.0556 67.4984 23.2548C67.4984 24.4415 66.6525 25.3055 65.5746 25.3055H65.5746ZM67.3892 20.5981H67.3346C66.98 20.1984 66.2974 19.8373 65.438 19.8373C63.6368 19.8373 61.986 21.3332 61.986 23.2548C61.986 25.1635 63.6368 26.6467 65.438 26.6467C66.2974 26.6467 66.98 26.2855 67.3346 25.873H67.3892V26.363C67.3892 27.6658 66.6525 28.3622 65.4654 28.3622C64.4966 28.3622 63.8962 27.7042 63.6504 27.1498L62.2725 27.6914C62.6682 28.5942 63.7189 29.7034 65.4654 29.7034C67.321 29.7034 68.8902 28.6714 68.8902 26.1567V20.0436H67.3892V20.5981ZM69.9817 26.4403H71.5644V16.4325H69.9817V26.4403ZM73.8977 23.1388C73.8567 21.8232 74.9756 21.1528 75.7806 21.1528C76.4087 21.1528 76.9405 21.4492 77.1176 21.8752L73.8977 23.1388ZM78.8098 22.0039C78.5099 21.2428 77.5952 19.8373 75.7259 19.8373C73.8703 19.8373 72.3286 21.2172 72.3286 23.242C72.3286 25.1507 73.8567 26.6467 75.9033 26.6467C77.5546 26.6467 78.5099 25.6923 78.9055 25.1378L77.6774 24.3639C77.2683 24.9315 76.7085 25.3055 75.9033 25.3055C75.0984 25.3055 74.5254 24.9571 74.1568 24.2738L78.9732 22.3908L78.8098 22.0039ZM40.4363 20.882V22.3263H44.0929C43.9838 23.1388 43.6972 23.732 43.2605 24.1447C42.7286 24.6479 41.8962 25.2023 40.4362 25.2023C38.1848 25.2023 36.4248 23.4871 36.4248 21.3591C36.4248 19.2312 38.1848 17.5158 40.4363 17.5158C41.6507 17.5158 42.5373 17.9673 43.1924 18.5476L44.2703 17.5289C43.3562 16.7033 42.1417 16.0714 40.4363 16.0714C37.3525 16.0714 34.76 18.4445 34.76 21.3591C34.76 24.2738 37.3525 26.6467 40.4363 26.6467C42.101 26.6467 43.3562 26.1311 44.3384 25.1635C45.3482 24.2091 45.6622 22.868 45.6622 21.7848C45.6622 21.4492 45.635 21.1399 45.5801 20.882H40.4363ZM49.8195 25.3055C48.7277 25.3055 47.7861 24.4543 47.7861 23.242C47.7861 22.0168 48.7277 21.1784 49.8195 21.1784C50.9108 21.1784 51.8524 22.0168 51.8524 23.242C51.8524 24.4543 50.9108 25.3055 49.8195 25.3055ZM49.8195 19.8373C47.8271 19.8373 46.2033 21.2687 46.2033 23.242C46.2033 25.2023 47.8271 26.6467 49.8195 26.6467C51.8114 26.6467 53.4351 25.2023 53.4351 23.242C53.4351 21.2687 51.8114 19.8373 49.8195 19.8373ZM57.7072 25.3055C56.6159 25.3055 55.6742 24.4543 55.6742 23.242C55.6742 22.0168 56.6159 21.1784 57.7072 21.1784C58.7987 21.1784 59.7402 22.0168 59.7402 23.242C59.7402 24.4543 58.7987 25.3055 57.7072 25.3055H57.7072ZM57.7072 19.8373C55.715 19.8373 54.0915 21.2687 54.0915 23.242C54.0915 25.2023 55.715 26.6467 57.7072 26.6467C59.6992 26.6467 61.323 25.2023 61.323 23.242C61.323 21.2687 59.6992 19.8373 57.7072 19.8373H57.7072Z" fill="white"/>
<path d="M8.90041 8.51768C8.61619 8.76006 8.44653 9.16433 8.44653 9.70097V9.57966V27.2881V27.1714C8.44653 27.667 8.59206 28.0498 8.8385 28.2962L8.90141 28.3531V28.3534C9.10088 28.5235 9.35666 28.6139 9.6498 28.6136C9.93624 28.6136 10.2585 28.5273 10.5986 28.345L22.8922 21.7429L27.1149 19.4748C27.6512 19.1869 27.9523 18.8154 28.0026 18.437V18.4354C27.9523 18.0561 27.6512 17.6849 27.115 17.3969L22.8918 15.1292L10.5987 8.52703C10.2578 8.34445 9.93532 8.25781 9.64813 8.25781C9.35532 8.25781 9.09989 8.34786 8.90049 8.51768H8.90041Z" fill="#00C1FF"/>
<path d="M8.90144 28.353L8.8385 28.2961C8.59206 28.0497 8.44653 27.6669 8.44653 27.1713V27.288V9.58393V9.70086C8.44653 9.16422 8.61619 8.75994 8.90041 8.51756L19.3939 18.4356L8.90144 28.353Z" fill="url(#paint0_linear_1403_48328)"/>
<path d="M22.8921 21.7427L19.3938 18.4356L22.8918 15.129L27.1149 17.3967C27.6512 17.6848 27.9522 18.0559 28.0026 18.4352V18.4368C27.9522 18.8152 27.6512 19.1867 27.1149 19.4746L22.8921 21.7426" fill="url(#paint1_linear_1403_48328)"/>
<path d="M9.64969 28.6138C9.35658 28.614 9.1008 28.5236 8.90137 28.3535V28.3533L19.3938 18.4359L22.8921 21.743L10.5985 28.3452C10.2584 28.5275 9.93612 28.6138 9.64969 28.6138Z" fill="url(#paint2_linear_1403_48328)"/>
<path d="M19.3939 18.4355L8.90039 8.5175C9.09986 8.34768 9.3553 8.25763 9.64806 8.25763C9.93526 8.25763 10.2578 8.34423 10.5986 8.52685L22.8919 15.129L19.3939 18.4355" fill="url(#paint3_linear_1403_48328)"/>
<path d="M9.64995 28.731C9.35684 28.731 9.10072 28.6406 8.90125 28.4705L8.9009 28.4708C8.90008 28.47 8.8992 28.4693 8.89827 28.4686L8.84372 28.4182C8.842 28.4167 8.8404 28.4148 8.83838 28.413L8.90129 28.3535C9.10076 28.5236 9.3565 28.614 9.64968 28.6137C9.93608 28.6137 10.2584 28.5274 10.5985 28.3451L22.892 21.743L22.9708 21.8175L22.8911 21.8603L10.5984 28.462C10.2885 28.6281 9.99365 28.7147 9.72735 28.7291C9.70157 28.7303 9.67576 28.7309 9.64995 28.7309" fill="url(#paint4_linear_1403_48328)"/>
<path d="M8.83851 28.4131C8.59206 28.1666 8.44653 27.7842 8.44653 27.2883V27.1716C8.44653 27.6672 8.59206 28.05 8.83851 28.2964L8.90141 28.3534L8.83851 28.4131Z" fill="url(#paint5_linear_1403_48328)"/>
<path d="M22.9709 21.8173L22.8921 21.7429L27.1148 19.4749C27.6511 19.1869 27.9522 18.8154 28.0025 18.437C28.0025 18.5759 27.9698 18.7147 27.9046 18.8498C27.7733 19.1222 27.51 19.3795 27.1149 19.5918L22.9709 21.8174" fill="url(#paint6_linear_1403_48328)"/>
<path d="M28.0024 18.4355C27.9521 18.0562 27.651 17.6851 27.1147 17.397L22.8916 15.1293L22.9704 15.0548H22.9707L27.1147 17.2804C27.706 17.5981 28.0021 18.0168 28.0024 18.4355Z" fill="url(#paint7_linear_1403_48328)"/>
<path d="M8.44653 9.70117V9.57885C8.44653 9.53474 8.44779 9.4916 8.45019 9.44973V9.44782C8.45019 9.44724 8.45019 9.44663 8.45042 9.44598V9.44127C8.47593 9.0144 8.61619 8.68143 8.83849 8.45909L8.90041 8.51784C8.61619 8.76026 8.44653 9.16453 8.44653 9.70117Z" fill="url(#paint8_linear_1403_48328)"/>
<path d="M22.8917 15.1294L10.5985 8.52718C10.2577 8.3446 9.93517 8.258 9.64797 8.258C9.35517 8.258 9.09973 8.34805 8.90029 8.51786L8.83838 8.45908C8.85771 8.43973 8.87781 8.42107 8.89862 8.40313C8.89926 8.40248 8.90029 8.40184 8.90094 8.40123C9.09881 8.23271 9.35155 8.14266 9.64172 8.14104H9.64797C9.93517 8.14104 10.2577 8.22767 10.5985 8.41033L22.9708 15.0547L22.9705 15.0549L22.8917 15.1294Z" fill="url(#paint9_linear_1403_48328)"/>
<defs>
<linearGradient id="paint0_linear_1403_48328" x1="15.1525" y1="9.39682" x2="6.63406" y2="18.4383" gradientUnits="userSpaceOnUse">
<stop stop-color="#00A0FF"/>
<stop offset="0.00657" stop-color="#00A1FF"/>
<stop offset="0.2601" stop-color="#00BEFF"/>
<stop offset="0.5122" stop-color="#00D2FF"/>
<stop offset="0.7604" stop-color="#00DFFF"/>
<stop offset="1" stop-color="#00E3FF"/>
</linearGradient>
<linearGradient id="paint1_linear_1403_48328" x1="28.656" y1="18.3784" x2="8.16245" y2="18.3784" gradientUnits="userSpaceOnUse">
<stop stop-color="#FFE000"/>
<stop offset="0.4087" stop-color="#FFBD00"/>
<stop offset="0.7754" stop-color="#FFA500"/>
<stop offset="1" stop-color="#FF9C00"/>
</linearGradient>
<linearGradient id="paint2_linear_1403_48328" x1="21.0348" y1="21.5802" x2="6.59355" y2="36.7963" gradientUnits="userSpaceOnUse">
<stop stop-color="#FF3A44"/>
<stop offset="1" stop-color="#C31162"/>
</linearGradient>
<linearGradient id="paint3_linear_1403_48328" x1="6.19592" y1="7.0471" x2="12.6315" y2="13.8384" gradientUnits="userSpaceOnUse">
<stop stop-color="#32A071"/>
<stop offset="0.0685" stop-color="#2DA771"/>
<stop offset="0.4762" stop-color="#15CF74"/>
<stop offset="0.8009" stop-color="#06E775"/>
<stop offset="1" stop-color="#00F076"/>
</linearGradient>
<linearGradient id="paint4_linear_1403_48328" x1="21.0271" y1="23.8741" x2="9.46679" y2="36.1445" gradientUnits="userSpaceOnUse">
<stop stop-color="#CC2E36"/>
<stop offset="1" stop-color="#9C0E4E"/>
</linearGradient>
<linearGradient id="paint5_linear_1403_48328" x1="9.84444" y1="9.39705" x2="2.3398" y2="17.3628" gradientUnits="userSpaceOnUse">
<stop stop-color="#008DE0"/>
<stop offset="0.00657" stop-color="#008DE0"/>
<stop offset="0.2601" stop-color="#00A7E0"/>
<stop offset="0.5122" stop-color="#00B8E0"/>
<stop offset="0.7604" stop-color="#00C4E0"/>
<stop offset="1" stop-color="#00C7E0"/>
</linearGradient>
<linearGradient id="paint6_linear_1403_48328" x1="28.656" y1="18.4362" x2="8.16245" y2="18.4362" gradientUnits="userSpaceOnUse">
<stop stop-color="#E0C500"/>
<stop offset="0.4087" stop-color="#E0A600"/>
<stop offset="0.7754" stop-color="#E09100"/>
<stop offset="1" stop-color="#E08900"/>
</linearGradient>
<linearGradient id="paint7_linear_1403_48328" x1="28.6558" y1="18.4363" x2="8.16239" y2="18.4363" gradientUnits="userSpaceOnUse">
<stop stop-color="#FFE840"/>
<stop offset="0.4087" stop-color="#FFCE40"/>
<stop offset="0.7754" stop-color="#FFBC40"/>
<stop offset="1" stop-color="#FFB540"/>
</linearGradient>
<linearGradient id="paint8_linear_1403_48328" x1="9.83575" y1="9.41073" x2="2.5889" y2="16.7693" gradientUnits="userSpaceOnUse">
<stop stop-color="#40B8FF"/>
<stop offset="0.00657" stop-color="#40B9FF"/>
<stop offset="0.2601" stop-color="#40CEFF"/>
<stop offset="0.5122" stop-color="#40DDFF"/>
<stop offset="0.7604" stop-color="#40E7FF"/>
<stop offset="1" stop-color="#40EAFF"/>
</linearGradient>
<linearGradient id="paint9_linear_1403_48328" x1="6.18049" y1="9.14495" x2="11.3427" y2="14.6243" gradientUnits="userSpaceOnUse">
<stop stop-color="#65B895"/>
<stop offset="0.0685" stop-color="#62BD95"/>
<stop offset="0.4762" stop-color="#50DB97"/>
<stop offset="0.8009" stop-color="#44ED98"/>
<stop offset="1" stop-color="#40F498"/>
</linearGradient>
</defs>
</svg>
