<svg width="200" height="200" viewBox="0 0 200 200" fill="none" xmlns="http://www.w3.org/2000/svg">
<path d="M32.2043 168.716L49.9803 168.62L67.7523 168.584L103.304 168.52L138.852 168.584L156.628 168.62L174.404 168.716L156.628 168.816L138.852 168.852L103.304 168.916L67.7523 168.852L49.9803 168.816L32.2043 168.716Z" fill="#263238"/>
<path d="M76.6799 184.46C108.034 184.46 133.452 181.575 133.452 178.016C133.452 174.457 108.034 171.572 76.6799 171.572C45.3256 171.572 19.908 174.457 19.908 178.016C19.908 181.575 45.3256 184.46 76.6799 184.46Z" fill="#EBEBEB"/>
<path d="M154.128 181.72C169.791 181.72 182.488 180.062 182.488 178.016C182.488 175.97 169.791 174.312 154.128 174.312C138.465 174.312 125.768 175.97 125.768 178.016C125.768 180.062 138.465 181.72 154.128 181.72Z" fill="#EBEBEB"/>
<path d="M33.7598 177.732L99.3598 178.016C115.304 165.492 116.96 146.94 105.576 135.696C98.6918 128.896 89.9478 130.268 81.6238 129.184H81.5998C78.6998 128.808 75.8558 128.132 73.1558 126.708C64.5838 122.184 59.7518 111.508 52.5398 102.544C51.6398 101.42 50.6998 100.324 49.7158 99.2721C43.7838 92.9401 31.9798 92.7322 25.8078 101.636C10.1278 124.252 17.3158 157.92 33.7598 177.732Z" fill="#DBDBDB"/>
<path d="M32.3037 125.976C34.0237 152.892 65.1037 162.94 84.5238 154.876C101.404 147.864 95.8798 131.864 81.6318 129.184H81.5998C78.6998 128.808 75.8558 128.132 73.1558 126.708C64.5838 122.184 59.7518 111.508 52.5398 102.544C41.8038 96.9602 31.0437 106.268 32.3037 125.976Z" fill="#C7C7C7"/>
<path d="M86.8277 175.916C85.9197 175.584 65.4037 159.184 65.0157 158.064C64.8637 157.64 67.0797 154.512 69.8637 150.808C70.4637 150.008 71.0877 149.208 71.7277 148.356C75.8757 142.952 80.3997 137.316 80.3997 137.316L94.1557 148.248L85.1077 158.984L83.1077 161.344C83.1077 161.344 88.1557 171.136 88.4477 172.408C88.7397 173.68 87.7357 176.248 86.8277 175.916Z" fill="#AD6359"/>
<path d="M86.8281 175.916C85.9201 175.584 65.4041 159.184 65.0161 158.064C64.8361 157.548 68.1401 153.036 71.7281 148.356L85.1081 158.984L83.1081 161.344C83.1081 161.344 88.1561 171.136 88.4481 172.408C88.7401 173.68 87.7361 176.248 86.8281 175.916Z" fill="white"/>
<path d="M86.8277 175.916C85.9197 175.584 65.4037 159.184 65.0157 158.064C64.8637 157.64 67.0797 154.512 69.8637 150.808L83.1197 161.344C83.1197 161.344 88.1677 171.136 88.4597 172.408C88.7517 173.68 87.7357 176.248 86.8277 175.916Z" fill="#3A8DFE"/>
<path d="M87.2 174.86C83.828 172.028 69.96 160.916 66.4 158.372C66.368 158.352 66.356 158.372 66.4 158.396C69.68 161.276 83.64 172.272 87.16 174.916C87.22 174.972 87.26 174.92 87.2 174.86Z" fill="#263238"/>
<path d="M87.7318 170.616C87.3573 170.301 86.9215 170.067 86.4519 169.929C85.9822 169.792 85.4891 169.753 85.0038 169.816C84.1281 169.919 83.3265 170.358 82.7678 171.04C82.7678 171.06 82.7878 171.092 82.8078 171.072C83.4697 170.486 84.3039 170.13 85.1852 170.058C86.0665 169.985 86.9474 170.201 87.6958 170.672C87.7032 170.677 87.7122 170.678 87.7209 170.677C87.7295 170.675 87.737 170.669 87.7418 170.662C87.7466 170.655 87.7482 170.646 87.7463 170.637C87.7445 170.628 87.7392 170.621 87.7318 170.616Z" fill="#263238"/>
<path d="M84.184 162.752C82.82 161.632 80.836 160.844 79.08 161.284C79.012 161.304 79.04 161.4 79.08 161.412C80.7883 161.743 82.4565 162.255 84.056 162.94C84.0809 162.957 84.1116 162.963 84.1412 162.958C84.1708 162.952 84.197 162.935 84.214 162.91C84.2309 162.885 84.2373 162.854 84.2317 162.825C84.2261 162.795 84.2089 162.769 84.184 162.752V162.752Z" fill="#263238"/>
<path d="M84.9124 164C83.5524 162.88 81.5684 162.092 79.8124 162.532C79.7444 162.552 79.7724 162.648 79.8124 162.66C81.5253 162.996 83.1975 163.513 84.8004 164.204C84.8275 164.219 84.8593 164.222 84.8889 164.214C84.9186 164.205 84.9436 164.185 84.9584 164.158C84.9733 164.131 84.9768 164.099 84.9681 164.069C84.9595 164.04 84.9395 164.015 84.9124 164V164Z" fill="#263238"/>
<path d="M85.6439 165.28C84.2839 164.16 82.2999 163.372 80.5439 163.812C80.4759 163.812 80.4999 163.928 80.5439 163.936C82.2507 164.27 83.9173 164.783 85.5159 165.468C85.5409 165.485 85.5715 165.491 85.6011 165.486C85.6308 165.48 85.657 165.463 85.6739 165.438C85.6909 165.413 85.6973 165.382 85.6917 165.353C85.686 165.323 85.6689 165.297 85.6439 165.28V165.28Z" fill="#263238"/>
<path d="M86.3756 166.544C85.0156 165.424 83.0316 164.636 81.2756 165.076C81.2076 165.076 81.2316 165.188 81.2756 165.2C82.9828 165.532 84.6496 166.046 86.2476 166.732C86.2726 166.749 86.3032 166.755 86.3328 166.75C86.3625 166.744 86.3887 166.727 86.4056 166.702C86.4226 166.677 86.429 166.646 86.4234 166.617C86.4177 166.587 86.4006 166.561 86.3756 166.544Z" fill="#263238"/>
<path d="M69.8881 155.804C68.3401 154.576 66.4281 156.98 67.9761 158.204C69.5241 159.428 71.4401 157.036 69.8881 155.804Z" fill="#263238"/>
<path d="M88.6036 160.268C88.3716 159.132 87.0396 158.996 86.1316 159.252C84.5796 159.722 83.1782 160.591 82.0676 161.772C82.0618 161.777 82.0571 161.782 82.0539 161.789C82.0507 161.796 82.049 161.803 82.049 161.81C82.049 161.818 82.0507 161.825 82.0539 161.831C82.0571 161.838 82.0618 161.844 82.0676 161.848C82.0519 161.878 82.0437 161.912 82.0437 161.946C82.0437 161.98 82.0519 162.014 82.0676 162.044C82.0833 162.074 82.106 162.1 82.1339 162.12C82.1617 162.139 82.1939 162.152 82.2276 162.156C83.7476 162.26 85.3636 162.556 86.8716 162.196C87.7636 162 88.8276 161.34 88.6036 160.268ZM84.5796 161.844C83.8276 161.812 83.0836 161.74 82.3356 161.732C83.1356 161.244 83.8956 160.724 84.7356 160.312C85.1383 160.11 85.5539 159.935 85.9796 159.788C86.6436 159.572 88.9156 159.5 87.8556 161.108C87.2756 162 85.4716 161.884 84.5796 161.844Z" fill="#263238"/>
<path d="M78.2398 159.552C79.2918 160.692 80.7998 161.34 82.1238 162.096C82.1544 162.111 82.1881 162.119 82.2222 162.118C82.2563 162.117 82.2897 162.108 82.3195 162.091C82.3493 162.075 82.3747 162.051 82.3936 162.023C82.4124 161.995 82.4241 161.962 82.4278 161.928C82.4558 161.928 82.4837 161.928 82.4797 161.876C82.2142 160.275 81.5313 158.773 80.4998 157.52C79.8878 156.8 78.7078 156.176 77.8798 156.988C77.0518 157.8 77.6238 158.884 78.2398 159.552ZM78.0358 158.104C78.0358 156.176 79.8958 157.5 80.3278 158.044C80.6006 158.404 80.8478 158.782 81.0678 159.176C81.5398 159.976 81.8918 160.844 82.2678 161.692C81.6398 161.292 80.9838 160.924 80.3398 160.536C79.5998 160.072 78.0278 159.164 78.0358 158.104Z" fill="#263238"/>
<path d="M108.052 127.232C108.028 129.288 105.972 133.04 103.156 137.232C97.7401 145.308 89.4961 155.008 87.4601 157.376L86.9961 157.912L72.4281 146.712L72.5961 146.496L85.4241 129.696L47.1521 129.472L61.6841 118.172C61.6841 118.172 62.8641 118.852 65.3121 118.492C73.7601 117.256 92.8041 114.52 97.2921 114.7C103.084 114.948 108.14 120.616 108.052 127.232Z" fill="#455A64"/>
<path d="M103.156 137.236C97.7402 145.312 89.4962 155.012 87.4602 157.38L72.5962 146.504L85.4242 129.704L103.156 137.236Z" fill="#263238"/>
<path d="M90.0316 123.46C89.555 123.997 89.1128 124.564 88.7076 125.156L87.3436 126.932V126.952C87.4236 126.776 87.5036 126.6 87.5876 126.428C87.8716 125.836 88.0996 125.228 88.4396 124.66C88.4596 124.624 88.4076 124.592 88.3876 124.628C88.0396 125.188 87.6356 125.724 87.3396 126.316C87.1996 126.592 87.0676 126.876 86.9396 127.16C86.8716 127.316 86.7996 127.476 86.7396 127.632C86.7116 127.708 86.6796 127.784 86.6556 127.864C86.4556 128.14 86.2556 128.416 86.0596 128.7C85.6276 129.324 85.2596 129.984 84.8076 130.608C84.7836 130.64 84.8396 130.672 84.8636 130.64C85.3036 130.056 85.7996 129.512 86.2516 128.932C86.7036 128.352 87.1436 127.732 87.5716 127.124C87.9996 126.516 88.3996 125.924 88.8196 125.332C89.2767 124.744 89.6975 124.128 90.0796 123.488C90.0833 123.482 90.0843 123.474 90.0825 123.467C90.0806 123.46 90.076 123.454 90.0696 123.45C90.0632 123.446 90.0557 123.445 90.0485 123.447C90.0414 123.449 90.0353 123.454 90.0316 123.46Z" fill="#263238"/>
<path d="M52.3998 102.168C55.1118 105.508 64.9598 115.056 71.1078 116.456C74.4958 117.228 90.8678 119.52 93.1078 117.476C95.7398 115.076 94.5198 106.072 92.4278 105.988C86.0518 105.736 74.2518 106.984 71.3038 106.336C69.9678 106.04 62.9038 101.48 55.3518 97.8361C52.5198 96.4561 50.5718 99.8961 52.3998 102.168Z" fill="#AD6359"/>
<path d="M89.9163 105.2C89.9163 105.2 89.8803 105.548 89.8203 106.14C89.8203 106.236 89.8203 106.34 89.7923 106.448C89.7563 106.788 89.7163 107.188 89.6723 107.628C89.6723 107.68 89.6723 107.732 89.6723 107.784C89.6377 108.152 89.5977 108.544 89.5523 108.96C89.5523 109.06 89.5283 109.164 89.5203 109.268C89.4803 109.648 89.4363 110.044 89.3963 110.448C89.3963 110.5 89.3963 110.552 89.3963 110.604C89.3523 111.004 89.3123 111.404 89.2683 111.804C89.2683 111.904 89.2443 112.008 89.2363 112.108C89.1923 112.508 89.1483 112.908 89.1043 113.288C89.1043 113.34 89.1043 113.392 89.0843 113.444C89.0403 113.844 88.9963 114.244 88.9523 114.624L88.9163 114.928C88.8843 115.18 88.8563 115.428 88.8283 115.668C88.8083 115.816 88.7883 115.964 88.7723 116.108C88.7723 116.16 88.7723 116.212 88.7723 116.264C88.743 116.488 88.715 116.704 88.6883 116.912C88.6643 117.096 88.6403 117.276 88.6203 117.444C88.6203 117.548 88.5883 117.652 88.5723 117.748C88.4923 118.296 88.4243 118.708 88.3643 118.948C88.3546 119.002 88.3371 119.055 88.3123 119.104C88.3123 119.104 88.2923 119.128 88.2843 119.128L88.0803 119.104L87.5123 119.044L87.2043 119.012L86.5483 118.948L86.0283 118.896H85.8683L84.6923 118.776L84.3843 118.744L83.2083 118.624H83.0483L81.8723 118.5L81.5643 118.468L80.3883 118.34H80.2283L79.0523 118.212L78.7443 118.176L77.5683 118.04H77.4083L76.2323 117.9L75.9243 117.864L75.6723 117.832L74.7483 117.716L74.5883 117.696L73.4123 117.54H73.3363L73.1043 117.508L71.9283 117.34L71.7683 117.316C71.3443 117.252 70.9523 117.188 70.5923 117.124L70.2843 117.068C69.8203 116.984 69.4203 116.904 69.1083 116.824L68.9483 116.784L68.8643 116.76C68.5367 116.66 68.2203 116.525 67.9203 116.36L67.7723 116.284L67.6283 116.204L67.4643 116.112C67.1003 115.896 66.7083 115.644 66.2883 115.352C66.2363 115.32 66.1843 115.28 66.1283 115.24L65.8243 115.024L65.4043 114.72L64.9523 114.38L64.6443 114.144L63.8843 113.54L63.6883 113.384L63.4683 113.204L63.3083 113.072L63.0963 112.9C62.8243 112.672 62.5443 112.444 62.2683 112.204C62.2211 112.168 62.1757 112.129 62.1323 112.088L61.9083 111.9L61.8243 111.828C61.4243 111.492 61.0243 111.152 60.6483 110.804L60.5523 110.72L60.4883 110.664L60.3763 110.564L59.3123 109.608L59.0643 109.384L59.0043 109.328L58.7243 109.076C58.4203 108.8 58.1203 108.52 57.8243 108.244L57.6003 108L57.3843 107.8L57.2163 107.644L56.4163 106.896L56.1083 106.604L55.9603 106.464L55.6363 106.156L54.9283 105.476L54.7723 105.324L54.4203 104.98L54.2563 104.82L53.6003 104.156L53.2963 103.852L53.0763 103.636L52.8203 103.376L52.7763 103.328C52.5364 103.085 52.3157 102.825 52.1163 102.548C52.0603 102.476 52.0083 102.4 51.9603 102.324C51.9123 102.248 51.8843 102.208 51.8483 102.152C51.8126 102.101 51.7805 102.047 51.7523 101.992C51.5291 101.622 51.3505 101.228 51.2203 100.816C51.1842 100.715 51.1535 100.612 51.1283 100.508C51.0267 100.125 50.9836 99.7281 51.0003 99.3319C51.0003 99.2759 51.0003 99.2239 51.0003 99.1719C51.0347 98.7472 51.1856 98.3403 51.4363 97.9959C51.5235 97.8827 51.6227 97.7794 51.7323 97.6879C51.7989 97.6305 51.8698 97.5783 51.9443 97.5319C51.9944 97.498 52.0465 97.4673 52.1003 97.4399C52.4672 97.2574 52.8706 97.1603 53.2803 97.1559H53.6003C53.9344 97.1717 54.2664 97.2172 54.5923 97.2919L54.7803 97.3399C54.8332 97.3494 54.8854 97.3628 54.9363 97.3799C55.2495 97.4648 55.5579 97.5663 55.8603 97.6839L56.1163 97.7879L56.4243 97.9199L56.5763 97.9919C56.7803 98.0839 56.9763 98.1879 57.2083 98.3039L57.6083 98.5079L57.7643 98.5919L58.8403 99.1679L58.9443 99.2239L59.1363 99.3279C59.1763 99.3468 59.215 99.3682 59.2523 99.3919C59.6523 99.6039 60.0523 99.8199 60.4283 100.036L60.5883 100.124L61.2683 100.524L61.7643 100.804L61.8163 100.832L62.0723 100.976L63.2483 101.644L63.4083 101.736L63.8843 102.008L64.1643 102.168L64.5643 102.408L64.8723 102.588L66.0483 103.26L66.1923 103.344L66.7123 103.644L67.3683 104.012L67.6763 104.188L68.8203 104.82H68.8523L69.0123 104.904L69.1243 104.964C69.5243 105.168 69.8643 105.364 70.1883 105.512L70.4963 105.656C70.8751 105.843 71.2684 106 71.6723 106.124H71.7323L71.8323 106.148C71.8878 106.16 71.9439 106.17 72.0003 106.176C72.3358 106.2 72.6722 106.207 73.0083 106.196H73.3163C73.6603 106.196 74.0563 106.196 74.4923 106.16H74.6523L75.1283 106.14L75.8283 106.108H76.1363L77.3123 106.044H77.4723L78.6483 105.976H78.9563L80.1323 105.904H80.2923L81.4683 105.832L81.7763 105.812L82.9523 105.736H83.1123L84.2883 105.656L84.5963 105.636L85.7723 105.556H85.9323L87.1083 105.476L87.4163 105.452L88.5923 105.368H88.7523L89.9163 105.2Z" fill="#3A8DFE"/>
<path opacity="0.2" d="M52.1322 97.4399V102.548C52.0762 102.476 52.0242 102.4 51.9762 102.324V97.5239C52.0265 97.4927 52.0786 97.4647 52.1322 97.4399ZM54.7962 97.3439V105.316L54.9522 105.468V97.3839C54.9026 97.367 54.8518 97.3536 54.8002 97.3439H54.7962ZM53.3122 97.1559V103.852L53.6162 104.156V97.1559H53.3122ZM56.1322 97.7919V106.592L56.4402 106.884V97.9239L56.1322 97.7919ZM57.6162 98.5119V108L57.7722 108.144V98.5959L57.6162 98.5119ZM60.4362 100.04V110.556L60.5002 110.612L60.5962 110.696V100.128L60.4362 100.04ZM59.1442 99.3319L58.9522 99.2279V109.276H59.0122L59.2602 109.5V99.3959C59.2229 99.3722 59.1842 99.3508 59.1442 99.3319V99.3319ZM61.8242 100.816L61.7722 100.788V111.72L61.8562 111.792L62.0802 111.98V100.96L61.8242 100.816ZM63.2562 101.616V112.952L63.4162 113.084V101.72L63.2562 101.616ZM66.2202 103.316L66.0762 103.232V115.12C66.1322 115.16 66.1842 115.2 66.2362 115.232V103.328L66.2202 103.316ZM64.5922 102.4V114.044L64.9002 114.28V102.572L64.5922 102.4ZM67.4122 104V116.092H67.5762L67.7202 116.172V104.172L67.4122 104ZM68.8962 104.824V116.672L69.0562 116.712V104.912L68.8962 104.824ZM71.7762 106.144H71.7162V117.2L71.8762 117.224V106.148L71.7762 106.144ZM70.2322 105.516V116.956L70.5402 117.012V105.664L70.2322 105.516ZM73.0322 106.216V117.416H73.2642H73.3402V106.212L73.0322 106.216ZM74.5162 106.172V117.6L74.6762 117.62V106.168L74.5162 106.172ZM77.3162 106.032V117.94H77.4762V106.028L77.3162 106.032ZM75.8322 106.112V117.764L76.1402 117.8V106.1L75.8322 106.112ZM78.6322 105.956V118.092L78.9402 118.128V105.944L78.6322 105.956ZM80.1162 105.868V118.268H80.2762V105.868H80.1162ZM82.9362 105.688V118.56H83.0962V105.68L82.9362 105.688ZM81.4522 105.784V118.4L81.7602 118.432V105.768L81.4522 105.784ZM84.2722 105.596V118.692L84.5802 118.724V105.6L84.2722 105.596ZM85.7562 105.496V118.844H85.9162V105.488L85.7562 105.496ZM88.5762 105.296V116.896C88.6029 116.688 88.6309 116.472 88.6602 116.248C88.6602 116.196 88.6602 116.144 88.6602 116.092C88.6602 115.948 88.6962 115.8 88.7162 115.652V105.288L88.5762 105.296ZM87.0922 105.404V118.976L87.4002 119.008V105.384L87.0922 105.404ZM86.4362 118.912L87.0922 118.976L87.4002 119.008L87.9682 119.068H88.2002C88.225 119.019 88.2425 118.966 88.2522 118.912H86.4362ZM73.2362 117.428H73.3122L74.4882 117.584L74.6482 117.604L75.5722 117.72H88.5202C88.5202 117.624 88.5482 117.52 88.5682 117.416L73.2362 117.428ZM67.5282 116.092L67.6722 116.172L67.8202 116.248H88.7202C88.7202 116.196 88.7202 116.144 88.7202 116.092H67.5282ZM63.5882 113.272L63.7842 113.428H88.9842C88.9842 113.376 88.9842 113.324 89.0042 113.272H63.5882ZM65.3042 114.608L65.7242 114.912H88.8362L88.8722 114.608H65.3042ZM61.8082 111.808L62.0322 111.996C62.0756 112.037 62.1209 112.076 62.1682 112.112H89.2002C89.2002 112.012 89.2202 111.908 89.2322 111.808H61.8082ZM60.2762 110.472L60.3882 110.572L60.4522 110.628H89.3162C89.3162 110.576 89.3162 110.524 89.3162 110.472H60.2762ZM57.1842 107.652L57.3522 107.808H89.6082C89.6082 107.756 89.6082 107.704 89.6082 107.652H57.1842ZM58.6242 108.984L58.9042 109.236V109.292H89.4562C89.4562 109.188 89.4762 109.084 89.4882 108.984H58.6242ZM75.1242 106.164L74.6482 106.184H74.4882C74.0522 106.184 73.6562 106.216 73.3122 106.22H73.0042C72.6681 106.231 72.3316 106.224 71.9962 106.2C71.9397 106.194 71.8836 106.184 71.8282 106.172V106.148H55.6602L55.9842 106.456H89.7922C89.7922 106.348 89.8122 106.244 89.8202 106.148L75.1242 106.164ZM69.0082 104.928L68.8482 104.844H54.2802L54.4442 105.004H69.1682L69.0082 104.928ZM63.8922 102H51.7682C51.7964 102.055 51.8284 102.109 51.8642 102.16H64.1722L63.8922 102ZM66.2362 103.344H52.8002L52.8442 103.392L53.1002 103.652H66.7642L66.2362 103.344ZM61.7722 100.8L61.2762 100.52H51.1442C51.1694 100.624 51.2001 100.727 51.2362 100.828H61.8242L61.7722 100.8ZM58.9522 99.2399L58.8482 99.1839H51.0322C51.0322 99.2359 51.0322 99.2879 51.0322 99.3439H59.1602L58.9522 99.2399ZM56.4402 97.9359L56.1322 97.8039L55.8762 97.6999H51.7642C51.6546 97.7914 51.5554 97.8947 51.4682 98.0079H56.5922L56.4402 97.9359Z" fill="white"/>
<path d="M63.0438 112.8C59.2318 109.648 54.8638 105.432 52.8358 103.384C50.0358 100.564 50.3278 96.3399 54.6078 97.2999C55.7718 99.2279 60.8478 108.692 63.0438 112.8Z" fill="#263238"/>
<path d="M87.2798 106.432C87.2798 106.396 87.2278 106.384 87.2198 106.432C87.0358 107.36 86.9598 108.312 86.8558 109.252C86.7518 110.192 86.6518 111.192 86.5638 112.168C86.3918 114.104 86.1878 116.056 86.1238 118.004C86.1273 118.018 86.1353 118.03 86.1465 118.039C86.1578 118.048 86.1716 118.052 86.1858 118.052C86.2 118.052 86.2138 118.048 86.225 118.039C86.2363 118.03 86.2443 118.018 86.2478 118.004C86.5398 116.092 86.6958 114.148 86.8758 112.224C86.9638 111.272 87.0518 110.316 87.1198 109.36C87.1878 108.404 87.2918 107.404 87.2798 106.432Z" fill="#263238"/>
<path d="M64.0521 127.056C63.8534 127.16 63.6382 127.229 63.4161 127.26L63.2561 127.292L62.8561 127.376L62.0961 127.512L61.9721 127.532L61.7881 127.56L60.6121 127.748L60.4521 127.768C60.0801 127.828 59.6881 127.884 59.2761 127.944L58.9681 127.988L57.7921 128.152L57.6321 128.172L56.4561 128.332L56.1481 128.372L54.9721 128.524L54.8121 128.544L54.3361 128.604L53.6361 128.696H53.5001C53.4441 128.696 53.3841 128.696 53.3281 128.72L52.1521 128.864L51.9921 128.884L50.9961 129.004L50.8161 129.024L50.5081 129.064L49.3321 129.208L49.1721 129.228L47.9961 129.364L47.6881 129.4L46.5121 129.536L46.3521 129.556L45.1761 129.692C45.0721 129.692 44.9681 129.712 44.8681 129.728L43.6921 129.856L43.5321 129.876H43.3321L42.3561 129.98L42.0481 130.016L40.8721 130.136L40.7121 130.156H40.6561C40.2201 130.2 39.8561 130.236 39.5361 130.26L39.2281 130.288L38.8921 130.312C38.8017 130.322 38.7105 130.322 38.6201 130.312C38.5975 130.263 38.5892 130.209 38.5961 130.156C38.5961 129.948 38.5961 129.544 38.6521 128.98C38.6521 128.884 38.6521 128.78 38.6761 128.672C38.7081 128.324 38.7481 127.932 38.7961 127.492C38.7961 127.44 38.7961 127.388 38.7961 127.336C38.8361 126.968 38.8801 126.576 38.9281 126.156L38.9641 125.852C39.0081 125.476 39.0561 125.08 39.1081 124.652C39.1081 124.6 39.1081 124.548 39.1081 124.496C39.1374 124.288 39.1654 124.076 39.1921 123.86L39.2641 123.316C39.2641 123.216 39.2921 123.116 39.3041 123.012C39.3561 122.612 39.4121 122.236 39.4681 121.832L39.4921 121.676C39.4904 121.653 39.4904 121.631 39.4921 121.608C39.5441 121.244 39.5961 120.872 39.6521 120.496C39.6521 120.396 39.6801 120.296 39.6961 120.192C39.7561 119.792 39.8161 119.412 39.8761 119.012L39.9001 118.856C39.9601 118.456 40.0201 118.056 40.0841 117.656C40.0841 117.556 40.1201 117.456 40.1361 117.352C40.1961 116.952 40.2641 116.552 40.3281 116.172C40.3281 116.12 40.3281 116.068 40.3521 116.016C40.4201 115.616 40.4881 115.216 40.5601 114.836C40.5601 114.736 40.5921 114.632 40.6121 114.532C40.6321 114.432 40.6481 114.316 40.6681 114.212L40.8241 113.352C40.8241 113.352 40.8241 113.332 40.8241 113.324L40.8481 113.196C40.9201 112.796 40.9961 112.396 41.0721 112.016C41.0721 111.916 41.1081 111.812 41.1321 111.712C41.2041 111.312 41.2841 110.912 41.3601 110.512L41.3961 110.356C41.4761 109.956 41.5561 109.556 41.6401 109.176C41.6641 109.072 41.6841 108.972 41.7041 108.868C41.7921 108.468 41.8801 108.068 41.9721 107.692C41.9721 107.648 41.9721 107.608 42.0001 107.564C42.0281 107.52 42.0001 107.544 42.0001 107.536C42.0921 107.136 42.1881 106.736 42.2801 106.356L42.3041 106.264C42.3041 106.192 42.3401 106.12 42.3601 106.048C42.4601 105.648 42.5601 105.248 42.6641 104.872C42.6641 104.82 42.6921 104.764 42.7081 104.712C42.8161 104.312 42.9281 103.912 43.0401 103.536L43.1361 103.228C43.2481 102.856 43.3641 102.5 43.4801 102.164C43.4801 102.128 43.5041 102.088 43.5201 102.052C43.5361 102.016 43.5561 101.944 43.5761 101.892C43.5961 101.84 43.6161 101.772 43.6401 101.716C43.7081 101.52 43.7801 101.316 43.8521 101.152C43.9241 100.988 43.9681 100.856 44.0281 100.716C44.0881 100.576 44.1201 100.508 44.1641 100.408C44.3437 99.9978 44.5592 99.6043 44.8081 99.232C44.8081 99.232 44.8081 99.232 44.8081 99.232C44.8081 99.232 44.8801 99.128 44.9161 99.084C44.9788 99.002 45.0455 98.9233 45.1161 98.848L45.2281 98.736L45.4401 98.544C45.7121 98.304 45.9641 98.092 46.2001 97.908C46.2288 97.8816 46.2596 97.8575 46.2921 97.836L46.4521 97.712L46.6041 97.6C46.9721 97.328 47.3081 97.108 47.6281 96.908L48.0001 96.8L48.0641 96.76C48.2355 96.657 48.418 96.5738 48.6081 96.512C48.7943 96.4504 48.984 96.3997 49.1761 96.36H49.2201L49.3361 96.336C49.7252 96.266 50.1178 96.2166 50.5121 96.188H50.8201C51.2201 96.188 51.6201 96.16 51.9961 96.188H52.1561C52.5921 96.188 52.9961 96.224 53.3321 96.26L53.6401 96.296C53.8251 96.3152 54.0083 96.3487 54.1881 96.396L54.2561 96.42C54.3343 96.4546 54.4071 96.5004 54.4721 96.556C54.5949 96.6579 54.7099 96.7689 54.8161 96.888L54.9761 97.068C55.1321 97.256 55.3081 97.468 55.4841 97.732C55.5561 97.832 55.6281 97.932 55.7001 98.04C55.8481 98.26 56.0001 98.5 56.1521 98.752C56.2441 98.9 56.3401 99.056 56.4281 99.216L56.4601 99.268L56.5201 99.376C56.7321 99.752 56.9201 100.148 57.1281 100.552C57.1801 100.652 57.2281 100.756 57.2761 100.86C57.4041 101.14 57.5241 101.424 57.6361 101.712C57.6801 101.82 57.7201 101.928 57.7601 102.036L57.7961 102.132L57.8201 102.196C57.9537 102.569 58.0686 102.948 58.1641 103.332C58.1663 103.345 58.1663 103.359 58.1641 103.372C58.1881 103.46 58.2121 103.564 58.2441 103.68C58.3201 103.988 58.4201 104.384 58.5441 104.856C58.5441 104.908 58.5721 104.96 58.5881 105.016C58.6801 105.372 58.7801 105.764 58.8961 106.192C58.8961 106.28 58.9401 106.372 58.9641 106.464C58.966 106.476 58.966 106.488 58.9641 106.5C59.0601 106.855 59.1601 107.231 59.2641 107.628V107.68C59.2641 107.732 59.2921 107.784 59.3041 107.836L59.6161 109.012C59.6401 109.112 59.6681 109.216 59.6961 109.32C59.7961 109.72 59.9001 110.096 60.0041 110.5C60.0041 110.552 60.0321 110.604 60.0481 110.656C60.1481 111.056 60.2521 111.456 60.3561 111.856L60.4281 112.132C60.4286 112.141 60.4286 112.151 60.4281 112.16C60.4801 112.348 60.5281 112.54 60.5801 112.732L60.7361 113.34C60.7361 113.392 60.7641 113.444 60.7801 113.496C60.8801 113.896 60.9841 114.296 61.0841 114.676C61.1121 114.776 61.1401 114.876 61.1641 114.98C61.2681 115.38 61.3721 115.78 61.4721 116.16C61.4721 116.212 61.5001 116.264 61.5121 116.316C61.5921 116.628 61.6761 116.94 61.7561 117.252L61.8161 117.496C61.8441 117.596 61.8681 117.7 61.8961 117.8L62.0641 118.452C62.1081 118.632 62.1521 118.808 62.2001 118.98C62.2001 119.032 62.2241 119.084 62.2401 119.136L62.5361 120.316C62.5641 120.42 62.5881 120.52 62.6161 120.62C62.7161 121.02 62.8161 121.42 62.9081 121.8C62.9081 121.852 62.9361 121.904 62.9481 121.956L63.2361 123.136L63.3081 123.432C63.3361 123.564 63.3681 123.692 63.3961 123.832C63.4641 124.108 63.5281 124.376 63.5841 124.632L63.6201 124.788C63.7241 125.24 63.8081 125.636 63.8761 125.988C63.9001 126.096 63.9201 126.2 63.9361 126.292C64.0158 126.539 64.055 126.797 64.0521 127.056Z" fill="#3A8DFE"/>
<path opacity="0.2" d="M40.856 113.404V130.172L40.696 130.192V114.292L40.852 113.432C40.852 113.432 40.856 113.412 40.856 113.404ZM39.512 121.736L39.488 121.892C39.432 122.292 39.376 122.692 39.324 123.072C39.324 123.176 39.296 123.276 39.284 123.376L39.2 123.92V130.32L39.508 130.292V121.668C39.5076 121.691 39.5089 121.713 39.512 121.736ZM42.312 106.456C42.22 106.856 42.124 107.236 42.032 107.636V130.036L42.34 130V106.364L42.312 106.456ZM43.6 102C43.6 102.052 43.56 102.104 43.544 102.16C43.528 102.216 43.516 102.236 43.504 102.272V129.9L43.664 129.88V101.816C43.652 101.872 43.632 101.932 43.6 102ZM46.324 97.932V129.58L46.484 129.56V97.8L46.324 97.932ZM44.948 99.18C44.912 99.224 44.876 99.276 44.84 99.328V129.752C44.94 129.752 45.044 129.728 45.148 129.716V98.936C45.0815 99.0116 45.0188 99.0903 44.96 99.172L44.948 99.18ZM47.66 97.004V129.424L47.968 129.388V96.8L47.66 97.004ZM49.188 96.36H49.144V129.252L49.304 129.232V96.328L49.188 96.36ZM51.964 96.152V128.908L52.124 128.888V96.144L51.964 96.152ZM50.48 96.188V129.08L50.788 129.04V96.164L50.48 96.188ZM53.28 96.224V128.744C53.336 128.744 53.396 128.744 53.452 128.72H53.588V96.252L53.28 96.224ZM54.764 96.852V128.552L54.924 128.532V97.024L54.764 96.852ZM57.74 102C57.7 101.892 57.66 101.784 57.616 101.676V128.18L57.776 128.16V102H57.74ZM56.408 99.2C56.32 99.04 56.224 98.884 56.132 98.736V128.4L56.44 128.36V99.224L56.408 99.2ZM58.96 106.484C58.9619 106.472 58.9619 106.46 58.96 106.448V128L59.268 127.956V107.6C59.1587 107.195 59.056 106.813 58.96 106.456V106.484ZM60.444 112.124C60.4445 112.115 60.4445 112.105 60.444 112.096V127.796L60.604 127.776V112.696C60.544 112.476 60.496 112.284 60.444 112.096V112.124ZM63.328 123.404L63.256 123.108V127.32L63.416 127.288V123.792C63.388 123.636 63.356 123.508 63.328 123.376V123.404ZM61.912 117.764C61.884 117.664 61.86 117.56 61.832 117.46L61.772 117.216V127.56L61.956 127.532L62.08 127.512V118.4L61.912 117.764ZM38.58 130.196C38.5731 130.249 38.5814 130.303 38.604 130.352H39.2V130.328L39.508 130.3C39.816 130.276 40.192 130.24 40.628 130.196H38.58ZM38.66 128.712C38.66 128.82 38.66 128.924 38.636 129.02H50.98L51.976 128.9L52.136 128.88L53.312 128.736C53.368 128.736 53.428 128.736 53.484 128.712H38.66ZM38.796 127.376C38.796 127.428 38.796 127.48 38.796 127.532H61.972L62.096 127.512L62.856 127.376H38.796ZM63.596 124.556H39.128C39.128 124.608 39.128 124.66 39.128 124.712H63.64L63.596 124.556ZM63.888 125.892H38.964L38.928 126.196H63.956C63.94 126.104 63.92 126 63.896 125.892H63.888ZM63.248 123.092H39.324C39.324 123.196 39.296 123.296 39.284 123.396H63.328L63.248 123.092ZM62.916 121.748H39.512L39.488 121.904H62.964C62.952 121.84 62.936 121.788 62.924 121.736L62.916 121.748ZM62.208 118.948H39.928L39.904 119.104H62.256C62.24 119.02 62.228 118.968 62.216 118.916L62.208 118.948ZM62.544 120.284H39.724C39.724 120.388 39.696 120.488 39.68 120.588H62.632C62.604 120.456 62.58 120.356 62.552 120.252L62.544 120.284ZM61.824 117.464H40.164C40.164 117.568 40.128 117.668 40.112 117.768H61.912C61.884 117.636 61.86 117.532 61.832 117.432L61.824 117.464ZM61.48 116.128H40.4C40.4 116.18 40.4 116.232 40.376 116.284H61.548C61.516 116.2 61.5 116.148 61.488 116.096L61.48 116.128ZM60.744 113.308H40.88L40.856 113.436C40.856 113.436 40.856 113.456 40.856 113.464H60.8C60.8 113.38 60.768 113.328 60.752 113.276L60.744 113.308ZM61.092 114.644H40.64C40.64 114.744 40.604 114.848 40.588 114.948H61.2C61.156 114.8 61.128 114.712 61.1 114.612L61.092 114.644ZM60.428 112.1L60.356 111.824H41.156C41.132 111.924 41.112 112.028 41.096 112.128H60.436C60.4383 112.108 60.4383 112.088 60.436 112.068L60.428 112.1ZM60.004 110.5H41.428L41.392 110.656H60.056C60.04 110.56 60.028 110.508 60 110.456L60.004 110.5ZM59.264 107.68H42.024V107.708C42.024 107.752 42.024 107.792 41.996 107.836H59.304C59.3 107.74 59.284 107.688 59.272 107.636L59.264 107.68ZM59.616 109.012H41.736C41.736 109.116 41.696 109.216 41.672 109.32H59.704C59.676 109.172 59.648 109.068 59.624 108.968L59.616 109.012ZM58.944 106.464C58.92 106.372 58.896 106.28 58.876 106.192H42.4C42.4 106.264 42.36 106.336 42.344 106.408L42.32 106.5H58.96C58.967 106.473 58.9641 106.445 58.952 106.42L58.944 106.464ZM58.544 104.864H42.744C42.744 104.916 42.712 104.972 42.7 105.024H58.576C58.56 104.916 58.544 104.864 58.532 104.8L58.544 104.864ZM57.788 102.14V102H43.6C43.6 102.052 43.56 102.104 43.544 102.16H57.8L57.788 102.14ZM58.164 103.38H43.172L43.076 103.688H58.232C58.2 103.52 58.176 103.416 58.152 103.328L58.164 103.38ZM57.12 100.58H44.2C44.156 100.68 44.108 100.78 44.064 100.888H57.264C57.2 100.712 57.16 100.608 57.108 100.508L57.12 100.58ZM56.452 99.296L56.42 99.244H44.96C44.924 99.288 44.888 99.34 44.852 99.392C44.816 99.444 44.852 99.392 44.852 99.392H56.508L56.452 99.296ZM54.248 96.448L54.18 96.424H49.156C48.9639 96.4637 48.7742 96.5144 48.588 96.576H54.452C54.3917 96.4977 54.3187 96.4301 54.236 96.376L54.248 96.448ZM55.476 97.76H46.676L46.524 97.872L46.364 97.996C46.3314 98.0175 46.3007 98.0416 46.272 98.068H55.68C55.6 97.888 55.536 97.788 55.464 97.688L55.476 97.76Z" fill="white"/>
<path d="M54.3199 128.604C50.5479 129.088 46.3999 129.576 43.3159 129.912L43.8879 101.252C44.3359 100.1 44.8039 99.252 45.2719 98.824L45.4839 98.632L54.3199 128.604Z" fill="#263238"/>
<path d="M59.5201 124.612C59.3281 123.724 59.1348 122.836 58.9401 121.948C58.5481 120.172 58.1481 118.397 57.7401 116.624C56.9161 113.048 56.0428 109.484 55.1201 105.932C54.6081 103.932 54.0601 101.956 53.5561 99.96C53.5538 99.9539 53.5497 99.9486 53.5444 99.9449C53.539 99.9411 53.5326 99.9391 53.5261 99.9391C53.5196 99.9391 53.5132 99.9411 53.5078 99.9449C53.5025 99.9486 53.4984 99.9539 53.4961 99.96C54.4201 103.496 55.2241 107.064 56.0521 110.624C56.8801 114.184 57.6921 117.712 58.4841 121.264L59.1441 124.252C59.3641 125.26 59.5441 126.3 59.8321 127.284C59.8641 127.396 60.0601 127.372 60.0441 127.252C59.9401 126.4 59.7081 125.492 59.5201 124.612Z" fill="#263238"/>
<path d="M53.5356 100.876C52.0556 101.08 49.7756 98.628 48.9636 96.74C48.9076 96.612 49.2196 95.332 49.5276 93.76C49.7076 92.804 49.8876 91.736 49.9836 90.752C49.9836 90.548 50.6556 90.984 50.6556 90.984L51.8996 91.416L56.0236 92.84C55.5537 94.0389 55.2327 95.291 55.0676 96.568C55.0542 96.701 55.0542 96.835 55.0676 96.968V97.036C55.1236 97.828 54.9676 100.676 53.5356 100.876Z" fill="#AD6359"/>
<path d="M55.072 96.98V97.048C54.8596 97.056 54.6469 97.0466 54.436 97.02C50.28 96.532 50.26 91.2 50.26 91.2L51.9 91.428L56.024 92.852C55.5542 94.0509 55.2331 95.3029 55.068 96.58C55.056 96.7131 55.0573 96.8471 55.072 96.98V96.98Z" fill="#263238"/>
<path d="M50.7359 82.904C49.6279 84.904 49.4639 91.388 50.7039 93.096C52.5079 95.576 56.1039 96.528 58.3759 94.216C60.5759 91.972 60.6399 83.54 59.1759 81.92C57.0599 79.532 52.3759 79.92 50.7359 82.904Z" fill="#AD6359"/>
<path d="M56.1 88.2639C56.1 88.2639 56.064 88.2839 56.064 88.2999C56.064 88.7359 55.992 89.2359 55.592 89.3679C55.592 89.3679 55.592 89.3959 55.592 89.3919C56.08 89.3399 56.168 88.6759 56.1 88.2639Z" fill="#263238"/>
<path d="M55.7239 87.796C55.0239 87.724 54.9239 89.124 55.5759 89.196C56.2279 89.268 56.3079 87.86 55.7239 87.796Z" fill="#263238"/>
<path d="M58.6083 88.5081C58.6083 88.5081 58.6443 88.5321 58.6403 88.5521C58.5963 88.9841 58.6403 89.4881 59.0043 89.6601C59.0043 89.6601 59.0043 89.6881 59.0043 89.6841C58.5203 89.6001 58.5003 88.9121 58.6083 88.5081Z" fill="#263238"/>
<path d="M59.028 88.084C59.7319 88.084 59.6879 89.484 59.028 89.488C58.368 89.492 58.44 88.088 59.028 88.084Z" fill="#263238"/>
<path d="M55.1999 87.1162C55.3878 87.0753 55.5734 87.0246 55.7559 86.9642C55.9589 86.938 56.1474 86.8451 56.2919 86.7002C56.329 86.6457 56.3471 86.5806 56.3435 86.5148C56.3399 86.449 56.3147 86.3862 56.2719 86.3362C56.1716 86.2515 56.0506 86.195 55.9212 86.1725C55.7919 86.15 55.6589 86.1623 55.5359 86.2082C55.272 86.2627 55.038 86.4139 54.8799 86.6322C54.8461 86.6838 54.8282 86.7442 54.8284 86.8059C54.8285 86.8676 54.8467 86.9279 54.8808 86.9794C54.9148 87.0308 54.9631 87.0712 55.0199 87.0955C55.0766 87.1198 55.1391 87.127 55.1999 87.1162Z" fill="#263238"/>
<path d="M59.6201 87.416C59.4281 87.368 59.2601 87.296 59.0721 87.232C58.871 87.1929 58.6884 87.0889 58.5521 86.936C58.518 86.88 58.5034 86.8143 58.5106 86.7492C58.5178 86.684 58.5465 86.6231 58.5921 86.576C58.6974 86.4972 58.8217 86.4476 58.9523 86.4321C59.0829 86.4167 59.2153 86.436 59.3361 86.488C59.5961 86.5584 59.8211 86.7222 59.9681 86.948C59.998 87.0018 60.0117 87.0631 60.0076 87.1245C60.0036 87.186 59.9818 87.2449 59.9451 87.2943C59.9084 87.3437 59.8582 87.3815 59.8005 87.4031C59.7429 87.4246 59.6802 87.4291 59.6201 87.416V87.416Z" fill="#263238"/>
<path d="M55.9639 91C56.062 91.1796 56.1961 91.337 56.3578 91.4622C56.5196 91.5875 56.7055 91.678 56.9039 91.728C57.0774 91.774 57.2566 91.7942 57.4359 91.788C57.4705 91.7921 57.5054 91.7921 57.5399 91.788H57.6359C57.6592 91.7847 57.6807 91.774 57.6973 91.7574C57.7139 91.7408 57.7247 91.7192 57.7279 91.696C57.7299 91.6814 57.7299 91.6666 57.7279 91.652V91.6C57.7599 91.264 57.7599 90.756 57.7599 90.756C57.8799 90.824 58.4839 91.156 58.4839 90.972C58.551 89.4604 58.4638 87.9459 58.2239 86.452C58.2239 86.4414 58.2197 86.4312 58.2122 86.4237C58.2047 86.4162 58.1945 86.412 58.1839 86.412C58.1733 86.412 58.1631 86.4162 58.1556 86.4237C58.1481 86.4312 58.1439 86.4414 58.1439 86.452C58.0719 87.848 58.2519 89.252 58.2039 90.652C57.9895 90.5322 57.7592 90.4433 57.5199 90.388C57.4719 90.388 57.5199 91.376 57.5199 91.528C57.2442 91.5358 56.9697 91.4881 56.7127 91.3878C56.4557 91.2875 56.2215 91.1365 56.0239 90.944C55.9759 90.936 55.9399 90.964 55.9639 91Z" fill="#263238"/>
<path d="M59.4881 84.108C57.2601 85.376 54.5641 82.952 54.5641 82.952C54.3461 83.3965 53.9906 83.7588 53.5503 83.9851C53.11 84.2114 52.6084 84.2896 52.1201 84.208C52.1201 84.208 51.4081 87.736 50.4681 87.652C49.0361 87.524 49.0001 82.624 49.5321 81.708C50.0641 80.792 51.3001 80.648 51.3001 80.648C51.4824 80.0808 51.8725 79.6035 52.3921 79.312C53.4321 78.644 56.7201 79.936 56.7201 79.936C56.9515 79.5004 57.2816 79.1251 57.6841 78.84C57.7809 78.7691 57.891 78.7185 58.0078 78.6913C58.1247 78.6642 58.2458 78.6609 58.364 78.6819C58.4821 78.7028 58.5948 78.7475 58.6951 78.8131C58.7955 78.8788 58.8816 78.9642 58.9481 79.064C58.752 79.3141 58.6152 79.6054 58.5481 79.916C58.2921 80.944 59.1441 81.012 59.2161 80.068C59.2535 79.7141 59.1642 79.3583 58.9641 79.064C59.4361 78.48 60.1401 78.336 60.5281 78.704C61.2201 79.368 61.3401 83.056 59.4881 84.108Z" fill="#263238"/>
<path d="M51.004 88.256C51.004 88.256 49.972 85.968 48.96 86.3C47.948 86.632 48.46 89.76 49.46 90.364C49.5832 90.4503 49.7226 90.5108 49.8698 90.5419C50.017 90.573 50.1689 90.574 50.3165 90.5448C50.4641 90.5157 50.6043 90.457 50.7286 90.3723C50.8529 90.2876 50.9588 90.1787 51.04 90.052L51.004 88.256Z" fill="#AD6359"/>
<path d="M49.1281 87.1998C49.1281 87.1998 49.1041 87.2198 49.1281 87.2278C49.8281 87.6758 50.0921 88.4518 50.2361 89.2278C50.2064 89.1437 50.1589 89.067 50.0966 89.003C50.0344 88.9391 49.959 88.8894 49.8757 88.8574C49.7924 88.8255 49.7032 88.812 49.6141 88.818C49.5251 88.8239 49.4384 88.8491 49.3601 88.8918C49.3401 88.8918 49.3601 88.9358 49.3601 88.9358C49.5013 88.9184 49.6445 88.9452 49.7699 89.0126C49.8952 89.0799 49.9966 89.1845 50.0601 89.3118C50.1626 89.5244 50.243 89.7469 50.3001 89.9758C50.3241 90.0518 50.4521 90.0398 50.4401 89.9558C50.6401 88.9718 50.1441 87.4838 49.1281 87.1998Z" fill="#263238"/>
<path d="M55.0719 97.048L53.7279 100.4L49.0839 95.936L47.8479 97.444C47.8479 97.444 52.4719 104.62 52.4919 104.292L53.8959 101.116L56.1199 103.232L55.7879 97.768L55.0719 97.048Z" fill="#3A8DFE"/>
<path d="M56.1081 100.516C56.0241 99.616 55.9641 98.704 55.8361 97.808C55.8338 97.8018 55.8297 97.7966 55.8244 97.7928C55.819 97.7891 55.8126 97.7871 55.8061 97.7871C55.7996 97.7871 55.7932 97.7891 55.7878 97.7928C55.7825 97.7966 55.7784 97.8018 55.7761 97.808C55.6201 98.684 55.9641 102.124 55.9841 102.952C55.8881 102.86 53.9241 101.092 53.9041 101.12C53.5961 101.628 52.5641 103.92 52.4921 104.148C51.7601 103.008 48.6641 98.52 47.8081 97.448C47.803 97.4435 47.7965 97.4408 47.7897 97.4402C47.7829 97.4397 47.7762 97.4413 47.7704 97.4449C47.7646 97.4485 47.76 97.4538 47.7575 97.4601C47.7549 97.4664 47.7544 97.4734 47.7561 97.48C48.4081 98.68 52.4081 104.612 52.4641 104.596C53.0121 103.504 53.5021 102.384 53.9321 101.24C54.2681 101.64 56.2601 103.64 56.2641 103.492C56.2645 102.498 56.2125 101.505 56.1081 100.516V100.516Z" fill="#263238"/>
<path d="M73.3643 121.296H89.6083L92.6763 98.3079H76.4363L73.3643 121.296Z" fill="#A6A6A6"/>
<path d="M74.1643 121.296H90.4043L93.4763 98.3079H77.2323L74.1643 121.296Z" fill="#DBDBDB"/>
<path d="M85.4 108.664C85.3561 109.092 85.1568 109.489 84.8399 109.78C84.5229 110.072 84.1103 110.236 83.68 110.244C83.4778 110.248 83.2772 110.208 83.0914 110.128C82.9057 110.048 82.7392 109.929 82.603 109.779C82.4667 109.63 82.3639 109.453 82.3013 109.261C82.2387 109.068 82.2179 108.865 82.24 108.664C82.2784 108.233 82.4749 107.831 82.7916 107.535C83.1083 107.24 83.523 107.072 83.956 107.064C84.1603 107.06 84.363 107.1 84.5504 107.182C84.7379 107.263 84.9057 107.383 85.0426 107.535C85.1794 107.687 85.2822 107.866 85.3438 108.061C85.4055 108.255 85.4247 108.461 85.4 108.664Z" fill="white"/>
<path d="M44.1399 103.448C43.3759 114.148 45.2599 121.516 47.1439 122.304C52.2239 124.432 67.6679 125.616 71.2079 125.24C72.5919 125.096 71.6799 113.62 70.1919 113.64C66.5039 113.74 52.9919 113.852 52.8159 113.772C51.6679 113.232 51.6159 109.664 48.9599 102.04C46.8199 95.888 44.4519 99.072 44.1399 103.448Z" fill="#AD6359"/>
<path d="M82 111.368C82.1927 111.646 82.2959 111.976 82.2959 112.314C82.2959 112.652 82.1927 112.982 82 113.26C82.5363 113.465 82.9837 113.851 83.264 114.352C83.716 115.26 82.496 116.352 82.496 116.352C83.0068 116.683 83.4067 117.159 83.644 117.72C83.992 118.632 82.916 119.924 82.916 119.924C83.2177 120.486 83.3085 121.137 83.172 121.76C82.896 122.824 80.244 124.18 78.664 124.684C77.084 125.188 72.136 125.144 71.188 125.228L67.864 115.124C67.864 115.124 74.296 110.848 76.236 110.516C77.892 110.252 81.236 110.336 82 111.368Z" fill="#AD6359"/>
<path d="M81.8962 113.12C80.0882 112.996 78.3442 113.416 76.5762 113.74C76.5362 113.74 76.5482 113.808 76.5762 113.8C78.3282 113.46 80.1282 113.472 81.8922 113.204C81.9013 113.201 81.9094 113.196 81.9154 113.189C81.9213 113.182 81.9248 113.173 81.9252 113.163C81.9257 113.154 81.9231 113.145 81.9179 113.137C81.9127 113.129 81.9051 113.123 81.8962 113.12V113.12Z" fill="#263238"/>
<path d="M82.44 116.244C82.0332 116.257 81.6298 116.323 81.24 116.44C80.812 116.54 80.388 116.648 79.964 116.76C79.12 116.988 78.276 117.236 77.444 117.508C77.4392 117.506 77.434 117.506 77.4289 117.506C77.4237 117.507 77.4188 117.509 77.4146 117.512C77.4104 117.515 77.4069 117.519 77.4045 117.523C77.4021 117.528 77.4009 117.533 77.4009 117.538C77.4009 117.543 77.4021 117.548 77.4045 117.553C77.4069 117.557 77.4104 117.561 77.4146 117.564C77.4188 117.567 77.4237 117.569 77.4289 117.57C77.434 117.57 77.4392 117.57 77.444 117.568C78.288 117.344 79.136 117.128 79.988 116.94C80.416 116.844 80.844 116.756 81.272 116.668C81.6822 116.61 82.0846 116.507 82.472 116.36C82.4874 116.356 82.5005 116.346 82.5083 116.332C82.5162 116.318 82.5183 116.301 82.514 116.286C82.5098 116.271 82.4996 116.258 82.4857 116.25C82.4718 116.242 82.4554 116.24 82.44 116.244Z" fill="#263238"/>
<path d="M82.8998 119.944C82.5263 119.959 82.1582 120.039 81.8118 120.18L80.6598 120.508C79.8878 120.724 79.1198 120.936 78.3438 121.124C78.3038 121.124 78.3158 121.196 78.3438 121.184C79.1438 121 79.9438 120.824 80.7118 120.628C81.1118 120.536 81.4878 120.436 81.8758 120.336C82.2358 120.28 82.5827 120.159 82.8998 119.98C82.8998 119.98 82.9198 119.944 82.8998 119.944Z" fill="#263238"/>
<path d="M68.7439 113.096V125.976L67.7199 125.924C67.6239 125.924 67.5199 125.924 67.4119 125.924H67.0679L66.2359 125.88C66.1839 125.88 66.1319 125.88 66.0759 125.88L64.8999 125.804H64.5919L63.4159 125.724H63.2559L62.0799 125.632L61.7719 125.608L60.5959 125.508H60.4359L59.2599 125.4L58.9519 125.368L57.7759 125.244H57.6159C57.2159 125.204 56.8159 125.156 56.4399 125.112L56.1319 125.076L54.9559 124.924L54.7999 124.8L54.2279 124.72L53.6239 124.632L53.3159 124.584L53.2039 124.564C52.8399 124.508 52.4879 124.448 52.1399 124.384L51.9799 124.356C51.5799 124.284 51.1799 124.208 50.8039 124.128L50.4959 124.06C50.0959 123.968 49.6959 123.876 49.3199 123.776L49.1599 123.732C48.7519 123.62 48.3799 123.504 48.0439 123.384L47.9839 123.364L47.6759 123.244C47.5479 123.188 47.4239 123.136 47.3119 123.08C47.0238 122.951 46.7546 122.782 46.5119 122.58L46.4719 122.544L46.3519 122.42C46.2015 122.26 46.0675 122.086 45.9519 121.9C45.9199 121.852 45.8919 121.8 45.8599 121.744C45.646 121.367 45.464 120.972 45.3159 120.564L45.2079 120.26L45.1719 120.148C45.0639 119.828 44.9599 119.484 44.8639 119.12V119.08L44.8279 118.924C44.7279 118.548 44.6399 118.152 44.5519 117.724C44.5519 117.624 44.5119 117.524 44.4959 117.42C44.4159 117.04 44.3479 116.644 44.2839 116.24C44.2839 116.188 44.2639 116.136 44.2559 116.084C44.1959 115.684 44.1399 115.304 44.0879 114.904C44.0879 114.804 44.0599 114.7 44.0479 114.6C43.9999 114.2 43.9519 113.8 43.9119 113.42C43.9119 113.368 43.9119 113.316 43.9119 113.264C43.8719 112.864 43.8359 112.464 43.8039 112.084L43.7799 111.78C43.7559 111.476 43.7359 111.172 43.7159 110.868C43.7159 110.78 43.7159 110.692 43.7159 110.6V110.444C43.6919 110.044 43.6759 109.644 43.6599 109.264C43.6599 109.16 43.6599 109.056 43.6599 108.956C43.6599 108.556 43.6359 108.156 43.6279 107.78V107.624C43.6279 107.224 43.6279 106.824 43.6279 106.444V106.136C43.6279 105.736 43.6279 105.336 43.6519 104.96C43.6519 104.904 43.6519 104.852 43.6519 104.8C43.6519 104.4 43.6799 104 43.7039 103.624C43.7039 103.52 43.7039 103.416 43.7039 103.316C43.7039 103.124 43.7319 102.944 43.7479 102.768C43.7639 102.592 43.7919 102.336 43.8159 102.14C43.8159 102.084 43.8159 102.032 43.8159 101.98C43.8519 101.704 43.8959 101.456 43.9399 101.24C43.9719 101.088 44.0039 100.944 44.0439 100.804C44.0839 100.664 44.1039 100.596 44.1359 100.496C44.2629 100.08 44.4473 99.6845 44.6839 99.32L44.8039 99.16L44.9039 99.04C44.9954 98.9315 45.0987 98.8336 45.2119 98.748C45.3732 98.612 45.5611 98.5111 45.7636 98.4519C45.9661 98.3927 46.1788 98.3764 46.3879 98.404L46.5479 98.436C46.9967 98.5647 47.4011 98.8153 47.7159 99.16V99.16C47.7639 99.208 47.8119 99.256 47.8599 99.312C47.9079 99.368 47.9719 99.436 48.0239 99.504C48.2713 99.8119 48.4909 100.141 48.6799 100.488L48.8479 100.796C48.9679 101.032 49.0839 101.284 49.1999 101.556C49.2519 101.684 49.3079 101.816 49.3599 101.956L49.4199 102.116C49.5359 102.432 49.6519 102.768 49.7599 103.124C49.7599 103.18 49.7959 103.236 49.8119 103.292C49.8279 103.348 49.8719 103.496 49.9079 103.6L50.2639 104.776L50.3119 104.936C50.3839 105.18 50.4559 105.42 50.5279 105.652C50.5759 105.808 50.6239 105.96 50.6679 106.112C50.7119 106.264 50.7319 106.32 50.7599 106.42C50.7879 106.52 50.8119 106.58 50.8359 106.66L51.1239 107.6C51.1239 107.652 51.1599 107.704 51.1759 107.756C51.2999 108.156 51.4239 108.556 51.5399 108.932C51.5759 109.036 51.6079 109.14 51.6359 109.24C51.7679 109.64 51.8919 110.04 52.0119 110.396C52.0119 110.396 52.0119 110.396 52.0119 110.42C52.0119 110.444 52.0439 110.524 52.0639 110.576L52.1639 110.872C52.2719 111.196 52.3759 111.488 52.4719 111.756L52.5879 112.06C52.7297 112.468 52.9077 112.863 53.1199 113.24C53.1557 113.296 53.1973 113.348 53.2439 113.396C53.2704 113.421 53.304 113.436 53.3399 113.44H53.6479L54.8239 113.416H54.9839H55.5039H56.1599H56.4679L57.6439 113.388H57.8039L58.9799 113.36H59.2879L60.4639 113.332H60.6239L61.7999 113.304H62.1079L63.2839 113.272H63.4439L64.6199 113.24H64.9279L66.1039 113.212H66.2639L67.4399 113.18H67.7479L68.7439 113.096Z" fill="#3A8DFE"/>
<path opacity="0.2" d="M43.6762 102.8V110.88C43.6762 110.792 43.6762 110.704 43.6762 110.612V110.456C43.6522 110.056 43.6362 109.656 43.6202 109.276C43.6202 109.172 43.6202 109.068 43.6202 108.968C43.6202 108.568 43.5962 108.168 43.5882 107.792V107.636C43.5882 107.236 43.5882 106.836 43.5882 106.456V106.148C43.5882 105.748 43.5882 105.348 43.6122 104.972C43.6122 104.916 43.6122 104.864 43.6122 104.812C43.6122 104.412 43.6402 104.012 43.6642 103.636C43.6642 103.532 43.6642 103.428 43.6642 103.328C43.6442 103.136 43.6602 102.956 43.6762 102.8ZM46.3362 98.4V122.4L46.4562 122.524L46.4962 122.56V98.448L46.3362 98.4ZM44.8522 99.036V119.096C44.9482 119.46 45.0522 119.804 45.1602 120.124V98.76C45.047 98.8456 44.9437 98.9435 44.8522 99.052V99.036ZM47.8162 99.316C47.7682 99.26 47.7202 99.212 47.6722 99.164V123.22L47.9802 123.34V99.524C47.9282 99.456 47.8722 99.392 47.8162 99.332V99.316ZM49.1562 101.56V123.708L49.3162 123.752V101.972C49.2642 101.836 49.2002 101.704 49.1562 101.576V101.56ZM52.0362 110.596C52.0162 110.544 52.0002 110.492 51.9842 110.44C51.9682 110.388 51.9842 110.44 51.9842 110.416V124.332L52.1442 124.36V110.908L52.0362 110.596ZM50.7242 106.44C50.6962 106.34 50.6642 106.236 50.6322 106.132C50.6002 106.028 50.5402 105.828 50.4922 105.672V124.036L50.8002 124.104V106.456L50.7242 106.44ZM53.3122 113.46V124.56L53.6202 124.608V113.472L53.3122 113.46ZM54.7962 113.416V124.8L54.9562 124.824V113.432L54.7962 113.416ZM57.5962 113.364V125.12H57.7562V113.376L57.5962 113.364ZM56.1122 113.4V124.952L56.4202 124.988V113.388L56.1122 113.4ZM58.9122 113.332V125.26L59.2202 125.292V113.34L58.9122 113.332ZM60.3962 113.296V125.4H60.5562V113.308L60.3962 113.296ZM63.1962 113.224V125.624H63.3562V113.236L63.1962 113.224ZM61.8642 113.26H61.7122V125.516L62.0202 125.54V113.272L61.8642 113.26ZM64.5322 113.188V125.724H64.8402V113.2L64.5322 113.188ZM66.0162 113.152V125.82C66.0722 125.82 66.1242 125.82 66.1762 125.82V113.164L66.0162 113.152ZM67.3522 113.116V125.892C67.4602 125.892 67.5642 125.892 67.6602 125.892V113.092L67.3522 113.116ZM53.2002 124.556L53.3122 124.576L53.6202 124.624L54.2242 124.712H68.7442V124.556H53.2002ZM67.0682 125.892H67.4122C67.5202 125.892 67.6242 125.892 67.7202 125.892L68.7442 125.944V125.86L67.0682 125.892ZM47.3082 123.072C47.4202 123.128 47.5442 123.18 47.6722 123.236L47.9802 123.356L48.0402 123.376H68.7442V123.072H47.3082ZM45.8482 121.736C45.8802 121.792 45.9082 121.844 45.9402 121.892H68.7402V121.736H45.8482ZM44.8042 118.936L44.8402 119.092H68.7442V118.936H44.8042ZM45.2042 120.272L45.3122 120.576H68.7522V120.272H45.2042ZM44.4802 117.452C44.4802 117.556 44.5162 117.656 44.5362 117.756H68.7522V117.452H44.4802ZM44.2402 116.116C44.2402 116.168 44.2402 116.22 44.2682 116.272H68.7522V116.116H44.2402ZM43.8802 113.296C43.8802 113.348 43.8802 113.4 43.8802 113.452H53.2002C53.1536 113.404 53.112 113.352 53.0762 113.296H43.8802ZM61.7802 113.296L60.6042 113.324H60.4442L59.2682 113.352H58.9602L57.7842 113.38H57.6002L56.4242 113.408H56.1162H55.4602H68.7282V113.252L61.7802 113.296ZM44.0322 114.632C44.0322 114.732 44.0562 114.836 44.0722 114.936H68.7522V114.632H44.0322ZM52.4522 111.832H43.7402L43.7642 112.136H52.5642L52.4522 111.832ZM52.0002 110.456H43.6482V110.612H52.0242C52.0002 110.56 52.0002 110.508 52.0002 110.456ZM51.1042 107.636H43.5442V107.792H51.1442C51.1242 107.74 51.1082 107.688 51.0882 107.636H51.1042ZM51.5042 108.968H43.5762C43.5762 109.068 43.5762 109.172 43.5762 109.276H51.5762C51.5722 109.176 51.5402 109.072 51.5042 108.968V108.968ZM50.6322 106.148H43.5322V106.456H50.7322C50.6962 106.356 50.6642 106.252 50.6322 106.148V106.148ZM50.2322 104.812H43.5602C43.5602 104.864 43.5602 104.916 43.5602 104.972H50.2802L50.2322 104.812ZM49.3282 102.012H43.7682C43.7682 102.064 43.7682 102.116 43.7682 102.172H49.4082L49.3282 102.012ZM49.7802 103.348H43.6322C43.6322 103.448 43.6322 103.552 43.6322 103.656H49.8922C49.8362 103.532 49.8082 103.432 49.7762 103.328L49.7802 103.348ZM48.6402 100.548H44.0842C44.0522 100.648 44.0202 100.752 43.9922 100.856H48.7922L48.6402 100.548ZM47.6722 99.2H44.7522L44.6322 99.36H47.8322C47.7682 99.276 47.7202 99.228 47.6722 99.2Z" fill="white"/>
<path d="M68.8278 113.1C68.8382 113.08 68.8431 113.057 68.8421 113.034C68.8411 113.011 68.8342 112.989 68.8222 112.97C68.8101 112.951 68.7932 112.935 68.7731 112.924C68.7531 112.913 68.7306 112.908 68.7078 112.908C66.6838 112.884 64.6478 112.992 62.6238 113.044C60.5998 113.096 58.5678 113.136 56.5398 113.204C55.3998 113.244 53.2078 113.344 53.1878 113.312C53.1678 113.28 52.5558 111.376 52.4238 110.98C52.1678 110.208 51.8998 109.44 51.6238 108.668C51.5478 108.444 51.4678 108.22 51.3878 108C51.3638 107.848 51.3358 107.696 51.3198 107.548C51.3038 107.4 51.2718 107.148 51.2478 106.924C51.2019 106.511 51.1338 106.101 51.0438 105.696C51.0403 105.689 51.0345 105.684 51.0274 105.681C51.0203 105.678 51.0125 105.678 51.0052 105.68C50.998 105.683 50.9918 105.688 50.9879 105.694C50.984 105.701 50.9825 105.708 50.9838 105.716C51.0664 106.138 51.1092 106.566 51.1118 106.996L51.1358 107.304C50.7358 106.24 50.6398 106.052 50.2998 104.976C50.3016 104.971 50.3022 104.966 50.3015 104.961C50.3009 104.956 50.299 104.951 50.2961 104.947C50.2931 104.942 50.2892 104.939 50.2846 104.936C50.28 104.934 50.275 104.933 50.2698 104.933C50.2646 104.933 50.2595 104.934 50.255 104.936C50.2504 104.939 50.2465 104.942 50.2435 104.947C50.2406 104.951 50.2387 104.956 50.238 104.961C50.2374 104.966 50.238 104.971 50.2398 104.976C50.6398 106.532 50.8558 107.2 51.3438 108.736C51.5918 109.512 51.8358 110.288 52.0958 111.064C52.2238 111.44 52.8078 113.2 52.9958 113.552C53.0198 113.596 55.0758 113.48 56.0878 113.464C57.0998 113.448 58.1158 113.432 59.1318 113.408L65.2158 113.256C66.3398 113.228 67.4718 113.228 68.5958 113.164C68.5958 113.296 68.6958 113.964 68.6878 114.008C68.6798 114.052 68.7518 114.06 68.7478 114.008C68.7438 113.956 68.8318 113.112 68.8278 113.1Z" fill="#263238"/>
<path d="M66.4679 114.124C66.4679 114.092 66.4119 114.08 66.4039 114.124C66.2759 115.016 66.2559 115.928 66.2039 116.828C66.1519 117.728 66.1119 118.692 66.0799 119.628C66.0199 121.488 65.9279 123.356 65.9799 125.228C65.9799 125.244 65.9863 125.259 65.9975 125.27C66.0088 125.282 66.024 125.288 66.0399 125.288C66.0559 125.288 66.0711 125.282 66.0824 125.27C66.0936 125.259 66.0999 125.244 66.0999 125.228C66.2839 123.392 66.3279 121.532 66.3959 119.688C66.4306 118.776 66.4573 117.861 66.4759 116.944C66.4879 116 66.5359 115.048 66.4679 114.124Z" fill="#263238"/>
<path d="M68.8441 120.728V120.328C68.8441 120.264 68.8441 120.196 68.8441 120.132C68.8532 120.103 68.8532 120.073 68.8441 120.044C68.8441 120.008 68.8441 119.972 68.8441 119.932H68.8121C68.8121 119.972 68.8121 120.008 68.8121 120.044C68.8121 120.044 68.8121 120.068 68.8121 120.072C68.7761 121.036 68.6721 122 68.6281 122.964C68.5841 123.928 68.5681 124.904 68.5761 125.88C67.4761 125.788 66.3601 125.8 65.2561 125.744C64.1521 125.688 62.9681 125.604 61.8241 125.512C59.5321 125.328 57.2441 125.112 54.9641 124.788L53.0641 124.52C52.4201 124.428 51.7481 124.38 51.1161 124.228C51.0761 124.228 51.0601 124.284 51.1161 124.292C51.6961 124.364 52.2721 124.524 52.8481 124.628C53.4241 124.732 53.9761 124.828 54.5441 124.916C55.6747 125.097 56.8094 125.257 57.9481 125.396C60.2201 125.679 62.5001 125.877 64.7881 125.992L66.7521 126.076C67.3961 126.096 68.0481 126.136 68.6921 126.104C68.7195 126.102 68.7454 126.091 68.7651 126.072C68.7849 126.053 68.7973 126.027 68.8001 126C68.8001 124.988 68.8521 123.976 68.8641 122.964C68.8641 122.468 68.8641 121.972 68.8641 121.476C68.8561 121.224 68.8521 120.976 68.8441 120.728Z" fill="#263238"/>
<path d="M92.5919 104.924C93.6119 106.236 95.9719 107.668 96.3799 108.832C96.4903 109.116 96.5063 109.428 96.4256 109.722C96.3449 110.016 96.1718 110.276 95.9319 110.464C95.9319 110.464 97.2599 110.796 97.4559 111.912C97.5559 112.488 96.7239 113.156 96.7239 113.156C97.0201 113.247 97.2853 113.418 97.4906 113.651C97.696 113.883 97.8334 114.167 97.8879 114.472C97.9759 115.272 97.1319 115.82 97.1319 115.82C97.1319 115.82 97.9999 116.588 97.8279 117.42C97.4839 119.132 90.7319 120.62 89.1399 118.364C88.3959 117.312 90.0639 117.04 90.0639 117.04C90.0639 117.04 87.5719 116.852 87.2279 115.468C86.8839 114.084 89.0759 113.868 89.0759 113.868C89.0759 113.868 86.6559 113.668 86.4479 112.196C86.2399 110.724 88.4479 110.812 88.4479 110.812C88.4479 110.812 86.7239 110.128 86.8199 108.964C86.9799 107.044 90.7479 108.68 92.1559 108L92.5919 104.924Z" fill="#AD6359"/>
<path d="M96.76 113.16C96.784 113.16 96.8 113.196 96.76 113.208C94.344 114.375 91.5898 114.639 88.996 113.952C88.908 113.928 88.852 113.812 88.96 113.836C90.752 114.22 94.624 113.828 96.76 113.16Z" fill="#263238"/>
<path d="M88.2837 110.704C90.8237 111.352 93.3197 111.104 95.8477 110.512C95.8797 110.512 95.8877 110.548 95.8477 110.564C94.6957 111.2 93.0477 111.416 91.7437 111.48C90.5382 111.562 89.3324 111.324 88.2477 110.792C88.2157 110.772 88.2277 110.692 88.2837 110.704Z" fill="#263238"/>
<path d="M140.02 157.332C139.684 158.236 123.22 178.704 122.1 179.088C121.676 179.236 118.556 177.012 114.86 174.216C114.06 173.612 113.26 172.984 112.412 172.344C107.024 168.18 101.404 163.636 101.404 163.636L112.376 149.912L123.084 159L125.436 161C125.436 161 135.244 155.984 136.52 155.696C137.796 155.408 140.356 156.424 140.02 157.332Z" fill="#AD6359"/>
<path d="M140.02 157.332C139.684 158.236 123.22 178.704 122.1 179.088C121.58 179.264 117.084 175.944 112.412 172.344L123.084 159L125.436 161C125.436 161 135.244 155.984 136.52 155.696C137.796 155.408 140.356 156.424 140.02 157.332Z" fill="white"/>
<path d="M140.02 157.332C139.684 158.236 123.22 178.704 122.1 179.088C121.676 179.236 118.556 177.012 114.86 174.216L125.436 160.992C125.436 160.992 135.244 155.976 136.52 155.688C137.796 155.4 140.356 156.424 140.02 157.332Z" fill="#3A8DFE"/>
<path d="M138.968 156.964C136.12 160.328 124.968 174.164 122.412 177.7C122.412 177.728 122.412 177.744 122.432 177.7C125.324 174.432 136.368 160.5 139.024 156.996C139.08 156.936 139.028 156.896 138.968 156.964Z" fill="#263238"/>
<path d="M134.724 156.4C134.409 156.774 134.176 157.209 134.038 157.678C133.9 158.147 133.861 158.639 133.924 159.124C134.022 159.997 134.452 160.799 135.124 161.364C135.144 161.364 135.176 161.344 135.156 161.324C134.569 160.662 134.213 159.827 134.141 158.945C134.069 158.063 134.285 157.181 134.756 156.432C134.757 156.428 134.756 156.423 134.755 156.419C134.754 156.415 134.751 156.411 134.748 156.408C134.745 156.405 134.741 156.402 134.737 156.401C134.733 156.4 134.728 156.399 134.724 156.4V156.4Z" fill="#263238"/>
<path d="M126.848 159.936C125.724 161.292 124.928 163.276 125.364 165.032C125.364 165.1 125.48 165.076 125.492 165.032C125.828 163.326 126.345 161.66 127.036 160.064C127.053 160.039 127.059 160.009 127.054 159.979C127.048 159.949 127.031 159.923 127.006 159.906C126.981 159.889 126.95 159.883 126.921 159.888C126.891 159.894 126.865 159.911 126.848 159.936Z" fill="#263238"/>
<path d="M128.116 159.2C126.992 160.556 126.196 162.54 126.632 164.296C126.632 164.364 126.744 164.34 126.756 164.296C127.093 162.589 127.612 160.924 128.304 159.328C128.321 159.303 128.327 159.272 128.322 159.243C128.316 159.213 128.299 159.187 128.274 159.17C128.249 159.153 128.218 159.147 128.189 159.152C128.159 159.158 128.133 159.175 128.116 159.2V159.2Z" fill="#263238"/>
<path d="M129.38 158.48C128.256 159.836 127.46 161.82 127.896 163.576C127.916 163.644 128.012 163.62 128.024 163.576C128.36 161.87 128.877 160.204 129.568 158.608C129.585 158.583 129.591 158.552 129.586 158.523C129.58 158.493 129.563 158.467 129.538 158.45C129.513 158.433 129.482 158.427 129.453 158.432C129.423 158.438 129.397 158.455 129.38 158.48Z" fill="#263238"/>
<path d="M130.648 157.752C129.524 159.112 128.728 161.092 129.164 162.848C129.164 162.916 129.276 162.892 129.288 162.848C129.626 161.142 130.145 159.476 130.836 157.88C130.853 157.855 130.86 157.825 130.854 157.795C130.848 157.765 130.831 157.739 130.806 157.722C130.781 157.705 130.751 157.699 130.721 157.704C130.691 157.71 130.665 157.727 130.648 157.752V157.752Z" fill="#263238"/>
<path d="M119.856 174.204C118.62 175.748 121.02 177.672 122.256 176.124C123.492 174.576 121.092 172.66 119.856 174.204Z" fill="#263238"/>
<path d="M124.4 155.504C123.264 155.736 123.124 157.064 123.376 157.972C123.839 159.526 124.704 160.931 125.884 162.044C125.888 162.05 125.893 162.054 125.9 162.058C125.906 162.061 125.913 162.063 125.92 162.063C125.927 162.063 125.934 162.061 125.94 162.058C125.946 162.054 125.952 162.05 125.956 162.044C125.986 162.06 126.02 162.068 126.054 162.068C126.089 162.068 126.122 162.06 126.153 162.044C126.183 162.028 126.21 162.006 126.23 161.978C126.25 161.95 126.263 161.918 126.268 161.884C126.376 160.364 126.668 158.752 126.324 157.24C126.092 156.352 125.452 155.284 124.4 155.504ZM125.96 159.536C125.924 160.284 125.852 161.028 125.844 161.78C125.334 161.004 124.862 160.203 124.432 159.38C124.231 158.978 124.057 158.562 123.912 158.136C123.696 157.472 123.632 155.2 125.236 156.264C126.1 156.84 126 158.644 125.94 159.536H125.96Z" fill="#263238"/>
<path d="M123.628 165.868C124.772 164.82 125.424 163.312 126.188 161.992C126.203 161.961 126.21 161.928 126.21 161.894C126.209 161.859 126.2 161.826 126.183 161.796C126.167 161.766 126.143 161.741 126.115 161.722C126.086 161.703 126.054 161.692 126.02 161.688C126.021 161.681 126.02 161.673 126.017 161.666C126.015 161.659 126.01 161.653 126.005 161.648C126 161.643 125.993 161.639 125.986 161.637C125.979 161.635 125.971 161.635 125.964 161.636C124.362 161.894 122.856 162.572 121.6 163.6C120.88 164.208 120.252 165.388 121.06 166.216C121.868 167.044 122.96 166.48 123.628 165.868ZM122.18 166.068C120.252 166.048 121.58 164.204 122.132 163.776C122.492 163.503 122.87 163.256 123.264 163.036C124.064 162.568 124.936 162.236 125.784 161.836C125.384 162.46 125.012 163.116 124.62 163.756C124.156 164.52 123.24 166.076 122.18 166.068Z" fill="#263238"/>
<path d="M122.512 156.928L111.092 172.336L72.556 145.6L68.84 143.02C68.84 143.02 67.788 143.728 66.204 144.62C64.004 145.82 60.78 147.376 57.928 147.796C53.128 148.504 45.156 148.428 41.128 143.036C37.732 138.496 40.052 130.272 40.052 130.272L45.652 129.652C45.652 129.652 57.252 119.96 65.324 119.652C68.744 119.516 73.724 122.108 78.336 124.816C82.948 127.524 122.512 156.928 122.512 156.928Z" fill="#455A64"/>
<path d="M68.8401 143.016C68.8401 143.016 67.7881 143.724 66.2041 144.616C63.4041 141.264 57.4761 135.176 57.2961 134.96L68.8401 143.016Z" fill="#263238"/>
<path d="M49.38 126.832C48.636 127.344 47.92 127.896 47.184 128.432C46.448 128.968 45.72 129.444 45.036 130.012C44.352 130.58 43.676 131.212 43.036 131.832C42.72 132.132 42.404 132.436 42.1 132.744C41.7777 133.045 41.4782 133.37 41.204 133.716C41.18 133.748 41.228 133.788 41.26 133.768C41.6069 133.52 41.9394 133.253 42.256 132.968C42.604 132.676 42.944 132.376 43.292 132.084C43.96 131.516 44.64 130.964 45.292 130.392C45.944 129.82 46.568 129.192 47.224 128.636C47.88 128.08 48.664 127.436 49.396 126.868C49.408 126.844 49.396 126.82 49.38 126.832Z" fill="#263238"/>
<path d="M119.832 156.376C119.088 157.176 118.404 158.036 117.712 158.88C117.02 159.724 116.328 160.58 115.644 161.436C114.276 163.144 112.892 164.848 111.548 166.576C110.808 167.528 110.08 168.484 109.392 169.472C109.385 169.482 109.381 169.494 109.383 169.506C109.384 169.518 109.391 169.529 109.4 169.536C109.41 169.543 109.422 169.547 109.434 169.545C109.446 169.544 109.457 169.538 109.464 169.528C110.94 167.908 112.264 166.18 113.652 164.472C115.04 162.764 116.388 161.04 117.728 159.308C118.464 158.36 119.224 157.416 119.9 156.424C119.903 156.415 119.902 156.406 119.899 156.397C119.896 156.388 119.891 156.381 119.883 156.376C119.876 156.37 119.867 156.368 119.858 156.368C119.849 156.368 119.84 156.371 119.832 156.376V156.376Z" fill="#263238"/>
<path d="M89.2323 132.316C87.8763 130.744 82.0603 126.62 78.3443 124.776C78.3372 124.774 78.3296 124.775 78.323 124.778C78.3163 124.781 78.3109 124.786 78.3076 124.792C78.3043 124.799 78.3034 124.807 78.305 124.814C78.3065 124.821 78.3105 124.827 78.3163 124.832C82.0203 127.212 88.1243 131.724 89.1763 132.396C89.2243 132.424 89.2683 132.356 89.2323 132.316Z" fill="#263238"/>
<path d="M73.1603 89.9758L74.1883 92.0558L76.4803 92.3878L74.8203 94.0078L75.2123 96.2918L73.1603 95.2118L71.1123 96.2918L71.5003 94.0078L69.8403 92.3878L72.1363 92.0558L73.1603 89.9758Z" fill="#3A8DFE"/>
<path d="M80.7764 83.3118L81.5164 84.8718L83.1684 85.1198L81.9724 86.3318L82.2564 88.0438L80.7764 87.2358L79.2924 88.0438L79.5764 86.3318L78.3804 85.1198L80.0364 84.8718L80.7764 83.3118Z" fill="#3A8DFE"/>
<path d="M74.856 73.584L75.324 74.532L76.368 74.684L75.612 75.42L75.792 76.464L74.856 75.972L73.92 76.464L74.1 75.42L73.344 74.684L74.388 74.532L74.856 73.584Z" fill="#3A8DFE"/>
<path d="M80.776 68.0158L81.128 68.7358L81.924 68.8478L81.348 69.4078L81.484 70.1999L80.776 69.8238L80.064 70.1999L80.2 69.4078L79.624 68.8478L80.42 68.7358L80.776 68.0158Z" fill="#3A8DFE"/>
<path d="M156.444 78.036H96.22V102.112H156.444V78.036Z" fill="#EBEBEB"/>
<path d="M96.2319 102.116V106.9L100.568 102.116H96.2319Z" fill="#EBEBEB"/>
<path d="M107.772 100.048C112.948 100.048 117.144 95.8521 117.144 90.6761C117.144 85.5001 112.948 81.3041 107.772 81.3041C102.596 81.3041 98.3999 85.5001 98.3999 90.6761C98.3999 95.8521 102.596 100.048 107.772 100.048Z" fill="white"/>
<path d="M123.884 82.5478L124.568 83.9358L126.096 84.1558L124.992 85.2358L125.252 86.7598L123.884 86.0398L122.516 86.7598L122.776 85.2358L121.672 84.1558L123.2 83.9358L123.884 82.5478Z" fill="#3A8DFE"/>
<path d="M129.908 82.5478L130.592 83.9358L132.12 84.1558L131.012 85.2358L131.276 86.7598L129.908 86.0398L128.54 86.7598L128.8 85.2358L127.692 84.1558L129.224 83.9358L129.908 82.5478Z" fill="#C7C7C7"/>
<path d="M135.928 82.5478L136.612 83.9358L138.144 84.1558L137.036 85.2358L137.296 86.7598L135.928 86.0398L134.56 86.7598L134.824 85.2358L133.716 84.1558L135.244 83.9358L135.928 82.5478Z" fill="#C7C7C7"/>
<path d="M141.952 82.5478L142.636 83.9358L144.168 84.1558L143.06 85.2358L143.32 86.7598L141.952 86.0398L140.584 86.7598L140.848 85.2358L139.74 84.1558L141.268 83.9358L141.952 82.5478Z" fill="#C7C7C7"/>
<path d="M147.976 82.5478L148.66 83.9358L150.188 84.1558L149.084 85.2358L149.344 86.7598L147.976 86.0398L146.608 86.7598L146.868 85.2358L145.764 84.1558L147.292 83.9358L147.976 82.5478Z" fill="#C7C7C7"/>
<path d="M150.248 90.076H121.672V90.676H150.248V90.076Z" fill="#263238"/>
<path d="M147.124 91.904H121.672V92.504H147.124V91.904Z" fill="white"/>
<path d="M142.712 93.732H121.672V94.332H142.712V93.732Z" fill="white"/>
<path d="M144.672 95.5598H121.672V96.1598H144.672V95.5598Z" fill="white"/>
<path d="M104.892 79.4679C100.552 81.4199 99.6161 87.5359 99.9001 96.2399C99.9441 97.5639 111.136 99.8639 116.552 95.7839C117.424 95.1239 116.184 84.4759 114.036 81.4119C111.372 77.5999 107.576 78.2599 104.892 79.4679Z" fill="#263238"/>
<path d="M104.772 79.5559C102.504 80.7119 101.044 83.0078 100.372 85.4158C99.9365 87.2055 99.6356 89.0253 99.472 90.8599C99.2295 92.6019 99.2026 94.3672 99.392 96.1159C99.392 96.1286 99.3971 96.1408 99.4061 96.1498C99.4151 96.1588 99.4273 96.1639 99.44 96.1639C99.4527 96.1639 99.4649 96.1588 99.4739 96.1498C99.4829 96.1408 99.488 96.1286 99.488 96.1159C99.4695 92.8191 99.8115 89.5302 100.508 86.3079C101.072 83.6079 102.46 81.1919 104.844 79.7319C104.952 79.6679 104.872 79.5079 104.772 79.5559Z" fill="#263238"/>
<path d="M115.884 84.3999C115.533 83.0725 114.848 81.857 113.894 80.8691C112.941 79.8813 111.75 79.1538 110.436 78.7559V78.7879C113.444 79.9239 115.132 82.2159 115.892 85.2559C116.72 88.5679 117.056 91.9279 117.328 95.3159C117.328 95.3318 117.334 95.347 117.346 95.3583C117.357 95.3695 117.372 95.3759 117.388 95.3759C117.404 95.3759 117.419 95.3695 117.43 95.3583C117.442 95.347 117.448 95.3318 117.448 95.3159C117.418 91.6236 116.892 87.9521 115.884 84.3999Z" fill="#263238"/>
<path d="M101.672 99.4999L101.708 99.5279C103.672 100.868 107.552 103.22 109.624 102.472C110.232 102.226 110.781 101.855 111.236 101.383C111.691 100.911 112.041 100.348 112.264 99.7319C111.454 99.077 110.597 98.4821 109.7 97.9519C106.64 95.9159 103.88 97.1359 101.672 99.4999Z" fill="#A6A6A6"/>
<path d="M104.628 98.3437C104.768 98.7957 107.164 101.636 109.26 101.396C109.944 101.32 109.68 97.5717 109.68 97.5717L109.724 97.2917L110.332 93.3557L105.6 90.7357L104.916 90.3917C104.916 90.3917 104.82 91.4797 104.716 92.8357C104.716 92.8997 104.716 92.9637 104.716 93.0277C104.716 93.0917 104.716 93.1797 104.696 93.2517C104.696 93.4517 104.66 93.6517 104.648 93.8637C104.636 94.0757 104.624 94.1757 104.62 94.3397C104.616 94.5037 104.62 94.6677 104.592 94.8317C104.524 96.0019 104.536 97.1753 104.628 98.3437V98.3437Z" fill="#F7A9A0"/>
<path d="M104.696 92.8359C105.161 93.8987 105.851 94.8478 106.72 95.6172C107.588 96.3867 108.613 96.9581 109.724 97.2919L110.332 93.3559L105.6 90.7358L104.916 90.3918C104.916 90.3918 104.8 91.4798 104.696 92.8359Z" fill="#263238"/>
<path d="M115.2 86.7999C116.296 93.7039 112.284 95.1399 110.8 95.3759C109.452 95.5879 105.088 95.9159 103.284 89.1639C101.48 82.4119 104.084 79.9639 107.14 79.2959C110.196 78.6279 114.1 79.9039 115.2 86.7999Z" fill="#F7A9A0"/>
<path d="M114 86.3998C113.849 86.4543 113.695 86.501 113.54 86.5398C113.384 86.6153 113.208 86.6351 113.04 86.5958C112.989 86.5743 112.948 86.5367 112.921 86.489C112.894 86.4412 112.884 86.3859 112.892 86.3318C112.925 86.2269 112.985 86.1327 113.067 86.0589C113.148 85.9851 113.248 85.9343 113.356 85.9118C113.565 85.8299 113.798 85.8299 114.008 85.9118C114.054 85.9338 114.093 85.9688 114.121 86.0125C114.148 86.0563 114.162 86.1069 114.161 86.1584C114.16 86.2098 114.144 86.26 114.116 86.3028C114.087 86.3456 114.047 86.3793 114 86.3998Z" fill="#263238"/>
<path d="M108.92 86.604C109.079 86.6281 109.239 86.6441 109.4 86.652C109.566 86.6953 109.742 86.6812 109.9 86.612C109.944 86.5797 109.977 86.5339 109.994 86.4812C110.011 86.4286 110.01 86.3721 109.992 86.32C109.94 86.2232 109.862 86.1423 109.768 86.0859C109.673 86.0296 109.566 85.9999 109.456 86C109.234 85.963 109.006 86.0085 108.816 86.128C108.775 86.1588 108.743 86.2008 108.725 86.2489C108.708 86.297 108.704 86.3492 108.715 86.3993C108.726 86.4495 108.751 86.4954 108.787 86.5317C108.824 86.5679 108.869 86.593 108.92 86.604Z" fill="#263238"/>
<path d="M110.032 88.2038C110.032 88.2038 109.996 88.2318 110 88.2478C110.068 88.7198 110.068 89.2718 109.656 89.4758C109.656 89.4758 109.656 89.5078 109.656 89.5038C110.176 89.3718 110.172 88.6398 110.032 88.2038Z" fill="#263238"/>
<path d="M109.556 87.7558C108.788 87.7838 108.9 89.3159 109.608 89.2919C110.316 89.2679 110.196 87.7358 109.556 87.7558Z" fill="#263238"/>
<path d="M109.26 87.86C109.132 87.956 109.012 88.12 108.86 88.144C108.708 88.168 108.524 88.028 108.388 87.88C108.388 87.88 108.364 87.88 108.364 87.9C108.364 88.196 108.516 88.488 108.832 88.508C109.148 88.528 109.312 88.256 109.364 87.952C109.364 87.896 109.312 87.82 109.26 87.86Z" fill="#263238"/>
<path d="M112.988 87.7718C112.988 87.7718 113.028 87.7718 113.028 87.8118C113.028 88.2877 113.144 88.8317 113.584 88.9597V88.9877C113.052 88.9477 112.928 88.2277 112.988 87.7718Z" fill="#263238"/>
<path d="M113.384 87.2478C114.144 87.1438 114.3 88.6718 113.596 88.7678C112.892 88.8638 112.744 87.3398 113.384 87.2478Z" fill="#263238"/>
<path d="M113.712 87.316C113.84 87.384 113.976 87.52 114.112 87.516C114.248 87.512 114.388 87.332 114.476 87.16C114.476 87.16 114.5 87.16 114.504 87.16C114.54 87.452 114.476 87.764 114.2 87.848C113.924 87.932 113.736 87.696 113.636 87.412C113.628 87.376 113.66 87.288 113.712 87.316Z" fill="#263238"/>
<path d="M112.368 89.948C112.368 89.948 112.524 90.648 112.552 90.98C111.848 90.9352 111.143 91.0345 110.48 91.272C110.444 91.272 110.372 91.228 110.46 91.164C111.003 90.8288 111.64 90.6799 112.276 90.74C112.276 90.648 111.98 89.64 112.032 89.632C112.293 89.6352 112.552 89.6715 112.804 89.74C112.52 88.276 112.004 86.864 111.74 85.4C111.735 85.3889 111.736 85.3765 111.741 85.3656C111.746 85.3547 111.755 85.3463 111.766 85.342C111.777 85.3378 111.789 85.3381 111.8 85.343C111.811 85.3479 111.819 85.3569 111.824 85.368C112.425 86.8637 112.877 88.4153 113.172 90C113.2 90.188 112.504 90 112.368 89.948Z" fill="#263238"/>
<path d="M103.276 89.168C104.02 89.064 105.808 86.84 105.572 83.212C105.572 83.212 105.572 86.484 105.352 86.984C105.132 87.484 106.348 85.732 106.2 82.804C107.174 83.3874 108.226 83.8291 109.324 84.116C110.736 84.388 111.58 84.308 111.672 84.2C111.764 84.092 109.672 83.616 109.076 83.028C109.076 83.028 112.888 84.436 114.588 84.428C114.784 84.428 114.548 80.788 111.788 79.292C109.028 77.796 105.184 79.572 104.156 80.74C104.156 80.74 102.864 81.032 101.6 83.084C100.336 85.136 102.468 89.284 103.276 89.168Z" fill="#263238"/>
<path d="M104.908 89.7477C104.908 89.7477 103.232 87.6837 102.284 88.2957C101.336 88.9077 102.684 91.9797 103.884 92.3277C104.034 92.3806 104.192 92.4034 104.351 92.3946C104.509 92.3857 104.665 92.3456 104.807 92.2764C104.95 92.2072 105.078 92.1103 105.183 91.9914C105.288 91.8725 105.369 91.7339 105.42 91.5837L104.908 89.7477Z" fill="#F7A9A0"/>
<path d="M102.696 89.1637V89.1957C103.532 89.4677 104.012 90.1917 104.368 90.9517C104.315 90.8735 104.246 90.8077 104.166 90.759C104.085 90.7102 103.995 90.6796 103.901 90.6693C103.807 90.659 103.713 90.6693 103.623 90.6994C103.534 90.7295 103.452 90.7788 103.384 90.8437C103.38 90.8475 103.378 90.8524 103.377 90.8578C103.376 90.8631 103.378 90.8685 103.38 90.8731C103.383 90.8778 103.387 90.8813 103.392 90.8832C103.397 90.8851 103.403 90.8853 103.408 90.8837C103.546 90.8329 103.695 90.8244 103.838 90.8593C103.981 90.8942 104.109 90.971 104.208 91.0797C104.372 91.271 104.515 91.4788 104.636 91.6997C104.68 91.7677 104.808 91.7197 104.776 91.6397C104.724 90.5837 103.816 89.1997 102.696 89.1637Z" fill="#263238"/>
<path d="M160.444 47.28H100.22V71.356H160.444V47.28Z" fill="#EBEBEB"/>
<path d="M100.232 71.3561V76.1401L104.568 71.3561H100.232Z" fill="#EBEBEB"/>
<path d="M111.772 69.292C116.948 69.292 121.144 65.096 121.144 59.92C121.144 54.744 116.948 50.548 111.772 50.548C106.596 50.548 102.4 54.744 102.4 59.92C102.4 65.096 106.596 69.292 111.772 69.292Z" fill="white"/>
<path d="M127.888 52.0641L128.572 53.4521L130.104 53.6761L128.996 54.7561L129.256 56.2841L127.888 55.5601L126.516 56.2841L126.78 54.7561L125.672 53.6761L127.204 53.4521L127.888 52.0641Z" fill="#3A8DFE"/>
<path d="M133.924 52.064L134.608 53.452L136.14 53.676L135.032 54.756L135.292 56.284L133.924 55.56L132.552 56.284L132.812 54.756L131.704 53.676L133.236 53.452L133.924 52.064Z" fill="#3A8DFE"/>
<path d="M139.956 52.064L140.644 53.452L142.176 53.676L141.068 54.756L141.328 56.284L139.956 55.56L138.588 56.284L138.848 54.756L137.74 53.676L139.272 53.452L139.956 52.064Z" fill="#3A8DFE"/>
<path d="M145.992 52.0641L146.676 53.4521L148.208 53.6761L147.1 54.7561L147.364 56.2841L145.992 55.5601L144.62 56.2841L144.884 54.7561L143.776 53.6761L145.308 53.4521L145.992 52.0641Z" fill="#C7C7C7"/>
<path d="M152.028 52.0641L152.712 53.4521L154.244 53.6761L153.136 54.7561L153.396 56.2841L152.028 55.5601L150.656 56.2841L150.92 54.7561L149.808 53.6761L151.34 53.4521L152.028 52.0641Z" fill="#C7C7C7"/>
<path d="M154.248 59.3161H125.672V59.9161H154.248V59.3161Z" fill="#263238"/>
<path d="M142.38 61.144H125.672V61.744H142.38V61.144Z" fill="white"/>
<path d="M150.34 62.9761H125.672V63.5761H150.34V62.9761Z" fill="white"/>
<path d="M148.212 64.804H125.672V65.404H148.212V64.804Z" fill="white"/>
<path d="M114.456 66.132L113.624 69.888L107.96 66L106.552 68.076C106.552 68.076 110.26 73.0919 114.208 73.0919C116.284 73.0919 116.688 68.336 116.688 68.336L114.456 66.132Z" fill="#3A8DFE"/>
<path d="M113.504 70.3999C111.984 70.8719 109.16 68.6879 107.976 66.8439C107.896 66.7159 108 65.3159 108.048 63.6079C108.072 62.5719 108.076 61.4159 108.004 60.3639C108.004 60.1479 108.752 60.4919 108.752 60.4919L110.14 60.7279L114.724 61.5279C114.439 62.8709 114.319 64.2438 114.368 65.6159C114.378 65.7622 114.403 65.907 114.444 66.0479C114.443 66.0719 114.443 66.096 114.444 66.1199C114.648 66.9199 114.98 69.9439 113.504 70.3999Z" fill="#EB9481"/>
<path d="M114.444 66.0598C114.442 66.0838 114.442 66.1079 114.444 66.1318C114.221 66.1783 113.995 66.2064 113.768 66.2158C109.312 66.4238 108.364 60.8038 108.364 60.8038L110.128 60.7558L114.712 61.5558C114.426 62.9002 114.307 64.2744 114.356 65.6478C114.371 65.7878 114.4 65.9259 114.444 66.0598V66.0598Z" fill="#263238"/>
<path d="M107.432 51.9761C106.632 54.2921 107.568 61.1281 109.172 62.7081C111.5 65.0041 115.452 65.3801 117.44 62.5521C119.364 59.8081 117.968 50.9241 116.16 49.4721C113.5 47.3321 108.64 48.5561 107.432 51.9761Z" fill="#EB9481"/>
<path d="M114 56.712C114 56.692 113.968 56.736 113.972 56.756C114.048 57.216 114.056 57.752 113.66 57.956C113.66 57.956 113.66 57.988 113.66 57.984C114.176 57.848 114.156 57.132 114 56.712Z" fill="#263238"/>
<path d="M113.532 56.2838C112.784 56.3278 112.924 57.8198 113.62 57.7798C114.316 57.7398 114.16 56.2478 113.532 56.2838Z" fill="#263238"/>
<path d="M116.692 56.5319C116.692 56.5319 116.732 56.5319 116.732 56.5719C116.76 57.0359 116.872 57.5599 117.308 57.6759V57.6999C116.8 57.6759 116.648 56.9759 116.692 56.5319Z" fill="#263238"/>
<path d="M117.06 55.9998C117.8 55.8718 118 57.3598 117.316 57.4758C116.632 57.5918 116.44 56.1158 117.06 55.9998Z" fill="#263238"/>
<path d="M112.88 55.6599C113.076 55.5879 113.248 55.4879 113.436 55.3999C113.647 55.3384 113.83 55.2072 113.956 55.0279C113.986 54.9641 113.994 54.8923 113.979 54.8237C113.963 54.755 113.926 54.6932 113.872 54.6479C113.75 54.5777 113.613 54.5407 113.472 54.5407C113.332 54.5407 113.194 54.5777 113.072 54.6479C112.804 54.7516 112.585 54.9512 112.456 55.2079C112.431 55.2683 112.424 55.3347 112.436 55.3991C112.447 55.4634 112.477 55.5231 112.522 55.5708C112.567 55.6185 112.625 55.6523 112.688 55.6681C112.752 55.6839 112.818 55.681 112.88 55.6599V55.6599Z" fill="#263238"/>
<path d="M117.568 55.1999C117.356 55.1999 117.168 55.1359 116.96 55.1039C116.74 55.1 116.527 55.0225 116.356 54.8839C116.31 54.8272 116.286 54.7566 116.286 54.6839C116.286 54.6112 116.31 54.5407 116.356 54.4839C116.453 54.3838 116.575 54.3109 116.709 54.2723C116.843 54.2337 116.984 54.2308 117.12 54.2639C117.406 54.2909 117.671 54.4236 117.864 54.6359C117.912 54.6868 117.944 54.7516 117.954 54.8213C117.964 54.891 117.951 54.962 117.919 55.0243C117.886 55.0866 117.834 55.1371 117.771 55.1686C117.709 55.2001 117.637 55.2111 117.568 55.1999V55.1999Z" fill="#263238"/>
<path d="M114.268 59.8161C114.74 60.2161 116.32 60.2161 116.324 60.1441L116.196 59.0361C116.332 59.0921 117.024 59.3281 116.996 59.1401C116.801 57.5389 116.444 55.9616 115.932 54.4321C115.929 54.4231 115.923 54.4153 115.916 54.4098C115.908 54.4042 115.899 54.4012 115.89 54.4012C115.88 54.4012 115.871 54.4042 115.864 54.4098C115.856 54.4153 115.851 54.4231 115.848 54.4321C116.02 55.9121 116.448 57.3561 116.648 58.8321C116.401 58.7454 116.144 58.6929 115.884 58.6761C115.832 58.6961 116.068 59.7121 116.064 59.8761C115.489 59.9023 114.915 59.8251 114.368 59.6481C114.184 59.6001 114.144 59.7121 114.268 59.8161Z" fill="#263238"/>
<path d="M108.264 57.4959C108.848 57.3479 109.396 55.4319 109.416 53.5759C109.416 52.3759 109.908 50.8759 111.24 50.4279C112.124 50.1279 113.664 50.8559 114.548 50.6399C115.432 50.4239 115.592 49.9239 116.112 49.9359C116.632 49.9479 117.212 51.2319 117.212 51.2319C117.212 51.2319 116.284 47.1879 111.08 48.4879C105.6 49.8599 106.704 54.5519 107.232 56.0559C107.636 57.2199 108.264 57.4959 108.264 57.4959Z" fill="#263238"/>
<path d="M108.648 57.564C108.648 57.564 107.164 55.336 106.156 55.86C105.148 56.384 106.228 59.592 107.388 60.0519C107.532 60.1186 107.689 60.1559 107.848 60.1615C108.007 60.1672 108.165 60.1412 108.314 60.085C108.463 60.0288 108.599 59.9435 108.715 59.8341C108.831 59.7248 108.923 59.5935 108.988 59.4479L108.648 57.564Z" fill="#EB9481"/>
<path d="M106.488 56.8V56.832C107.288 57.184 107.716 57.952 108 58.748C107.954 58.6648 107.89 58.5925 107.814 58.536C107.737 58.4796 107.65 58.4404 107.557 58.421C107.464 58.4016 107.367 58.4026 107.275 58.4238C107.182 58.445 107.095 58.486 107.02 58.544C107.017 58.5482 107.015 58.5532 107.015 58.5584C107.015 58.5636 107.016 58.5688 107.018 58.5734C107.021 58.578 107.024 58.5817 107.029 58.5843C107.033 58.5869 107.039 58.5882 107.044 58.588C107.189 58.5442 107.345 58.5474 107.488 58.5969C107.632 58.6464 107.756 58.7399 107.844 58.864C107.994 59.0682 108.119 59.2898 108.216 59.524C108.252 59.596 108.388 59.56 108.36 59.476V59.456C108.4 58.4 107.6 56.928 106.488 56.8Z" fill="#263238"/>
<path d="M164.444 16.52H104.22V40.596H164.444V16.52Z" fill="#EBEBEB"/>
<path d="M104.232 40.596V45.384L108.568 40.596H104.232Z" fill="#EBEBEB"/>
<path d="M115.772 38.532C120.948 38.532 125.144 34.336 125.144 29.16C125.144 23.984 120.948 19.788 115.772 19.788C110.596 19.788 106.4 23.984 106.4 29.16C106.4 34.336 110.596 38.532 115.772 38.532Z" fill="white"/>
<path d="M131.888 21.624L132.572 23.012L134.104 23.236L132.996 24.316L133.256 25.844L131.888 25.124L130.516 25.844L130.78 24.316L129.672 23.236L131.204 23.012L131.888 21.624Z" fill="#3A8DFE"/>
<path d="M137.924 21.6239L138.608 23.0119L140.14 23.2359L139.032 24.3159L139.292 25.8439L137.924 25.1239L136.552 25.8439L136.812 24.3159L135.704 23.2359L137.236 23.0119L137.924 21.6239Z" fill="#3A8DFE"/>
<path d="M143.956 21.6239L144.644 23.0119L146.176 23.2359L145.068 24.3159L145.328 25.8439L143.956 25.1239L142.588 25.8439L142.848 24.3159L141.74 23.2359L143.272 23.0119L143.956 21.6239Z" fill="#3A8DFE"/>
<path d="M149.992 21.6239L150.676 23.0119L152.208 23.2359L151.1 24.3159L151.364 25.8439L149.992 25.1239L148.62 25.8439L148.884 24.3159L147.776 23.2359L149.308 23.0119L149.992 21.6239Z" fill="#3A8DFE"/>
<path d="M156.028 21.624L156.712 23.012L158.244 23.236L157.136 24.316L157.396 25.844L156.028 25.124L154.656 25.844L154.92 24.316L153.808 23.236L155.34 23.012L156.028 21.624Z" fill="#3A8DFE"/>
<path d="M158.248 28.56H129.672V29.16H158.248V28.56Z" fill="#263238"/>
<path d="M150.932 30.388H129.672V30.988H150.932V30.388Z" fill="white"/>
<path d="M155.124 32.2162H129.672V32.8162H155.124V32.2162Z" fill="white"/>
<path d="M140.592 34.044H129.672V34.644H140.592V34.044Z" fill="white"/>
<path d="M125.6 36.296H124.8C124.72 35.276 124.072 33.716 124.236 34.504C124.34 35.0953 124.375 35.6966 124.34 36.296H110.8C110.644 34.76 111.328 32.236 111.328 32.236C110.528 33.504 110.244 35.304 110.128 36.296H108.852C108.807 35.4632 108.871 34.628 109.044 33.812C108.7 34.6009 108.482 35.4392 108.4 36.296H106.944C106.952 34.3718 107.542 32.495 108.636 30.912C109.62 29.444 108.404 28.588 108.428 25.712C108.452 21.908 111.064 20.448 111.496 20.048C117.404 14.576 122.764 19.648 123.336 23.268C123.892 26.804 122.876 27.268 124.536 30.468C125.748 32.912 125.6 36.296 125.6 36.296Z" fill="#263238"/>
<path d="M109.672 38.284L109.708 38.308C111.672 39.648 115.552 42 117.624 41.252C118.232 41.0071 118.781 40.6369 119.236 40.1655C119.69 39.6941 120.041 39.132 120.264 38.516C119.455 37.8588 118.597 37.2625 117.7 36.732C114.64 34.7 111.88 35.916 109.672 38.284Z" fill="#455A64"/>
<path d="M112.628 37.1239C112.768 37.5759 115.164 40.4159 117.26 40.1759C117.944 40.0999 117.68 36.3519 117.68 36.3519L117.724 36.0719L118.332 32.1359L113.6 29.5159L112.916 29.1759C112.916 29.1759 112.82 30.2599 112.716 31.6159C112.716 31.6799 112.716 31.7439 112.716 31.8119C112.716 31.8799 112.716 31.9599 112.696 32.0319C112.696 32.2319 112.66 32.4319 112.648 32.6439C112.636 32.8559 112.624 32.9559 112.62 33.1199C112.616 33.2839 112.62 33.4479 112.592 33.6119C112.523 34.782 112.535 35.9554 112.628 37.1239V37.1239Z" fill="#DD6A57"/>
<path d="M112.696 31.6C113.161 32.6629 113.851 33.612 114.72 34.3814C115.588 35.1508 116.613 35.7222 117.724 36.056L118.332 32.12L113.6 29.516L112.916 29.176C112.916 29.176 112.8 30.26 112.696 31.6Z" fill="#263238"/>
<path d="M123.2 25.5999C124.296 32.5039 120.284 33.9399 118.8 34.1759C117.452 34.3879 112.8 34.9439 111.016 28.1759C109.232 21.4079 112.076 18.7319 115.14 18.0799C118.204 17.4279 122.1 18.6839 123.2 25.5999Z" fill="#DD6A57"/>
<path d="M111.576 28.6601C113.304 28.4521 113.364 23.0601 113.364 22.4241C113.388 22.8241 113.508 25.0361 113.684 25.1121C113.869 25.0914 114.05 25.0415 114.22 24.9641V24.9641C114.199 24.6978 114.199 24.4303 114.22 24.1641C114.22 24.0401 114.288 24.4241 114.396 24.8921L114.708 24.7761C114.642 24.2173 114.651 23.6523 114.736 23.0961C114.768 22.8841 114.9 23.8121 115.168 24.6081C116.611 24.0563 118.111 23.6646 119.64 23.4401C120.072 23.3881 120.44 23.3641 120.776 23.3521C120.724 22.7041 120.592 22.0201 120.652 22.1521C120.815 22.5386 120.94 22.9406 121.024 23.3521H121.52C121.488 22.4361 120.932 21.0121 121.096 21.2201C121.588 21.8724 121.951 22.6122 122.168 23.4001C122.804 23.4721 122.968 23.5801 122.988 23.4001C122.652 21.6125 121.691 20.003 120.276 18.8601C117.936 17.0001 113.572 16.8601 111.396 20.1921C111.396 20.1921 109.496 21.6681 109.356 23.7921C109.216 25.9161 110.576 28.7761 111.576 28.6601Z" fill="#263238"/>
<path d="M112.192 28.5318C112.192 28.5318 110.516 26.4638 109.564 27.0758C108.612 27.6878 109.964 30.7598 111.164 31.1078C111.313 31.1636 111.472 31.1884 111.631 31.1809C111.79 31.1734 111.946 31.1337 112.089 31.0641C112.232 30.9945 112.36 30.8966 112.464 30.7762C112.569 30.6558 112.647 30.5155 112.696 30.3638L112.192 28.5318Z" fill="#DD6A57"/>
<path d="M110 27.9479C109.98 27.9479 109.98 27.9719 110 27.9759C110.836 28.2479 111.316 28.9719 111.672 29.7319C111.619 29.6537 111.55 29.5879 111.469 29.5391C111.389 29.4904 111.298 29.4598 111.205 29.4495C111.111 29.4392 111.016 29.4495 110.927 29.4796C110.838 29.5097 110.756 29.559 110.688 29.6239C110.684 29.6277 110.681 29.6326 110.681 29.638C110.68 29.6433 110.681 29.6487 110.684 29.6533C110.687 29.6579 110.691 29.6615 110.696 29.6634C110.701 29.6653 110.706 29.6655 110.712 29.6639C110.849 29.6131 110.999 29.6046 111.142 29.6395C111.284 29.6744 111.413 29.7512 111.512 29.8599C111.675 30.0512 111.819 30.259 111.94 30.4799C111.984 30.5519 112.112 30.5039 112.076 30.4199C112 29.3639 111.1 27.9719 110 27.9479Z" fill="#263238"/>
<path d="M120.312 29.6001C120.166 29.9002 119.944 30.1567 119.668 30.3441C119.515 30.4432 119.335 30.4921 119.152 30.4841C118.752 30.4601 118.676 30.1161 118.684 29.8041C118.691 29.6388 118.718 29.475 118.764 29.3161C119.237 29.5723 119.779 29.6717 120.312 29.6001V29.6001Z" fill="white"/>
<path d="M121.756 24.736C121.592 24.736 121.44 24.7 121.276 24.68C121.105 24.6838 120.937 24.6303 120.8 24.528C120.762 24.4877 120.739 24.4359 120.733 24.3808C120.728 24.3257 120.742 24.2705 120.772 24.224C120.845 24.1423 120.938 24.0811 121.042 24.0467C121.145 24.0123 121.257 24.0059 121.364 24.028C121.589 24.041 121.801 24.1364 121.96 24.296C121.994 24.3344 122.017 24.3821 122.024 24.4332C122.032 24.4842 122.024 24.5363 122.003 24.5831C121.981 24.63 121.946 24.6694 121.902 24.6965C121.858 24.7237 121.807 24.7374 121.756 24.736Z" fill="#263238"/>
<path d="M116.952 25.308C117.108 25.2711 117.261 25.2243 117.412 25.168C117.581 25.1419 117.737 25.0603 117.856 24.936C117.885 24.8893 117.898 24.8342 117.893 24.7793C117.888 24.7244 117.865 24.6726 117.828 24.632C117.742 24.5632 117.64 24.5187 117.532 24.5032C117.423 24.4878 117.313 24.5018 117.212 24.544C116.992 24.5951 116.799 24.7263 116.672 24.912C116.645 24.956 116.631 25.007 116.633 25.0585C116.635 25.1101 116.651 25.16 116.681 25.2022C116.711 25.2443 116.753 25.2768 116.801 25.2956C116.849 25.3144 116.901 25.3187 116.952 25.308Z" fill="#263238"/>
<path d="M118.032 26.9839C118.032 26.9839 117.996 27.0119 118 27.0279C118.068 27.4999 118.068 28.0519 117.656 28.2559C117.656 28.2559 117.656 28.2879 117.656 28.2839C118.176 28.1519 118.172 27.4199 118.032 26.9839Z" fill="#263238"/>
<path d="M117.556 26.5359C116.788 26.5639 116.9 28.0959 117.608 28.0719C118.316 28.0479 118.196 26.5159 117.556 26.5359Z" fill="#263238"/>
<path d="M117.26 26.6401C117.132 26.7361 117.012 26.9001 116.86 26.9281C116.708 26.9561 116.524 26.8081 116.388 26.6641H116.364C116.364 26.9601 116.516 27.2521 116.832 27.2761C117.148 27.3001 117.312 27.0201 117.364 26.7201C117.364 26.6801 117.312 26.6001 117.26 26.6401Z" fill="#263238"/>
<path d="M120.988 26.5521C120.988 26.5521 121.028 26.5721 121.028 26.5921C121.028 27.0681 121.144 27.6121 121.584 27.7401V27.7681C121.052 27.7281 120.928 27.0081 120.988 26.5521Z" fill="#263238"/>
<path d="M121.384 26.032C122.144 25.924 122.3 27.452 121.596 27.552C120.892 27.652 120.744 26.12 121.384 26.032Z" fill="#263238"/>
<path d="M121.712 26.096C121.84 26.168 121.976 26.3 122.112 26.296C122.248 26.292 122.388 26.112 122.476 25.94C122.476 25.94 122.5 25.94 122.504 25.94C122.54 26.232 122.476 26.544 122.2 26.632C121.924 26.72 121.736 26.476 121.636 26.192C121.628 26.156 121.66 26.072 121.712 26.096Z" fill="#263238"/>
<path d="M120.368 28.7281C120.368 28.7281 120.524 29.4281 120.552 29.7601C120.552 29.7921 120.476 29.8161 120.364 29.8321C120.081 29.9092 119.781 29.9066 119.499 29.8248C119.217 29.7429 118.963 29.5849 118.764 29.3681C118.74 29.3401 118.764 29.3001 118.812 29.3201C119.263 29.5748 119.783 29.6773 120.296 29.6121C120.296 29.5161 119.988 28.4121 120.04 28.4121C120.301 28.4148 120.561 28.4525 120.812 28.5241C120.528 27.0561 120.012 25.6441 119.748 24.1801C119.746 24.1746 119.746 24.1688 119.746 24.163C119.747 24.1572 119.748 24.1515 119.751 24.1463C119.753 24.1411 119.757 24.1365 119.761 24.1327C119.766 24.1289 119.771 24.126 119.776 24.1241C119.782 24.1223 119.788 24.1215 119.793 24.122C119.799 24.1224 119.805 24.1239 119.81 24.1265C119.815 24.1291 119.82 24.1327 119.824 24.1371C119.828 24.1415 119.83 24.1466 119.832 24.1521C120.433 25.653 120.881 27.2101 121.172 28.8001C121.2 28.9681 120.504 28.7721 120.368 28.7281Z" fill="#263238"/>
<path d="M158.52 144.316C158.52 144.316 167.72 142.236 172.736 137.6C177.752 132.964 180.58 124.656 180.58 124.656C177.091 125.324 173.651 126.227 170.284 127.36C169.46 128.24 167.884 130.052 167.168 131.76C167.081 130.713 167.073 129.661 167.144 128.612C165.967 129.126 164.866 129.799 163.872 130.612C159.7 134.252 158.52 144.316 158.52 144.316Z" fill="#3A8DFE"/>
<path d="M174.848 128.692C176.1 127.828 177.372 126.992 178.62 126.116C178.632 126.105 178.641 126.089 178.643 126.072C178.645 126.055 178.641 126.038 178.632 126.024C178.623 126.009 178.609 125.999 178.593 125.994C178.577 125.988 178.559 125.989 178.544 125.996C176.176 127.408 173.844 128.92 171.588 130.5C170.788 131.052 170.028 131.624 169.264 132.212L169.424 131.94C169.7 131.476 169.992 131.024 170.28 130.572C170.857 129.653 171.51 128.783 172.232 127.972C172.256 127.94 172.212 127.896 172.184 127.928C171.472 128.752 170.756 129.568 170.104 130.444C169.792 130.844 169.508 131.288 169.232 131.728C169.088 131.96 168.952 132.188 168.832 132.424L168.692 132.66C167.492 133.592 166.352 134.564 165.248 135.592C164.565 136.227 163.908 136.884 163.276 137.564C163.628 136.452 163.94 135.328 164.352 134.236C164.353 134.231 164.354 134.226 164.353 134.221C164.353 134.216 164.351 134.211 164.348 134.207C164.345 134.202 164.341 134.199 164.336 134.196C164.332 134.194 164.327 134.193 164.322 134.193C164.316 134.193 164.311 134.194 164.307 134.196C164.302 134.199 164.298 134.202 164.295 134.207C164.292 134.211 164.29 134.216 164.29 134.221C164.289 134.226 164.29 134.231 164.292 134.236C163.892 135.384 163.452 136.536 163.144 137.716C162.44 138.476 161.768 139.26 161.144 140.08C161.144 140.032 161.164 139.98 161.176 139.932C161.28 139.5 161.388 139.068 161.504 138.636C161.728 137.808 161.972 136.98 162.252 136.168C162.78 134.476 163.617 132.896 164.72 131.508C164.744 131.48 164.7 131.436 164.672 131.468C162.88 133.588 161.828 136.136 161.156 138.808C161.06 139.208 160.964 139.608 160.876 139.984C160.828 140.196 160.776 140.408 160.74 140.62C160.46 140.996 160.188 141.376 159.94 141.764C158.377 144.151 157.075 146.699 156.056 149.364C154.908 152.367 153.925 155.43 153.112 158.54C153.112 158.6 153.188 158.62 153.208 158.54C155.004 153.168 156.836 147.74 159.912 142.916C160.561 141.904 161.26 140.925 162.008 139.984C163.528 139.885 165.029 139.586 166.472 139.096C168.048 138.565 169.552 137.838 170.948 136.932C171.742 136.396 172.507 135.818 173.24 135.2C173.244 135.198 173.248 135.195 173.25 135.191C173.253 135.187 173.255 135.183 173.256 135.178C173.257 135.173 173.257 135.168 173.256 135.164C173.255 135.159 173.253 135.155 173.249 135.151C173.246 135.147 173.243 135.144 173.238 135.142C173.234 135.14 173.229 135.139 173.224 135.139C173.219 135.14 173.215 135.141 173.21 135.143C173.206 135.145 173.202 135.148 173.2 135.152C171.918 136.187 170.503 137.044 168.992 137.7C167.508 138.382 165.955 138.902 164.36 139.252C163.684 139.4 162.996 139.512 162.308 139.604C163.156 138.556 164.06 137.555 165.016 136.604C165.324 136.296 165.644 136 165.964 135.7C167.034 134.95 168.171 134.299 169.36 133.756C170.864 133.028 172.344 132.256 173.832 131.5C174.672 131.072 175.508 130.636 176.356 130.224C176.392 130.204 176.356 130.152 176.32 130.168C174.812 130.9 173.28 131.58 171.756 132.276C170.324 132.932 168.872 133.592 167.496 134.364L167.324 134.468C168.568 133.388 169.856 132.356 171.172 131.36C172.356 130.46 173.6 129.56 174.848 128.692Z" fill="#263238"/>
<path d="M174.324 133.428C173.576 133.752 172.816 134.044 172.08 134.388C171.344 134.732 170.596 135.16 169.876 135.588C169.871 135.592 169.867 135.598 169.866 135.605C169.864 135.612 169.866 135.619 169.869 135.624C169.872 135.63 169.878 135.635 169.884 135.637C169.891 135.639 169.898 135.639 169.904 135.636C170.636 135.284 171.38 134.956 172.104 134.592C172.828 134.228 173.58 133.82 174.344 133.488C174.4 133.472 174.36 133.412 174.324 133.428Z" fill="#263238"/>
<path d="M128.696 98.048C130.392 100.237 131.352 102.905 131.44 105.672C131.468 106.496 131.34 107.644 131.244 108.992C134.668 110.82 137.244 114.112 137.244 114.112C135.3 112.944 132.628 112.472 131.188 112.664C131.236 113.586 131.353 114.504 131.54 115.408C132.176 115.372 133.404 115.456 135.432 116.176C134.227 116.165 133.033 116.403 131.924 116.876C133.56 122.076 138.424 127.432 151.856 129.704C151.856 129.704 154.448 120.584 149.48 110.8C145.444 102.88 128.696 98.048 128.696 98.048Z" fill="#3A8DFE"/>
<path d="M156.499 152C156.267 149.776 155.971 147.556 155.627 145.348C154.949 140.921 154.046 136.531 152.919 132.196C152.395 130.159 151.747 128.155 150.979 126.196C151.019 125.839 151.036 125.479 151.031 125.12C151.031 124.692 151.031 124.26 151.031 123.832C151.031 122.968 150.983 122.112 150.911 121.252C150.774 119.553 150.497 117.869 150.083 116.216C149.839 115.26 149.551 114.316 149.283 113.368C149.28 113.361 149.274 113.356 149.267 113.353C149.26 113.35 149.252 113.35 149.245 113.352C149.238 113.355 149.232 113.36 149.228 113.366C149.224 113.373 149.222 113.38 149.223 113.388C149.667 115.034 149.996 116.709 150.207 118.4C150.45 120.07 150.601 121.753 150.659 123.44C150.659 123.904 150.683 124.364 150.687 124.828C150.687 125.024 150.687 125.228 150.687 125.42C150.019 123.817 149.255 122.255 148.399 120.744C147.035 118.342 145.497 116.043 143.799 113.864C143.796 113.61 143.759 113.357 143.691 113.112C143.627 112.812 143.563 112.512 143.495 112.212C143.355 111.6 143.203 110.988 143.035 110.384C142.703 109.184 142.263 107.984 141.879 106.784C141.877 106.778 141.873 106.773 141.868 106.769C141.862 106.765 141.856 106.763 141.849 106.763C141.843 106.763 141.837 106.765 141.831 106.769C141.826 106.773 141.822 106.778 141.819 106.784C142.175 107.984 142.411 109.208 142.683 110.42C142.819 111.016 142.951 111.62 143.083 112.216L143.275 113.116V113.184C142.742 112.501 142.187 111.827 141.611 111.16C139.043 108.152 136.231 105.376 133.403 102.62C133.055 102.28 132.695 101.952 132.343 101.616C132.315 101.588 132.271 101.616 132.299 101.664C135.007 104.464 137.671 107.34 140.191 110.328C140.791 111.04 141.391 111.756 141.963 112.484L141.047 111.876C140.247 111.364 139.471 110.868 138.647 110.412C137.823 109.956 137.011 109.508 136.175 109.092C135.339 108.676 134.391 108.32 133.563 107.836C133.527 107.816 133.495 107.876 133.531 107.892C134.381 108.283 135.201 108.736 135.983 109.248C136.783 109.732 137.615 110.22 138.419 110.732C139.223 111.244 140.019 111.724 140.787 112.236C141.439 112.66 142.083 113.124 142.763 113.516C144.321 115.517 145.758 117.608 147.067 119.78C147.88 121.148 148.623 122.556 149.291 124L148.807 123.788L147.599 123.264C146.799 122.912 145.999 122.572 145.223 122.224C143.715 121.572 142.183 120.968 140.707 120.248C139.879 119.857 139.077 119.41 138.307 118.912C138.275 118.888 138.243 118.944 138.275 118.964C141.031 120.864 144.119 122.2 147.167 123.552L148.491 124.136C148.855 124.296 149.215 124.476 149.591 124.616C150.494 126.635 151.253 128.714 151.863 130.84C153.069 135.117 154.049 139.455 154.799 143.836C155.567 148.236 156.087 152.636 156.491 157.08C156.543 157.632 156.591 158.184 156.655 158.736C156.662 158.778 156.683 158.816 156.715 158.843C156.747 158.87 156.787 158.885 156.829 158.885C156.872 158.885 156.912 158.87 156.944 158.843C156.976 158.816 156.997 158.778 157.003 158.736C156.963 156.476 156.735 154.22 156.499 152Z" fill="#263238"/>
<path d="M148.328 114.884C148.08 113.52 147.716 112.184 147.348 110.848C147.348 110.808 147.28 110.824 147.288 110.848C147.628 112.16 147.872 113.5 148.12 114.848C148.368 116.196 148.592 117.568 148.784 118.936C148.784 118.96 148.824 118.96 148.82 118.936C148.732 117.577 148.568 116.224 148.328 114.884Z" fill="#263238"/>
<path d="M142.536 118.588C141.601 117.973 140.626 117.424 139.616 116.944C139.128 116.692 138.632 116.452 138.136 116.212C137.64 115.972 137.092 115.756 136.584 115.5C136.576 115.498 136.569 115.499 136.562 115.502C136.556 115.505 136.55 115.51 136.547 115.517C136.544 115.523 136.543 115.531 136.544 115.538C136.546 115.545 136.55 115.551 136.556 115.556C137.044 115.804 137.512 116.1 137.996 116.356L139.484 117.156C140.468 117.684 141.432 118.268 142.464 118.696C142.477 118.696 142.489 118.694 142.501 118.688C142.513 118.682 142.523 118.673 142.53 118.662C142.537 118.651 142.541 118.639 142.542 118.626C142.543 118.613 142.541 118.6 142.536 118.588V118.588Z" fill="#263238"/>
<path opacity="0.1" d="M158.688 128.4C158.688 128.4 167.184 126.372 171.088 120.672C174.816 115.228 176.02 105.952 176.116 105.136C175.96 105.884 174.208 113.992 168.424 117.768C164 120.676 159.712 123.056 158.688 128.4Z" fill="#263238"/>
<path d="M166.532 113.732C165.02 115.121 163.933 116.91 163.396 118.892C163.396 118.892 163.42 118.92 163.424 118.892C164.049 116.958 165.129 115.203 166.572 113.772C166.6 113.752 166.56 113.704 166.532 113.732Z" fill="#263238"/>
<path d="M158.688 128.4C158.688 128.4 167.184 126.372 171.088 120.672C174.816 115.228 176.02 105.952 176.116 105.136C176.118 105.116 176.118 105.096 176.116 105.076C176.116 105.076 172.044 110.868 167.76 112.348C163.476 113.828 157.46 118.944 158.688 128.4Z" fill="#3A8DFE"/>
<path d="M174.616 108.284C173.857 109.844 172.983 111.346 172 112.776C171.009 114.134 169.832 115.346 168.504 116.376C167.352 117.292 166.132 118.124 164.964 119.02L164.988 118.98C165.208 118.652 165.444 118.336 165.684 118.028C166.172 117.408 166.704 116.828 167.24 116.24C168.296 115.096 169.372 113.972 170.32 112.732C170.844 112.046 171.299 111.311 171.68 110.536C171.7 110.5 171.64 110.48 171.62 110.516C170.244 113.388 167.492 115.224 165.528 117.648C165.248 117.996 164.984 118.352 164.728 118.724C164.534 118.998 164.371 119.291 164.24 119.6C163.164 120.46 162.192 121.443 161.344 122.528C161.417 121.971 161.53 121.42 161.684 120.88C161.882 120.124 162.185 119.4 162.584 118.728C162.604 118.692 162.552 118.66 162.532 118.692C162.12 119.365 161.787 120.083 161.54 120.832C161.36 121.427 161.257 122.043 161.232 122.664V122.664C160.812 123.234 160.428 123.83 160.084 124.448C160.12 124.268 160.152 124.084 160.188 123.904C160.356 123.056 160.544 122.212 160.764 121.38C161.161 119.673 161.853 118.049 162.808 116.58C162.832 116.548 162.78 116.512 162.756 116.544C161.78 117.989 161.018 119.566 160.492 121.228C160.22 122.06 160.004 122.908 159.812 123.764C159.72 124.184 159.636 124.604 159.556 125.024C159.512 125.24 159.468 125.464 159.432 125.688C158.588 127.538 157.931 129.467 157.472 131.448C156.636 134.985 156.031 138.573 155.66 142.188C155.22 145.975 155.024 149.787 155.072 153.6C155.072 154.076 155.108 154.556 155.132 155.032C155.132 155.156 155.324 155.172 155.328 155.032C155.412 153.144 155.46 151.26 155.572 149.376C155.684 147.492 155.848 145.608 156.052 143.732C156.438 140.041 157.028 136.374 157.82 132.748C158.512 129.64 159.42 126.512 161.1 123.792C161.944 122.437 162.977 121.21 164.168 120.148C165.368 119.076 166.66 118.148 167.916 117.152C169.185 116.184 170.339 115.075 171.356 113.844C172.395 112.467 173.301 110.993 174.06 109.444C174.26 109.044 174.46 108.68 174.668 108.296C174.684 108.284 174.632 108.248 174.616 108.284Z" fill="#263238"/>
<path d="M173.148 109.528C172.592 110.673 171.96 111.779 171.256 112.84C171.256 112.864 171.276 112.888 171.296 112.864C172.025 111.814 172.664 110.705 173.208 109.548C173.224 109.512 173.164 109.492 173.148 109.528Z" fill="#263238"/>
<path d="M127.512 124.656C127.512 124.656 127.376 136.728 134.596 140.216C141.816 143.704 145.684 140.796 150.596 141.964C150.408 141.676 146.908 136.64 141.34 135.256C135.6 133.824 129.248 129.688 127.512 124.656Z" fill="#3A8DFE"/>
<path opacity="0.1" d="M127.512 124.656C127.512 124.656 127.376 136.728 134.596 140.216C141.816 143.704 145.684 140.796 150.596 141.964C148.006 140.729 145.237 139.911 142.392 139.54C137.824 138.988 129.124 136.024 127.512 124.656Z" fill="#263238"/>
<path d="M151.064 142.18C150.206 141.398 149.24 140.743 148.196 140.236C148.04 140.16 147.88 140.1 147.724 140.032C147.648 139.936 147.564 139.844 147.48 139.756C147.264 139.532 147.04 139.316 146.8 139.112C146.348 138.719 145.862 138.368 145.348 138.064C144.148 137.36 142.844 136.864 141.62 136.216C141.584 136.196 141.552 136.252 141.588 136.268C142.192 136.584 142.788 136.928 143.368 137.272C143.948 137.616 144.524 137.924 145.08 138.284C145.581 138.607 146.058 138.965 146.508 139.356C146.636 139.468 146.76 139.588 146.88 139.712C146.082 139.44 145.267 139.224 144.44 139.064C143.12 138.796 141.784 138.608 140.464 138.324C139.816 138.186 139.177 138.014 138.548 137.808C137.948 137.324 137.348 136.848 136.784 136.324C136.097 135.695 135.472 135.003 134.916 134.256C134.892 134.22 134.84 134.256 134.864 134.288C135.74 135.471 136.731 136.565 137.824 137.552C137.512 137.435 137.204 137.301 136.9 137.152C134.421 136.04 132.293 134.27 130.748 132.036C130.728 132.004 130.672 132.036 130.696 132.068C132.005 133.994 133.699 135.629 135.672 136.868C136.66 137.482 137.714 137.981 138.816 138.356C140.096 138.752 141.402 139.06 142.724 139.28C144.02 139.49 145.299 139.794 146.552 140.188C147.699 140.581 148.779 141.15 149.752 141.876C151.589 143.304 153.07 145.141 154.076 147.24C155.444 149.98 156.096 153.044 156.476 156.068C156.476 156.196 156.692 156.196 156.68 156.068C156.336 150.984 154.98 145.704 151.064 142.18Z" fill="#263238"/>
<path d="M142.688 138.244C142.311 137.68 141.802 137.217 141.204 136.896C140.519 136.541 139.917 136.043 139.44 135.436C139.416 135.404 139.36 135.436 139.384 135.468C139.818 136.022 140.346 136.494 140.944 136.864C141.601 137.211 142.179 137.689 142.644 138.268C142.664 138.296 142.708 138.272 142.688 138.244Z" fill="#263238"/>
<path d="M146.52 151.092L146.848 157.728L147.852 178.016H163L164.004 157.728L164.332 151.092H146.52Z" fill="#37474F"/>
<path d="M146.52 151.092L146.848 157.728H164.004L164.332 151.092H146.52Z" fill="#263238"/>
<path d="M145.456 154.652H165.396V148.32H145.456V154.652Z" fill="#37474F"/>
</svg>
