<svg width="200" height="200" viewBox="0 0 200 200" fill="none" xmlns="http://www.w3.org/2000/svg">
<path d="M16.116 147.272L37.088 147.172L58.056 147.136L100 147.072L141.944 147.136L162.912 147.172L183.884 147.272L162.912 147.368L141.944 147.404L100 147.468L58.056 147.404L37.088 147.368L16.116 147.272Z" fill="#1C2B46"/>
<path d="M102.384 183.74C150.028 183.74 188.652 179.334 188.652 173.9C188.652 168.466 150.028 164.06 102.384 164.06C54.7395 164.06 16.116 168.466 16.116 173.9C16.116 179.334 54.7395 183.74 102.384 183.74Z" fill="#EBEBEB"/>
<path d="M67.9518 22.5241H56.3358V147.216H67.9518V22.5241Z" fill="#1C2B46"/>
<path d="M143.664 22.5241H132.048V147.216H143.664V22.5241Z" fill="#455A64"/>
<path d="M132.048 34.752H61.1035V38.94H132.048V34.752Z" fill="#49556B"/>
<path d="M132.048 61.8203H61.1035V66.0082H132.048V61.8203Z" fill="#49556B"/>
<path d="M132.048 88.8881H61.1035V93.0761H132.048V88.8881Z" fill="#49556B"/>
<path d="M132.048 115.956H61.1035V120.144H132.048V115.956Z" fill="#49556B"/>
<path d="M132.048 143.024H61.1035V147.212H132.048V143.024Z" fill="#49556B"/>
<path d="M91.2998 39.1481H69.3158V61.8161H91.2998V39.1481Z" fill="#EBEBEB"/>
<path d="M102.656 39.1481H91.3038V61.8201H102.656V39.1481Z" fill="#DBDBDB"/>
<path d="M82.1758 44.4121H81.7118H81.3598L81.1598 44.0081L80.8798 44.4121L80.4998 43.5761L80.1398 44.4121H79.1118H78.6438L78.4718 43.8561L78.3118 44.4121H78.0078V39.1481H82.1758V44.4121Z" fill="#DBDBDB"/>
<path d="M101.872 60.372C101.032 58.772 100.199 57.1547 99.3721 55.52L96.9121 50.644L94.4801 45.748C93.6801 44.1107 92.8801 42.4707 92.0801 40.828C92.9201 42.428 93.7534 44.0453 94.5801 45.68L97.0441 50.556L99.4761 55.452C100.284 57.0867 101.083 58.7266 101.872 60.372Z" fill="#EBEBEB"/>
<path d="M101.872 40.8281C101.072 42.4734 100.272 44.1134 99.4718 45.7481L97.0398 50.6441L94.5758 55.5241C93.7518 57.1454 92.9185 58.7614 92.0758 60.3721C92.8758 58.7267 93.6758 57.0867 94.4758 55.4521L96.9078 50.5561L99.3678 45.6801C100.2 44.0561 101.034 42.4387 101.872 40.8281Z" fill="#EBEBEB"/>
<path d="M89.8521 57.9722H87.4121V60.4122H89.8521V57.9722Z" fill="white"/>
<path d="M105.148 74.7879H83.1641V88.888H105.148V74.7879Z" fill="#DBDBDB"/>
<path d="M116.5 74.7881H105.148V88.8881H116.5V74.7881Z" fill="#C7C7C7"/>
<path d="M96.0201 80.048H95.556H95.204L95.004 79.644L94.724 80.048L94.348 79.216L93.988 80.048H92.956H92.488L92.316 79.492L92.16 80.048H91.8521V74.7879H96.0201V80.048Z" fill="white"/>
<path d="M115.72 88.0481C114.874 87.0241 114.041 85.9975 113.22 84.9681L110.756 81.8681L108.324 78.7561C107.524 77.7161 106.724 76.6735 105.924 75.6281C106.769 76.6521 107.602 77.6788 108.424 78.7081L110.888 81.8081L113.32 84.9201C114.13 85.9601 114.93 87.0028 115.72 88.0481Z" fill="#DBDBDB"/>
<path d="M115.72 75.6281C114.92 76.6735 114.12 77.7161 113.32 78.7561L110.888 81.8681L108.424 84.9681C107.6 85.9975 106.766 87.0241 105.924 88.0481C106.724 87.0028 107.524 85.9601 108.324 84.9201L110.756 81.8081L113.22 78.7121C114.044 77.6801 114.877 76.6521 115.72 75.6281Z" fill="#DBDBDB"/>
<path d="M183.44 170.8C183.34 169.86 172.536 146.584 171.564 145.96C171.196 145.716 167.712 147.092 163.564 148.876L163.432 148.932C162.576 149.296 146.74 153.552 146.74 153.552L153.748 168.8L170.224 164.044L170.476 163.92C170.476 163.92 178.596 170.98 179.74 171.552C180.884 172.124 183.548 171.756 183.44 170.8Z" fill="#D3766A"/>
<path d="M160.4 149.832L167.6 164.788L170.192 164.04L170.448 163.92C170.448 163.92 178.568 170.98 179.708 171.552C180.848 172.124 183.524 171.756 183.412 170.816C183.3 169.876 172.508 146.596 171.536 145.976C171.168 145.732 167.684 147.104 163.536 148.892L163.412 148.948C163.2 149.04 162.04 149.376 160.4 149.832Z" fill="#EBEBEB"/>
<path d="M183.532 170.932C183.432 169.984 172.604 146.44 171.624 145.804C171.256 145.56 167.732 146.936 163.528 148.72L170.464 163.92C170.464 163.92 178.64 171.08 179.788 171.664C180.936 172.248 183.636 171.88 183.532 170.932Z" fill="#3A8DFE"/>
<path d="M182.436 171.028C180.524 167.128 173.2 151.2 171.6 147.2C171.6 147.168 171.6 147.16 171.628 147.2C173.604 151.024 180.828 167 182.512 171.004C182.536 171.084 182.476 171.112 182.436 171.028Z" fill="#1C2B46"/>
<path d="M178.244 170.54C178.031 170.107 177.911 169.635 177.89 169.153C177.87 168.671 177.949 168.19 178.124 167.74C178.429 166.926 179.039 166.262 179.824 165.888C179.848 165.888 179.868 165.92 179.848 165.936C179.128 166.429 178.588 167.143 178.308 167.969C178.028 168.796 178.024 169.691 178.296 170.52C178.308 170.548 178.26 170.572 178.244 170.54Z" fill="#1C2B46"/>
<path d="M171.56 165.272C170.812 163.7 170.524 161.612 171.368 160.036C171.4 159.976 171.484 160.036 171.484 160.08C171.395 161.794 171.489 163.513 171.764 165.208C171.768 165.234 171.763 165.26 171.749 165.282C171.736 165.304 171.715 165.321 171.69 165.328C171.665 165.336 171.638 165.335 171.614 165.324C171.591 165.314 171.571 165.295 171.56 165.272V165.272Z" fill="#1C2B46"/>
<path d="M172.596 166.272C171.848 164.7 171.56 162.616 172.404 161.04C172.436 160.976 172.52 161.04 172.52 161.084C172.431 162.797 172.525 164.515 172.8 166.208C172.804 166.234 172.799 166.26 172.785 166.282C172.771 166.304 172.75 166.321 172.726 166.328C172.701 166.336 172.674 166.335 172.65 166.324C172.626 166.314 172.607 166.295 172.596 166.272V166.272Z" fill="#1C2B46"/>
<path d="M173.632 167.272C172.884 165.704 172.596 163.616 173.44 162.04C173.472 161.98 173.556 162.04 173.556 162.084C173.467 163.798 173.561 165.517 173.836 167.212C173.838 167.237 173.832 167.262 173.818 167.284C173.804 167.305 173.783 167.32 173.759 167.327C173.734 167.334 173.708 167.333 173.685 167.323C173.662 167.313 173.643 167.295 173.632 167.272V167.272Z" fill="#1C2B46"/>
<path d="M174.668 168.272C173.92 166.704 173.636 164.616 174.476 163.04C174.508 162.98 174.592 163.04 174.592 163.084C174.503 164.798 174.597 166.517 174.872 168.212C174.875 168.237 174.868 168.262 174.854 168.284C174.84 168.305 174.819 168.32 174.795 168.327C174.771 168.334 174.745 168.333 174.721 168.323C174.698 168.313 174.679 168.295 174.668 168.272V168.272Z" fill="#1C2B46"/>
<path d="M168.304 149.936C167.504 148.16 170.252 146.9 171.06 148.676C171.868 150.452 169.116 151.712 168.304 149.936Z" fill="#1C2B46"/>
<path d="M170.4 167.724C171.108 166.368 171.2 164.748 171.464 163.268C171.467 163.235 171.463 163.201 171.451 163.17C171.439 163.139 171.419 163.112 171.394 163.09C171.369 163.068 171.339 163.052 171.307 163.044C171.274 163.036 171.24 163.036 171.208 163.044C171.208 163.016 171.172 162.996 171.14 163.012C169.744 163.796 168.579 164.933 167.76 166.308C167.3 167.108 167.112 168.42 168.16 168.916C169.208 169.412 169.972 168.52 170.4 167.724ZM169.112 168.4C167.32 169.032 167.912 166.876 168.312 166.292C168.553 165.918 168.82 165.561 169.112 165.224C169.722 164.537 170.367 163.881 171.044 163.26C170.868 163.98 170.76 164.708 170.616 165.436C170.42 166.3 170.1 168.052 169.112 168.4Z" fill="#1C2B46"/>
<path d="M167.536 157.868C166.564 158.464 166.88 159.744 167.424 160.504C168.38 161.787 169.656 162.797 171.124 163.432C171.131 163.434 171.138 163.435 171.145 163.435C171.151 163.434 171.158 163.432 171.164 163.429C171.17 163.425 171.176 163.421 171.18 163.415C171.184 163.409 171.187 163.403 171.188 163.396C171.316 163.396 171.464 163.296 171.42 163.144C171.02 161.696 170.748 160.1 169.904 158.82C169.412 158.072 168.46 157.3 167.536 157.868ZM170.336 161.068C170.556 161.776 170.736 162.492 170.984 163.188C170.264 162.616 169.524 162.076 168.86 161.432C168.538 161.125 168.236 160.797 167.956 160.452C167.536 159.908 166.708 157.824 168.556 158.272C169.6 158.524 170.084 160.236 170.348 161.076L170.336 161.068Z" fill="#1C2B46"/>
<path d="M125.948 103.872C125.948 103.872 126.24 112.996 127.608 117.492C127.608 117.492 129.1 118.292 129.548 118.556C129.548 118.556 118.212 145.7 118.856 156.156C119.068 159.58 122.948 165.208 126.856 167.644C133.784 171.956 167.612 168.172 167.612 168.172L162.704 147.836C162.704 147.836 141.316 149.036 140.776 147.868C140.092 146.4 144.348 134.984 147.752 125.708C148.092 124.772 151.516 121.308 151.116 115.06C150.812 111.19 149.815 107.405 148.172 103.888L125.948 103.872Z" fill="#49556B"/>
<path d="M158.8 150.08C154.132 149.992 150.332 150.388 145.664 150.392H140.4C139.997 150.401 139.594 150.364 139.2 150.28C138.828 150.219 138.493 150.02 138.26 149.724C137.952 149.26 138.116 148.672 138.224 148.172C138.458 147.076 138.725 145.985 139.024 144.9C140.2 140.5 141.736 136.188 143.18 131.864L145.372 125.2C145.552 124.66 145.732 124.116 145.96 123.6C146.177 123.119 146.423 122.652 146.696 122.2C147.224 121.336 147.648 120.412 147.96 119.448C149.224 115.3 148.012 111.008 146.536 107.092C146.336 106.568 146.136 106.044 145.916 105.524C145.916 105.488 145.844 105.504 145.86 105.544C147.204 109.676 148.808 113.976 147.904 118.384C147.695 119.422 147.332 120.422 146.828 121.352C146.568 121.824 146.284 122.284 146.028 122.76C145.776 123.246 145.558 123.748 145.376 124.264C144.576 126.452 143.888 128.664 143.148 130.888C141.672 135.288 140.12 139.656 138.892 144.124C138.588 145.236 138.304 146.356 138.052 147.48C137.868 148.312 137.452 149.44 138.176 150.128C138.708 150.632 139.54 150.692 140.232 150.7C141.396 150.7 142.556 150.7 143.72 150.7C148.452 150.7 158.224 150.3 158.812 150.28C158.838 150.279 158.863 150.267 158.881 150.247C158.898 150.227 158.907 150.201 158.906 150.174C158.904 150.148 158.892 150.123 158.872 150.105C158.852 150.088 158.826 150.079 158.8 150.08V150.08Z" fill="#1C2B46"/>
<path d="M164.028 167.2C163.572 164.824 163.132 162.436 162.608 160.076C162.084 157.716 161.512 155.348 160.9 153C160.724 152.336 160.548 151.676 160.368 151C160.284 150.684 160.2 150.372 160.108 150.056C160.031 149.734 159.933 149.417 159.816 149.108C159.816 149.076 159.756 149.108 159.76 149.128C159.825 149.743 159.933 150.352 160.084 150.952C160.2 151.524 160.308 152.1 160.428 152.672C160.673 153.851 160.923 155.028 161.176 156.204C161.692 158.56 162.276 160.896 162.876 163.232C163.22 164.556 163.56 165.884 163.908 167.208C163.928 167.308 164.044 167.292 164.028 167.2Z" fill="#1C2B46"/>
<path d="M122.74 137.124L146.74 128.428C147.076 127.504 147.412 126.588 147.74 125.692C148.068 124.796 151.504 121.292 151.108 115.04C150.806 111.17 149.809 107.387 148.164 103.872H125.948C125.948 103.872 126.236 112.996 127.608 117.472C127.608 117.472 129.1 118.272 129.548 118.54C129.548 118.556 125.804 127.516 122.74 137.124Z" fill="#1C2B46"/>
<path d="M86.2363 171.908C87.1403 172.18 112.788 171.332 113.744 170.68C114.112 170.44 114.204 166.68 114.188 162.168V162.024C114.188 161.092 112.064 145.448 112.064 145.448L94.1123 146L97.6363 162.4V162.68C97.6363 162.68 88.0003 167.384 87.0043 168.212C86.0083 169.04 85.3283 171.64 86.2363 171.908Z" fill="#D3766A"/>
<path d="M86.2362 171.912C87.1402 172.184 112.788 171.332 113.744 170.68C114.112 170.436 114.208 166.68 114.188 162.168V162.024C114.188 161.768 114.028 160.424 113.788 158.58L96.9482 159.236L97.6202 162.388V162.668C97.6202 162.668 87.9442 167.384 86.9682 168.212C85.9922 169.04 85.3282 171.64 86.2362 171.912Z" fill="#EBEBEB"/>
<path d="M86.04 172.02C86.956 172.292 112.84 171.432 113.82 170.776C114.188 170.528 114.284 166.748 114.268 162.18L97.568 162.688C97.568 162.688 87.8 167.452 86.816 168.288C85.832 169.124 85.124 171.748 86.04 172.02Z" fill="#3A8DFE"/>
<path d="M86.3762 170.972C90.7162 170.72 108.232 170.12 112.54 170.2C112.576 170.2 112.576 170.224 112.54 170.228C108.248 170.568 90.7242 171.028 86.3802 171.028C86.2882 171.044 86.2842 170.98 86.3762 170.972Z" fill="#1C2B46"/>
<path d="M88.4521 167.3C88.9342 167.271 89.4171 167.342 89.8702 167.509C90.3234 167.677 90.7367 167.936 91.0841 168.272C91.714 168.87 92.0893 169.688 92.1321 170.556C92.1321 170.584 92.0841 170.584 92.0801 170.556C91.9028 169.702 91.4534 168.928 90.7993 168.352C90.1452 167.775 89.3216 167.425 88.4521 167.356C88.4446 167.356 88.4375 167.353 88.4323 167.348C88.427 167.343 88.4241 167.335 88.4241 167.328C88.4241 167.321 88.427 167.314 88.4323 167.308C88.4375 167.303 88.4446 167.3 88.4521 167.3V167.3Z" fill="#1C2B46"/>
<path d="M95.8961 163.172C97.6361 163.092 99.6681 163.64 100.796 165.024C100.84 165.076 100.764 165.14 100.712 165.112C99.1653 164.369 97.5443 163.791 95.876 163.388C95.8619 163.387 95.8481 163.383 95.8355 163.376C95.8229 163.369 95.8117 163.36 95.8026 163.349C95.7935 163.338 95.7867 163.326 95.7824 163.312C95.7782 163.299 95.7767 163.284 95.7781 163.27C95.7794 163.256 95.7835 163.242 95.7901 163.23C95.7967 163.217 95.8058 163.206 95.8168 163.197C95.8277 163.188 95.8403 163.181 95.854 163.177C95.8676 163.172 95.8819 163.171 95.8961 163.172V163.172Z" fill="#1C2B46"/>
<path d="M94.5722 163.74C96.3122 163.66 98.3442 164.204 99.4722 165.592C99.5162 165.644 99.4402 165.704 99.3882 165.68C97.8422 164.935 96.221 164.357 94.5522 163.956C94.5236 163.953 94.4971 163.939 94.4788 163.917C94.4604 163.895 94.4515 163.867 94.4542 163.838C94.4568 163.809 94.4708 163.783 94.4929 163.765C94.515 163.746 94.5436 163.737 94.5722 163.74Z" fill="#1C2B46"/>
<path d="M93.2482 164.308C94.9882 164.228 97.0202 164.772 98.1482 166.16C98.1922 166.212 98.1162 166.272 98.0642 166.248C96.5182 165.503 94.897 164.925 93.2282 164.524C93.1996 164.521 93.1732 164.508 93.1548 164.485C93.1364 164.463 93.1276 164.435 93.1302 164.406C93.1329 164.377 93.1468 164.351 93.1689 164.333C93.1911 164.314 93.2196 164.305 93.2482 164.308Z" fill="#1C2B46"/>
<path d="M91.9242 164.876C93.6642 164.796 95.6962 165.34 96.8242 166.728C96.8682 166.78 96.7923 166.84 96.7403 166.816C95.1942 166.071 93.573 165.493 91.9042 165.092C91.8901 165.091 91.8763 165.087 91.8637 165.08C91.8511 165.073 91.8399 165.064 91.8308 165.053C91.8217 165.042 91.8149 165.03 91.8106 165.016C91.8064 165.002 91.8049 164.988 91.8062 164.974C91.8076 164.96 91.8117 164.946 91.8183 164.933C91.8249 164.921 91.834 164.91 91.845 164.9C91.8559 164.891 91.8686 164.885 91.8822 164.88C91.8958 164.876 91.9101 164.875 91.9242 164.876V164.876Z" fill="#1C2B46"/>
<path d="M111.296 166.112C113.248 166.052 113.344 169.084 111.388 169.144C109.432 169.204 109.344 166.172 111.296 166.112Z" fill="#1C2B46"/>
<path d="M94.0879 161.14C95.0679 162.32 96.5199 163.036 97.7879 163.848C97.8173 163.864 97.8499 163.872 97.8832 163.873C97.9164 163.873 97.9494 163.866 97.9794 163.852C98.0094 163.838 98.0355 163.816 98.0558 163.79C98.076 163.763 98.0898 163.733 98.0959 163.7C98.1239 163.7 98.1519 163.7 98.1479 163.648C97.9686 162.055 97.3726 160.537 96.4199 159.248C95.8519 158.508 94.7199 157.832 93.8639 158.592C93.0079 159.352 93.5199 160.452 94.0879 161.14ZM93.9599 159.704C94.0719 157.808 95.8239 159.204 96.2199 159.764C96.4705 160.133 96.6963 160.517 96.8959 160.916C97.3199 161.716 97.6199 162.604 97.9599 163.46C97.3639 163.02 96.7319 162.636 96.1199 162.22C95.3919 161.728 93.8999 160.752 93.9599 159.704V159.704Z" fill="#1C2B46"/>
<path d="M104.28 162.332C104.108 161.204 102.804 161 101.88 161.208C100.327 161.592 98.9024 162.377 97.748 163.484C97.7422 163.488 97.7375 163.493 97.7342 163.5C97.731 163.506 97.7293 163.513 97.7293 163.52C97.7293 163.527 97.731 163.534 97.7342 163.54C97.7375 163.547 97.7422 163.552 97.748 163.556C97.7307 163.585 97.7206 163.618 97.7186 163.652C97.7166 163.685 97.7227 163.719 97.7364 163.75C97.7501 163.781 97.771 163.808 97.7974 163.829C97.8238 163.851 97.8548 163.865 97.888 163.872C99.38 164.052 100.956 164.432 102.46 164.148C103.364 164 104.444 163.4 104.28 162.332ZM100.232 163.68C99.496 163.612 98.768 163.504 98.028 163.46C98.8202 162.993 99.6359 162.567 100.472 162.184C100.878 162.002 101.296 161.849 101.724 161.728C102.388 161.548 104.628 161.592 103.504 163.124C102.88 163.968 101.112 163.768 100.232 163.68V163.68Z" fill="#1C2B46"/>
<path d="M96.1722 161.136H116.256C116.256 161.136 112.68 133.796 113.856 132.012C114.38 131.212 140.452 133.84 148.08 125.58C155.052 118.024 147.956 103.872 147.956 103.872H126.556C126.556 103.872 126.12 109.94 124.956 112.364C124.464 113.404 100.556 111.92 96.8122 118.764C91.8362 127.88 96.1722 161.136 96.1722 161.136Z" fill="#49556B"/>
<path d="M114.14 157.316C111.872 157.248 109.6 157.16 107.34 157.164C105.08 157.168 102.792 157.212 100.516 157.3C99.8763 157.328 97.9803 157.416 97.6763 157.44C97.3656 157.446 97.0556 157.473 96.7483 157.52C96.7123 157.52 96.7203 157.576 96.7483 157.58C97.2403 157.664 102.38 157.724 103.508 157.724C105.768 157.724 108.024 157.664 110.284 157.584C111.57 157.541 112.854 157.493 114.136 157.44C114.204 157.436 114.212 157.32 114.14 157.316Z" fill="#1C2B46"/>
<path d="M127.44 110.424C127.532 109.78 127.616 109.136 127.692 108.496C127.864 107.028 128.016 105.548 128.06 104.072C128.06 103.956 127.9 103.968 127.888 104.072C127.748 105.212 127.644 106.356 127.516 107.496C127.388 108.636 127.288 109.776 127.076 110.896C127.012 111.232 126.868 111.796 126.44 111.804C125.86 111.804 125.748 111.028 125.7 110.604C125.592 109.541 125.572 108.471 125.64 107.404C125.704 106.204 125.856 104.98 125.992 103.776C125.992 103.732 125.924 103.724 125.916 103.776C125.416 106.124 124.936 108.576 125.352 110.976C125.366 111.217 125.446 111.45 125.583 111.65C125.72 111.849 125.908 112.008 126.128 112.108H126.152C126.151 112.121 126.151 112.135 126.152 112.148C126.152 112.216 126.152 112.284 126.152 112.352C126.148 112.409 126.148 112.467 126.152 112.524C126.152 112.644 126.152 112.76 126.152 112.88C126.152 112.903 126.161 112.926 126.178 112.942C126.194 112.959 126.217 112.968 126.24 112.968C126.263 112.968 126.286 112.959 126.302 112.942C126.319 112.926 126.328 112.903 126.328 112.88C126.343 112.878 126.357 112.871 126.368 112.86C126.379 112.849 126.386 112.835 126.388 112.82C126.432 112.59 126.432 112.354 126.388 112.124C126.531 112.124 126.671 112.087 126.796 112.017C126.921 111.947 127.025 111.846 127.1 111.724C127.31 111.322 127.426 110.877 127.44 110.424V110.424Z" fill="#1C2B46"/>
<path d="M125.312 112.16C126.954 113.286 128.494 114.554 129.916 115.948C129.929 115.958 129.937 115.973 129.939 115.989C129.941 116.005 129.936 116.021 129.926 116.034C129.916 116.047 129.901 116.055 129.885 116.057C129.869 116.059 129.853 116.054 129.84 116.044C128.272 114.844 126.64 113.644 125.164 112.348C125.142 112.328 125.128 112.299 125.126 112.269C125.123 112.239 125.132 112.209 125.151 112.186C125.17 112.162 125.197 112.146 125.227 112.141C125.256 112.137 125.287 112.143 125.312 112.16V112.16Z" fill="#1C2B46"/>
<path d="M142.904 113.324C142.441 113.325 141.978 113.291 141.52 113.22C141.115 113.139 140.714 113.036 140.32 112.912C139.58 112.696 138.676 112.436 138.136 111.848C137.612 111.206 137.194 110.485 136.896 109.712C136.523 108.904 136.277 108.043 136.168 107.16C136.168 107.124 136.1 107.124 136.104 107.16C136.162 108.073 136.315 108.978 136.56 109.86C136.694 110.298 136.863 110.724 137.064 111.136C137.245 111.55 137.486 111.936 137.78 112.28C138.38 112.924 139.356 113.24 140.18 113.408C141.081 113.572 142.004 113.572 142.904 113.408C142.98 113.416 142.96 113.328 142.904 113.324Z" fill="#1C2B46"/>
<path d="M111.704 130.716C111.751 130.478 111.871 130.26 112.048 130.093C112.224 129.926 112.448 129.818 112.688 129.784C113.264 129.72 113.845 129.708 114.424 129.748C115.76 129.748 117.1 129.776 118.424 129.78C123.696 129.78 129.012 129.644 134.196 128.604C136.734 128.13 139.215 127.391 141.6 126.4C143.6 125.528 145.62 124.336 146.876 122.484C148.32 120.356 148.432 117.568 148.38 115.076C148.328 112.386 147.895 109.716 147.092 107.148C146.884 106.496 146.656 105.852 146.396 105.22C146.396 105.18 146.44 105.144 146.456 105.184C147.509 107.61 148.207 110.175 148.528 112.8C148.684 114.096 148.743 115.403 148.704 116.708C148.703 117.989 148.537 119.265 148.212 120.504C146.844 125.168 141.62 127.092 137.412 128.276C132.324 129.704 127.012 130.1 121.76 130.176C119.12 130.216 116.472 130.176 113.828 130.14C113.324 130.14 112.492 129.992 112.192 130.52C112.059 130.826 111.979 131.152 111.956 131.484C111.9 131.856 111.856 132.228 111.828 132.604C111.755 134.01 111.773 135.42 111.884 136.824C112.052 139.675 112.249 142.527 112.476 145.38C112.704 148.244 113.024 151.104 113.232 153.972C113.284 154.676 113.352 155.376 113.42 156.076C113.42 156.156 113.288 156.172 113.276 156.076C112.544 150.408 112.02 144.72 111.648 139.02C111.556 137.612 111.452 136.2 111.412 134.792C111.326 133.426 111.424 132.055 111.704 130.716V130.716Z" fill="#1C2B46"/>
<path d="M124.564 131.764C126.348 131.74 128.128 131.606 129.896 131.364C131.564 131.156 133.224 130.928 134.88 130.648C137.76 130.156 140.704 129.616 143.42 128.52C144.911 127.945 146.301 127.135 147.536 126.12C147.568 126.092 147.616 126.14 147.584 126.168C145.528 128.168 142.92 129.34 140.176 130.084C137.027 130.906 133.816 131.469 130.576 131.768C128.572 131.943 126.559 132.002 124.548 131.944C124.533 131.934 124.521 131.919 124.513 131.903C124.505 131.886 124.502 131.868 124.504 131.85C124.505 131.831 124.512 131.814 124.522 131.799C124.533 131.784 124.547 131.772 124.564 131.764Z" fill="#1C2B46"/>
<path d="M130.8 79.728C130.86 86.3 129.076 96.272 126.616 101.104C124.856 104.556 114.38 111.348 108.816 112.876C106.848 113.42 105.868 105.24 106.816 103.236C107.392 102.036 117.86 96.224 118.932 94.624C120.56 92.188 123.86 85.276 126.3 79.368C127.6 76.252 130.752 75.644 130.8 79.728Z" fill="#D3766A"/>
<path d="M110.26 101.372C110.26 101.372 107.176 101 105.788 101.136C104.4 101.272 99.3882 103.684 99.8602 104.792C100.456 106.224 103.612 105.4 105.108 104.792C105.108 104.792 106.476 108.104 108.872 107.992C111.268 107.88 110.26 101.372 110.26 101.372Z" fill="#D3766A"/>
<path d="M110.632 112.184C109.544 112.672 104.368 114.46 102.816 114.636C101.264 114.812 96.76 114.996 96.504 113.836C96.248 112.676 97.56 112.504 97.56 112.504C97.56 112.504 95.648 112.28 95.5 111.072C95.352 109.864 97.4 109.684 97.4 109.684C97.4 109.684 95.452 109.312 95.4 108.084C95.348 106.856 97.432 107.032 97.432 107.032C97.432 107.032 95.636 106.776 96.004 105.752C96.448 104.524 99.708 105.376 101.408 105.052C101.808 104.976 109.124 103.008 109.124 103.008L110.632 112.184Z" fill="#D3766A"/>
<path d="M97.24 107.024C99.64 107.644 100.796 107.5 103.12 106.752C103.168 106.752 103.2 106.804 103.152 106.824C100.944 107.76 99.52 108.148 97.204 107.136C97.092 107.088 97.128 106.992 97.24 107.024Z" fill="#1C2B46"/>
<path d="M97.2 109.6C99.748 110.028 101.004 109.884 103.496 109.28C103.532 109.28 103.548 109.332 103.496 109.344C101.096 110.144 99.672 110.492 97.184 109.744C97.096 109.716 97.096 109.6 97.2 109.6Z" fill="#1C2B46"/>
<path d="M97.688 112.452C100.184 112.688 101.568 112.588 103.912 111.692C103.968 111.672 104.004 111.752 103.952 111.776C101.648 112.92 99.924 113.06 97.688 112.528C97.536 112.492 97.532 112.436 97.688 112.452Z" fill="#1C2B46"/>
<path d="M100.152 105.132C101.636 106.048 103.544 105.132 105.04 104.644C105.062 104.636 105.085 104.634 105.108 104.637C105.131 104.64 105.153 104.649 105.172 104.662C105.19 104.675 105.206 104.693 105.216 104.714C105.227 104.734 105.232 104.757 105.232 104.78C105.9 106.128 107.232 107.84 108.804 108.076C108.814 108.076 108.823 108.08 108.83 108.086C108.837 108.093 108.84 108.102 108.84 108.112C108.84 108.121 108.837 108.131 108.83 108.137C108.823 108.144 108.814 108.148 108.804 108.148C107.084 108.124 105.636 106.548 105 105.024C103.476 105.54 101.52 106.38 100.148 105.144C100.136 105.14 100.144 105.128 100.152 105.132Z" fill="#1C2B46"/>
<path d="M121.92 86.7158L130.264 92.2279C130.264 92.2279 131.372 81.2839 130.788 77.9759C130.132 74.2519 128.388 75.3999 126.284 78.3279C124.18 81.2559 121.92 86.7158 121.92 86.7158Z" fill="#3A8DFE"/>
<path opacity="0.1" d="M121.92 86.7158L130.264 92.2279C130.264 92.2279 131.372 81.2839 130.788 77.9759C130.132 74.2519 128.388 75.3999 126.284 78.3279C124.18 81.2559 121.92 86.7158 121.92 86.7158Z" fill="#151520"/>
<path d="M123.2 85.404C124.36 85.96 127.6 88.12 128.132 88.472C128.416 88.66 129.516 89.448 129.8 89.632C129.836 89.656 129.8 89.708 129.76 89.684C129.216 89.336 128.636 89.04 128.088 88.696C127.54 88.352 124.168 86.272 123.176 85.444C123.16 85.428 123.2 85.388 123.2 85.404Z" fill="#1C2B46"/>
<path d="M151.284 107.076C151.284 107.076 124.364 110.812 124.364 110.816C124.44 111.344 122.94 89.5202 128.164 75.8362C128.52 74.9042 132.62 73.3842 134.724 74.8442C143.944 81.2442 151.332 107.42 151.284 107.076Z" fill="#3A8DFE"/>
<path opacity="0.1" d="M135.36 75.32L127.952 76.4C127.965 76.3574 127.981 76.3159 128 76.276L135.232 75.208C135.277 75.243 135.319 75.2804 135.36 75.32V75.32ZM137.4 77.28L127.176 78.8C127.16 78.8388 127.148 78.879 127.14 78.92L137.492 77.4L137.4 77.28ZM139.104 79.408L126.512 81.264C126.512 81.304 126.512 81.344 126.484 81.384L139.2 79.516L139.104 79.408ZM140.564 81.572L125.972 83.72L125.948 83.844L140.628 81.68L140.564 81.572ZM141.86 83.76L125.532 86.16C125.532 86.2 125.532 86.24 125.512 86.28L141.912 83.88L141.86 83.76ZM143.06 85.964L125.188 88.596C125.188 88.636 125.188 88.676 125.188 88.716L143.132 86.076C143.084 86.04 143.064 86 143.044 85.964H143.06ZM144.156 88.18L124.9 91.016V91.136L144.22 88.292L144.156 88.18ZM145.18 90.408L124.672 93.428V93.548L145.2 90.52C145.185 90.4808 145.173 90.4407 145.164 90.4L145.18 90.408ZM146.144 92.644L124.496 95.844C124.496 95.884 124.496 95.924 124.496 95.964L146.196 92.764C146.16 92.72 146.144 92.684 146.128 92.644H146.144ZM147.06 94.888L124.368 98.228C124.368 98.268 124.368 98.304 124.368 98.344L147.112 94.996C147.072 94.96 147.056 94.924 147.044 94.888H147.06ZM147.928 97.14L124.284 100.62C124.282 100.659 124.282 100.697 124.284 100.736L147.968 97.248L147.928 97.14ZM148.756 99.396L124.244 102.996C124.24 103.035 124.24 103.073 124.244 103.112L148.796 99.512C148.764 99.468 148.752 99.432 148.74 99.396H148.756ZM149.556 101.656L124.248 105.384V105.496L149.592 101.768L149.556 101.656ZM150.312 103.92L124.284 107.752C124.284 107.792 124.284 107.832 124.284 107.872L150.344 104.036L150.312 103.92ZM151.032 106.196L124.364 110.12C124.364 110.16 124.364 110.2 124.364 110.236L151.06 106.308C151.032 106.272 151.02 106.232 151.008 106.196H151.032Z" fill="#151520"/>
<path opacity="0.1" d="M130.564 84.3599L134.8 83.7599C134.8 83.7599 135.6 88.1079 135.6 88.2279C135.6 88.3479 133.564 89.9999 133.38 89.9319C133.196 89.8639 131.192 89.3079 131.128 89.1839C131.064 89.0599 130.564 84.3599 130.564 84.3599Z" fill="#151520"/>
<path d="M124.34 91.88H98.1277V120.904H124.34V91.88Z" fill="#3A8DFE"/>
<path opacity="0.1" d="M124.34 91.88H98.1277V120.904H124.34V91.88Z" fill="#151520"/>
<path d="M84.5957 120.904H98.1277V91.8801H84.5957V120.904Z" fill="#3A8DFE"/>
<path d="M109.012 98.152H109.564H109.98L110.22 97.668L110.552 98.152L111.008 97.16L111.436 98.152H112.66H113.224L113.424 97.488L113.616 98.152H113.98V91.88H109.012V98.152Z" fill="white"/>
<g opacity="0.1">
<path opacity="0.1" d="M85.528 118.904C86.5333 116.84 87.5266 114.771 88.508 112.696L91.444 106.452L94.344 100.18C95.304 98.0893 96.2546 95.9893 97.196 93.88C96.196 95.944 95.2026 98.0147 94.2159 100.092L91.28 106.332L88.4 112.604C87.4266 114.697 86.4693 116.797 85.528 118.904Z" fill="#151520"/>
<path opacity="0.1" d="M85.528 93.88C86.472 95.9893 87.424 98.0893 88.384 100.18L91.28 106.452L94.2159 112.696C95.1999 114.771 96.1933 116.84 97.196 118.904C96.2546 116.8 95.304 114.7 94.344 112.604L91.444 106.332L88.508 100.092C87.524 98.012 86.5306 95.9413 85.528 93.88Z" fill="#151520"/>
</g>
<path d="M128.692 98.1558H102.484L98.1318 91.8758H124.34L128.692 98.1558Z" fill="#3A8DFE"/>
<g opacity="0.2">
<path opacity="0.2" d="M128.692 98.1558H102.484L98.1318 91.8758H124.34L128.692 98.1558Z" fill="#151520"/>
</g>
<path d="M93.784 98.16H80.288L84.64 91.88H98.132L93.784 98.16Z" fill="#3A8DFE"/>
<path opacity="0.1" d="M93.784 98.16H80.288L84.64 91.88H98.132L93.784 98.16Z" fill="#151520"/>
<path d="M129.556 79.3518C130.88 79.4758 133.34 77.5918 134 75.6358C134.044 75.4998 133.628 74.2438 133.2 72.6918C132.94 71.7478 132.672 70.6918 132.5 69.7118C132.464 69.5118 126.616 72.3038 126.616 72.3038C127.184 73.4682 127.608 74.6972 127.88 75.9638C127.901 76.0962 127.91 76.23 127.908 76.3638C127.906 76.3865 127.906 76.4092 127.908 76.4318C127.916 77.2278 128.14 79.1998 129.556 79.3518Z" fill="#D3766A"/>
<path d="M127.9 76.372C127.898 76.3946 127.898 76.4174 127.9 76.44C128.114 76.4291 128.327 76.4024 128.536 76.36C132.136 75.636 132.288 70.936 132.268 69.756C131.204 70.104 126.604 72.304 126.604 72.304C127.172 73.4683 127.597 74.6973 127.868 75.964C127.891 76.0988 127.901 76.2353 127.9 76.372V76.372Z" fill="#1C2B46"/>
<path d="M132.272 61.8761C133.26 63.9721 133.024 70.4721 131.672 72.1081C129.708 74.4841 126.036 75.2201 123.904 72.7561C121.832 70.3561 122.304 61.9001 123.848 60.3561C126.136 58.1041 130.8 58.8001 132.272 61.8761Z" fill="#D3766A"/>
<path d="M126.648 66.564C126.648 66.564 126.68 66.588 126.68 66.604C126.652 67.044 126.68 67.548 127.08 67.708V67.732C126.6 67.648 126.552 66.976 126.648 66.564Z" fill="#1C2B46"/>
<path d="M127.052 66.1199C127.76 66.0879 127.768 67.5039 127.116 67.5319C126.464 67.5599 126.46 66.1479 127.052 66.1199Z" fill="#1C2B46"/>
<path d="M124.112 66.656C124.112 66.656 124.076 66.676 124.076 66.696C124.096 67.132 124.04 67.636 123.644 67.784V67.812C124.132 67.74 124.196 67.068 124.112 66.656Z" fill="#1C2B46"/>
<path d="M123.716 66.2001C123.012 66.1521 122.968 67.5681 123.62 67.6121C124.272 67.6561 124.308 66.2401 123.716 66.2001Z" fill="#1C2B46"/>
<path d="M127.6 65.468C127.414 65.4167 127.231 65.3539 127.052 65.28C126.849 65.2395 126.665 65.1342 126.528 64.98C126.495 64.9232 126.482 64.857 126.49 64.7918C126.499 64.7266 126.529 64.6661 126.576 64.62C126.681 64.5399 126.805 64.4898 126.936 64.475C127.067 64.4602 127.2 64.4813 127.32 64.536C127.582 64.6074 127.807 64.7744 127.952 65.004C127.983 65.0579 127.997 65.1197 127.994 65.1817C127.99 65.2438 127.968 65.3033 127.93 65.3528C127.892 65.4023 127.841 65.4397 127.782 65.4602C127.724 65.4807 127.66 65.4834 127.6 65.468V65.468Z" fill="#1C2B46"/>
<path d="M123.164 65.492C123.354 65.453 123.541 65.4036 123.724 65.344C123.93 65.318 124.121 65.2253 124.268 65.08C124.305 65.0255 124.324 64.9604 124.32 64.8946C124.316 64.8288 124.291 64.7661 124.248 64.716C124.148 64.6295 124.027 64.5716 123.896 64.5484C123.766 64.5252 123.632 64.5375 123.508 64.584C123.246 64.6297 123.01 64.7725 122.848 64.984C122.807 65.035 122.782 65.0979 122.778 65.1637C122.773 65.2296 122.79 65.2951 122.825 65.3511C122.859 65.4071 122.911 65.4508 122.972 65.4761C123.033 65.5014 123.1 65.5069 123.164 65.492V65.492Z" fill="#1C2B46"/>
<path d="M127.084 70.6282C126.98 70.7322 126.876 70.8721 126.716 70.8881C126.553 70.8881 126.391 70.8511 126.244 70.7801C126.244 70.7801 126.216 70.7801 126.224 70.8041C126.288 70.8901 126.373 70.9574 126.472 70.9989C126.57 71.0404 126.678 71.0546 126.784 71.0401C126.874 71.0151 126.955 70.9636 127.015 70.8923C127.076 70.821 127.114 70.7332 127.124 70.6402C127.132 70.6242 127.096 70.6122 127.084 70.6282Z" fill="#1C2B46"/>
<path d="M125.284 69.8481C125.471 70.091 125.717 70.2812 126 70.4001C126.155 70.4577 126.323 70.4675 126.484 70.4281C126.832 70.3321 126.84 70.0281 126.772 69.7361C126.734 69.597 126.681 69.4627 126.612 69.3361C126.235 69.6438 125.77 69.8232 125.284 69.8481V69.8481Z" fill="#1C2B46"/>
<path d="M126 70.4001C126.155 70.4578 126.324 70.4675 126.484 70.4281C126.832 70.3321 126.84 70.0281 126.772 69.7361C126.588 69.7443 126.411 69.8142 126.271 69.9346C126.131 70.055 126.036 70.219 126 70.4001V70.4001Z" fill="#FF99BA"/>
<path d="M122.928 62.52C123.164 61.96 123.436 61.4 123.768 61.288C124.1 61.176 124.332 61.988 125.092 62.032C126.12 62.092 126.608 61.144 128.044 61.028C130.108 60.868 131.032 62.584 131.108 65.512C131.176 68.128 132.76 68.36 132.76 68.36C132.76 68.36 133.668 62.584 132.024 60.688C130.38 58.792 126.64 57.98 124.152 59.828C123.244 60.5 122.928 62.52 122.928 62.52Z" fill="#1C2B46"/>
<path d="M131.432 67.3401C131.432 67.3401 132.612 65.1081 133.608 65.5041C134.604 65.9001 133.896 69.0121 132.852 69.5561C132.724 69.6355 132.581 69.6882 132.432 69.711C132.283 69.7338 132.131 69.7263 131.985 69.689C131.839 69.6516 131.702 69.5852 131.582 69.4936C131.463 69.4021 131.363 69.2873 131.288 69.1561L131.432 67.3401Z" fill="#D3766A"/>
<path d="M133.38 66.4V66.428C132.652 66.828 132.336 67.596 132.144 68.368C132.179 68.2854 132.231 68.2113 132.298 68.1509C132.364 68.0905 132.443 68.0453 132.528 68.0183C132.614 67.9913 132.704 67.9832 132.793 67.9945C132.882 68.0059 132.968 68.0364 133.044 68.084C133.048 68.0859 133.052 68.089 133.054 68.0929C133.057 68.0968 133.058 68.1013 133.058 68.106C133.058 68.1107 133.057 68.1153 133.054 68.1192C133.052 68.1231 133.048 68.1262 133.044 68.128C132.903 68.1018 132.758 68.1201 132.628 68.1803C132.498 68.2405 132.391 68.3397 132.32 68.464C132.203 68.6708 132.107 68.8893 132.036 69.116C132.008 69.188 131.88 69.168 131.896 69.088C131.756 68.084 132.344 66.62 133.38 66.4Z" fill="#1C2B46"/>
<path d="M138.3 79.884C140.98 85.852 146.908 98.084 145.384 102.684C143.384 108.724 132.916 115.384 130.208 117.252C129.028 118.052 123.156 110.536 123.516 109.048C123.876 107.56 134.88 98.844 135.472 97.848C136.064 96.852 133.576 86.948 133.156 81.408C132.62 74.436 136.028 74.832 138.3 79.884Z" fill="#D3766A"/>
<path d="M120.8 113.084C121.12 112.428 120.776 112.256 119.6 112.824C118.424 113.392 114.288 116.632 113.28 115.092C112.272 113.552 118.184 109.064 120.204 108.268C122.224 107.472 125.764 106.888 125.764 106.888C124.8 108 122.692 110.896 120.8 113.084Z" fill="#D3766A"/>
<path d="M133.072 114.916C130.208 117.928 126.832 121.848 122.328 123.136C121.831 123.291 121.296 123.276 120.808 123.092C118.808 123.704 117.908 122.94 117.908 122.94C115.86 122.94 115.056 122.032 115.056 122.032C115.056 122.032 112.688 122.728 112.032 121.368C111.292 119.844 114.76 119.164 116.432 117.628C120.28 114.1 124.764 108.028 125.772 106.888L133.072 114.916Z" fill="#D3766A"/>
<path d="M123.068 116.768C121.953 117.81 120.769 118.776 119.524 119.66C118.102 120.543 116.615 121.319 115.076 121.98C115.028 122 115.056 122.068 115.108 122.056C118.204 121.074 120.971 119.261 123.108 116.816C123.164 116.76 123.124 116.716 123.068 116.768Z" fill="#1C2B46"/>
<path d="M125.532 118.8C124.356 119.724 122.276 121.336 117.888 122.916C117.888 122.916 117.888 122.944 117.888 122.94C120.777 122.318 123.436 120.904 125.568 118.856C125.644 118.772 125.6 118.716 125.532 118.8Z" fill="#1C2B46"/>
<path d="M126.836 119.884C124.776 121.384 123.288 122.068 120.836 123.084C120.836 123.084 120.836 123.116 120.836 123.112C123.764 122.26 124.732 121.616 126.912 119.956C126.972 119.892 126.916 119.828 126.836 119.884Z" fill="#1C2B46"/>
<path d="M133.6 89.04L143.6 89.52C143.6 89.52 138.972 79.544 136.8 76.996C134.336 74.124 133.408 76.012 133.104 79.596C132.8 83.18 133.6 89.04 133.6 89.04Z" fill="#3A8DFE"/>
<path opacity="0.1" d="M133.6 89.04L143.6 89.52C143.6 89.52 138.972 79.544 136.8 76.996C134.336 74.124 133.408 76.012 133.104 79.596C132.8 83.18 133.6 89.04 133.6 89.04Z" fill="#151520"/>
<path d="M134.052 87.248C135.332 87.136 139.216 87.348 139.86 87.376C140.196 87.376 141.548 87.508 141.884 87.52C141.928 87.52 141.916 87.588 141.884 87.588C141.236 87.564 140.588 87.608 139.94 87.588C139.292 87.568 135.336 87.5 134.056 87.296C134.052 87.2939 134.048 87.2907 134.045 87.2866C134.042 87.2826 134.041 87.278 134.04 87.2731C134.04 87.2683 134.041 87.2634 134.043 87.259C134.045 87.2546 134.048 87.2508 134.052 87.248V87.248Z" fill="#1C2B46"/>
<path d="M139.132 80.7399C139.112 80.6999 139.176 80.6719 139.196 80.7119C139.684 81.5119 140.152 82.3119 140.604 83.1399C140.471 82.6677 140.295 82.2085 140.08 81.7679C140.08 81.7679 140.1 81.7359 140.112 81.7679C140.38 82.2733 140.581 82.811 140.712 83.3679C141.028 83.9399 141.336 84.5119 141.64 85.0919C142.408 86.5559 143.2 88.0199 143.884 89.5319C143.891 89.5502 143.894 89.5701 143.892 89.5898C143.889 89.6095 143.882 89.6283 143.87 89.6443C143.859 89.6603 143.843 89.6731 143.825 89.6815C143.807 89.6898 143.788 89.6934 143.768 89.6919C143.42 89.6639 143.076 89.6239 142.732 89.5759C142.696 89.5759 142.692 89.5119 142.732 89.5079C143.02 89.4839 143.304 89.4799 143.592 89.4719C142.792 88.0759 142.1 86.6359 141.36 85.2159C140.62 83.7959 139.84 82.2399 139.132 80.7399Z" fill="#1C2B46"/>
<path d="M133 84.8002C132.896 84.2842 132.788 83.7682 132.7 83.2482C132.792 83.6242 132.876 84.0042 132.96 84.3842C132.916 83.6082 132.888 82.8362 132.896 82.0642H132.916C133.076 83.2242 133.172 84.3962 133.316 85.5602C133.46 86.7242 133.56 87.8482 133.668 88.9922C133.892 89.0402 134.12 89.0802 134.348 89.1202C134.355 89.1226 134.361 89.1272 134.366 89.1333C134.37 89.1394 134.372 89.1467 134.372 89.1542C134.372 89.1616 134.37 89.1689 134.366 89.175C134.361 89.1811 134.355 89.1857 134.348 89.1882C134.096 89.1882 133.844 89.1882 133.592 89.1882C133.563 89.1928 133.533 89.1857 133.509 89.1685C133.485 89.1513 133.469 89.1253 133.464 89.0962C133.256 87.6682 133.096 86.2322 133 84.8002Z" fill="#1C2B46"/>
<path d="M93.1559 141.048H55.3279V172.3H93.1559V141.048Z" fill="#3A8DFE"/>
<path d="M108.139 141.048H93.1515V172.304H108.139V141.048Z" fill="#3A8DFE"/>
<path opacity="0.1" d="M108.139 141.048H93.1515V172.304H108.139V141.048Z" fill="#151520"/>
<path d="M107.108 170.152C106.001 167.928 104.901 165.697 103.808 163.46L100.556 156.74L97.3559 149.988C96.2893 147.732 95.2359 145.465 94.1959 143.188C95.3053 145.412 96.4053 147.643 97.4959 149.88L100.744 156.6L103.944 163.352C105.011 165.616 106.065 167.883 107.108 170.152Z" fill="#3A8DFE"/>
<path d="M107.108 143.2C106.065 145.472 105.012 147.739 103.948 150L100.748 156.752L97.4998 163.472C96.4092 165.712 95.3092 167.943 94.1998 170.164C95.2398 167.892 96.2932 165.625 97.3598 163.364L100.56 156.612L103.812 149.892C104.903 147.652 106.001 145.421 107.108 143.2Z" fill="#3A8DFE"/>
<path d="M76.9158 147.804H76.3198H75.8678L75.6118 147.28L75.2518 147.804L74.7678 146.732L74.3038 147.804H72.9838H72.3798L72.1638 147.088L71.9558 147.804H71.5638V141.048H76.9158V147.804Z" fill="white"/>
<path d="M130.1 141.048H101.88V172.3H130.1V141.048Z" fill="#3A8DFE"/>
<path d="M144.672 141.048H130.1V172.3H144.672V141.048Z" fill="#3A8DFE"/>
<path opacity="0.1" d="M144.672 141.048H130.1V172.3H144.672V141.048Z" fill="#151520"/>
<g opacity="0.1">
<path opacity="0.1" d="M128.032 170.148C125.96 167.927 123.907 165.697 121.872 163.46L115.8 156.74L109.8 149.988C107.808 147.732 105.84 145.465 103.896 143.188C105.968 145.412 108.021 147.641 110.056 149.876L116.128 156.6L122.128 163.352C124.117 165.613 126.085 167.879 128.032 170.148Z" fill="#151520"/>
<path opacity="0.1" d="M128.032 143.2C126.083 145.472 124.115 147.739 122.128 150L116.128 156.752L110.056 163.472C108.024 165.709 105.971 167.939 103.896 170.16C105.845 167.893 107.813 165.627 109.8 163.36L115.8 156.608L121.872 149.884C123.904 147.652 125.957 145.424 128.032 143.2Z" fill="#151520"/>
</g>
<path d="M142.62 167.012H140.068V170.616H142.62V167.012Z" fill="white"/>
<path d="M93.8516 120.836H61.6316V141.044H93.8516V120.836Z" fill="#3A8DFE"/>
<path opacity="0.1" d="M93.8516 120.836H61.6316V141.044H93.8516V120.836Z" fill="#151520"/>
<path d="M108.428 120.84H93.8561V141.052H108.428V120.84Z" fill="#3A8DFE"/>
<path opacity="0.2" d="M108.428 120.84H93.8561V141.052H108.428V120.84Z" fill="#151520"/>
<path d="M107.424 139.856C106.344 138.469 105.277 137.075 104.224 135.672L101.06 131.464L97.9402 127.24C96.9028 125.827 95.8788 124.411 94.8682 122.992C95.9348 124.384 97.0015 125.779 98.0682 127.176L101.228 131.384L104.348 135.612C105.385 137.02 106.411 138.435 107.424 139.856Z" fill="#3A8DFE"/>
<path d="M107.424 122.992C106.408 124.411 105.383 125.827 104.348 127.24L101.228 131.464L98.0682 135.672C97.0015 137.072 95.9348 138.467 94.8682 139.856C95.8788 138.435 96.9028 137.02 97.9402 135.612L101.06 131.384L104.224 127.176C105.275 125.776 106.341 124.381 107.424 122.992Z" fill="#3A8DFE"/>
<path d="M75.0002 35.0158C74.8327 36.6187 74.2231 38.1434 73.2394 39.4199C72.2558 40.6965 70.9367 41.6745 69.4295 42.245C67.9223 42.8154 66.2862 42.9558 64.7038 42.6505C63.1214 42.3451 61.655 41.6061 60.4682 40.5158L56.1202 41.1518L58.2962 37.3918C57.7516 36.0659 57.5468 34.625 57.7002 33.1998C57.9405 30.9057 59.0823 28.801 60.8744 27.3487C62.6665 25.8964 64.9621 25.2156 67.2562 25.4558C69.5504 25.6961 71.6551 26.8379 73.1074 28.63C74.5596 30.4221 75.2405 32.7177 75.0002 35.0118V35.0158Z" fill="white"/>
<path d="M75 35.016C74.8279 36.6156 74.2205 38.1374 73.244 39.416C72.9958 39.7332 72.7287 40.0351 72.444 40.32C72.1538 40.605 71.8465 40.8721 71.524 41.12C70.2328 42.093 68.6974 42.6897 67.088 42.844C66.6891 42.8815 66.288 42.8896 65.888 42.868C65.4853 42.8585 65.0841 42.8171 64.688 42.744C63.0886 42.4422 61.6043 41.7028 60.4 40.608L60.504 40.64L56.156 41.304L55.844 41.356L56 41.076L58.164 37.308V37.456C57.6526 36.2124 57.4336 34.8679 57.524 33.5262C57.6144 32.1846 58.0118 30.8817 58.6855 29.7179C59.3591 28.5541 60.2911 27.5607 61.4095 26.8141C62.5279 26.0675 63.8029 25.5878 65.136 25.412C66.4528 25.2274 67.7945 25.3478 69.0574 25.7639C70.3204 26.18 71.4708 26.8807 72.42 27.812C73.3673 28.7392 74.0917 29.8693 74.5386 31.1172C74.9855 32.3651 75.1433 33.6982 75 35.016ZM75 35.016C75.1405 33.7056 74.9779 32.3805 74.5249 31.1429C74.0719 29.9053 73.3405 28.7884 72.3872 27.8784C71.4339 26.9684 70.2843 26.2897 69.027 25.8947C67.7697 25.4996 66.4384 25.3988 65.136 25.6C63.8431 25.7913 62.6114 26.2772 61.536 27.02C60.474 27.7657 59.5869 28.7334 58.936 29.856C58.2945 30.9834 57.9171 32.2416 57.832 33.536C57.7514 34.8285 57.9605 36.1226 58.444 37.324L58.476 37.4L58.432 37.472L56.244 41.228L56.088 40.996L60.452 40.4H60.512L60.556 40.44C61.7181 41.5273 63.1599 42.2697 64.72 42.584C65.1091 42.6622 65.5035 42.7103 65.9 42.728C67.0941 42.8089 68.2916 42.6329 69.412 42.212C70.1628 41.9421 70.8692 41.5619 71.508 41.084C71.829 40.8457 72.1362 40.5893 72.428 40.316C72.7126 40.0339 72.9798 39.7346 73.228 39.42C74.2137 38.1436 74.8269 36.6194 75 35.016Z" fill="#1C2B46"/>
<path d="M65.3322 39.068L61.6162 35.308L62.8642 34.076L65.0362 36.272L69.5442 29.208L71.0202 30.148L65.3322 39.068Z" fill="#3A8DFE"/>
<path d="M37.376 42.7278C35.912 42.4718 32.228 43.6718 31.068 45.6638C29.908 47.6558 30.152 50.7998 30.8 51.0558C31.448 51.3118 34.204 50.9758 36.052 49.8558C37.9 48.7358 38.1 42.8518 37.376 42.7278Z" fill="#1C2B46"/>
<path d="M37.3798 42.7359C37.4278 42.7359 37.4318 42.6399 37.3798 42.6439C36.1078 42.6679 34.7678 43.1559 33.5758 43.5599C32.5837 43.8314 31.6597 44.3084 30.8638 44.9599C30.495 45.2914 30.203 45.6994 30.0082 46.1553C29.8134 46.6113 29.7204 47.1043 29.7358 47.5999C29.714 48.7967 29.9976 49.9792 30.5598 51.0359C30.5598 51.0639 30.6318 51.0359 30.6198 51.0359C29.9438 48.9479 29.3158 46.3879 31.3518 44.8519C33.0798 43.5119 35.3558 43.2679 37.3798 42.7359Z" fill="#1C2B46"/>
<path d="M30.9921 50.496C29.7321 50.716 26.5441 53.296 26.0961 55.696C25.6481 58.096 27.7681 61.608 28.4001 61.84C29.0321 62.072 31.7321 59.636 32.5721 57.896C33.1321 56.736 32.5721 55.432 32.2561 54.132C31.7601 52.224 31.2001 50.464 30.9921 50.496Z" fill="#1C2B46"/>
<path d="M33.3159 57.5758C33.5839 55.0998 32.0839 52.7318 31.1479 50.5478C31.1479 50.5238 31.0999 50.5478 31.1079 50.5478C31.6639 52.6558 33.0319 54.5118 33.1679 56.7358C33.2358 57.3861 33.1463 58.0433 32.9068 58.6518C32.6673 59.2602 32.2849 59.8022 31.7919 60.2318C30.8759 60.9758 29.7079 61.3518 28.6279 61.7878C28.5599 61.8158 28.6279 61.9198 28.6799 61.8958C30.8319 61.0998 33.0399 60.1278 33.3159 57.5758Z" fill="#1C2B46"/>
<path d="M30.7279 50.736C30.7392 50.7285 30.7474 50.7172 30.7509 50.7042C30.7545 50.6912 30.7533 50.6773 30.7474 50.6651C30.7416 50.6529 30.7315 50.6433 30.7191 50.6379C30.7067 50.6326 30.6928 50.6319 30.6799 50.636C28.9159 51.572 26.7999 52.912 25.9159 54.784C24.9559 56.808 26.0959 58.832 27.1159 60.576H27.1519C26.1519 58.804 25.0839 56.576 26.1879 54.616C27.1279 52.896 29.0639 51.644 30.7279 50.736Z" fill="#1C2B46"/>
<path d="M28.6274 61.536C29.4994 61.936 30.8154 63.3 31.1994 64.984C31.8474 67.864 32.9114 67.228 36.1314 67.82C38.8514 68.316 39.5954 71.288 38.2514 72.856C38.2514 72.856 38.9754 70.956 37.1154 70.152C34.8914 69.192 30.0754 71.752 27.4354 68.836C24.0194 65.068 28.6274 61.536 28.6274 61.536Z" fill="#1C2B46"/>
<path d="M29.8479 62.8001C29.8119 62.7601 29.8719 62.6961 29.9119 62.7321C30.2972 63.072 30.6183 63.4785 30.8599 63.9321C31.1679 64.5321 31.2199 65.2001 31.4799 65.8121C32.1519 67.3721 34.0719 67.2081 35.4799 67.2281C37.3599 67.2521 38.9279 68.3081 39.1599 70.2721C39.1614 70.2757 39.1621 70.2797 39.1618 70.2837C39.1614 70.2877 39.1601 70.2915 39.1579 70.2948C39.1558 70.2981 39.1528 70.3009 39.1493 70.3028C39.1458 70.3047 39.1418 70.3057 39.1379 70.3057C39.1339 70.3057 39.13 70.3047 39.1264 70.3028C39.1229 70.3009 39.12 70.2981 39.1178 70.2948C39.1156 70.2915 39.1143 70.2877 39.1139 70.2837C39.1136 70.2797 39.1143 70.2757 39.1159 70.2721C39.0315 69.674 38.787 69.1099 38.4081 68.6395C38.0293 68.1691 37.5302 67.8099 36.9639 67.6001C35.8399 67.2001 34.6199 67.5161 33.4719 67.3081C32.6719 67.1681 31.8719 66.8801 31.4719 66.1441C31.2833 65.7231 31.1398 65.2833 31.0439 64.8321C30.827 64.063 30.415 63.363 29.8479 62.8001V62.8001Z" fill="#1C2B46"/>
<path d="M28.1558 61.9159C28.1558 61.9159 28.1998 61.9159 28.1838 61.9439C27.1838 63.0519 26.1238 64.1679 25.9078 65.7159C25.6718 67.3799 26.6158 68.9799 27.9678 69.8999C29.4838 70.9319 31.0038 70.2999 32.6078 69.8999C33.7638 69.6039 34.9518 69.3959 36.1238 69.7319C36.1598 69.7319 36.1238 69.7999 36.1238 69.7959C34.2478 69.4719 32.5838 70.1199 30.7838 70.5199C30.1156 70.684 29.4147 70.6562 28.7615 70.4396C28.1084 70.2231 27.5297 69.8267 27.0918 69.2959C24.8198 66.8759 25.9438 63.8959 28.1558 61.9159Z" fill="#1C2B46"/>
<path d="M36.2079 41.4481C35.7799 40.9521 35.0079 41.6241 35.4479 42.1201C35.8879 42.6161 36.6319 41.9401 36.2079 41.4481Z" fill="#3A8DFE"/>
<path d="M36.6359 42.284C36.2119 41.7919 35.4359 42.464 35.8799 42.956C36.3239 43.448 37.0639 42.8 36.6359 42.284Z" fill="#3A8DFE"/>
<path d="M37.1999 43.0438C36.7719 42.5518 35.9999 43.2198 36.4399 43.7158C36.8799 44.2118 37.6359 43.5398 37.1999 43.0438Z" fill="#3A8DFE"/>
<path d="M37.8595 43.7C37.4355 43.208 36.6595 43.88 37.1035 44.372C37.5475 44.864 38.2875 44.196 37.8595 43.7Z" fill="#3A8DFE"/>
<path d="M38.632 44.2479C38.204 43.7559 37.432 44.4279 37.872 44.9199C38.312 45.4119 39.056 44.7439 38.632 44.2479Z" fill="#3A8DFE"/>
<path d="M39.4557 44.6359C39.0277 44.1439 38.2557 44.8119 38.6957 45.3079C39.1357 45.8039 39.8797 45.1319 39.4557 44.6359Z" fill="#3A8DFE"/>
<path d="M70.5641 177.304C69.6401 177.592 42.6361 177.008 41.6521 176.352C41.2721 176.108 43.5881 150.528 43.5881 150.528L60.7121 150.856L58.7641 167.964C58.7641 167.964 68.7281 172.688 69.7361 173.524C70.7441 174.36 71.4921 177.016 70.5641 177.304Z" fill="#D3766A"/>
<path d="M70.5676 177.304C69.6436 177.592 42.6356 177.008 41.6516 176.348C41.5316 176.276 41.4956 173.676 41.9276 170.296C46.8236 171.116 64.2996 173.8 65.6636 173C66.6116 172.44 65.7716 171.568 64.9916 171C67.2236 172.112 69.3076 173.18 69.7356 173.54C70.7396 174.36 71.4876 177.02 70.5676 177.304Z" fill="#1C2B46"/>
<path d="M59.2478 163.864L42.4478 163.628C42.4478 163.628 45.7758 123.36 45.6478 122.584C45.4478 121.6 33.5198 74.8199 33.5198 74.8199H49.5678C49.5678 74.8199 62.2198 118.42 62.6758 122.616C63.4118 129.4 59.2478 163.864 59.2478 163.864Z" fill="#49556B"/>
<path d="M43.9437 159.832C44.9397 159.76 45.9437 159.772 46.9397 159.76C47.9357 159.748 48.9397 159.76 49.9317 159.76C51.9317 159.78 53.9317 159.812 55.9317 159.868C56.4757 159.868 57.0197 159.9 57.5677 159.924C58.1157 159.948 58.7317 160.052 59.3117 160.072C59.3213 160.072 59.3304 160.076 59.3372 160.082C59.3439 160.089 59.3477 160.098 59.3477 160.108C59.3477 160.117 59.3439 160.127 59.3372 160.133C59.3304 160.14 59.3213 160.144 59.3117 160.144C58.8197 160.144 58.3317 160.22 57.8397 160.236C57.3477 160.252 56.8237 160.236 56.3157 160.236H53.3237C51.3237 160.236 49.3237 160.192 47.3437 160.112C46.2197 160.064 45.0837 160.052 43.9637 159.936C43.9499 159.939 43.9356 159.936 43.924 159.928C43.9124 159.92 43.9044 159.908 43.9017 159.894C43.8991 159.88 43.902 159.866 43.9099 159.854C43.9177 159.843 43.9299 159.835 43.9437 159.832V159.832Z" fill="#1C2B46"/>
<path d="M37.0521 78.5999C38.4881 83.6839 39.8001 88.8119 41.0841 93.9359C42.3681 99.0599 43.6521 104.192 44.9281 109.32C45.5681 111.888 46.2067 114.453 46.8441 117.016C47.4641 119.512 48.1881 122.024 48.3401 124.616C48.4921 127.208 48.1641 129.884 47.9401 132.496C47.7161 135.108 47.5001 137.744 47.2681 140.372C46.8081 145.62 46.3681 150.876 45.7961 156.116C45.7281 156.772 45.6561 157.428 45.5881 158.084C45.5881 158.14 45.4961 158.14 45.5001 158.084C45.8481 152.828 46.2121 147.576 46.6321 142.328C46.8401 139.701 47.0534 137.076 47.2721 134.452C47.4881 131.832 47.7921 129.2 47.8761 126.572C47.9601 123.944 47.4761 121.372 46.8361 118.82C46.1961 116.268 45.5761 113.8 44.9481 111.288C43.6627 106.165 42.3827 101.037 41.1081 95.9039C39.6841 90.1599 38.2601 84.4079 37.0041 78.6239C37.0025 78.6207 37.0015 78.6173 37.0013 78.6138C37.001 78.6103 37.0015 78.6067 37.0026 78.6034C37.0037 78.6 37.0055 78.5969 37.0078 78.5943C37.0101 78.5916 37.0129 78.5894 37.0161 78.5879C37.0192 78.5863 37.0226 78.5853 37.0262 78.5851C37.0297 78.5848 37.0332 78.5853 37.0365 78.5864C37.0399 78.5875 37.043 78.5893 37.0456 78.5916C37.0483 78.5939 37.0505 78.5967 37.0521 78.5999V78.5999Z" fill="#1C2B46"/>
<path d="M33.5198 74.8239C33.5198 74.8239 38.6398 94.8879 42.2198 109.012L49.0478 74.8239H33.5198Z" fill="#1C2B46"/>
<path d="M50.4001 177.364C49.4761 177.656 22.4721 177.072 21.4881 176.412C21.1081 176.168 22.5161 150.576 22.5161 150.576L39.4161 150.904L38.6161 168.028C38.6161 168.028 48.5801 172.748 49.5881 173.588C50.5961 174.428 51.3241 177.08 50.4001 177.364Z" fill="#D3766A"/>
<path d="M50.3996 177.364C49.4756 177.652 22.4716 177.072 21.4876 176.412C21.3676 176.336 21.3956 173.808 21.4876 170.356C26.3836 171.176 44.1316 173.864 45.4876 173.06C46.4356 172.504 45.5996 171.632 44.8196 171.06C47.0516 172.172 49.1356 173.244 49.5636 173.604C50.5716 174.42 51.3236 177.08 50.3996 177.364Z" fill="#1C2B46"/>
<path d="M49.0478 74.7999C49.0478 74.7999 48.5798 82.4719 46.7478 88.5319C46.5998 89.0319 46.4398 89.5239 46.2718 89.9959C44.652 90.6252 43.0935 91.4018 41.6158 92.3159C41.6158 92.3159 40.4597 121.66 40.4797 123.484C40.5557 130.32 38.7998 163.528 38.7998 163.528L21.8438 163.364C21.8438 163.364 23.6037 125.812 23.6117 123.316C23.6117 119.316 27.1677 74.8199 27.1677 74.8199L49.0478 74.7999Z" fill="#49556B"/>
<path d="M45.344 85.1198L45.536 83.8478C45.656 83.0478 45.816 82.2958 45.936 81.5198C46.244 79.7638 46.568 77.9998 46.956 76.2558C46.956 76.2158 47.04 76.2238 47.032 76.2558C46.964 76.9598 46.884 77.6638 46.784 78.3638C46.684 79.0638 46.616 79.7678 46.516 80.4678C46.32 81.8558 46.116 83.2678 45.892 84.6318C45.8 85.1638 45.468 86.1198 46.236 86.2838C46.84 86.4158 47.288 85.8198 47.464 85.3198C47.6512 84.6922 47.785 84.0499 47.864 83.3998C47.992 82.6998 48.1 81.9958 48.2 81.2918C48.416 79.7558 48.656 78.2238 48.904 76.6958C48.904 76.6518 48.984 76.6638 48.98 76.6958C48.9467 78.2686 48.8332 79.8386 48.64 81.3998C48.54 82.1478 48.432 82.8918 48.304 83.6358C48.2275 84.3494 48.0539 85.0492 47.788 85.7158C47.6801 85.9791 47.5072 86.2108 47.2854 86.3891C47.0637 86.5675 46.8004 86.6868 46.52 86.7358H46.484C46.4914 86.7405 46.4975 86.747 46.5017 86.7547C46.5059 86.7624 46.5081 86.771 46.508 86.7798C46.508 87.0318 46.508 87.2838 46.48 87.5318C46.452 87.7798 46.404 88.0198 46.356 88.2638C46.3113 88.5121 46.2485 88.7567 46.168 88.9958C46.124 89.1078 46.084 89.2198 46.032 89.3318C45.98 89.4438 45.9 89.5318 45.832 89.6398C45.808 89.6838 45.756 89.6398 45.752 89.6118C45.752 89.5718 45.752 89.5318 45.752 89.4918C45.7481 89.4199 45.7481 89.3478 45.752 89.2758C45.7699 89.156 45.7939 89.0372 45.824 88.9198C45.876 88.6838 45.94 88.4478 46.004 88.2118C46.068 87.9758 46.116 87.7438 46.176 87.5078C46.236 87.2718 46.32 87.0318 46.376 86.7878C46.376 86.7878 46.376 86.7878 46.376 86.7638C46.1501 86.7746 45.9263 86.716 45.7347 86.5959C45.5431 86.4757 45.3928 86.2998 45.304 86.0918C45.2351 85.7696 45.2489 85.4352 45.344 85.1198Z" fill="#1C2B46"/>
<path d="M40.2438 92.9159C40.7517 92.528 41.2864 92.1765 41.8438 91.8639C42.4288 91.5091 43.0368 91.1937 43.6638 90.9199C44.8878 90.3879 46.1518 90.0239 47.4198 89.6079C47.4558 89.6079 47.4798 89.6559 47.4438 89.6719C46.2198 90.1599 45.0438 90.8079 43.8438 91.3879C43.2598 91.6732 42.6705 91.9399 42.0758 92.1879C41.4838 92.4519 40.8758 92.7599 40.2798 92.9879C40.2438 93.0159 40.2078 92.9439 40.2438 92.9159Z" fill="#1C2B46"/>
<path d="M30.6755 82.2278C31.5383 82.2172 32.3966 82.1017 33.2315 81.8838C33.6315 81.7838 33.9955 81.6598 34.3715 81.5358C34.7458 81.4326 35.0964 81.2574 35.4035 81.0198C35.9835 80.5158 36.2555 79.7278 36.5075 79.0198C36.7829 78.2354 37.0061 77.4337 37.1755 76.6198C37.1755 76.6102 37.1793 76.6011 37.186 76.5943C37.1928 76.5876 37.2019 76.5838 37.2115 76.5838C37.221 76.5838 37.2302 76.5876 37.2369 76.5943C37.2437 76.6011 37.2475 76.6102 37.2475 76.6198C37.2679 77.5466 37.1507 78.4714 36.8995 79.3638C36.6915 80.1198 36.4115 80.9638 35.7995 81.4958C35.12 82.0067 34.3043 82.3046 33.4555 82.3518C32.5245 82.4613 31.5833 82.4492 30.6555 82.3158C30.6472 82.3104 30.6407 82.3027 30.637 82.2936C30.6333 82.2844 30.6324 82.2744 30.6346 82.2648C30.6368 82.2551 30.6419 82.2464 30.6492 82.2398C30.6565 82.2332 30.6657 82.229 30.6755 82.2278Z" fill="#1C2B46"/>
<path d="M25.1037 142.72C25.3917 137.365 25.6957 132.008 26.0157 126.648C26.6317 115.988 27.2157 105.324 27.8997 94.6481C28.2997 88.6481 28.6677 82.6201 29.1397 76.6121C29.1428 76.6012 29.1494 76.5916 29.1584 76.5848C29.1674 76.578 29.1784 76.5744 29.1897 76.5744C29.201 76.5744 29.212 76.578 29.221 76.5848C29.23 76.5916 29.2366 76.6012 29.2397 76.6121C28.7997 87.3601 28.1597 98.0721 27.5397 108.8C26.9197 119.528 26.2877 130.112 25.5997 140.768C25.2397 146.8 24.7637 152.8 24.3997 158.8C24.4016 158.805 24.4022 158.811 24.4014 158.817C24.4005 158.823 24.3984 158.828 24.3951 158.833C24.3917 158.837 24.3873 158.841 24.3822 158.844C24.3771 158.847 24.3715 158.848 24.3657 158.848C24.36 158.848 24.3543 158.847 24.3492 158.844C24.3441 158.841 24.3397 158.837 24.3364 158.833C24.333 158.828 24.3309 158.823 24.3301 158.817C24.3293 158.811 24.3298 158.805 24.3317 158.8C24.6077 153.44 24.7997 148.08 25.1037 142.72Z" fill="#1C2B46"/>
<path d="M22.6118 160.08C23.6038 160.008 24.6118 160.02 25.6038 160.008C26.5958 159.996 27.6038 160.008 28.5958 160.008C30.5958 160.028 32.5958 160.06 34.5958 160.116C35.1398 160.116 35.6878 160.148 36.2318 160.172C36.7758 160.196 37.3958 160.3 37.9758 160.32C37.9854 160.32 37.9945 160.324 38.0013 160.33C38.008 160.337 38.0118 160.346 38.0118 160.356C38.0118 160.365 38.008 160.375 38.0013 160.381C37.9945 160.388 37.9854 160.392 37.9758 160.392C37.4878 160.392 36.9958 160.468 36.5038 160.484C36.0118 160.5 35.4878 160.484 34.9798 160.484C33.9838 160.484 32.9798 160.484 31.9918 160.484C29.9918 160.484 27.9918 160.444 25.9918 160.36C24.8638 160.312 23.7278 160.3 22.6078 160.188C22.6007 160.188 22.5938 160.186 22.5873 160.183C22.5809 160.18 22.5751 160.176 22.5702 160.171C22.5654 160.165 22.5616 160.159 22.5592 160.153C22.5567 160.146 22.5556 160.139 22.5558 160.132C22.5561 160.125 22.5577 160.118 22.5607 160.111C22.5637 160.105 22.5679 160.099 22.5731 160.094C22.5783 160.089 22.5844 160.086 22.591 160.083C22.5977 160.081 22.6047 160.08 22.6118 160.08Z" fill="#1C2B46"/>
<path d="M42.2516 57.4599C43.8796 61.4999 50.3476 74.5599 54.5956 75.4839C57.3956 76.0879 68.6476 74.9959 70.5956 72.3319C71.4396 71.1719 70.0116 63.0759 68.5076 63.3959C67.0036 63.7159 57.9756 64.9119 56.8676 64.5959C55.7596 64.2799 47.4476 54.7039 44.3396 52.3279C38.9796 48.2239 41.3756 55.2839 42.2516 57.4599Z" fill="#D3766A"/>
<path d="M52.1078 59.4559L45.0278 63.6439C45.0278 63.6439 42.0478 57.9719 40.8838 54.2599C39.7198 50.5479 40.7198 48.8519 44.9918 52.5439C47.5025 54.7007 49.8789 57.009 52.1078 59.4559V59.4559Z" fill="#3A8DFE"/>
<path d="M44.7235 62.188C45.6621 61.508 46.6181 60.8507 47.5915 60.216C48.0675 59.904 48.5435 59.584 49.0275 59.284C49.5115 58.984 50.0515 58.692 50.5515 58.38C50.5548 58.3768 50.5588 58.3744 50.5632 58.3729C50.5675 58.3715 50.5722 58.3709 50.5768 58.3714C50.5814 58.3719 50.5858 58.3733 50.5898 58.3757C50.5938 58.378 50.5972 58.3812 50.5998 58.385C50.6024 58.3888 50.6042 58.3931 50.605 58.3977C50.6058 58.4022 50.6056 58.4069 50.6044 58.4114C50.6033 58.4158 50.6011 58.42 50.5982 58.4235C50.5953 58.4271 50.5916 58.43 50.5875 58.432C50.1155 58.752 49.6675 59.104 49.1955 59.428C48.7235 59.752 48.2115 60.076 47.7195 60.396C46.7488 61.0307 45.7608 61.6427 44.7555 62.232C44.7275 62.248 44.6955 62.208 44.7235 62.188Z" fill="#1C2B46"/>
<path d="M51.7358 79.9519L50.1358 70.9239C50.1358 70.9239 52.5958 66.6319 51.1678 63.5479C50.4478 61.9879 44.1278 52.2759 41.4678 50.3479C38.9718 48.5359 35.3478 50.4719 33.9998 51.8919C28.7998 57.3639 27.4158 67.4559 25.5518 82.2479L51.7358 79.9519Z" fill="#3A8DFE"/>
<path d="M51.6 64.4439C51.4026 63.7945 51.1116 63.1773 50.736 62.6119C50.612 62.3999 50.336 61.9599 50 61.4479C49.9064 61.201 49.7996 60.9594 49.68 60.7239C49.4828 60.3768 49.3052 60.0189 49.148 59.6519C49.148 59.6159 49.076 59.6519 49.096 59.6759C49.2634 60.0268 49.413 60.3859 49.544 60.7519C48.98 59.8959 48.388 59.0159 48.132 58.6559C48.132 58.6239 48.064 58.6559 48.084 58.6839C48.624 59.3919 50.396 62.4959 50.824 63.2839C51.2367 64.0623 51.4497 64.931 51.444 65.8119C51.4335 66.7253 51.3153 67.6342 51.092 68.5199C51.068 68.5919 51.144 68.6319 51.172 68.5599C51.4327 67.9201 51.6023 67.2469 51.676 66.5599C51.7784 65.8558 51.7527 65.1389 51.6 64.4439V64.4439Z" fill="#1C2B46"/>
<path d="M41.012 58.2559C41.012 58.2559 39.412 56.4839 40.72 55.4959C42.028 54.5079 43.3 56.5159 43.3 56.5159L41.012 58.2559Z" fill="#455A64"/>
<path d="M53.3915 69.7639L53.7915 72.0639L53.9235 72.8199L53.2235 72.4959L51.1115 71.5079L40.9675 58.1839L43.2555 56.4439L53.3995 69.7679L53.3915 69.7639Z" fill="#455A64"/>
<path d="M53.7838 72.0639L53.9158 72.8199L53.2158 72.4959L53.7838 72.0639Z" fill="#49556B"/>
<path d="M43.3787 56.2254L40.7087 58.2586L41.111 58.7868L43.781 56.7536L43.3787 56.2254Z" fill="#1C2B46"/>
<path d="M43.8244 56.8106L41.1544 58.8438L41.5567 59.3721L44.2267 57.3389L43.8244 56.8106Z" fill="#1C2B46"/>
<path d="M41.5598 59.3719L42.4198 58.7159L45.6158 63.8959L45.2838 64.1199L41.5598 59.3719Z" fill="#1C2B46"/>
<path d="M31.5998 54.7998C25.1998 62.7998 18.2278 76.1078 21.7158 78.6398C24.9158 80.9478 35.8238 77.8878 42.6118 74.7358C43.9038 74.1358 37.8118 62.7358 36.4998 63.5358C35.1221 64.3773 33.6926 65.1308 32.2198 65.7918C31.8438 65.9198 33.7798 63.2358 35.7278 56.9478C37.7118 50.5398 35.2678 50.1958 31.5998 54.7998Z" fill="#D3766A"/>
<path d="M53.3598 61.5999C53.4518 62.9599 50.0758 62.8999 50.0758 62.8999C50.5864 63.1933 50.9784 63.656 51.1838 64.2079C51.4998 65.1959 50.0878 66.1239 50.0878 66.1239C50.5531 66.5387 50.8833 67.0835 51.0358 67.6879C51.2438 68.6639 49.9518 69.8039 49.9518 69.8039C50.1706 70.4204 50.1593 71.0952 49.9198 71.7039C49.2198 73.3039 46.5358 73.4999 44.8998 73.9519C43.0721 74.4917 41.2905 75.1766 39.5718 75.9999L35.7318 63.9559C35.7318 63.9559 42.6558 59.2439 44.6718 59.2159C46.3718 59.1999 53.2198 59.5159 53.3598 61.5999Z" fill="#D3766A"/>
<path d="M50.0441 62.86C48.2361 62.46 46.3281 62.46 44.4921 62.528C44.4836 62.528 44.4755 62.5313 44.4695 62.5373C44.4635 62.5433 44.4601 62.5515 44.4601 62.56C44.4601 62.5685 44.4635 62.5766 44.4695 62.5826C44.4755 62.5886 44.4836 62.592 44.4921 62.592C46.3201 62.524 48.2121 62.944 50.0361 62.948C50.0419 62.9485 50.0477 62.9479 50.0532 62.9461C50.0588 62.9444 50.0639 62.9416 50.0684 62.9379C50.0728 62.9342 50.0765 62.9296 50.0792 62.9245C50.0819 62.9194 50.0836 62.9137 50.0841 62.908C50.0846 62.9022 50.084 62.8964 50.0823 62.8908C50.0805 62.8853 50.0777 62.8801 50.074 62.8757C50.0703 62.8712 50.0658 62.8675 50.0606 62.8648C50.0555 62.8621 50.0499 62.8605 50.0441 62.86Z" fill="#1C2B46"/>
<path d="M50.0318 65.9999C49.611 65.9439 49.1846 65.9439 48.7638 65.9999C48.3158 66.0359 47.8718 66.0759 47.4238 66.1239C46.5318 66.2199 45.6398 66.3399 44.7558 66.4799C44.7158 66.4799 44.7158 66.5479 44.7558 66.5439C45.6478 66.4519 46.5398 66.3679 47.4318 66.3119C47.8798 66.2839 48.3278 66.2559 48.7718 66.2359C49.1963 66.2422 49.6201 66.202 50.0358 66.1159C50.0467 66.1104 50.0558 66.1019 50.062 66.0914C50.0682 66.0809 50.0712 66.0688 50.0708 66.0567C50.0704 66.0445 50.0665 66.0326 50.0596 66.0226C50.0527 66.0125 50.0431 66.0047 50.0318 65.9999V65.9999Z" fill="#1C2B46"/>
<path d="M49.9158 69.7998C49.5347 69.7586 49.1493 69.7816 48.7758 69.8678L47.5758 70.0198C46.7758 70.1158 45.9478 70.2118 45.1318 70.2798C45.0918 70.2798 45.0958 70.3478 45.1318 70.3438C45.9598 70.2798 46.7918 70.2238 47.6198 70.1518C48.0198 70.1198 48.4198 70.0798 48.8198 70.0398C49.1942 70.04 49.5656 69.9722 49.9158 69.8398C49.9191 69.8376 49.9218 69.8346 49.9237 69.8311C49.9255 69.8276 49.9265 69.8237 49.9265 69.8198C49.9265 69.8158 49.9255 69.8119 49.9237 69.8084C49.9218 69.8049 49.9191 69.802 49.9158 69.7998V69.7998Z" fill="#1C2B46"/>
<path d="M33.5121 64.9238L26.5681 60.5238C26.5681 60.5238 30.2761 55.2998 33.0561 52.5798C35.8361 49.8598 37.8001 49.9798 36.4481 55.4638C35.6631 58.674 34.6826 61.8332 33.5121 64.9238V64.9238Z" fill="#3A8DFE"/>
<path d="M27.7276 59.5998C28.7596 60.1331 29.7783 60.6864 30.7836 61.2598C31.2796 61.5438 31.7796 61.8238 32.2676 62.1198C32.7556 62.4158 33.2596 62.7598 33.7636 63.0638C33.7996 63.0878 33.7636 63.1438 33.7356 63.1238C33.2356 62.8478 32.7156 62.6078 32.2156 62.3238C31.7156 62.0398 31.1916 61.7438 30.6836 61.4478C29.6756 60.8718 28.6836 60.2678 27.7036 59.6398C27.6756 59.5998 27.6996 59.5678 27.7276 59.5998Z" fill="#1C2B46"/>
<path d="M33.5116 64.9598C33.8436 63.7918 34.3116 62.6718 34.7116 61.5238C35.1116 60.3758 35.5116 59.2078 35.8476 58.0438C35.846 58.0402 35.8453 58.0362 35.8457 58.0322C35.846 58.0283 35.8473 58.0244 35.8495 58.0211C35.8517 58.0178 35.8547 58.015 35.8582 58.0131C35.8617 58.0112 35.8656 58.0103 35.8696 58.0103C35.8736 58.0103 35.8775 58.0112 35.881 58.0131C35.8845 58.015 35.8875 58.0178 35.8897 58.0211C35.8918 58.0244 35.8932 58.0283 35.8935 58.0322C35.8938 58.0362 35.8932 58.0402 35.8916 58.0438C35.7476 58.6318 35.6156 59.2438 35.4516 59.8118C35.3716 60.0998 35.2796 60.3918 35.1876 60.6758C35.2476 60.5718 35.3036 60.4678 35.3676 60.3638C35.5627 60.0571 35.7736 59.7607 35.9996 59.4758C35.9996 59.4758 36.0356 59.4758 36.0276 59.4958C35.8695 59.8234 35.6946 60.1424 35.5036 60.4518C35.3676 60.6758 35.2156 60.8918 35.0716 61.1118L34.8996 61.5998C34.5622 62.7619 34.119 63.8907 33.5756 64.9718C33.5556 65.0118 33.5036 64.9958 33.5116 64.9598Z" fill="#1C2B46"/>
<path d="M31.9476 65.8721C30.1756 66.7921 28.1716 68.1561 27.1476 69.2361C27.1156 69.2681 27.1476 69.3201 27.1876 69.2921C28.2116 68.4921 31.2516 66.6361 32.0356 66.1121C32.2796 65.9481 32.4556 65.6001 31.9476 65.8721Z" fill="#1C2B46"/>
<path d="M63.0998 76.2198L48.9558 76.5238L55.1718 58.2358L69.3158 57.9318L63.0998 76.2198Z" fill="#EBEBEB"/>
<path d="M64.068 76.1999L49.924 76.4999L56.14 58.2159L70.284 57.9119L64.068 76.1999Z" fill="#49556B"/>
<path d="M57.6438 58.1839C57.5527 58.5025 57.3401 58.7725 57.0518 58.9359C56.9198 59.0119 56.8798 58.8359 57.0118 58.7639C57.1952 58.657 57.3364 58.4904 57.4118 58.2919C57.4118 58.2559 57.4358 58.2199 57.4438 58.1879C57.4735 58.0752 57.4735 57.9567 57.4438 57.8439C57.4325 57.7945 57.4042 57.7506 57.3638 57.7199V57.7199H57.3358C57.3043 57.7123 57.2714 57.7123 57.2398 57.7199C57.1785 57.7423 57.1235 57.7794 57.0798 57.8279C57.0249 57.8855 56.9778 57.95 56.9398 58.0199L56.8798 58.1239V58.1479C56.8783 58.1599 56.8783 58.172 56.8798 58.1839C56.8785 58.1932 56.8785 58.2026 56.8798 58.2119H56.6798C56.7243 58.0852 56.7862 57.9654 56.8638 57.8559C56.9219 57.7612 56.9999 57.6802 57.0925 57.6187C57.1851 57.5572 57.29 57.5167 57.3998 57.4999C57.4797 57.4975 57.5576 57.5254 57.6177 57.5781C57.6778 57.6308 57.7157 57.7044 57.7238 57.7839C57.7306 57.9218 57.7031 58.0592 57.6438 58.1839V58.1839Z" fill="#C7C7C7"/>
<path d="M58.7518 58.1599C58.6607 58.4785 58.4481 58.7485 58.1598 58.9119C58.0278 58.9879 57.9878 58.8119 58.1198 58.7399C58.3022 58.6317 58.443 58.4656 58.5198 58.2679C58.5328 58.2344 58.5422 58.1995 58.5478 58.1639C58.5794 58.0514 58.5794 57.9324 58.5478 57.8199C58.5348 57.7702 58.5052 57.7264 58.4638 57.6959V57.6959H58.4358C58.4032 57.6863 58.3684 57.6863 58.3358 57.6959C58.2744 57.7183 58.2195 57.7554 58.1758 57.8039C58.1014 57.8963 58.0358 57.9954 57.9798 58.0999V58.1239C57.9788 58.1372 57.9788 58.1506 57.9798 58.1639C57.9781 58.1718 57.9781 58.18 57.9798 58.1879H57.7798C57.8242 58.0613 57.8862 57.9414 57.9638 57.8319C58.0219 57.7372 58.0999 57.6562 58.1925 57.5947C58.2851 57.5332 58.3899 57.4927 58.4998 57.4759C58.5795 57.4726 58.6575 57.5003 58.7171 57.5533C58.7768 57.6063 58.8136 57.6803 58.8198 57.7599C58.8319 57.8969 58.8085 58.0346 58.7518 58.1599Z" fill="#C7C7C7"/>
<path d="M59.8557 58.1359C59.8127 58.2941 59.7385 58.442 59.6375 58.5712C59.5366 58.7003 59.4109 58.808 59.2678 58.8879C59.1358 58.9639 59.0958 58.7879 59.2238 58.7159C59.4067 58.6085 59.5478 58.442 59.6237 58.2439C59.6237 58.2119 59.6438 58.1759 59.6518 58.1399C59.6834 58.0274 59.6834 57.9084 59.6518 57.7959C59.6388 57.7462 59.6091 57.7024 59.5678 57.6719V57.6719C59.5585 57.674 59.549 57.674 59.5398 57.6719C59.5071 57.6622 59.4724 57.6622 59.4398 57.6719C59.3784 57.6943 59.3235 57.7314 59.2798 57.7799C59.227 57.8383 59.1813 57.9027 59.1438 57.9719C59.1214 58.0052 59.1014 58.0399 59.0838 58.0759V58.1039C59.0823 58.1159 59.0823 58.128 59.0838 58.1399C59.0838 58.1399 59.0838 58.1399 59.0838 58.1639H58.8798C58.9259 58.038 58.9878 57.9184 59.0638 57.8079C59.1236 57.7147 59.2021 57.6349 59.2944 57.5736C59.3866 57.5124 59.4906 57.4709 59.5998 57.4519C59.6799 57.4485 59.7583 57.4761 59.8186 57.529C59.879 57.5819 59.9166 57.656 59.9237 57.7359C59.9343 57.8728 59.9109 58.0102 59.8557 58.1359V58.1359Z" fill="#C7C7C7"/>
<path d="M60.964 58.1121C60.9209 58.2702 60.8468 58.4182 60.7458 58.5473C60.6448 58.6765 60.5191 58.7841 60.376 58.8641C60.24 58.9401 60.2 58.7641 60.332 58.6921C60.5154 58.5851 60.6566 58.4185 60.732 58.2201C60.7445 58.1873 60.7552 58.154 60.764 58.1201C60.7957 58.0062 60.7957 57.8859 60.764 57.7721C60.7527 57.7226 60.7244 57.6787 60.684 57.6481C60.684 57.6481 60.684 57.6481 60.684 57.6481H60.64C60.6074 57.6382 60.5726 57.6382 60.54 57.6481C60.479 57.6712 60.4242 57.7081 60.38 57.7561C60.3259 57.8134 60.2801 57.878 60.244 57.9481C60.2208 57.9822 60.2007 58.0184 60.184 58.0561V58.0801C60.1827 58.092 60.1827 58.1041 60.184 58.1161C60.184 58.1161 60.184 58.1161 60.184 58.1401H59.984C60.0301 58.0154 60.092 57.8971 60.168 57.7881C60.2261 57.6929 60.304 57.6115 60.3966 57.5493C60.4891 57.4872 60.594 57.4458 60.704 57.4281C60.7842 57.4247 60.8625 57.4523 60.9229 57.5052C60.9832 57.5581 61.0209 57.6322 61.028 57.7121C61.0398 57.8486 61.0178 57.986 60.964 58.1121Z" fill="#C7C7C7"/>
<path d="M62.0717 58.0921C61.9805 58.4106 61.7679 58.6807 61.4797 58.8441C61.3477 58.9161 61.3077 58.7401 61.4397 58.6721C61.6223 58.5624 61.7631 58.3949 61.8397 58.1961C61.8521 58.1634 61.8628 58.13 61.8717 58.0961C61.9013 57.982 61.9013 57.8622 61.8717 57.7481C61.8612 57.6994 61.8326 57.6565 61.7917 57.6281H61.7637C61.7324 57.6183 61.6989 57.6183 61.6677 57.6281C61.6067 57.6512 61.5519 57.6881 61.5077 57.7361C61.4537 57.7944 61.4067 57.8588 61.3677 57.9281L61.3077 58.0361V58.0601C61.3062 58.072 61.3062 58.0841 61.3077 58.0961C61.3077 58.0961 61.3077 58.0961 61.3077 58.1201H61.1077C61.1522 57.9947 61.2141 57.8762 61.2917 57.7681C61.3511 57.6741 61.4294 57.5936 61.5217 57.5316C61.614 57.4696 61.7182 57.4275 61.8277 57.4081C61.9076 57.4056 61.9855 57.4336 62.0456 57.4863C62.1057 57.539 62.1436 57.6125 62.1517 57.6921C62.1578 57.8299 62.1303 57.9672 62.0717 58.0921V58.0921Z" fill="#C7C7C7"/>
<path d="M63.1994 58.0678C63.1072 58.3858 62.8949 58.6554 62.6074 58.8198C62.4754 58.8918 62.4354 58.7158 62.5674 58.6478C62.7509 58.5391 62.892 58.3712 62.9674 58.1718C62.9805 58.1396 62.9899 58.106 62.9954 58.0718C63.027 57.9579 63.027 57.8376 62.9954 57.7238C62.9833 57.6758 62.9551 57.6334 62.9154 57.6038V57.6038H62.8874C62.8548 57.5941 62.8201 57.5941 62.7874 57.6038C62.727 57.6278 62.6724 57.6647 62.6274 57.7118C62.5747 57.7702 62.529 57.8346 62.4914 57.9038C62.4691 57.9384 62.449 57.9745 62.4314 58.0118V58.0358C62.4299 58.0477 62.4299 58.0598 62.4314 58.0718C62.4297 58.0797 62.4297 58.0879 62.4314 58.0958H62.2314C62.2759 57.9704 62.3379 57.8519 62.4154 57.7438C62.4749 57.6498 62.5532 57.5693 62.6455 57.5073C62.7378 57.4453 62.842 57.4033 62.9514 57.3838C63.0312 57.3804 63.1091 57.4082 63.1688 57.4612C63.2285 57.5141 63.2653 57.5882 63.2714 57.6678C63.2823 57.8051 63.2575 57.9429 63.1994 58.0678Z" fill="#C7C7C7"/>
<path d="M64.284 58.0439C64.1946 58.3622 63.9834 58.6324 63.696 58.7959C63.564 58.8679 63.524 58.6959 63.656 58.6239C63.7643 58.564 63.8585 58.4816 63.9323 58.3822C64.0062 58.2829 64.0579 58.1689 64.084 58.0479C64.1156 57.9341 64.1156 57.8138 64.084 57.6999C64.0722 57.6507 64.0422 57.6079 64 57.5799H63.972C63.9394 57.5703 63.9047 57.5703 63.872 57.5799C63.8115 57.604 63.757 57.6408 63.712 57.6879C63.6592 57.7463 63.6136 57.8108 63.576 57.8799C63.552 57.9159 63.536 57.9519 63.516 57.9879V58.0119C63.5145 58.0239 63.5145 58.036 63.516 58.0479C63.516 58.0479 63.516 58.0479 63.516 58.0719H63.312C63.3581 57.9472 63.42 57.829 63.496 57.7199C63.5545 57.6255 63.6327 57.5449 63.7252 57.4834C63.8177 57.422 63.9223 57.3812 64.032 57.3639C64.1116 57.3605 64.1894 57.3875 64.2496 57.4396C64.3099 57.4916 64.3479 57.5647 64.356 57.6439C64.3646 57.7811 64.3399 57.9184 64.284 58.0439V58.0439Z" fill="#C7C7C7"/>
<path d="M65.3914 58.02C65.3477 58.1779 65.2733 58.3256 65.1724 58.4547C65.0715 58.5837 64.9461 58.6915 64.8034 58.772C64.6674 58.848 64.6274 58.672 64.7594 58.6C64.9437 58.4923 65.0851 58.3241 65.1594 58.124C65.1719 58.0913 65.1826 58.0579 65.1914 58.024C65.2231 57.9102 65.2231 57.7898 65.1914 57.676C65.1799 57.6278 65.1515 57.5852 65.1114 57.556V57.556H65.0874C65.0551 57.5444 65.0197 57.5444 64.9874 57.556C64.925 57.5762 64.8695 57.6137 64.8274 57.664C64.7726 57.7192 64.7267 57.7827 64.6914 57.852C64.6674 57.888 64.6514 57.924 64.6314 57.96V57.984L64.6114 58.02C64.6114 58.02 64.6114 58.02 64.6114 58.044H64.3994C64.4455 57.9193 64.5074 57.8011 64.5834 57.692C64.6415 57.5973 64.7195 57.5163 64.8121 57.4548C64.9047 57.3934 65.0096 57.3528 65.1194 57.336C65.199 57.3325 65.2768 57.3596 65.337 57.4117C65.3973 57.4637 65.4353 57.5368 65.4434 57.616C65.459 57.7529 65.4412 57.8915 65.3914 58.02V58.02Z" fill="#C7C7C7"/>
<path d="M66.4998 57.9999C66.4098 58.3191 66.1969 58.5895 65.9078 58.7519C65.7758 58.8279 65.7358 58.6519 65.8678 58.5799C66.0521 58.4722 66.1934 58.304 66.2678 58.1039C66.2802 58.0712 66.2909 58.0378 66.2998 58.0039C66.3294 57.8912 66.3294 57.7727 66.2998 57.6599C66.2885 57.6105 66.2602 57.5666 66.2198 57.5359V57.5359H66.1918C66.1608 57.5242 66.1267 57.5242 66.0958 57.5359C66.0333 57.5561 65.9778 57.5935 65.9358 57.6439C65.8798 57.7006 65.8326 57.7653 65.7958 57.8359C65.7958 57.8679 65.7598 57.9039 65.7358 57.9399V57.9639C65.7343 57.9759 65.7343 57.988 65.7358 57.9999C65.7358 57.9999 65.7358 57.9999 65.7358 58.0239H65.5358C65.5811 57.8989 65.643 57.7805 65.7198 57.6719C65.7778 57.5772 65.8559 57.4962 65.9485 57.4347C66.041 57.3732 66.1459 57.3327 66.2558 57.3159C66.3353 57.3124 66.4132 57.3395 66.4734 57.3916C66.5336 57.4436 66.5717 57.5167 66.5798 57.5959C66.5865 57.7351 66.5591 57.8738 66.4998 57.9999V57.9999Z" fill="#C7C7C7"/>
<path d="M67.5997 57.9719C67.5086 58.2905 67.296 58.5605 67.0077 58.7239C66.8757 58.7999 66.8357 58.6239 66.9677 58.5519C67.1512 58.4432 67.2923 58.2754 67.3677 58.0759C67.3802 58.0432 67.3909 58.0098 67.3997 57.9759C67.4294 57.8632 67.4294 57.7447 67.3997 57.6319C67.3868 57.5832 67.3588 57.5398 67.3197 57.5079V57.5079H67.2917C67.2591 57.4985 67.2244 57.4985 67.1917 57.5079C67.1304 57.5303 67.0755 57.5674 67.0317 57.6159C66.9772 57.6729 66.9314 57.7376 66.8957 57.8079C66.8734 57.8412 66.8534 57.8759 66.8357 57.9119V57.9359C66.8342 57.9479 66.8342 57.96 66.8357 57.9719C66.834 57.9798 66.834 57.988 66.8357 57.9959H66.6357C66.6811 57.8709 66.743 57.7525 66.8197 57.6439C66.8778 57.5492 66.9559 57.4682 67.0484 57.4067C67.141 57.3452 67.2459 57.3047 67.3557 57.2879C67.4348 57.2845 67.5122 57.3117 67.5718 57.3638C67.6314 57.416 67.6686 57.4891 67.6757 57.5679C67.686 57.7069 67.6598 57.8462 67.5997 57.9719V57.9719Z" fill="#C7C7C7"/>
<path d="M68.7114 57.948C68.6677 58.1059 68.5933 58.2536 68.4924 58.3826C68.3915 58.5117 68.2661 58.6195 68.1234 58.7C67.9914 58.776 67.9514 58.6 68.0834 58.528C68.1917 58.468 68.2859 58.3856 68.3597 58.2863C68.4335 58.1869 68.4853 58.073 68.5114 57.952C68.543 57.8395 68.543 57.7205 68.5114 57.608C68.4985 57.5582 68.4688 57.5145 68.4274 57.484V57.484H68.3994C68.3668 57.4743 68.332 57.4743 68.2994 57.484C68.2381 57.5064 68.1831 57.5435 68.1394 57.592C68.0849 57.6489 68.039 57.7136 68.0034 57.784C67.9811 57.8172 67.961 57.852 67.9434 57.888V57.912C67.9419 57.9239 67.9419 57.936 67.9434 57.948C67.9434 57.948 67.9434 57.948 67.9434 57.972H67.7434C67.7862 57.8446 67.8483 57.7246 67.9274 57.616C67.9849 57.5215 68.0622 57.4407 68.1541 57.3792C68.246 57.3178 68.3502 57.2771 68.4594 57.26C68.5389 57.2565 68.6168 57.2836 68.677 57.3356C68.7373 57.3877 68.7753 57.4608 68.7834 57.54C68.7975 57.68 68.7725 57.8212 68.7114 57.948V57.948Z" fill="#C7C7C7"/>
<path d="M69.8196 57.9241C69.7759 58.082 69.7015 58.2297 69.6006 58.3587C69.4997 58.4878 69.3743 58.5956 69.2316 58.6761C69.0956 58.7521 69.0556 58.5761 69.1876 58.5041C69.371 58.3971 69.5121 58.2305 69.5876 58.0321C69.5876 57.9961 69.6116 57.9601 69.6196 57.9281C69.6492 57.8153 69.6492 57.6968 69.6196 57.5841C69.605 57.5351 69.5757 57.4918 69.5356 57.4601V57.4601H69.5156H69.4916C69.4587 57.4523 69.4244 57.4523 69.3916 57.4601C69.3302 57.4825 69.2753 57.5196 69.2316 57.5681C69.1766 57.6247 69.1308 57.6895 69.0956 57.7601C69.0732 57.7933 69.0532 57.8281 69.0356 57.8641V57.8881C69.0341 57.9 69.0341 57.9121 69.0356 57.9241C69.034 57.9334 69.034 57.9428 69.0356 57.9521H68.7996C68.8457 57.8262 68.9076 57.7066 68.9836 57.5961C69.0416 57.5013 69.1197 57.4204 69.2123 57.3589C69.3048 57.2974 69.4097 57.2569 69.5196 57.2401C69.5997 57.2367 69.6781 57.2643 69.7384 57.3172C69.7988 57.3701 69.8364 57.4442 69.8436 57.5241C69.8681 57.6574 69.8599 57.7947 69.8196 57.9241Z" fill="#C7C7C7"/>
<path d="M69.3798 62.0479C70.0478 63.6119 71.8038 65.5919 71.9078 66.8479C71.9423 67.1579 71.8766 67.4707 71.7204 67.7406C71.5642 68.0106 71.3257 68.2234 71.0398 68.3479C71.0398 68.3479 72.2678 69.0199 72.1718 70.1759C72.1198 70.7759 71.1238 71.2199 71.1238 71.2199C71.3905 71.3882 71.606 71.6263 71.747 71.9083C71.888 72.1904 71.9491 72.5056 71.9238 72.8199C71.8038 73.6199 70.8238 73.9599 70.8238 73.9599C70.8238 73.9599 71.4838 74.9479 71.0958 75.7399C70.2958 77.3399 63.2318 77.0679 62.2398 74.4199C61.7798 73.1839 63.5038 73.3439 63.5038 73.3439C63.5038 73.3439 61.0798 72.5119 61.1038 71.0519C61.1278 69.5919 63.3518 69.9399 63.3518 69.9399C63.3518 69.9399 61.0198 69.1199 61.1998 67.5999C61.3798 66.0239 63.5518 66.7519 63.5518 66.7519C63.5518 66.7519 62.0198 65.6239 62.4158 64.4959C63.0758 62.6359 65.9598 65.1239 67.5318 64.8159L68.4918 62.2839L69.3798 62.0479Z" fill="#D3766A"/>
<path d="M70.7077 64.3359C70.2037 62.7999 72.1517 61.0039 71.8837 59.4679C71.5197 57.3879 69.1158 59.3159 68.4838 62.2919L68.3958 64.6919L70.7077 64.3359Z" fill="#D3766A"/>
<path d="M70.6879 74.0398C70.6932 74.0398 70.6983 74.0419 70.7021 74.0457C70.7058 74.0494 70.7079 74.0545 70.7079 74.0598C70.7079 74.0651 70.7058 74.0702 70.7021 74.0739C70.6983 74.0777 70.6932 74.0798 70.6879 74.0798C68.2466 74.5823 65.7102 74.3298 63.4159 73.3558C63.3439 73.3238 63.3679 73.1918 63.4519 73.2118C65.8107 73.8387 68.2485 74.1177 70.6879 74.0398V74.0398Z" fill="#1C2B46"/>
<path d="M71.1594 71.24C71.1874 71.24 71.1874 71.284 71.1594 71.288C68.4628 71.8156 65.6665 71.3616 63.2754 70.008C63.1914 69.956 63.1674 69.832 63.2754 69.88C64.9314 70.724 68.8714 71.344 71.1594 71.24Z" fill="#1C2B46"/>
<path d="M63.4 66.5998C65.752 67.9038 68.284 68.3198 70.944 68.3758C70.976 68.3758 70.972 68.4238 70.944 68.4318C69.636 68.7598 67.944 68.5478 66.64 68.2718C65.4246 68.0338 64.2925 67.4822 63.356 66.6718C63.32 66.6518 63.352 66.5718 63.4 66.5998Z" fill="#1C2B46"/>
<path d="M36.8998 49.9519C36.9998 50.3799 40.0998 53.0919 42.0718 52.9999C42.7078 52.9719 41.6118 49.5599 41.6118 49.5599L41.6718 49.3039L42.4718 45.7039L38.2518 42.9879L37.6398 42.6279C37.6398 42.6279 37.4838 43.6279 37.3038 44.8719C37.3038 44.9279 37.3038 44.9879 37.2758 45.0479C37.2478 45.1079 37.2518 45.1839 37.2438 45.2519C37.2118 45.4359 37.1838 45.6279 37.1598 45.8159C37.1358 46.0039 37.1198 46.0999 37.1038 46.2519C37.0878 46.4039 37.0678 46.5519 37.0478 46.7039C36.9235 47.7819 36.874 48.8671 36.8998 49.9519V49.9519Z" fill="#D3766A"/>
<path d="M37.3118 44.8719C37.6738 45.8826 38.2512 46.8024 39.004 47.5677C39.7569 48.333 40.6672 48.9254 41.6718 49.3039L42.4718 45.7039L38.2518 42.9879L37.6398 42.6279C37.6398 42.6279 37.4918 43.6279 37.3118 44.8719Z" fill="#1C2B46"/>
<path d="M48.0321 41.2C47.5481 47.652 43.6321 48.092 42.2361 48C40.9761 47.904 36.6881 47.416 36.5001 40.948C36.3121 34.48 39.4681 32.664 42.3681 32.732C45.2681 32.8 48.5121 34.744 48.0321 41.2Z" fill="#D3766A"/>
<path d="M36.6717 40.4998C38.1877 40.7598 38.5677 38.3598 38.5677 38.3598C38.5677 38.3598 40.3197 38.4798 40.8997 35.7158C41.1445 36.3299 41.5284 36.8789 42.0211 37.3196C42.5139 37.7603 43.1022 38.0808 43.7397 38.2558C44.2237 38.4078 42.7717 36.8558 42.7717 36.8558C42.7717 36.8558 44.4677 38.9798 48.2717 38.8958C48.5397 38.8958 48.6157 34.8958 45.9357 33.1038C43.2557 31.3118 40.5197 31.6358 38.4317 33.1718C37.878 33.3566 37.3783 33.6747 36.9765 34.0981C36.5747 34.5215 36.2832 35.0372 36.1277 35.5998C35.5637 37.5998 36.0797 40.3998 36.6717 40.4998Z" fill="#1C2B46"/>
<path d="M37.6 41.072C37.6 41.072 36.52 38.852 35.536 39.2C34.552 39.548 35.136 42.612 36.124 43.2C36.2473 43.2816 36.3858 43.3375 36.5312 43.3642C36.6766 43.3909 36.826 43.388 36.9702 43.3554C37.1145 43.3229 37.2507 43.2616 37.3706 43.175C37.4905 43.0885 37.5917 42.9786 37.668 42.852L37.6 41.072Z" fill="#D3766A"/>
<path d="M35.7201 40.0718C35.7201 40.0718 35.6961 40.0718 35.7201 40.0998C36.4161 40.5238 36.6961 41.2758 36.8521 42.0398C36.8215 41.958 36.7734 41.8839 36.7111 41.8226C36.6489 41.7613 36.574 41.7144 36.4917 41.6851C36.4094 41.6557 36.3217 41.6447 36.2348 41.6528C36.1478 41.6609 36.0636 41.6879 35.9881 41.7318C35.9641 41.7318 35.9881 41.7758 35.9881 41.7718C36.1262 41.752 36.2671 41.7752 36.3916 41.8381C36.5161 41.9011 36.6183 42.0008 36.6841 42.1238C36.7904 42.3305 36.8749 42.5477 36.9361 42.7718C36.9601 42.8438 37.0881 42.8278 37.0721 42.7478V42.7278C37.2481 41.7838 36.7241 40.3358 35.7201 40.0718Z" fill="#1C2B46"/>
<path d="M46.9 39.928C46.752 39.888 46.62 39.828 46.5 39.776C46.3443 39.7437 46.2036 39.6607 46.1 39.54C46.0749 39.4955 46.0652 39.4438 46.0724 39.3932C46.0796 39.3426 46.1034 39.2957 46.14 39.26C46.2227 39.2009 46.3197 39.165 46.4209 39.1559C46.5222 39.1467 46.624 39.1647 46.716 39.208C46.9163 39.2665 47.0875 39.3977 47.196 39.576C47.2215 39.6195 47.2329 39.6698 47.2287 39.72C47.2245 39.7703 47.2048 39.818 47.1723 39.8565C47.1399 39.8951 47.0963 39.9227 47.0475 39.9355C46.9987 39.9483 46.9472 39.9457 46.9 39.928Z" fill="#1C2B46"/>
<path d="M42.7678 39.3079C42.9121 39.3061 43.0563 39.2968 43.1998 39.2799C43.3578 39.2913 43.5151 39.2506 43.6478 39.1639C43.6844 39.1282 43.7081 39.0814 43.7154 39.0307C43.7226 38.9801 43.7129 38.9285 43.6878 38.8839C43.6248 38.8036 43.5416 38.7417 43.4466 38.7044C43.3517 38.6671 43.2485 38.6559 43.1478 38.6719C42.9401 38.6724 42.7402 38.751 42.5878 38.8919C42.5533 38.9265 42.5301 38.9706 42.521 39.0186C42.5119 39.0666 42.5174 39.1161 42.5368 39.1609C42.5562 39.2057 42.5885 39.2437 42.6297 39.2699C42.6709 39.2961 42.719 39.3093 42.7678 39.3079V39.3079Z" fill="#1C2B46"/>
<path d="M43.4561 41.0599C43.4561 41.0399 43.4201 41.0599 43.4161 41.0919C43.3801 41.5319 43.2641 42.0279 42.8481 42.1279V42.1519C43.3401 42.1399 43.4921 41.4799 43.4561 41.0599Z" fill="#1C2B46"/>
<path d="M43.1197 40.5559C42.4197 40.4199 42.1997 41.8239 42.8477 41.9519C43.4957 42.0799 43.7037 40.6719 43.1197 40.5559Z" fill="#1C2B46"/>
<path d="M42.8316 40.5878C42.6956 40.6478 42.5516 40.7678 42.4036 40.7598C42.2556 40.7518 42.1236 40.5798 42.0356 40.4238C42.0356 40.4238 42.0116 40.4238 42.0076 40.4238C41.9596 40.6917 42.0076 40.9837 42.3036 41.0677C42.5996 41.1517 42.7876 40.9397 42.8956 40.6678C42.9156 40.6438 42.8876 40.5638 42.8316 40.5878Z" fill="#1C2B46"/>
<path d="M45.8275 41.408C45.8275 41.408 45.8555 41.432 45.8555 41.448C45.7675 41.884 45.7435 42.392 46.1115 42.6C46.1115 42.6 46.1115 42.628 46.1115 42.624C45.6355 42.48 45.6755 41.8 45.8275 41.408Z" fill="#1C2B46"/>
<path d="M46.2915 41.016C46.9995 41.08 46.8195 42.492 46.1635 42.432C45.5075 42.372 45.6955 40.964 46.2915 41.016Z" fill="#1C2B46"/>
<path d="M46.5721 41.148C46.6761 41.236 46.7681 41.384 46.9001 41.412C47.0321 41.44 47.1881 41.3 47.3001 41.168C47.3001 41.168 47.3241 41.168 47.3001 41.168C47.2721 41.44 47.1481 41.712 46.9001 41.728C46.6521 41.744 46.5001 41.492 46.5001 41.216C46.4841 41.2 46.5321 41.112 46.5721 41.148Z" fill="#1C2B46"/>
<path d="M42.9201 44.576C43.0001 44.696 43.0761 44.856 43.2281 44.9C43.389 44.9334 43.5551 44.9334 43.7161 44.9C43.7161 44.9 43.7401 44.9 43.7161 44.928C43.6364 44.9993 43.5392 45.048 43.4344 45.0691C43.3296 45.0902 43.2211 45.0829 43.1201 45.048C43.0361 45.0075 42.966 44.9429 42.919 44.8624C42.8719 44.7818 42.85 44.6891 42.8561 44.596C42.8721 44.56 42.9081 44.556 42.9201 44.576Z" fill="#1C2B46"/>
<path d="M44.556 44.0639C44.3679 44.2612 44.1324 44.4071 43.872 44.4879C43.7303 44.5337 43.5778 44.5337 43.436 44.4879C43.132 44.3719 43.152 44.0879 43.236 43.8439C43.2818 43.7173 43.3422 43.5964 43.416 43.4839C43.7245 43.7937 44.124 43.9969 44.556 44.0639Z" fill="#1C2B46"/>
<path d="M43.872 44.4878C43.7303 44.5337 43.5778 44.5337 43.436 44.4878C43.132 44.3718 43.152 44.0878 43.236 43.8438C43.3981 43.8663 43.5483 43.9416 43.6632 44.058C43.7782 44.1744 43.8516 44.3255 43.872 44.4878V44.4878Z" fill="#FF9CBD"/>
<path d="M47.9278 34.7999C47.1838 34.6239 43.0478 34.7439 41.1878 35.5439C39.3278 36.3439 36.0278 39.0199 35.8598 39.1439C35.6918 39.2679 34.8398 32.4639 40.3678 31.2199C46.3998 29.8879 47.9278 34.7999 47.9278 34.7999Z" fill="#3A8DFE"/>
<path d="M36.176 38.8879C36.176 38.8879 39.832 34.0879 41.864 32.9639C43.896 31.8399 48.444 31.2399 51.256 32.4799C53.452 33.4439 48.096 36.2679 48.096 36.2679C48.0468 36.0353 47.9437 35.8176 47.795 35.6321C47.6464 35.4466 47.4563 35.2986 47.24 35.1999C45.872 34.6559 43.272 35.0759 41.788 35.5719C39.924 36.2079 36.176 38.8879 36.176 38.8879Z" fill="#3A8DFE"/>
<path opacity="0.2" d="M36.176 38.8879C36.176 38.8879 39.832 34.0879 41.864 32.9639C43.896 31.8399 48.444 31.2399 51.256 32.4799C53.452 33.4439 48.096 36.2679 48.096 36.2679C48.0468 36.0353 47.9437 35.8176 47.795 35.6321C47.6464 35.4466 47.4563 35.2986 47.24 35.1999C45.872 34.6559 43.272 35.0759 41.788 35.5719C39.924 36.2079 36.176 38.8879 36.176 38.8879Z" fill="#151520"/>
<path d="M41.5994 49.5519L40.7274 52.5079L36.8434 49.2439L35.9514 50.4919C35.9514 50.4919 39.9514 55.8919 39.9514 55.6279L40.8914 53.0639L42.7474 54.6119L42.2034 50.3359L41.5994 49.5519Z" fill="#3A8DFE"/>
<path d="M42.6198 52.4799C42.5038 51.7799 42.4118 51.0679 42.2638 50.3719C42.2638 50.3479 42.2198 50.3399 42.2158 50.3719C42.1398 51.0679 42.5878 53.7559 42.6478 54.4039C42.5678 54.3359 40.9318 53.0519 40.9198 53.0759C40.7038 53.4759 40.0118 55.3599 39.9678 55.5279C39.3318 54.6679 36.9198 51.5639 36.1918 50.7639C36.188 50.7586 36.1824 50.755 36.176 50.7539C36.1696 50.7528 36.1631 50.7542 36.1578 50.7579C36.1524 50.7616 36.1488 50.7673 36.1477 50.7737C36.1466 50.7801 36.148 50.7866 36.1518 50.7919C36.7278 51.7079 39.9278 55.8959 39.9678 55.8799C40.3416 54.9937 40.6688 54.0884 40.9478 53.1679C41.2318 53.4559 42.8998 54.9239 42.8958 54.8159C42.8518 54.0919 42.7318 53.1999 42.6198 52.4799Z" fill="#1C2B46"/>
</svg>
