<svg width="200" height="200" viewBox="0 0 200 200" fill="none" xmlns="http://www.w3.org/2000/svg">
<path d="M52.7837 189.188C68.822 189.188 81.8236 187.327 81.8236 185.032C81.8236 182.737 68.822 180.876 52.7837 180.876C36.7453 180.876 23.7437 182.737 23.7437 185.032C23.7437 187.327 36.7453 189.188 52.7837 189.188Z" fill="#EBEBEB"/>
<path d="M158.464 140.492C155.504 134.408 150.324 131.292 144.464 133.008C138.604 134.724 137.72 142.876 142.064 144.932C146.408 146.988 150.78 140.988 153.084 139.752C155.388 138.516 158.464 140.492 158.464 140.492Z" fill="#3A8DFE"/>
<path d="M161.332 156.692C161.332 155.96 161.288 155.224 161.26 154.492C161.208 153.028 161.16 151.564 161.108 150.092C161.008 147.416 160.708 144.784 159.608 142.316C158.628 140.077 156.991 138.19 154.912 136.904C154.142 136.437 153.312 136.078 152.444 135.836C151.66 135.033 150.657 134.477 149.56 134.236C148.209 133.961 146.82 133.926 145.456 134.132C145.404 134.132 145.408 134.216 145.456 134.208C146.758 134.043 148.079 134.137 149.344 134.484C149.885 134.636 150.409 134.841 150.908 135.096C151.223 135.265 151.525 135.456 151.812 135.668C150.634 135.424 149.417 135.437 148.244 135.704C147.822 135.803 147.409 135.937 147.008 136.104C146.688 136.035 146.36 136.006 146.032 136.02C145.606 136.036 145.182 136.096 144.768 136.2C143.924 136.438 143.116 136.792 142.368 137.252C142.324 137.276 142.368 137.34 142.408 137.316C143.145 136.914 143.934 136.617 144.752 136.432C145.147 136.343 145.549 136.285 145.952 136.256C146.176 136.244 146.401 136.244 146.624 136.256C144.96 137.024 143.622 138.358 142.848 140.02C142.828 140.064 142.896 140.104 142.916 140.056C143.376 139.095 144.047 138.249 144.878 137.582C145.708 136.914 146.679 136.442 147.716 136.2C147.844 136.168 147.976 136.152 148.116 136.124C148.072 136.312 148.08 136.524 148.056 136.712C148.016 137.008 147.968 137.304 147.908 137.596C147.786 138.2 147.627 138.795 147.432 139.38C147.235 139.97 146.998 140.546 146.724 141.104C146.464 141.698 146.132 142.258 145.736 142.772C145.732 142.776 145.728 142.781 145.726 142.787C145.724 142.792 145.723 142.798 145.723 142.804C145.723 142.81 145.725 142.816 145.728 142.822C145.731 142.827 145.735 142.831 145.74 142.835C145.745 142.838 145.751 142.841 145.757 142.841C145.763 142.842 145.769 142.842 145.775 142.84C145.781 142.838 145.786 142.835 145.79 142.831C145.795 142.827 145.798 142.822 145.8 142.816C146.148 142.268 146.556 141.76 146.876 141.192C147.187 140.647 147.455 140.079 147.676 139.492C147.901 138.9 148.075 138.29 148.196 137.668C148.264 137.34 148.312 137.008 148.352 136.676C148.39 136.477 148.402 136.274 148.388 136.072C149.074 135.969 149.771 135.955 150.46 136.032C150.204 137.484 149.924 138.996 149.112 140.256C149.084 140.3 149.156 140.34 149.18 140.292C149.561 139.624 149.895 138.93 150.18 138.216C150.45 137.523 150.619 136.796 150.684 136.056C151.89 136.217 153.053 136.607 154.112 137.204C156.106 138.365 157.698 140.107 158.676 142.196C159.706 144.448 160.281 146.881 160.368 149.356C160.56 152.464 160.6 155.596 160.912 158.696C160.932 158.9 161.252 158.968 161.312 158.736C161.381 158.057 161.388 157.373 161.332 156.692Z" fill="#1C2B46"/>
<path d="M154.489 136.42C154.294 136.183 154.068 135.973 153.817 135.796C153.573 135.596 153.325 135.396 153.065 135.228C152.552 134.871 151.985 134.601 151.385 134.428C151.337 134.428 151.317 134.496 151.385 134.504C151.987 134.653 152.552 134.926 153.045 135.304C153.293 135.488 153.529 135.68 153.761 135.884C153.966 136.099 154.194 136.293 154.441 136.46C154.465 136.516 154.521 136.464 154.489 136.42Z" fill="#1C2B46"/>
<path d="M145.04 138.624C144.551 139.194 144.097 139.794 143.68 140.42C143.278 141.051 142.94 141.721 142.672 142.42C142.672 142.44 142.696 142.452 142.708 142.42C143.39 141.095 144.194 139.836 145.108 138.66C145.128 138.64 145.072 138.588 145.04 138.624Z" fill="#1C2B46"/>
<path d="M151.408 138.024C151.346 138.404 151.234 138.773 151.076 139.124C150.913 139.463 150.724 139.789 150.512 140.1C150.512 140.12 150.512 140.14 150.544 140.124C151.056 139.537 151.383 138.812 151.484 138.04C151.492 138 151.416 137.972 151.408 138.024Z" fill="#1C2B46"/>
<path d="M160.92 140.644C160.92 140.644 165.112 135.372 173.2 137.24C180.892 139.016 184.44 153.12 176.672 154.804C168.904 156.488 170.272 143.444 167.436 141.228C165.36 139.6 162.372 139.952 160.92 140.644Z" fill="#3A8DFE"/>
<path d="M179.452 144.944C178.924 144.481 178.367 144.054 177.784 143.664C177.235 143.289 176.637 142.99 176.008 142.776C175.692 142.297 175.339 141.844 174.952 141.42C174.238 140.654 173.414 139.997 172.508 139.472H172.748C173.176 139.45 173.604 139.45 174.032 139.472C174.896 139.527 175.743 139.737 176.532 140.092C176.576 140.092 176.608 140.04 176.564 140.024C175.765 139.678 174.929 139.426 174.072 139.272C173.655 139.198 173.232 139.162 172.808 139.164C172.581 139.165 172.354 139.178 172.128 139.204H171.996C171.254 138.83 170.472 138.543 169.664 138.348L169.892 138.284C170.288 138.198 170.689 138.133 171.092 138.088C171.898 137.996 172.713 138.008 173.516 138.124C173.524 138.121 173.531 138.116 173.536 138.109C173.541 138.102 173.544 138.094 173.544 138.086C173.544 138.077 173.541 138.069 173.536 138.062C173.531 138.056 173.524 138.05 173.516 138.048C172.704 137.952 171.885 137.92 171.068 137.952C170.382 137.971 169.7 138.059 169.032 138.216C168.546 138.126 168.054 138.07 167.56 138.048C164.736 137.928 161.66 138.98 159.924 141.3C158.188 143.62 157.848 146.716 157.524 149.516C157.05 153.419 156.947 157.358 157.216 161.28C157.216 161.508 157.56 161.468 157.564 161.248C157.672 157.924 157.788 154.596 158.108 151.284C158.256 149.748 158.416 148.208 158.672 146.688C158.859 145.379 159.235 144.105 159.788 142.904C160.389 141.677 161.339 140.655 162.52 139.968C163.704 139.286 165.026 138.876 166.388 138.768C167.608 138.666 168.836 138.781 170.016 139.108C169.974 139.344 169.967 139.586 169.996 139.824C170.024 140.124 170.084 140.421 170.176 140.708C170.262 140.985 170.374 141.253 170.512 141.508C170.664 141.784 170.852 142.032 171.02 142.308C171.044 142.348 171.112 142.308 171.08 142.264C170.748 141.787 170.533 141.239 170.452 140.664C170.404 140.391 170.372 140.116 170.356 139.84C170.356 139.632 170.356 139.42 170.356 139.212C171.639 139.607 172.837 140.239 173.888 141.076C174.084 141.236 174.288 141.4 174.46 141.572C174.194 141.821 173.962 142.105 173.772 142.416C173.495 142.821 173.254 143.249 173.052 143.696C172.681 144.592 172.429 145.534 172.304 146.496C172.304 146.544 172.376 146.56 172.38 146.496C172.531 145.561 172.844 144.659 173.304 143.832C173.517 143.417 173.756 143.016 174.02 142.632C174.156 142.44 174.296 142.232 174.444 142.06C174.524 141.96 174.612 141.856 174.684 141.748C175.636 142.68 176.414 143.774 176.98 144.98C176.594 145.401 176.276 145.88 176.04 146.4C175.75 146.915 175.498 147.449 175.284 148C174.893 149.077 174.57 150.178 174.316 151.296C174.316 151.344 174.384 151.36 174.392 151.296C174.64 150.169 175.025 149.077 175.54 148.044C175.784 147.54 176.04 147.04 176.308 146.548C176.587 146.09 176.841 145.617 177.068 145.132C177.607 146.313 177.92 147.584 177.992 148.88C177.992 148.928 178.072 148.924 178.068 148.88C177.919 146.847 177.297 144.878 176.252 143.128C176.748 143.34 177.244 143.528 177.72 143.8C178.328 144.128 178.893 144.531 179.4 145C179.436 145.036 179.488 144.976 179.452 144.944Z" fill="#1C2B46"/>
<path d="M173.516 145.24C173.276 146.04 172.968 146.816 172.748 147.64C172.53 148.408 172.413 149.202 172.4 150C172.4 150.024 172.436 150.024 172.44 150C172.66 148.385 173.049 146.798 173.6 145.264C173.602 145.258 173.602 145.253 173.602 145.247C173.601 145.241 173.599 145.236 173.597 145.231C173.594 145.226 173.59 145.221 173.586 145.218C173.581 145.214 173.576 145.212 173.57 145.21C173.565 145.208 173.559 145.208 173.553 145.209C173.548 145.209 173.542 145.211 173.537 145.214C173.532 145.217 173.528 145.22 173.524 145.225C173.521 145.229 173.518 145.234 173.516 145.24Z" fill="#1C2B46"/>
<path d="M178.644 143.26C178.327 142.954 177.965 142.696 177.572 142.496C177.172 142.314 176.758 142.167 176.332 142.056C176.284 142.056 176.268 142.12 176.332 142.132C176.753 142.239 177.157 142.405 177.532 142.624C177.915 142.822 178.282 143.048 178.632 143.3C178.636 143.299 178.64 143.297 178.643 143.294C178.646 143.291 178.649 143.288 178.65 143.283C178.651 143.279 178.651 143.275 178.65 143.271C178.649 143.267 178.647 143.263 178.644 143.26Z" fill="#1C2B46"/>
<path d="M164.905 133.6C164.905 133.6 165.677 124.136 172.713 121.068C178.589 118.508 181.953 125.108 177.801 129.152C174.441 132.424 169.053 130.948 164.905 133.6Z" fill="#3A8DFE"/>
<path d="M176.5 122.904C175.429 123.338 174.383 123.833 173.368 124.388C172.527 124.871 171.716 125.405 170.94 125.988C171.056 125.748 171.156 125.5 171.276 125.264C171.46 124.9 171.656 124.54 171.872 124.196C172.305 123.479 172.827 122.819 173.424 122.232C173.46 122.2 173.4 122.144 173.368 122.18C172.772 122.767 172.227 123.402 171.736 124.08C171.494 124.423 171.271 124.78 171.068 125.148C170.861 125.489 170.701 125.856 170.592 126.24L170.516 126.296C169.288 127.275 168.162 128.377 167.156 129.584C167.176 129.492 167.192 129.4 167.22 129.312C167.352 128.852 167.492 128.392 167.644 127.936C167.949 126.965 168.376 126.038 168.916 125.176C168.944 125.136 168.876 125.096 168.848 125.14C168.296 126.002 167.804 126.902 167.376 127.832C167.18 128.286 167.017 128.754 166.888 129.232C166.787 129.543 166.71 129.861 166.66 130.184C166.352 130.584 166.052 130.964 165.768 131.384C162.748 135.684 161.232 140.884 160.868 146.092C160.762 147.643 160.735 149.198 160.788 150.752C160.795 152.32 160.929 153.885 161.188 155.432C161.208 155.532 161.36 155.5 161.36 155.404C161.324 154.036 161.184 152.676 161.156 151.308C161.13 149.936 161.174 148.563 161.288 147.196C161.509 144.464 162.024 141.765 162.824 139.144C163.642 136.458 164.846 133.906 166.4 131.568C166.696 131.508 166.992 131.428 167.284 131.352C167.576 131.276 167.988 131.172 168.336 131.076C169.012 130.901 169.668 130.66 170.296 130.356C170.301 130.353 170.304 130.35 170.307 130.346C170.31 130.342 170.312 130.337 170.313 130.332C170.314 130.328 170.314 130.323 170.314 130.318C170.313 130.313 170.311 130.308 170.308 130.304C170.306 130.3 170.302 130.296 170.298 130.293C170.294 130.29 170.29 130.288 170.285 130.287C170.28 130.286 170.275 130.286 170.27 130.287C170.265 130.288 170.261 130.289 170.256 130.292C169.633 130.63 168.957 130.861 168.256 130.976C167.704 131.088 167.132 131.156 166.58 131.284C167.092 130.54 167.636 129.82 168.216 129.132C169.557 129.253 170.908 129.153 172.216 128.836C172.912 128.667 173.596 128.454 174.264 128.196C174.972 127.924 175.636 127.576 176.332 127.284C176.341 127.28 176.348 127.272 176.352 127.263C176.355 127.253 176.355 127.243 176.35 127.234C176.346 127.225 176.338 127.218 176.329 127.215C176.32 127.211 176.309 127.212 176.3 127.216C175.041 127.903 173.666 128.353 172.244 128.544C170.989 128.746 169.72 128.85 168.448 128.856C168.948 128.284 169.464 127.724 170.016 127.2C171.864 125.44 174.06 123.824 176.492 122.98C176.568 122.964 176.544 122.888 176.5 122.904Z" fill="#1C2B46"/>
<path d="M170.773 122.936C170.454 123.334 170.166 123.755 169.909 124.196C169.646 124.66 169.438 125.152 169.289 125.664C169.289 125.664 169.289 125.692 169.317 125.664C169.553 125.2 169.749 124.716 169.989 124.256C170.221 123.8 170.503 123.371 170.829 122.976C170.861 122.948 170.801 122.896 170.773 122.936Z" fill="#1C2B46"/>
<path d="M177.316 126.084C176.859 126.338 176.375 126.541 175.872 126.688C175.391 126.849 174.901 126.982 174.404 127.088C174.38 127.088 174.384 127.132 174.404 127.128C174.923 127.073 175.434 126.962 175.928 126.796C176.415 126.61 176.89 126.397 177.352 126.156C177.4 126.128 177.36 126.06 177.316 126.084Z" fill="#1C2B46"/>
<path d="M159.432 131.904C159.388 132.304 158.368 128.464 152.416 125.052C147.016 121.952 140.564 113.888 145.864 108.792C150.14 104.68 161.408 113.644 159.432 131.904Z" fill="#3A8DFE"/>
<path d="M163.528 153.948C163.441 149.951 163.126 145.961 162.584 142C162.114 138.354 161.271 134.766 160.068 131.292C159.628 130.04 159.12 128.812 158.572 127.6C158.602 127.128 158.594 126.655 158.548 126.184C158.52 125.576 158.464 124.984 158.408 124.368C158.352 123.752 158.292 123.168 158.22 122.556C158.148 121.944 158.02 121.356 157.996 120.752C157.998 120.746 157.999 120.74 157.998 120.733C157.997 120.727 157.994 120.721 157.991 120.716C157.987 120.711 157.982 120.707 157.977 120.704C157.971 120.701 157.965 120.699 157.958 120.699C157.952 120.699 157.946 120.701 157.94 120.704C157.935 120.707 157.93 120.711 157.926 120.716C157.922 120.721 157.92 120.727 157.919 120.733C157.918 120.74 157.918 120.746 157.92 120.752C158.039 121.384 158.11 122.025 158.132 122.668C158.18 123.252 158.212 123.836 158.228 124.42C158.248 125.008 158.228 125.592 158.228 126.18C158.228 126.388 158.228 126.612 158.208 126.84C157.652 125.64 157.052 124.492 156.4 123.36C156.8 120.892 156.28 118.312 155.776 115.9C155.776 115.852 155.692 115.876 155.704 115.924C155.954 117.184 156.088 118.464 156.104 119.748C156.128 120.76 156.08 121.772 156.076 122.784C155.932 122.544 155.792 122.3 155.644 122.06C154.872 120.8 154.044 119.564 153.172 118.368C153.244 117.783 153.225 117.191 153.116 116.612C153.018 115.961 152.874 115.318 152.684 114.688C152.492 114.06 152.284 113.44 152.024 112.832C151.764 112.224 151.424 111.612 151.176 110.988C151.152 110.932 151.076 110.988 151.104 111.016C151.422 111.608 151.672 112.235 151.848 112.884C152.047 113.491 152.21 114.11 152.336 114.736C152.464 115.36 152.564 115.988 152.652 116.624C152.712 117.024 152.748 117.476 152.82 117.896C151.547 116.185 150.155 114.565 148.656 113.048C148.62 113.012 148.568 113.068 148.6 113.104C150.869 115.654 152.895 118.41 154.652 121.336L154.84 121.664C154.512 121.46 154.136 121.296 153.828 121.124L152.096 120.172L150.408 119.252C150.12 119.092 149.836 118.924 149.54 118.772C149.189 118.615 148.852 118.429 148.532 118.216C148.524 118.21 148.514 118.208 148.505 118.209C148.495 118.211 148.486 118.216 148.48 118.224C148.475 118.232 148.472 118.242 148.474 118.252C148.475 118.261 148.48 118.27 148.488 118.276C149.06 118.592 149.568 119.076 150.12 119.412C150.672 119.748 151.24 120.108 151.82 120.432C152.876 121.02 154.024 121.444 155.068 122.056C155.788 123.32 156.455 124.615 157.068 125.94C156.436 125.54 155.792 125.14 155.136 124.78C154.716 124.544 154.292 124.312 153.864 124.088C153.439 123.891 153.037 123.648 152.664 123.364C152.657 123.36 152.648 123.359 152.64 123.361C152.631 123.362 152.624 123.367 152.618 123.373C152.612 123.379 152.608 123.387 152.607 123.396C152.606 123.404 152.608 123.413 152.612 123.42C153.305 124.047 154.074 124.584 154.9 125.02C155.664 125.468 156.436 125.9 157.232 126.288C157.867 127.685 158.44 129.105 158.952 130.548C161.456 137.64 162.376 145.168 162.816 152.644C162.948 154.872 163.016 157.1 163.044 159.332C163.072 161.564 162.952 163.788 162.956 166.016C162.956 166.08 163.064 166.096 163.076 166.016C163.344 164.04 163.388 162.016 163.476 160.04C163.564 158.064 163.572 155.976 163.528 153.948Z" fill="#1C2B46"/>
<path d="M152.716 121.844C151.631 121.366 150.575 120.82 149.556 120.212C148.523 119.628 147.52 118.991 146.552 118.304C146.552 118.304 146.52 118.304 146.532 118.332C147.447 119.064 148.411 119.732 149.416 120.332C150.471 120.921 151.561 121.443 152.68 121.896C152.728 121.932 152.764 121.864 152.716 121.844Z" fill="#1C2B46"/>
<path d="M154.441 113.828C154.353 113.484 154.245 113.144 154.129 112.808C154.132 112.802 154.134 112.795 154.134 112.788C154.134 112.781 154.132 112.774 154.129 112.768C154.052 112.576 153.972 112.368 153.896 112.196L153.868 112.124C153.868 112.088 153.836 112.052 153.824 112.016C153.812 111.98 153.8 112.016 153.804 112.016C153.808 112.016 153.84 112.148 153.86 112.212C153.869 112.248 153.88 112.284 153.892 112.32C154.287 113.643 154.582 114.993 154.777 116.36C154.777 116.404 154.849 116.404 154.845 116.36C154.789 115.505 154.654 114.657 154.441 113.828Z" fill="#1C2B46"/>
<path d="M169.816 155.388L169.392 160.42L168.092 175.768H154.168L152.868 160.42L152.444 155.388H169.816Z" fill="#49556B"/>
<path d="M169.816 155.388L169.392 160.42H152.868L152.444 155.388H169.816Z" fill="#1C2B46"/>
<path d="M171.18 153.368H151.076V158.196H171.18V153.368Z" fill="#49556B"/>
<path d="M18.9761 175.768L39.2321 175.672L59.4881 175.636L100 175.568L140.512 175.632L160.768 175.668L181.024 175.768L160.768 175.864L140.512 175.9L100 175.968L59.4881 175.9L39.2321 175.864L18.9761 175.768Z" fill="#1C2B46"/>
<path d="M133.804 22.628H66.2041C65.2954 22.6338 64.3968 22.8188 63.5598 23.1726C62.7228 23.5264 61.9638 24.042 61.3265 24.6897C60.6892 25.3374 60.186 26.1046 59.8458 26.9472C59.5056 27.7898 59.3351 28.6913 59.3441 29.6V168.8C59.3281 170.631 60.0401 172.394 61.3235 173.701C62.6069 175.008 64.3566 175.751 66.1881 175.768H133.788C134.697 175.762 135.595 175.576 136.432 175.223C137.269 174.869 138.028 174.354 138.666 173.707C139.304 173.06 139.808 172.294 140.149 171.452C140.491 170.61 140.663 169.709 140.656 168.8V29.6C140.664 28.6923 140.493 27.7919 140.153 26.9503C139.813 26.1087 139.31 25.3423 138.674 24.6948C138.038 24.0474 137.28 23.5317 136.445 23.177C135.609 22.8224 134.712 22.6359 133.804 22.628ZM136.376 164.496C136.376 168.16 133.632 171.124 130.248 171.124H69.7561C66.3641 171.124 63.6201 168.16 63.6201 164.496V34.872C63.6201 27.408 66.3641 27.044 69.7561 27.044H81.8721C82.5761 27.044 83.1521 27.844 83.1521 28.836V29.264C83.1521 31.6 84.4241 31.6 86.0001 31.6H114C115.572 31.6 116.836 31.6 116.836 29.268V28.836C116.836 27.844 117.4 27.044 118.116 27.044H130.236C133.62 27.044 136.364 28.036 136.364 34.872L136.376 164.496Z" fill="#1C2B46"/>
<path d="M103.82 28.692H96.1761C96.1141 28.692 96.0527 28.6798 95.9955 28.6561C95.9382 28.6323 95.8862 28.5976 95.8424 28.5538C95.7985 28.5099 95.7638 28.4579 95.74 28.4006C95.7163 28.3434 95.7041 28.282 95.7041 28.22C95.7041 28.0948 95.7538 27.9748 95.8424 27.8862C95.9309 27.7977 96.0509 27.748 96.1761 27.748H103.82C103.945 27.748 104.065 27.7977 104.154 27.8862C104.242 27.9748 104.292 28.0948 104.292 28.22C104.292 28.282 104.28 28.3434 104.256 28.4006C104.232 28.4579 104.198 28.5099 104.154 28.5538C104.11 28.5976 104.058 28.6323 104.001 28.6561C103.943 28.6798 103.882 28.692 103.82 28.692Z" fill="white"/>
<path d="M136.401 34.8722V164.496C136.401 168.16 133.657 171.124 130.273 171.124H69.7566C66.3646 171.124 63.6206 168.16 63.6206 164.496V34.8722C63.6206 27.4082 66.3646 27.0442 69.7566 27.0442H81.8726C82.5766 27.0442 83.1526 27.8442 83.1526 28.8362V29.2642C83.1526 31.6002 84.4246 31.6002 86.0006 31.6002H114.001C115.577 31.6002 116.837 31.6002 116.837 29.2682V28.8362C116.837 27.8442 117.405 27.0442 118.121 27.0442H130.241C133.637 27.0442 136.401 28.0362 136.401 34.8722Z" fill="white"/>
<path d="M70.9836 39.8201L68.8315 37.8081L70.9836 35.7921L71.3156 36.1481L69.5475 37.8081L71.3156 39.4681L70.9836 39.8201Z" fill="#C7C7C7"/>
<path d="M130.744 36.552C130.744 36.6359 130.719 36.7178 130.673 36.7876C130.626 36.8573 130.56 36.9116 130.482 36.9437C130.405 36.9758 130.32 36.9842 130.237 36.9679C130.155 36.9515 130.079 36.9111 130.02 36.8518C129.961 36.7925 129.921 36.717 129.904 36.6347C129.888 36.5525 129.896 36.4672 129.928 36.3898C129.96 36.3123 130.015 36.2461 130.084 36.1995C130.154 36.1529 130.236 36.128 130.32 36.128C130.376 36.1275 130.431 36.1381 130.483 36.1592C130.535 36.1803 130.582 36.2115 130.621 36.251C130.66 36.2905 130.692 36.3374 130.713 36.3891C130.734 36.4408 130.745 36.4962 130.744 36.552Z" fill="#C7C7C7"/>
<path d="M130.744 38.0559C130.744 38.1397 130.719 38.2217 130.673 38.2914C130.626 38.3611 130.56 38.4155 130.482 38.4476C130.405 38.4797 130.32 38.4881 130.237 38.4717C130.155 38.4553 130.079 38.415 130.02 38.3557C129.961 38.2964 129.921 38.2208 129.904 38.1386C129.888 38.0563 129.896 37.9711 129.928 37.8936C129.96 37.8161 130.015 37.7499 130.084 37.7033C130.154 37.6567 130.236 37.6319 130.32 37.6319C130.376 37.6313 130.431 37.6419 130.483 37.663C130.535 37.6842 130.582 37.7154 130.621 37.7549C130.66 37.7943 130.692 37.8413 130.713 37.893C130.734 37.9446 130.745 38 130.744 38.0559Z" fill="#C7C7C7"/>
<path d="M130.744 39.56C130.744 39.6439 130.719 39.7258 130.673 39.7956C130.626 39.8653 130.56 39.9196 130.482 39.9517C130.405 39.9838 130.32 39.9922 130.237 39.9759C130.155 39.9595 130.079 39.9191 130.02 39.8598C129.961 39.8005 129.921 39.725 129.904 39.6427C129.888 39.5605 129.896 39.4752 129.928 39.3977C129.96 39.3203 130.015 39.2541 130.084 39.2075C130.154 39.1609 130.236 39.136 130.32 39.136C130.376 39.1355 130.431 39.1461 130.483 39.1672C130.535 39.1883 130.582 39.2195 130.621 39.259C130.66 39.2985 130.692 39.3454 130.713 39.3971C130.734 39.4488 130.745 39.5042 130.744 39.56Z" fill="#C7C7C7"/>
<path d="M79.7797 29.956L79.6637 30.072L79.5957 30.136C79.2959 29.838 78.8904 29.6707 78.4677 29.6707C78.045 29.6707 77.6395 29.838 77.3397 30.136L77.2757 30.068L77.1597 29.952L77.3077 29.82C77.415 29.7369 77.5302 29.6645 77.6517 29.604C77.7955 29.5314 77.9491 29.4802 78.1077 29.452C78.1817 29.4371 78.2565 29.4264 78.3317 29.42H78.5317H78.6837C78.827 29.4372 78.968 29.4707 79.1037 29.52C79.2003 29.5566 79.2939 29.6007 79.3837 29.652C79.4786 29.7064 79.5683 29.7693 79.6517 29.84L79.7757 29.952L79.7797 29.956Z" fill="#C7C7C7"/>
<path d="M77.7114 30.504L77.5234 30.32C77.7744 30.0708 78.1138 29.931 78.4674 29.931C78.8211 29.931 79.1604 30.0708 79.4114 30.32L79.2234 30.504C79.0226 30.3042 78.7508 30.192 78.4674 30.192C78.1841 30.192 77.9123 30.3042 77.7114 30.504Z" fill="#C7C7C7"/>
<path d="M79.0401 30.692L78.8561 30.872C78.8033 30.8203 78.7407 30.7795 78.6721 30.752C78.6034 30.7245 78.53 30.7109 78.4561 30.712C78.3817 30.7106 78.3079 30.7244 78.2391 30.7526C78.1703 30.7808 78.108 30.8228 78.0561 30.876C77.9961 30.812 77.9321 30.752 77.8721 30.692C77.9469 30.6121 78.0373 30.5484 78.1378 30.5048C78.2383 30.4612 78.3466 30.4388 78.4561 30.4388C78.5656 30.4388 78.6739 30.4612 78.7743 30.5048C78.8748 30.5484 78.9652 30.6121 79.0401 30.692Z" fill="#C7C7C7"/>
<path d="M78.6358 31.0402C78.6358 31.0847 78.6181 31.1275 78.5866 31.159C78.555 31.1905 78.5123 31.2082 78.4678 31.2082C78.4459 31.2082 78.4242 31.2038 78.4041 31.1953C78.3839 31.1868 78.3656 31.1744 78.3504 31.1587C78.3351 31.1431 78.3231 31.1245 78.3151 31.1042C78.3071 31.0838 78.3032 31.062 78.3038 31.0402C78.3038 30.9967 78.321 30.955 78.3518 30.9242C78.3825 30.8935 78.4243 30.8762 78.4678 30.8762C78.4896 30.8756 78.5114 30.8795 78.5317 30.8875C78.5521 30.8955 78.5707 30.9075 78.5863 30.9228C78.602 30.9381 78.6144 30.9563 78.6229 30.9765C78.6314 30.9966 78.6358 31.0183 78.6358 31.0402Z" fill="#C7C7C7"/>
<path d="M68.3643 30.3079C68.3643 30.212 68.3928 30.1182 68.4461 30.0386C68.4995 29.9589 68.5753 29.8969 68.664 29.8603C68.7527 29.8238 68.8502 29.8145 68.9442 29.8335C69.0382 29.8525 69.1244 29.899 69.1919 29.9671C69.2595 30.0352 69.3053 30.1218 69.3235 30.2159C69.3417 30.3101 69.3315 30.4075 69.2943 30.4959C69.257 30.5842 69.1944 30.6595 69.1143 30.7122C69.0341 30.7649 68.9402 30.7927 68.8443 30.7919C68.7809 30.7919 68.7182 30.7793 68.6597 30.7549C68.6012 30.7306 68.5481 30.6949 68.5034 30.6499C68.4588 30.6049 68.4235 30.5515 68.3997 30.4928C68.3758 30.4341 68.3637 30.3712 68.3643 30.3079Z" fill="#C7C7C7"/>
<path d="M69.8804 30.3079C69.882 30.2125 69.9117 30.1197 69.9659 30.0412C70.02 29.9627 70.0961 29.9019 70.1847 29.8665C70.2733 29.8311 70.3703 29.8226 70.4637 29.8422C70.557 29.8618 70.6425 29.9085 70.7094 29.9765C70.7763 30.0445 70.8216 30.1307 70.8396 30.2244C70.8577 30.318 70.8476 30.4149 70.8108 30.5029C70.7739 30.5909 70.7119 30.666 70.6325 30.7189C70.5531 30.7717 70.4598 30.7999 70.3644 30.7999C70.3002 30.7999 70.2366 30.7871 70.1774 30.7623C70.1181 30.7375 70.0644 30.7011 70.0193 30.6553C69.9743 30.6095 69.9388 30.5552 69.915 30.4956C69.8911 30.4359 69.8794 30.3721 69.8804 30.3079Z" fill="#C7C7C7"/>
<path d="M71.4 30.308C71.4015 30.2126 71.4313 30.1199 71.4854 30.0413C71.5395 29.9628 71.6157 29.902 71.7042 29.8666C71.7928 29.8312 71.8898 29.8227 71.9832 29.8423C72.0765 29.8619 72.162 29.9086 72.2289 29.9766C72.2958 30.0446 72.3411 30.1308 72.3592 30.2245C72.3772 30.3181 72.3672 30.415 72.3303 30.503C72.2934 30.591 72.2314 30.6661 72.152 30.719C72.0726 30.7718 71.9793 30.8 71.884 30.8C71.8197 30.8 71.7561 30.7872 71.6969 30.7624C71.6376 30.7376 71.5839 30.7012 71.5389 30.6554C71.4938 30.6096 71.4583 30.5553 71.4345 30.4957C71.4106 30.436 71.3989 30.3722 71.4 30.308Z" fill="#C7C7C7"/>
<path d="M72.9201 30.308C72.9217 30.2125 72.9515 30.1195 73.0058 30.0409C73.0601 29.9623 73.1365 29.9015 73.2253 29.8662C73.3141 29.831 73.4113 29.8227 73.5048 29.8426C73.5982 29.8625 73.6837 29.9096 73.7504 29.978C73.8172 30.0464 73.8621 30.1331 73.8797 30.227C73.8973 30.3209 73.8867 30.4179 73.8492 30.5058C73.8118 30.5937 73.7491 30.6686 73.6692 30.7209C73.5893 30.7733 73.4956 30.8008 73.4001 30.8C73.336 30.8 73.2726 30.7872 73.2136 30.7624C73.1545 30.7375 73.1011 30.7011 73.0563 30.6552C73.0116 30.6094 72.9765 30.555 72.9531 30.4954C72.9297 30.4358 72.9185 30.3721 72.9201 30.308Z" fill="#C7C7C7"/>
<path d="M74.4401 30.308C74.4417 30.2125 74.4715 30.1195 74.5258 30.0409C74.5801 29.9623 74.6565 29.9015 74.7453 29.8662C74.8341 29.831 74.9313 29.8227 75.0248 29.8426C75.1182 29.8625 75.2037 29.9096 75.2705 29.978C75.3372 30.0464 75.3822 30.1331 75.3997 30.227C75.4173 30.3209 75.4067 30.4179 75.3692 30.5058C75.3318 30.5937 75.2691 30.6686 75.1892 30.7209C75.1093 30.7733 75.0156 30.8008 74.9201 30.8C74.856 30.8 74.7926 30.7872 74.7336 30.7624C74.6745 30.7375 74.6211 30.7011 74.5764 30.6552C74.5316 30.6094 74.4965 30.555 74.4731 30.4954C74.4497 30.4358 74.4385 30.3721 74.4401 30.308Z" fill="#C7C7C7"/>
<path d="M130.924 31.364H126.992V29.54H130.924V31.364ZM127.2 31.16H130.72V29.744H127.2V31.16Z" fill="#C7C7C7"/>
<path d="M129.852 29.852H127.32V31.052H129.852V29.852Z" fill="#C7C7C7"/>
<path d="M131.272 29.9641H130.924V30.9361H131.272V29.9641Z" fill="#C7C7C7"/>
<path d="M74.6764 163.2H74.1204V165.74H73.0884V164.444H71.2564V165.74H70.2244V163.2H69.6724L72.1724 160.612L74.6764 163.2Z" fill="#EBEBEB"/>
<path d="M130.332 160.612H124.3V161.472H130.332V160.612Z" fill="#EBEBEB"/>
<path d="M130.332 162.744H124.3V163.604H130.332V162.744Z" fill="#EBEBEB"/>
<path d="M130.332 164.876H124.3V165.736H130.332V164.876Z" fill="#EBEBEB"/>
<path d="M101.716 162.832L100 164.664L98.2842 162.832L98.5882 162.552L100 164.056L101.412 162.552L101.716 162.832Z" fill="#EBEBEB"/>
<path d="M100 166.556C99.384 166.556 98.7815 166.373 98.2691 166.031C97.7567 165.688 97.3573 165.202 97.1215 164.632C96.8856 164.063 96.8239 163.437 96.9442 162.832C97.0644 162.228 97.3612 161.672 97.7969 161.237C98.2327 160.801 98.7879 160.504 99.3924 160.384C99.9968 160.264 100.623 160.325 101.193 160.561C101.762 160.797 102.249 161.196 102.591 161.709C102.934 162.221 103.116 162.824 103.116 163.44C103.114 164.266 102.785 165.057 102.201 165.641C101.617 166.225 100.826 166.554 100 166.556ZM100 160.736C99.4655 160.736 98.9427 160.895 98.498 161.192C98.0533 161.489 97.7068 161.911 97.5021 162.405C97.2975 162.899 97.2439 163.443 97.3482 163.968C97.4526 164.492 97.7101 164.974 98.0883 165.352C98.4664 165.73 98.9482 165.988 99.4728 166.092C99.9973 166.196 100.541 166.143 101.035 165.938C101.529 165.733 101.951 165.387 102.249 164.942C102.546 164.498 102.704 163.975 102.704 163.44C102.704 162.723 102.419 162.035 101.912 161.528C101.405 161.021 100.717 160.736 100 160.736Z" fill="#EBEBEB"/>
<path d="M95.3481 152.244C95.3481 152.45 95.2871 152.651 95.1728 152.822C95.0585 152.993 94.8961 153.126 94.7061 153.205C94.516 153.284 94.3069 153.304 94.1052 153.264C93.9034 153.224 93.7181 153.125 93.5727 152.979C93.4272 152.834 93.3282 152.649 93.288 152.447C93.2479 152.245 93.2685 152.036 93.3472 151.846C93.426 151.656 93.5592 151.494 93.7303 151.379C93.9013 151.265 94.1024 151.204 94.3081 151.204C94.4448 151.203 94.5803 151.23 94.7067 151.282C94.8331 151.334 94.948 151.411 95.0446 151.507C95.1413 151.604 95.2179 151.719 95.27 151.845C95.3221 151.972 95.3486 152.107 95.3481 152.244Z" fill="#DBDBDB"/>
<path d="M101.688 152.244C101.688 152.556 101.596 152.86 101.423 153.12C101.249 153.379 101.003 153.581 100.715 153.7C100.427 153.819 100.11 153.851 99.8047 153.79C99.499 153.729 99.2181 153.579 98.9977 153.358C98.7773 153.138 98.6272 152.857 98.5664 152.551C98.5056 152.246 98.5368 151.929 98.6561 151.641C98.7754 151.353 98.9774 151.107 99.2366 150.934C99.4957 150.76 99.8004 150.668 100.112 150.668C100.53 150.668 100.931 150.834 101.227 151.13C101.522 151.425 101.688 151.826 101.688 152.244Z" fill="#3A8DFE"/>
<path d="M106.956 152.244C106.956 152.45 106.895 152.651 106.781 152.822C106.666 152.993 106.504 153.126 106.314 153.205C106.124 153.284 105.915 153.304 105.713 153.264C105.511 153.224 105.326 153.125 105.181 152.979C105.035 152.834 104.936 152.649 104.896 152.447C104.856 152.245 104.876 152.036 104.955 151.846C105.034 151.656 105.167 151.494 105.338 151.379C105.509 151.265 105.71 151.204 105.916 151.204C106.053 151.203 106.188 151.23 106.315 151.282C106.441 151.334 106.556 151.411 106.653 151.507C106.749 151.604 106.826 151.719 106.878 151.845C106.93 151.972 106.956 152.107 106.956 152.244Z" fill="#DBDBDB"/>
<path d="M113.812 123.268H85.7402V132.196H113.812V123.268Z" fill="#3A8DFE"/>
<path d="M93.6005 128.984V126.584C93.6 126.554 93.6054 126.525 93.6165 126.498C93.6275 126.47 93.644 126.445 93.6649 126.424C93.6858 126.403 93.7107 126.387 93.7381 126.376C93.7656 126.365 93.7949 126.359 93.8245 126.36C93.8543 126.359 93.8838 126.365 93.9115 126.376C93.9391 126.387 93.9643 126.403 93.9855 126.424C94.0067 126.445 94.0236 126.47 94.0351 126.497C94.0466 126.525 94.0525 126.554 94.0525 126.584V128.772H95.1645C95.225 128.772 95.283 128.796 95.3257 128.839C95.3685 128.881 95.3925 128.939 95.3925 129C95.3925 129.06 95.3685 129.118 95.3257 129.161C95.283 129.204 95.225 129.228 95.1645 129.228H93.8245C93.7933 129.228 93.7625 129.222 93.7339 129.209C93.7053 129.197 93.6797 129.178 93.6586 129.155C93.6375 129.132 93.6215 129.105 93.6115 129.076C93.6015 129.046 93.5977 129.015 93.6005 128.984Z" fill="white"/>
<path d="M98.0005 126.696C98.2671 126.975 98.4158 127.346 98.4158 127.732C98.4158 128.118 98.2671 128.489 98.0005 128.768C97.8773 128.905 97.7269 129.015 97.5588 129.091C97.3908 129.166 97.2089 129.206 97.0245 129.208C96.8359 129.208 96.6494 129.168 96.4767 129.093C96.3039 129.017 96.1487 128.906 96.0205 128.768C95.7585 128.487 95.6128 128.116 95.6128 127.732C95.6128 127.347 95.7585 126.977 96.0205 126.696C96.1481 126.557 96.3032 126.446 96.4761 126.37C96.649 126.294 96.8358 126.255 97.0245 126.256C97.209 126.257 97.3912 126.296 97.5593 126.372C97.7274 126.448 97.8778 126.558 98.0005 126.696ZM97.9485 127.732C97.9485 127.467 97.8485 127.211 97.6685 127.016C97.5872 126.925 97.488 126.853 97.3772 126.802C97.2663 126.752 97.1462 126.725 97.0245 126.724C96.8996 126.723 96.7759 126.749 96.6615 126.799C96.5471 126.85 96.4446 126.923 96.3605 127.016C96.1792 127.21 96.079 127.466 96.0805 127.732C96.078 127.997 96.1784 128.252 96.3605 128.444C96.4444 128.537 96.5468 128.611 96.6612 128.662C96.7755 128.713 96.8993 128.74 97.0245 128.74C97.1465 128.738 97.2667 128.71 97.3775 128.659C97.4883 128.608 97.5874 128.535 97.6685 128.444C97.8431 128.248 97.9374 127.994 97.9325 127.732H97.9485Z" fill="white"/>
<path d="M99.0801 127.736C99.0866 127.455 99.1711 127.182 99.3241 126.946C99.4771 126.71 99.6926 126.522 99.9465 126.401C100.2 126.281 100.483 126.234 100.762 126.264C101.041 126.295 101.307 126.403 101.528 126.576C101.577 126.614 101.609 126.67 101.616 126.732C101.624 126.793 101.606 126.855 101.568 126.904C101.53 126.953 101.474 126.984 101.412 126.992C101.351 126.999 101.289 126.982 101.24 126.944C101.056 126.801 100.829 126.724 100.596 126.724C100.459 126.722 100.323 126.747 100.196 126.799C100.069 126.85 99.9531 126.927 99.8561 127.024C99.7589 127.115 99.6815 127.224 99.6285 127.346C99.5755 127.468 99.5482 127.599 99.5482 127.732C99.5482 127.865 99.5755 127.996 99.6285 128.118C99.6815 128.24 99.7589 128.349 99.8561 128.44C99.9531 128.537 100.069 128.614 100.196 128.665C100.323 128.717 100.459 128.742 100.596 128.74C100.793 128.739 100.987 128.685 101.156 128.584V128.024H100.568C100.507 128.022 100.448 127.996 100.405 127.952C100.362 127.908 100.337 127.85 100.336 127.788C100.337 127.727 100.362 127.669 100.405 127.627C100.449 127.584 100.507 127.56 100.568 127.56H101.368C101.399 127.559 101.43 127.564 101.458 127.575C101.487 127.586 101.514 127.602 101.536 127.624C101.558 127.645 101.576 127.67 101.589 127.699C101.601 127.727 101.608 127.757 101.608 127.788V128.696C101.61 128.719 101.61 128.741 101.608 128.764C101.594 128.806 101.565 128.841 101.528 128.864C101.307 129.037 101.043 129.145 100.765 129.176C100.486 129.208 100.204 129.161 99.9509 129.042C99.6974 128.922 99.4821 128.734 99.329 128.5C99.176 128.265 99.0912 127.992 99.0841 127.712L99.0801 127.736Z" fill="white"/>
<path d="M102.576 126.564C102.576 126.534 102.581 126.505 102.592 126.478C102.603 126.45 102.62 126.425 102.641 126.404C102.662 126.383 102.686 126.367 102.714 126.356C102.741 126.345 102.771 126.339 102.8 126.34C102.83 126.339 102.86 126.345 102.888 126.356C102.916 126.367 102.941 126.383 102.963 126.404C102.984 126.425 103.001 126.45 103.013 126.477C103.025 126.505 103.032 126.534 103.032 126.564V128.964C103.03 129.024 103.005 129.081 102.961 129.123C102.918 129.165 102.86 129.188 102.8 129.188C102.771 129.189 102.741 129.183 102.714 129.172C102.686 129.161 102.662 129.144 102.641 129.124C102.62 129.103 102.603 129.078 102.592 129.05C102.581 129.023 102.576 128.994 102.576 128.964V126.564Z" fill="white"/>
<path d="M104.248 128.984C104.248 129.043 104.225 129.1 104.183 129.142C104.141 129.184 104.084 129.208 104.024 129.208C103.965 129.208 103.908 129.184 103.866 129.142C103.824 129.1 103.8 129.043 103.8 128.984V126.584C103.8 126.548 103.807 126.512 103.824 126.479C103.84 126.446 103.863 126.418 103.892 126.396C103.941 126.363 104 126.35 104.058 126.359C104.116 126.368 104.168 126.398 104.204 126.444L105.528 128.276V126.6C105.528 126.571 105.534 126.542 105.545 126.516C105.556 126.489 105.572 126.465 105.593 126.444C105.613 126.424 105.637 126.408 105.664 126.397C105.691 126.386 105.719 126.38 105.748 126.38C105.807 126.38 105.863 126.403 105.905 126.444C105.947 126.485 105.971 126.541 105.972 126.6V129C105.971 129.059 105.947 129.115 105.906 129.157C105.864 129.199 105.807 129.223 105.748 129.224C105.716 129.224 105.684 129.216 105.655 129.201C105.626 129.187 105.6 129.166 105.58 129.14L105.56 129.116L104.248 127.296V128.984Z" fill="white"/>
<path d="M106.8 54.156V57.08H104.732V54.156C104.732 51.356 102.616 49.112 100.016 49.112C97.4157 49.112 95.2997 51.372 95.2997 54.156V61.476H93.1997V54.156C93.1997 50.156 96.2437 46.928 99.9997 46.928C103.756 46.928 106.8 50.172 106.8 54.156Z" fill="#C7C7C7"/>
<path d="M93.2158 57.0881L95.2838 57.1721V61.4761H93.2158V57.0881Z" fill="#A6A6A6"/>
<path d="M109.436 59.0241H90.564V76.1441H109.436V59.0241Z" fill="#3A8DFE"/>
<path opacity="0.1" d="M109.436 59.024H100V76.144H109.436V59.024Z" fill="#151520"/>
<path d="M100.8 68.212L101.6 71.956H98.248L99.048 68.212C98.7377 68.0194 98.4986 67.7309 98.367 67.3902C98.2353 67.0495 98.2183 66.6752 98.3184 66.324C98.4186 65.9728 98.6305 65.6637 98.922 65.4437C99.2135 65.2237 99.5688 65.1046 99.9341 65.1046C100.299 65.1046 100.655 65.2237 100.946 65.4437C101.238 65.6637 101.45 65.9728 101.55 66.324C101.65 66.6752 101.633 67.0495 101.501 67.3902C101.369 67.7309 101.13 68.0194 100.82 68.212H100.8Z" fill="#1C2B46"/>
<path d="M124.304 95.0359H75.6997V103.356H124.304V95.0359Z" fill="white"/>
<path d="M124.5 103.556H75.5005V94.8361H124.5V103.556ZM75.9005 103.156H124.1V95.2361H75.9005V103.156Z" fill="#EBEBEB"/>
<path d="M80.7442 97.332H80.3442V100.888H80.7442V97.332Z" fill="#49556B"/>
<path d="M82.3241 98.908H78.7681V99.308H82.3241V98.908Z" fill="#49556B"/>
<path d="M81.6623 97.7074L79.147 100.221L79.4297 100.504L81.9451 97.9904L81.6623 97.7074Z" fill="#49556B"/>
<path d="M79.4269 97.7096L79.144 97.9925L81.6585 100.507L81.9414 100.224L79.4269 97.7096Z" fill="#49556B"/>
<path d="M86.7765 97.3319H86.3765V100.888H86.7765V97.3319Z" fill="#49556B"/>
<path d="M88.3563 98.908H84.8003V99.308H88.3563V98.908Z" fill="#49556B"/>
<path d="M87.6936 97.7117L85.1782 100.225L85.461 100.508L87.9763 97.9947L87.6936 97.7117Z" fill="#49556B"/>
<path d="M85.4601 97.7082L85.1772 97.9911L87.6917 100.506L87.9746 100.223L85.4601 97.7082Z" fill="#49556B"/>
<path d="M92.8082 97.332H92.4082V100.888H92.8082V97.332Z" fill="#49556B"/>
<path d="M94.3885 98.908H90.8325V99.308H94.3885V98.908Z" fill="#49556B"/>
<path d="M93.7239 97.7117L91.2085 100.225L91.4912 100.508L94.0066 97.9947L93.7239 97.7117Z" fill="#49556B"/>
<path d="M91.4933 97.7068L91.2104 97.9897L93.7249 100.504L94.0078 100.221L91.4933 97.7068Z" fill="#49556B"/>
<path d="M98.8438 97.3319H98.4438V100.888H98.8438V97.3319Z" fill="#49556B"/>
<path d="M100.42 98.908H96.8643V99.308H100.42V98.908Z" fill="#49556B"/>
<path d="M99.759 97.7121L97.2437 100.226L97.5264 100.509L100.042 97.995L99.759 97.7121Z" fill="#49556B"/>
<path d="M97.5299 97.711L97.2471 97.9939L99.7615 100.508L100.044 100.225L97.5299 97.711Z" fill="#49556B"/>
<path d="M104.876 97.3319H104.476V100.888H104.876V97.3319Z" fill="#49556B"/>
<path d="M106.452 98.908H102.896V99.308H106.452V98.908Z" fill="#49556B"/>
<path d="M105.789 97.7124L103.274 100.226L103.557 100.509L106.072 97.9953L105.789 97.7124Z" fill="#49556B"/>
<path d="M103.559 97.7056L103.276 97.9884L105.79 100.503L106.073 100.22L103.559 97.7056Z" fill="#49556B"/>
<path d="M110.908 97.332H110.508V100.888H110.908V97.332Z" fill="#49556B"/>
<path d="M112.488 98.908H108.932V99.308H112.488V98.908Z" fill="#49556B"/>
<path d="M111.823 97.7097L109.308 100.223L109.59 100.506L112.106 97.9926L111.823 97.7097Z" fill="#49556B"/>
<path d="M109.592 97.7044L109.309 97.9872L111.824 100.502L112.106 100.219L109.592 97.7044Z" fill="#49556B"/>
<path d="M120.153 100.48C119.718 100.454 119.295 100.333 118.913 100.126C118.531 99.9183 118.199 99.6296 117.941 99.28L117.853 99.16L117.941 99.044C118.183 98.6826 118.51 98.3864 118.894 98.1816C119.277 97.9768 119.706 97.8697 120.141 97.8697C120.575 97.8697 121.004 97.9768 121.387 98.1816C121.771 98.3864 122.098 98.6826 122.341 99.044L122.425 99.16L122.341 99.28C122.085 99.6268 121.757 99.9139 121.379 100.121C121.001 100.328 120.582 100.451 120.153 100.48ZM118.361 99.176C118.567 99.4602 118.837 99.6916 119.15 99.8511C119.463 100.011 119.809 100.094 120.161 100.094C120.512 100.094 120.858 100.011 121.171 99.8511C121.484 99.6916 121.754 99.4602 121.961 99.176C121.754 98.8917 121.484 98.6604 121.171 98.5009C120.858 98.3413 120.512 98.2582 120.161 98.2582C119.809 98.2582 119.463 98.3413 119.15 98.5009C118.837 98.6604 118.567 98.8917 118.361 99.176Z" fill="#EBEBEB"/>
<path d="M120.148 100.076C120.645 100.076 121.048 99.6731 121.048 99.176C121.048 98.679 120.645 98.276 120.148 98.276C119.651 98.276 119.248 98.679 119.248 99.176C119.248 99.6731 119.651 100.076 120.148 100.076Z" fill="#EBEBEB"/>
<path d="M121.63 97.3714L118.434 100.567L118.717 100.85L121.913 97.6542L121.63 97.3714Z" fill="#EBEBEB"/>
<path d="M86.9318 86.3721H86.2918V87.4961C86.2918 87.5724 86.2615 87.6457 86.2075 87.6997C86.1535 87.7537 86.0802 87.7841 86.0038 87.7841C85.9274 87.7841 85.8542 87.7537 85.8002 87.6997C85.7462 87.6457 85.7158 87.5724 85.7158 87.4961V84.4361C85.7158 84.3984 85.7233 84.3612 85.7378 84.3264C85.7523 84.2917 85.7736 84.2602 85.8004 84.2338C85.8272 84.2074 85.859 84.1865 85.8939 84.1725C85.9288 84.1585 85.9662 84.1515 86.0038 84.1521H86.9318C87.0832 84.143 87.2348 84.1649 87.3774 84.2166C87.52 84.2683 87.6505 84.3486 87.7609 84.4525C87.8713 84.5565 87.9592 84.6819 88.0193 84.8212C88.0795 84.9604 88.1105 85.1104 88.1105 85.2621C88.1105 85.4137 88.0795 85.5637 88.0193 85.703C87.9592 85.8422 87.8713 85.9676 87.7609 86.0716C87.6505 86.1756 87.52 86.2558 87.3774 86.3075C87.2348 86.3592 87.0832 86.3811 86.9318 86.3721ZM86.2918 85.7961H86.9318C87.0058 85.8025 87.0804 85.7934 87.1507 85.7695C87.221 85.7456 87.2856 85.7073 87.3404 85.6571C87.3951 85.6069 87.4388 85.5458 87.4687 85.4778C87.4986 85.4098 87.5141 85.3363 87.5141 85.2621C87.5141 85.1878 87.4986 85.1143 87.4687 85.0463C87.4388 84.9783 87.3951 84.9172 87.3404 84.867C87.2856 84.8168 87.221 84.7785 87.1507 84.7546C87.0804 84.7307 87.0058 84.7216 86.9318 84.7281H86.2918V85.7961Z" fill="#3A8DFE"/>
<path d="M90.2319 86.9241H88.9719L88.7159 87.6001C88.6934 87.6529 88.6561 87.698 88.6086 87.7299C88.561 87.7619 88.5052 87.7793 88.4479 87.7801C88.4148 87.7862 88.3809 87.7862 88.3479 87.7801C88.2761 87.7531 88.2178 87.699 88.1857 87.6294C88.1535 87.5598 88.15 87.4803 88.1759 87.4082L89.3239 84.3521C89.3469 84.2982 89.3854 84.2522 89.4345 84.2202C89.4837 84.1881 89.5412 84.1714 89.5999 84.1721C89.6582 84.1706 89.7156 84.187 89.7643 84.2192C89.813 84.2514 89.8505 84.2978 89.8719 84.3521L91.0199 87.4082C91.0458 87.4803 91.0423 87.5598 91.0101 87.6294C90.9779 87.699 90.9196 87.7531 90.8479 87.7801C90.8149 87.7872 90.7808 87.7872 90.7479 87.7801C90.6909 87.7801 90.6352 87.7629 90.5882 87.7308C90.5411 87.6987 90.5047 87.6532 90.4839 87.6001L90.2319 86.9241ZM90.0199 86.3561L89.5999 85.2401L89.1999 86.3561H90.0199Z" fill="#3A8DFE"/>
<path d="M91.5283 86.8801C91.5508 86.8495 91.5796 86.824 91.6126 86.8054C91.6457 86.7867 91.6824 86.7753 91.7202 86.7719C91.758 86.7685 91.7961 86.7732 91.832 86.7856C91.8679 86.7981 91.9007 86.818 91.9283 86.8441C92.207 87.0812 92.5551 87.2215 92.9203 87.2441C93.151 87.2489 93.3775 87.1818 93.5683 87.0521C93.6332 87.013 93.6875 86.9587 93.7265 86.8939C93.7656 86.8291 93.7882 86.7556 93.7923 86.6801C93.7935 86.6218 93.7768 86.5645 93.7443 86.5161C93.7041 86.4535 93.6509 86.4003 93.5883 86.3601C93.3683 86.235 93.1268 86.1523 92.8763 86.1161C92.6447 86.0765 92.4189 86.008 92.2043 85.9121C92.0091 85.8277 91.8425 85.6888 91.7243 85.5121C91.644 85.3854 91.6023 85.2381 91.6043 85.0881C91.6077 84.9391 91.6456 84.7929 91.715 84.6611C91.7844 84.5292 91.8834 84.4152 92.0043 84.3281C92.2673 84.1461 92.5806 84.051 92.9003 84.0561C93.3091 84.0736 93.7033 84.2129 94.0323 84.4561C94.0613 84.4754 94.0862 84.5003 94.1056 84.5293C94.1249 84.5583 94.1383 84.5909 94.145 84.6251C94.1517 84.6593 94.1516 84.6945 94.1446 84.7286C94.1376 84.7628 94.1239 84.7952 94.1043 84.8241C94.086 84.8542 94.0618 84.8802 94.0331 84.9006C94.0044 84.9211 93.9719 84.9355 93.9375 84.9429C93.9031 84.9504 93.8675 84.9508 93.8329 84.9442C93.7983 84.9375 93.7655 84.9238 93.7363 84.9041C93.4979 84.7109 93.2063 84.5951 92.9003 84.5721C92.6933 84.5685 92.4904 84.6301 92.3203 84.7481C92.2629 84.7821 92.2149 84.8299 92.1806 84.8872C92.1464 84.9445 92.127 85.0094 92.1243 85.0761C92.1205 85.1267 92.1332 85.1772 92.1603 85.2201C92.1977 85.2741 92.2452 85.3203 92.3003 85.3561C92.4996 85.4732 92.7196 85.5506 92.9483 85.5841C93.1946 85.6278 93.4349 85.7003 93.6643 85.8001C93.8747 85.8926 94.0548 86.0423 94.1843 86.2321C94.2648 86.3648 94.3076 86.5169 94.3083 86.6721C94.3025 86.8314 94.2589 86.9871 94.181 87.1262C94.1031 87.2653 93.9931 87.3839 93.8603 87.4721C93.5815 87.6704 93.2464 87.7742 92.9043 87.7681C92.4165 87.7458 91.9496 87.563 91.5763 87.2481C91.5232 87.2042 91.4887 87.1418 91.4798 87.0735C91.4709 87.0052 91.4883 86.9361 91.5283 86.8801Z" fill="#3A8DFE"/>
<path d="M94.9399 86.8801C94.962 86.8527 94.9893 86.8299 95.0203 86.8133C95.0513 86.7966 95.0853 86.7862 95.1204 86.7829C95.1554 86.7795 95.1907 86.7832 95.2243 86.7937C95.2579 86.8042 95.289 86.8213 95.3159 86.8441C95.5946 87.0811 95.9427 87.2215 96.3079 87.2441C96.5387 87.2494 96.7653 87.1822 96.9559 87.0521C97.0208 87.013 97.0751 86.9587 97.1141 86.8939C97.1532 86.829 97.1758 86.7556 97.1799 86.6801C97.1812 86.6218 97.1644 86.5645 97.1319 86.5161C97.0928 86.4526 97.0393 86.3992 96.9759 86.3601C96.7574 86.2349 96.5172 86.1521 96.2679 86.1161C96.0374 86.077 95.8129 86.0085 95.5999 85.9121C95.4042 85.8268 95.2365 85.6882 95.1159 85.5121C95.037 85.3848 94.9954 85.2378 94.9959 85.0881C94.9993 84.9391 95.0372 84.7929 95.1066 84.6611C95.176 84.5292 95.2751 84.4152 95.3959 84.3281C95.6589 84.1461 95.9722 84.051 96.2919 84.0561C96.7007 84.0736 97.0949 84.2129 97.4239 84.4561C97.453 84.4754 97.4778 84.5003 97.4972 84.5293C97.5165 84.5583 97.5299 84.5908 97.5366 84.6251C97.5433 84.6593 97.5432 84.6945 97.5362 84.7286C97.5292 84.7628 97.5155 84.7952 97.4959 84.8241C97.4776 84.8541 97.4534 84.8802 97.4247 84.9006C97.396 84.9211 97.3635 84.9355 97.3291 84.9429C97.2947 84.9504 97.2591 84.9508 97.2245 84.9441C97.1899 84.9375 97.1571 84.9238 97.1279 84.9041C96.8895 84.7109 96.5979 84.5951 96.2919 84.5721C96.0849 84.5685 95.8821 84.6301 95.7119 84.7481C95.6545 84.782 95.6065 84.8299 95.5722 84.8872C95.538 84.9444 95.5186 85.0094 95.5159 85.0761C95.5121 85.1267 95.5248 85.1772 95.5519 85.2201C95.5893 85.2741 95.6368 85.3203 95.6919 85.3561C95.8915 85.4724 96.1114 85.5498 96.3399 85.5841C96.5862 85.6278 96.8265 85.7003 97.0559 85.8001C97.2656 85.8919 97.4447 86.0418 97.5719 86.2321C97.6552 86.3635 97.6983 86.5164 97.6959 86.6721C97.6909 86.8311 97.648 86.9867 97.5708 87.1258C97.4936 87.265 97.3843 87.3837 97.2519 87.472C96.972 87.6712 96.6354 87.775 96.2919 87.7681C95.8041 87.7458 95.3372 87.563 94.9639 87.2481C94.9153 87.2005 94.8859 87.1366 94.8814 87.0687C94.877 87.0007 94.8978 86.9336 94.9399 86.8801Z" fill="#3A8DFE"/>
<path d="M103.168 84.58L101.896 87.6C101.891 87.618 101.881 87.6345 101.868 87.648C101.868 87.648 101.868 87.668 101.844 87.68C101.82 87.692 101.844 87.68 101.844 87.68L101.808 87.704C101.808 87.704 101.784 87.732 101.76 87.736H101.716H101.592H101.556C101.538 87.7311 101.522 87.7197 101.512 87.704L101.476 87.68C101.476 87.68 101.476 87.66 101.456 87.648C101.454 87.6321 101.454 87.6159 101.456 87.6L100.776 86L100.096 87.6C100.096 87.6 100.096 87.636 100.076 87.648L100.044 87.68C100.032 87.6857 100.021 87.6939 100.012 87.704L99.9723 87.736C99.9591 87.7332 99.9455 87.7332 99.9323 87.736H99.8043H99.7643C99.7461 87.7291 99.7296 87.7182 99.7163 87.704C99.7163 87.704 99.6963 87.704 99.6803 87.68L99.6563 87.648C99.6563 87.648 99.6563 87.616 99.6283 87.6L98.3523 84.576C98.3293 84.5077 98.3331 84.4332 98.3629 84.3676C98.3928 84.3019 98.4465 84.2502 98.5132 84.2227C98.5798 84.1952 98.6544 84.1941 98.7219 84.2196C98.7893 84.2451 98.8445 84.2953 98.8763 84.36L99.8923 86.76L100.564 85.16C100.586 85.1074 100.624 85.0626 100.672 85.0313C100.719 84.9999 100.775 84.9835 100.832 84.984C100.89 84.9847 100.946 85.0016 100.994 85.0327C101.042 85.0639 101.08 85.108 101.104 85.16L101.772 86.76L102.784 84.36C102.814 84.2902 102.871 84.2351 102.941 84.2066C103.011 84.1781 103.09 84.1786 103.16 84.208C103.206 84.2587 103.232 84.3242 103.234 84.3925C103.235 84.4608 103.212 84.5274 103.168 84.58Z" fill="#3A8DFE"/>
<path d="M106.8 84.6C107.137 84.9546 107.325 85.425 107.325 85.914C107.325 86.4031 107.137 86.8734 106.8 87.228C106.642 87.4003 106.451 87.5382 106.238 87.6331C106.024 87.7281 105.794 87.7781 105.56 87.78C105.322 87.7787 105.086 87.7291 104.868 87.6342C104.649 87.5394 104.452 87.4012 104.288 87.228C103.959 86.8694 103.777 86.4006 103.777 85.914C103.777 85.4275 103.959 84.9586 104.288 84.6C104.451 84.4261 104.648 84.2874 104.867 84.1925C105.086 84.0975 105.322 84.0484 105.56 84.048C105.794 84.0489 106.025 84.0985 106.238 84.1935C106.452 84.2886 106.643 84.427 106.8 84.6ZM106.732 85.912C106.732 85.5772 106.607 85.2546 106.38 85.008C106.277 84.8926 106.151 84.8002 106.009 84.7368C105.868 84.6734 105.715 84.6404 105.56 84.64C105.402 84.6389 105.246 84.671 105.101 84.7344C104.956 84.7978 104.826 84.8911 104.72 85.008C104.492 85.2537 104.367 85.5769 104.368 85.912C104.365 86.2474 104.491 86.5712 104.72 86.816C104.827 86.9329 104.956 87.0263 105.101 87.0904C105.246 87.1544 105.402 87.1877 105.56 87.188C105.715 87.1859 105.868 87.1517 106.009 87.0877C106.15 87.0237 106.277 86.9312 106.38 86.816C106.602 86.5676 106.722 86.2449 106.716 85.912H106.732Z" fill="#3A8DFE"/>
<path d="M110.732 87.352C110.745 87.3874 110.75 87.425 110.747 87.4625C110.745 87.5 110.735 87.5366 110.718 87.5702C110.702 87.6037 110.678 87.6336 110.65 87.658C110.621 87.6824 110.588 87.7007 110.552 87.712C110.514 87.7183 110.475 87.7183 110.436 87.712C110.365 87.7136 110.296 87.6941 110.236 87.656C110.166 87.6115 110.108 87.5495 110.068 87.476C109.986 87.2788 109.949 87.0655 109.96 86.852C109.96 86.7729 109.937 86.6955 109.896 86.628C109.858 86.5662 109.804 86.5153 109.74 86.48C109.652 86.423 109.554 86.3811 109.452 86.356H108.84V87.48C108.84 87.5178 108.832 87.5552 108.817 87.5899C108.802 87.6247 108.78 87.6561 108.753 87.6825C108.726 87.7089 108.694 87.7296 108.659 87.7436C108.624 87.7576 108.586 87.7645 108.548 87.764C108.473 87.764 108.401 87.7341 108.347 87.6808C108.294 87.6276 108.264 87.5553 108.264 87.48V84.42C108.264 84.3826 108.271 84.3454 108.285 84.3107C108.299 84.276 108.32 84.2445 108.346 84.218C108.373 84.1915 108.404 84.1706 108.439 84.1565C108.474 84.1424 108.511 84.1355 108.548 84.136H109.476C109.705 84.1351 109.928 84.205 110.116 84.3361C110.303 84.4672 110.445 84.6531 110.523 84.8682C110.601 85.0834 110.61 85.3173 110.549 85.5379C110.488 85.7584 110.361 85.9548 110.184 86.1C110.253 86.155 110.314 86.2197 110.364 86.292C110.477 86.457 110.537 86.6522 110.536 86.852C110.529 86.9551 110.535 87.0588 110.556 87.16C110.6 87.1741 110.639 87.1991 110.669 87.2328C110.7 87.2664 110.722 87.3075 110.732 87.352ZM110 85.264C110.001 85.1935 109.987 85.1235 109.96 85.0583C109.934 84.993 109.894 84.9337 109.844 84.8838C109.794 84.8339 109.735 84.7945 109.67 84.7677C109.605 84.741 109.535 84.7275 109.464 84.728H108.828V85.796H109.464C109.606 85.796 109.741 85.7401 109.842 85.6404C109.942 85.5408 109.999 85.4055 110 85.264Z" fill="#3A8DFE"/>
<path d="M111.576 87.4962V84.4362C111.575 84.3987 111.582 84.3616 111.596 84.3269C111.61 84.2922 111.631 84.2606 111.658 84.2342C111.684 84.2077 111.716 84.1868 111.75 84.1727C111.785 84.1586 111.822 84.1516 111.86 84.1522H112.472C112.938 84.1741 113.378 84.3748 113.7 84.7126C114.023 85.0503 114.203 85.4993 114.203 85.9662C114.203 86.4331 114.023 86.882 113.7 87.2198C113.378 87.5576 112.938 87.7583 112.472 87.7802H111.86C111.784 87.7802 111.712 87.7503 111.659 87.697C111.606 87.6437 111.576 87.5715 111.576 87.4962ZM112.152 87.2042H112.472C112.788 87.1862 113.085 87.0479 113.303 86.8177C113.52 86.5875 113.641 86.2829 113.641 85.9662C113.641 85.6495 113.52 85.3448 113.303 85.1146C113.085 84.8844 112.788 84.7462 112.472 84.7282H112.152V87.2042Z" fill="#3A8DFE"/>
<path d="M173.624 40.112C173.624 40.112 170.572 64.536 165.556 70.032C159.556 76.624 155.156 75.66 152.756 79.06C150.324 75.656 145.956 76.624 139.956 70.028C134.94 64.532 131.896 40.108 131.896 40.108C145.096 33.708 152.776 26.508 152.776 26.508C152.976 26.736 160.616 33.8 173.624 40.112Z" fill="#49556B"/>
<path d="M152.74 26.516V79.06C150.308 75.656 145.94 76.624 139.94 70.028C134.924 64.532 131.88 40.108 131.88 40.108C145.08 33.708 152.76 26.508 152.76 26.508L152.74 26.516Z" fill="#49556B"/>
<path d="M170.399 42.0799C170.399 42.0799 167.823 62.7119 163.599 67.3559C158.507 72.9319 154.799 72.1119 152.763 74.9839C150.711 72.1119 147.019 72.9319 141.927 67.3559C137.695 62.7119 135.127 42.0799 135.127 42.0799C146.287 36.6599 152.767 30.5879 152.767 30.5879C152.767 30.5879 159.219 36.6599 170.399 42.0799Z" fill="#49556B"/>
<path d="M135.1 42.08C135.1 42.08 137.676 62.708 141.9 67.356C146.984 72.928 150.672 72.116 152.728 74.98V30.58C152.544 30.8 146.088 36.744 135.1 42.08Z" fill="#49556B"/>
<path d="M158.526 58.5714C161.721 55.3769 161.721 50.1976 158.526 47.0031C155.332 43.8086 150.152 43.8086 146.958 47.0031C143.763 50.1976 143.763 55.3769 146.958 58.5714C150.152 61.7659 155.332 61.7659 158.526 58.5714Z" fill="#3A8DFE"/>
<path d="M151.808 58.1001L148.164 54.3121L149.516 53.0121L151.524 55.1001L155.852 48.4601L157.424 49.4841L151.808 58.1001Z" fill="white"/>
<path d="M32.1479 98.832H60.2119V93.02H32.1479V98.832Z" fill="#C7C7C7"/>
<path d="M52.6797 98.7838L53.4637 106.212L63.1677 175.748H65.9397L58.2837 106.212L57.6637 98.7838H52.6797Z" fill="#C7C7C7"/>
<path d="M26.4116 175.748H29.1876L38.8916 106.212L39.6756 98.7839H34.6916L34.0716 106.212L26.4116 175.748Z" fill="#C7C7C7"/>
<path d="M31.0953 153.032H62.0513V151.288H31.0953V153.032Z" fill="#C7C7C7"/>
<path d="M58.2837 105.952H53.4637L52.6797 98.7838H57.6637L58.2837 105.952Z" fill="#A6A6A6"/>
<path d="M34.0713 105.952H38.8913L39.6753 98.7838H34.6913L34.0713 105.952Z" fill="#A6A6A6"/>
<path d="M35.892 65.0879C37.092 65.7039 37.3 67.8279 41.036 67.7119C41.568 67.7119 42.004 67.4839 42.492 67.6639C43.208 67.9239 43.772 68.4959 44.408 68.9119C44.9195 69.2557 45.5019 69.4799 46.112 69.5679C47.2824 69.7063 48.4646 69.4333 49.456 68.7959C50.068 68.4199 50.58 67.8999 51.172 67.4919C51.764 67.0839 55.336 66.2199 55.94 64.2119C56.34 62.9359 56.264 61.4839 54.74 59.6199C54.3889 59.2874 54.1499 58.8541 54.056 58.3799C54.057 57.9643 54.1513 57.5542 54.332 57.1799C54.5416 56.7551 54.6182 56.2769 54.552 55.8079C54.3819 55.3594 54.1077 54.9577 53.752 54.6359C53.192 53.9599 53.296 52.9839 53.752 51.7839C53.9328 51.2747 53.9944 50.7308 53.9319 50.194C53.8695 49.6573 53.6848 49.142 53.392 48.6879C53.0248 48.1676 52.5919 47.697 52.104 47.2879C51.42 46.6399 51.304 46.0399 50.996 45.1239C50.416 43.3639 49.508 42.5759 48.44 42.0319C47.476 41.5479 47.508 41.7319 46.476 41.8879C45.4304 41.2498 44.1995 40.9847 42.984 41.1359C41.856 41.2799 40.924 42.0359 40.072 42.7599C39.312 43.4079 38.616 44.1039 38.576 45.1959C38.552 45.8239 38.704 46.4479 38.676 47.0759C38.636 47.8759 38.192 48.3839 37.66 48.8879C36.8667 49.5625 36.3195 50.4811 36.104 51.4999C35.964 52.3519 36.804 53.6759 35.82 54.9359C34.956 56.0479 33.42 57.3359 33.02 58.7279C31.8 63.0759 34.76 64.4959 35.892 65.0879Z" fill="#1C2B46"/>
<path d="M50.3599 67.4319C52.0759 67.1719 54.7118 67.4959 55.6238 65.5839C55.9848 65.2898 56.2706 64.914 56.4576 64.4877C56.6447 64.0613 56.7277 63.5966 56.6998 63.1319C56.582 62.1392 56.1224 61.2186 55.3998 60.5279C54.9806 60.1332 54.6149 59.6854 54.3118 59.1959C54.215 58.8144 54.1442 58.4269 54.0998 58.0359C54.1706 57.5355 54.305 57.0462 54.4998 56.5799C54.1238 57.3799 53.7758 58.2439 54.1238 59.1239C54.175 59.2494 54.2351 59.3711 54.3038 59.4879C54.4289 59.9507 54.6004 60.3996 54.8158 60.8279C55.3798 61.9479 55.8958 62.9599 55.8198 64.2679C55.8066 64.7048 55.7016 65.1341 55.5118 65.5279C54.7695 66.1789 53.8423 66.5817 52.8598 66.6799C52.8358 66.6799 52.8358 66.7239 52.8598 66.7199C53.7483 66.63 54.6005 66.3208 55.3398 65.8199C54.3438 67.2479 52.0278 67.0519 50.3519 67.3839C50.3079 67.3839 50.3239 67.4359 50.3599 67.4319ZM55.7558 65.2599V65.2239C56.0529 64.164 55.9766 63.0342 55.5398 62.0239C55.2678 61.3559 54.8598 60.7559 54.5918 60.0839C54.5478 59.9679 54.5038 59.8519 54.4638 59.7319C54.8638 60.2559 55.3678 60.6919 55.7438 61.2039C56.5438 62.3159 56.7998 63.6399 56.0358 64.8439C55.9531 64.9894 55.8595 65.1285 55.7558 65.2599Z" fill="#1C2B46"/>
<path d="M51.8799 47.0279C52.5202 47.5843 53.1304 48.1744 53.7079 48.7959C54.1108 49.2037 54.3523 49.7437 54.3879 50.3159C54.4028 50.8924 54.2208 51.4567 53.8719 51.9159C53.7439 52.1079 53.6119 52.3159 53.4959 52.5039C53.4685 52.8762 53.5273 53.2499 53.6679 53.5959C53.9479 54.2559 54.5679 54.6639 54.8679 55.3319C55.3319 56.4119 54.8159 57.2999 54.3599 58.2639C54.6919 57.4639 55.1599 56.6919 54.8959 55.7959C54.6879 55.0639 54.1519 54.6679 53.7479 54.0719C53.502 53.6933 53.3637 53.255 53.3479 52.8039C52.9879 53.5319 52.8639 54.2999 53.4999 55.0639C53.5279 55.0999 53.4999 55.1479 53.4519 55.1159C52.6519 54.3159 52.8599 53.3119 53.3519 52.4519C53.3822 51.9439 53.4943 51.4441 53.6839 50.9719C53.6839 50.9239 53.7759 50.9719 53.7679 51.0079C53.6959 51.3839 53.5999 51.7599 53.5479 52.1319L53.6319 52.0079C54.2719 51.0919 54.5239 50.0079 53.7879 49.0479C53.2359 48.3159 52.4839 47.7399 51.8679 47.0479C51.8399 47.0399 51.8639 47.0119 51.8799 47.0279Z" fill="#1C2B46"/>
<path d="M56.6915 122.556C56.6915 122.556 49.5275 138.468 49.5195 138.48C48.1355 141.516 46.9715 144.2 46.5035 145.648C46.5004 145.656 46.5004 145.664 46.5035 145.672C46.3557 145.998 46.2858 146.354 46.2995 146.712C46.2995 146.712 46.2995 146.732 46.2995 146.736C46.9235 147.764 70.8595 159.536 71.8355 159.676C72.8115 159.816 73.2555 157.044 72.6915 155.844C72.1275 154.644 64.9755 146.036 64.9755 146.036L71.9995 130.06L56.6915 122.556Z" fill="#EB9481"/>
<path d="M50.9913 135.2C50.9913 135.2 49.5273 138.456 49.5193 138.468C48.1353 141.504 46.9713 144.188 46.5033 145.636C46.5002 145.644 46.5002 145.652 46.5033 145.66C46.3933 145.997 46.3248 146.346 46.2993 146.7C46.2993 146.7 46.2993 146.72 46.2993 146.724C46.9233 147.752 70.8593 159.524 71.8353 159.664C72.8113 159.804 73.2553 157.032 72.6913 155.832C72.1273 154.632 64.9753 146.024 64.9753 146.024L66.5153 142.728L50.9913 135.2Z" fill="#EBEBEB"/>
<path d="M71.8279 159.644C70.8519 159.516 46.9079 147.756 46.2799 146.728C46.0359 146.328 47.5439 142.752 49.4799 138.468L49.5399 138.332L65.0759 145.748L64.9399 146.008C64.9399 146.008 72.0958 154.612 72.6638 155.812C73.2318 157.012 72.7999 159.776 71.8279 159.644Z" fill="#1C2B46"/>
<path d="M72.6156 158.964C72.9636 159.34 72.1636 160.736 71.8156 160.7C71.4676 160.664 45.4156 147.724 45.0156 147.404C44.6156 147.084 45.5636 145.576 46.1196 145.748C46.6756 145.92 72.6156 158.964 72.6156 158.964Z" fill="#3A8DFE"/>
<path d="M66.2312 146.692C64.7872 145.616 62.7272 144.904 60.9552 145.44C60.8872 145.44 60.9192 145.56 60.9792 145.568C62.7378 145.823 64.4638 146.267 66.1272 146.892C66.1525 146.898 66.179 146.896 66.2027 146.885C66.2264 146.874 66.2458 146.856 66.2578 146.833C66.2698 146.81 66.2737 146.783 66.2689 146.758C66.264 146.732 66.2508 146.709 66.2312 146.692Z" fill="white"/>
<path d="M67.0398 147.948C65.5958 146.868 63.5358 146.16 61.7638 146.696C61.6958 146.716 61.7278 146.812 61.7878 146.824C63.5463 147.077 65.2723 147.52 66.9358 148.144C66.9612 148.153 66.9891 148.153 67.0144 148.143C67.0396 148.134 67.0605 148.115 67.0732 148.091C67.0858 148.067 67.0895 148.04 67.0833 148.013C67.0772 147.987 67.0617 147.964 67.0398 147.948Z" fill="white"/>
<path d="M67.8479 149.2C66.4039 148.124 64.3399 147.412 62.5719 147.948C62.5039 147.972 62.5319 148.068 62.5719 148.076C64.3319 148.33 66.0593 148.774 67.7239 149.4C67.7504 149.416 67.7824 149.422 67.8128 149.414C67.8432 149.407 67.8695 149.388 67.8859 149.362C67.9024 149.335 67.9076 149.303 67.9005 149.273C67.8933 149.243 67.8744 149.216 67.8479 149.2Z" fill="white"/>
<path d="M52.1962 142.956C50.8842 141.236 48.1962 143.268 49.5202 144.992C50.8442 146.716 53.5082 144.68 52.1962 142.956Z" fill="white"/>
<path d="M60.9152 108.724C60.7552 113.352 51.8352 133.34 51.8352 133.34L67.4792 140.54C67.4792 140.54 80.1072 118.312 78.9352 108.072C77.9352 99.3839 56.0752 83.3159 52.5672 78.7879C52.0472 78.1159 52.2232 75.4119 52.2232 75.4119H38.0312V78.7999C43.4512 90.3039 59.6632 104.104 60.8632 108.156C60.9106 108.341 60.9281 108.533 60.9152 108.724Z" fill="#49556B"/>
<path d="M67.3916 137.2C64.8156 135.964 65.5716 136.28 62.9916 135.076C61.7236 134.488 55.3636 131.508 54.0836 131.176C54.0767 131.173 54.0688 131.172 54.0617 131.175C54.0546 131.178 54.0488 131.183 54.0456 131.19C54.0424 131.197 54.0421 131.205 54.0447 131.212C54.0474 131.219 54.0527 131.225 54.0596 131.228C55.1556 131.972 61.5836 134.8 62.8596 135.364C65.4716 136.516 64.7356 136.164 67.3596 137.276C67.4036 137.3 67.4396 137.22 67.3916 137.2Z" fill="#1C2B46"/>
<path d="M41.5997 81.2199C45.8835 87.749 50.6728 93.9319 55.9237 99.7119C57.2117 101.116 58.5357 102.48 59.8597 103.848C60.9797 105.004 62.1237 106.288 62.3997 107.932C62.7117 109.764 61.9997 111.588 61.4277 113.296C60.7997 115.176 60.1677 117.052 59.4997 118.92C58.7797 120.92 55.8357 128.196 55.3517 129.176C55.1077 129.664 59.2477 119.176 59.9197 117.24C60.5917 115.304 61.2717 113.38 61.8437 111.42C62.1751 110.422 62.3109 109.369 62.2437 108.32C62.1138 107.308 61.7099 106.351 61.0757 105.552C59.9237 104.016 58.4277 102.712 57.1197 101.312C54.4077 98.4079 51.8224 95.3919 49.3637 92.2639C46.5657 88.7306 43.9541 85.0536 41.5397 81.2479C41.5379 81.2439 41.5368 81.2397 41.5367 81.2353C41.5365 81.231 41.5371 81.2267 41.5386 81.2226C41.5401 81.2185 41.5424 81.2147 41.5453 81.2115C41.5482 81.2083 41.5518 81.2057 41.5557 81.2039C41.5597 81.202 41.5639 81.201 41.5683 81.2008C41.5726 81.2006 41.577 81.2013 41.581 81.2028C41.5851 81.2043 41.5889 81.2065 41.5921 81.2095C41.5953 81.2124 41.5979 81.2159 41.5997 81.2199Z" fill="#1C2B46"/>
<path d="M33.2 157.248C33.2 157.248 32.504 174.692 32.5 174.704C32.58 178.04 32.708 180.964 32.9 182.468C32.8984 182.477 32.8984 182.487 32.9 182.496C32.9185 182.856 33.0212 183.207 33.2 183.52V183.54C34.208 184.188 60.888 184.34 61.82 184.032C62.752 183.724 61.948 181.04 60.92 180.208C59.892 179.376 49.692 174.752 49.692 174.752L50.224 157.32L33.2 157.248Z" fill="#EB9481"/>
<path d="M32.6283 171.252C32.6283 171.252 32.4923 174.692 32.4883 174.704C32.5683 178.04 32.6963 180.964 32.8883 182.468C32.8866 182.477 32.8866 182.487 32.8883 182.496C32.9522 182.848 33.0569 183.192 33.2003 183.52V183.54C34.2083 184.188 60.8883 184.34 61.8203 184.032C62.7523 183.724 61.9483 181.04 60.9203 180.208C59.8923 179.376 49.6923 174.752 49.6923 174.752L49.8003 171.224L32.6283 171.252Z" fill="#EBEBEB"/>
<path d="M61.7999 184C60.8679 184.308 34.1999 184.184 33.1759 183.536C32.7759 183.296 32.5799 179.408 32.4639 174.7V174.552L49.6639 174.44V174.732C49.6639 174.732 59.8559 179.348 60.8959 180.18C61.9359 181.012 62.7359 183.696 61.7999 184Z" fill="#1C2B46"/>
<path d="M62.2115 183.048C62.6875 183.236 62.5795 184.84 62.2315 184.964C61.8835 185.088 32.7995 184.828 32.3035 184.716C31.8075 184.604 31.9995 182.828 32.5755 182.74C33.1515 182.652 62.2115 183.048 62.2115 183.048Z" fill="#3A8DFE"/>
<path d="M51.1119 174.8C49.3439 174.46 47.1759 174.724 45.8199 175.976C45.7679 176.024 45.8199 176.1 45.8919 176.08C47.5827 175.544 49.3259 175.19 51.0919 175.024C51.1216 175.027 51.1511 175.017 51.174 174.998C51.1969 174.979 51.2112 174.952 51.2139 174.922C51.2165 174.892 51.2073 174.863 51.1881 174.84C51.169 174.817 51.1416 174.803 51.1119 174.8Z" fill="white"/>
<path d="M52.3999 175.572C50.6319 175.232 48.4679 175.496 47.1079 176.748C47.0559 176.796 47.1079 176.872 47.1839 176.852C48.8745 176.315 50.6178 175.961 52.3839 175.796C52.4136 175.798 52.4429 175.788 52.4654 175.769C52.4879 175.749 52.5018 175.722 52.5039 175.692C52.506 175.662 52.4963 175.633 52.4767 175.61C52.4572 175.588 52.4296 175.574 52.3999 175.572Z" fill="white"/>
<path d="M53.6595 176.348C51.8915 176.008 49.7235 176.268 48.3675 177.524C48.3115 177.572 48.3675 177.648 48.4395 177.628C50.1301 177.091 51.8734 176.737 53.6396 176.572C53.6693 176.575 53.6988 176.565 53.7217 176.546C53.7446 176.527 53.7589 176.5 53.7615 176.47C53.7642 176.44 53.7549 176.411 53.7358 176.388C53.7167 176.365 53.6892 176.351 53.6595 176.348Z" fill="white"/>
<path d="M36.8517 177.564C34.9197 176.588 33.3997 179.588 35.3317 180.564C37.2637 181.54 38.7997 178.544 36.8517 177.564Z" fill="white"/>
<path d="M50.1596 169.144L32.7196 169.288C32.7196 169.288 35.6236 98.0599 33.6796 95.7319C29.0556 90.1999 29.7916 82.8239 32.9076 75.4159H48.7996C48.7996 75.4159 48.0356 86.6639 48.1116 86.9919C52.9996 108.312 50.1596 169.144 50.1596 169.144Z" fill="#49556B"/>
<path d="M49.1998 165.572C45.3958 165.276 35.3758 165.6 34.1118 165.792C34.1059 165.795 34.101 165.799 34.0975 165.805C34.0941 165.811 34.0923 165.817 34.0923 165.824C34.0923 165.83 34.0941 165.837 34.0975 165.843C34.101 165.848 34.1059 165.853 34.1118 165.856C35.3638 166.108 46.8518 165.748 49.1958 165.656C49.2049 165.653 49.213 165.648 49.219 165.641C49.2249 165.634 49.2283 165.625 49.2288 165.615C49.2292 165.606 49.2267 165.597 49.2214 165.589C49.2162 165.581 49.2086 165.575 49.1998 165.572Z" fill="#1C2B46"/>
<path d="M49.1755 79.788C49.0155 81.788 49.0955 85.236 47.9315 85.288C46.7675 85.34 46.9715 81.14 46.9395 80.172C46.9075 79.296 46.6075 79.416 46.5755 80.448C46.4875 83.248 46.5755 85.724 48.0475 85.608C49.5195 85.492 49.5235 81.152 49.4875 80.16C49.4675 79.648 49.2235 79.152 49.1755 79.788Z" fill="#1C2B46"/>
<path d="M47.9997 85.4198C47.9273 86.1269 47.9421 86.8403 48.0437 87.5438C48.0637 87.5998 48.2877 87.5438 48.3117 87.5078C48.4477 87.2158 48.3397 85.8398 48.3757 85.4678C48.3821 85.4179 48.3684 85.3676 48.3376 85.3278C48.3224 85.3081 48.3035 85.2916 48.2819 85.2793C48.2603 85.2669 48.2364 85.2589 48.2117 85.2558C48.1619 85.2494 48.1115 85.2631 48.0718 85.2939C48.032 85.3246 48.0061 85.3699 47.9997 85.4198Z" fill="#1C2B46"/>
<path d="M48.4999 87.9C48.9959 89.66 49.5039 93.028 49.3839 93.9C49.3839 93.98 49.2559 94.008 49.2399 93.924C49.0799 92.98 48.3759 88.44 48.3039 87.964C48.2319 87.488 48.3599 87.408 48.4999 87.9Z" fill="#1C2B46"/>
<path d="M45.4398 89.2879C45.6719 89.0604 45.9206 88.8505 46.1838 88.6599C46.4438 88.4559 46.7038 88.2599 46.9838 88.0639C47.5358 87.6639 48.1038 87.3199 48.6838 86.9759C49.2638 86.6319 49.8318 86.3319 50.4238 86.0319C51.0158 85.7319 51.6958 85.4839 52.3118 85.1759C52.3478 85.1559 52.3798 85.2079 52.3438 85.2279C51.7598 85.5519 51.2158 85.9559 50.6478 86.3119C50.0798 86.6679 49.5118 87.0359 48.9398 87.3919C48.3678 87.7479 47.8278 88.0959 47.2678 88.4399C46.9771 88.6212 46.6811 88.7972 46.3798 88.9679C46.1101 89.1417 45.8295 89.298 45.5398 89.4359C45.4438 89.4719 45.3878 89.3479 45.4398 89.2879Z" fill="#1C2B46"/>
<path d="M35.3476 132.084C35.5996 126.376 35.9996 120 36.0956 114.3C36.1409 111.444 36.1622 108.586 36.1596 105.728C36.1596 102.892 36.1596 99.1038 36.0316 96.2718C35.9556 94.8318 33.4196 93.7198 32.9036 89.5278C32.5461 87.1404 32.7362 84.7029 33.4596 82.3998C33.6395 81.8399 33.8519 81.291 34.0956 80.7558C34.0956 80.7198 34.1636 80.7558 34.1476 80.7878C33.1325 83.1417 32.7108 85.7089 32.9196 88.2638C32.9933 89.5519 33.2631 90.8211 33.7196 92.0278C34.3996 93.7198 36.0756 95.0918 36.1636 95.9918C36.2956 97.3318 36.3156 98.4918 36.3316 99.8398C36.3476 101.188 36.3636 102.64 36.3716 104.04C36.3876 106.898 36.3796 109.756 36.3476 112.612C36.2836 118.3 36.1342 123.985 35.8996 129.668C35.6596 135.352 34.1876 163.812 34.0916 164.468C34.0916 164.54 33.9636 164.524 33.9676 164.468C34.1436 161.6 35.0916 137.792 35.3476 132.084Z" fill="#1C2B46"/>
<path d="M44.7675 62.2879C48.5515 70.0959 53.3555 78.5519 57.8515 79.8879C62.1315 81.1479 70.4275 70.6399 73.0515 67.8879C73.9875 66.8879 66.3835 61.1679 65.2035 62.0359C62.9795 63.6719 58.9835 68.1279 58.3115 67.9719C57.6395 67.8159 52.0275 62.4799 46.9715 57.9999C43.9075 55.2839 42.1475 56.8759 44.7675 62.2879Z" fill="#EB9481"/>
<path d="M79.6314 62.9318C80.6714 62.4958 88.6794 62.2398 88.6794 60.5038C88.6794 58.7678 78.4834 59.2558 78.4834 59.2558L79.6314 62.9318Z" fill="#EB9481"/>
<path d="M64.2715 63.1359C65.6715 61.3959 66.9035 59.5359 68.1195 59.1759C68.9635 58.9359 78.0275 59.3279 79.4475 59.2439C80.8675 59.1599 85.9155 59.2879 86.0355 60.5279C86.1995 62.2839 80.2155 62.2679 79.5795 63.1679C77.3755 66.2639 68.9955 70.8479 68.9955 70.8479L64.2715 63.1359Z" fill="#EB9481"/>
<path d="M86.1675 60.5559C86.0799 60.2266 85.8732 59.9415 85.5875 59.7559C84.9675 59.3239 84.1515 59.2839 83.4235 59.2279C82.3196 59.1247 81.209 59.1153 80.1035 59.1999C80.0982 59.1999 80.0931 59.202 80.0893 59.2057C80.0856 59.2095 80.0835 59.2146 80.0835 59.2199C80.0835 59.2252 80.0856 59.2303 80.0893 59.234C80.0931 59.2378 80.0982 59.2399 80.1035 59.2399C80.9315 59.2399 81.7595 59.2599 82.5875 59.3279C83.3459 59.3597 84.0984 59.475 84.8315 59.6719C85.1629 59.76 85.4625 59.9403 85.6955 60.1919C85.7781 60.2797 85.8372 60.387 85.8672 60.5038C85.8973 60.6206 85.8974 60.7431 85.8675 60.8599C85.6235 61.6239 84.1155 61.8519 83.4195 62.0079C82.5115 62.2119 81.5675 62.4079 80.6515 62.5759C80.6115 62.5759 80.6515 62.6479 80.6715 62.6399C81.6195 62.4519 82.6235 62.3759 83.5755 62.2039C84.3475 62.0639 85.1755 61.9079 85.7995 61.4039C85.9338 61.3109 86.0394 61.1822 86.1045 61.0324C86.1695 60.8825 86.1913 60.7175 86.1675 60.5559Z" fill="#1C2B46"/>
<path d="M72.0723 56.7746L72.336 55.4241L88.0944 58.5015C88.237 58.5293 88.3627 58.6127 88.4439 58.7333C88.5251 58.8538 88.555 59.0017 88.5272 59.1443L88.4735 59.4191C88.4456 59.5618 88.3623 59.6875 88.2417 59.7687C88.1211 59.8499 87.9733 59.8798 87.8306 59.852L72.0723 56.7746Z" fill="#3A8DFE"/>
<path opacity="0.1" d="M72.334 55.4269L72.0703 56.7774L73.9704 57.1485L74.2341 55.798L72.334 55.4269Z" fill="#151520"/>
<path d="M66.3079 53.7079L65.8439 56.1079C65.6848 56.9194 65.8546 57.761 66.3159 58.4474C66.7773 59.1337 67.4924 59.6087 68.3039 59.7679C69.1155 59.927 69.957 59.7572 70.6434 59.2959C71.3298 58.8345 71.8048 58.1194 71.9639 57.3079L72.4319 54.9079C72.5107 54.5058 72.5095 54.0921 72.4285 53.6904C72.3474 53.2888 72.188 52.907 71.9594 52.567C71.7307 52.2269 71.4374 51.9352 71.096 51.7086C70.7547 51.4819 70.372 51.3247 69.9699 51.2459C69.5678 51.1671 69.1541 51.1683 68.7525 51.2494C68.3508 51.3304 67.9691 51.4898 67.629 51.7185C66.9423 52.1802 66.4671 52.8958 66.3079 53.7079ZM71.4519 54.3039C71.368 54.659 71.1759 54.9794 70.9022 55.2208C70.6286 55.4622 70.2868 55.6128 69.9239 55.6519C70.2437 55.8267 70.5025 56.0951 70.6655 56.4211C70.8285 56.7471 70.8879 57.1151 70.8359 57.4759C70.6479 58.4279 69.5999 59.0279 68.4919 58.8119C67.3839 58.5959 66.6359 57.6439 66.8199 56.6959C66.9057 56.3409 67.0989 56.0211 67.373 55.7799C67.6471 55.5387 67.989 55.3878 68.3519 55.3479C68.0306 55.1748 67.7705 54.9067 67.6072 54.5802C67.444 54.2537 67.3856 53.8848 67.4399 53.5239C67.6279 52.5679 68.6759 51.9759 69.7839 52.1919C70.8919 52.4079 71.6399 53.3519 71.4519 54.3039Z" fill="#3A8DFE"/>
<path d="M72.4533 54.8159L71.9511 57.3873C71.9245 57.5239 72.0136 57.6562 72.1502 57.6829L72.2758 57.7074C72.4124 57.7341 72.5447 57.645 72.5714 57.5084L73.0736 54.937C73.1002 54.8004 73.0111 54.668 72.8745 54.6414L72.7489 54.6168C72.6123 54.5902 72.48 54.6793 72.4533 54.8159Z" fill="#3A8DFE"/>
<path d="M73.0734 54.9383L72.5712 57.5097C72.5446 57.6463 72.6337 57.7787 72.7703 57.8053L72.8959 57.8299C73.0325 57.8566 73.1649 57.7674 73.1915 57.6309L73.6937 55.0594C73.7204 54.9228 73.6313 54.7905 73.4947 54.7638L73.369 54.7392C73.2324 54.7126 73.1001 54.8017 73.0734 54.9383Z" fill="#3A8DFE"/>
<path d="M84.3198 57.1879L84.7878 57.2799L85.0518 55.9159L85.4558 55.9959L85.3158 56.7079L85.7838 56.7999L85.9238 56.0879L86.2758 56.1559L86.0598 57.2799L86.5278 57.3719L86.7478 56.2479L87.2519 56.3479L86.9598 57.8479L87.4279 57.9399L87.7199 56.4399L88.1959 56.5319L87.8238 58.4479L83.6318 57.6319L84.0038 55.7119L84.5838 55.8279L84.3198 57.1879Z" fill="#3A8DFE"/>
<path d="M30.6235 77.824L52.9515 78.192L51.1995 71.504C51.782 70.6647 52.1738 69.7081 52.3472 68.7013C52.5207 67.6944 52.4716 66.6619 52.2035 65.676C51.6675 63.708 49.1275 60.76 47.5675 58.876C43.7755 54.316 40.4795 56.376 39.4275 57.548C35.4155 62.04 30.6235 77.824 30.6235 77.824Z" fill="#3A8DFE"/>
<path d="M41.6201 60.1479V58.8759L42.4641 59.8199L43.3761 59.5359L42.9321 60.3359L43.3601 60.7839L42.6961 60.8519V61.7159L41.9681 61.1079L41.3761 61.5999L41.4441 60.8719L40.5801 60.4719L41.6201 60.1479ZM51.1321 74.4399L50.4281 75.0839L49.7801 74.7399L50.0081 75.4799L49.1681 75.9159L49.9681 76.2599L49.7721 76.8999L50.3561 76.6759L50.9321 77.4039L51.0201 76.4519L52.2201 76.0519L51.0521 75.5439L51.1321 74.4399ZM42.9681 69.6919L43.6521 71.0519L44.3281 69.7519L45.6161 69.9759L44.9321 68.6079L45.8881 67.6959L44.5321 67.7439L44.2601 66.4159L43.5481 67.7919L41.7401 67.6519L42.8041 68.7519L41.8201 69.5079L42.9681 69.6919ZM48.2921 61.8319L48.6201 61.2799L48.0041 61.3359L47.7921 60.8279L47.4601 61.3799L46.9201 61.2479L47.2441 61.7199L46.8441 62.1199L47.4961 62.0599L47.8561 62.7319L48.0041 62.1079L48.4921 62.2839L48.2921 61.8319ZM37.8201 76.3999L38.1481 75.8519L37.5361 75.9039L37.3201 75.3959L36.9921 75.9519L36.4521 75.8159L36.7761 76.2879L36.3761 76.6879L37.0281 76.6319L37.3881 77.3039L37.5361 76.6759L38.0281 76.8559L37.8201 76.3999ZM41.4921 66.4839L41.8201 65.9359L41.2041 65.9879L40.9921 65.4799L40.6641 66.0359L40.1201 65.8999L40.4441 66.3719L40.0441 66.7719L40.6961 66.7159L41.0561 67.3839L41.2041 66.7599L41.6961 66.9359L41.4921 66.4839ZM37.5161 67.9719L37.4041 67.6119L37.1881 67.9039L36.8801 67.7959L36.9921 68.1599L36.7241 68.3439L37.0561 68.3879V68.7239L37.2841 68.4119L37.7201 68.5199L37.5041 68.2079L37.7761 68.0599L37.5161 67.9719ZM47.8801 76.5519L47.7681 76.1919L47.5481 76.4839L47.2441 76.3799L47.3561 76.7399L47.0841 76.9279L47.4201 76.9679V77.3039L47.6481 76.9959L48.0841 77.0999L47.8681 76.7879L48.1401 76.6439L47.8801 76.5519ZM50.9801 66.0959L51.2641 65.8439L50.9081 65.7679L50.8761 65.4439L50.5921 65.6959L50.3121 65.5279L50.4121 65.8479L50.1121 65.9999L50.4881 66.0799L50.5721 66.5239L50.7681 66.1959L51.0121 66.3839L50.9801 66.0959ZM45.3801 72.8519L45.6601 72.5999L45.3041 72.5239L45.2721 72.1999L44.9921 72.4519L44.7081 72.2839L44.8081 72.6039L44.5081 72.7559L44.8841 72.8359L44.9681 73.2799L45.1641 72.9519L45.4081 73.1399L45.3801 72.8519ZM33.8521 74.9719L34.1321 74.7199L33.7761 74.6399L33.7481 74.3159L33.4641 74.5719L33.2001 74.3999L33.2961 74.7239L32.9961 74.8719L33.3721 74.9559L33.4601 75.3959L33.6521 75.0719L33.8961 75.2599L33.8521 74.9719Z" fill="white"/>
<path d="M45.2275 71.112C46.1823 71.024 47.1424 71.008 48.0995 71.064C48.5756 71.096 49.0476 71.152 49.5196 71.22C49.7516 71.252 49.9876 71.276 50.2236 71.3C50.4706 71.33 50.7205 71.33 50.9676 71.3C50.9676 71.3 50.9956 71.328 50.9676 71.336C50.7394 71.3872 50.5083 71.4246 50.2756 71.448C50.0478 71.462 49.8193 71.462 49.5916 71.448C49.1116 71.416 48.6276 71.364 48.1476 71.332C47.1755 71.26 46.2035 71.192 45.2275 71.192C45.1995 71.2 45.1995 71.116 45.2275 71.112Z" fill="#1C2B46"/>
<path d="M43.0598 72.364C43.8187 72.1429 44.5892 71.964 45.3678 71.828C45.7678 71.764 46.1678 71.72 46.5438 71.688L47.1078 71.6479C47.3158 71.6479 47.5078 71.6479 47.7318 71.6479C47.7558 71.6479 47.7598 71.68 47.7318 71.684C47.5358 71.704 47.3318 71.756 47.1478 71.784L46.5638 71.876L45.3958 72.0599C44.6171 72.1719 43.8385 72.2973 43.0598 72.436C43.0278 72.436 43.0198 72.376 43.0598 72.364Z" fill="#1C2B46"/>
<path d="M41.5996 57.2957C41.6956 57.6957 43.5996 60.2757 45.4196 60.1877C46.0116 60.1557 45.9956 56.9157 45.9956 56.9157L46.0476 56.6757L46.7996 53.3197L42.8636 50.7997L42.2956 50.4677C42.2956 50.4677 42.1516 51.3997 41.9836 52.5597C41.9836 52.6157 41.9836 52.6677 41.9836 52.7237C41.9836 52.7797 41.9596 52.8517 41.9516 52.9157C41.9236 53.0877 41.8956 53.2637 41.8756 53.4397C41.8556 53.6157 41.8396 53.7077 41.8236 53.8397L41.7756 54.2637C41.649 55.2693 41.5902 56.2822 41.5996 57.2957Z" fill="#EB9481"/>
<path d="M42 52.5557C42.3414 53.4968 42.883 54.3526 43.5874 55.0639C44.2918 55.7753 45.1423 56.3252 46.08 56.6757L46.8 53.3197L42.864 50.7997L42.296 50.4677C42.296 50.4677 42.152 51.3957 42 52.5557Z" fill="#1C2B46"/>
<path d="M51.5318 47.8437C52.7038 53.7637 49.2878 55.1317 48.0118 55.3837C46.8558 55.6117 42.8798 56.2357 41.1038 50.4717C39.3278 44.7077 41.7118 42.2917 44.3358 41.6317C46.9598 40.9717 50.3638 41.9277 51.5318 47.8437Z" fill="#EB9481"/>
<path d="M49.8039 46.9398C49.6719 46.9698 49.5384 46.9925 49.4039 47.0078C49.2636 47.0539 49.1122 47.0539 48.9719 47.0078C48.9314 46.9833 48.9 46.9461 48.8827 46.902C48.8653 46.8579 48.863 46.8094 48.8759 46.7638C48.9157 46.6775 48.9778 46.6034 49.0559 46.5492C49.134 46.495 49.2252 46.4628 49.3199 46.4558C49.5087 46.4117 49.7072 46.4402 49.8759 46.5358C49.9106 46.5609 49.9375 46.5953 49.9535 46.635C49.9695 46.6748 49.974 46.7182 49.9665 46.7603C49.959 46.8025 49.9398 46.8417 49.911 46.8734C49.8823 46.9052 49.8451 46.9282 49.8039 46.9398Z" fill="#1C2B46"/>
<path d="M45.6 48.1517C45.7347 48.1312 45.8683 48.1031 46 48.0677C46.1479 48.0592 46.2887 48.0015 46.4 47.9037C46.4302 47.8672 46.4467 47.8212 46.4467 47.7737C46.4467 47.7263 46.4302 47.6803 46.4 47.6437C46.3327 47.5765 46.2482 47.5291 46.1559 47.5065C46.0635 47.4839 45.9667 47.4871 45.876 47.5157C45.6834 47.5406 45.5074 47.6378 45.384 47.7877C45.3563 47.8239 45.34 47.8675 45.3373 47.913C45.3346 47.9584 45.3456 48.0036 45.3688 48.0428C45.3921 48.082 45.4265 48.1133 45.4677 48.1327C45.5089 48.1521 45.555 48.1587 45.6 48.1517Z" fill="#1C2B46"/>
<path d="M46.4875 48.9118C46.4875 48.9118 46.4595 48.9118 46.4635 48.9518C46.5355 49.3518 46.5515 49.8318 46.2075 50.0198C46.2075 50.0198 46.2075 50.0478 46.2075 50.0438C46.6515 49.9118 46.6235 49.2798 46.4875 48.9118Z" fill="#1C2B46"/>
<path d="M46.0636 48.5399C45.4036 48.5879 45.5476 49.9079 46.1596 49.8599C46.7716 49.8119 46.6156 48.4999 46.0636 48.5399Z" fill="#1C2B46"/>
<path d="M45.8118 48.6399C45.7038 48.7239 45.6078 48.8679 45.4678 48.8999C45.3278 48.9319 45.1758 48.8079 45.0678 48.6879C45.0678 48.6879 45.0438 48.6879 45.0678 48.6879C45.0918 48.9399 45.2158 49.1879 45.4918 49.1959C45.7678 49.2039 45.8918 48.9599 45.9278 48.6999C45.9038 48.6679 45.8558 48.6039 45.8118 48.6399Z" fill="#1C2B46"/>
<path d="M48.9952 48.5278C48.9952 48.5278 49.0272 48.5278 49.0272 48.5598C49.0592 48.9598 49.1592 49.4358 49.5432 49.5318V49.5558C49.0832 49.5398 48.9552 48.9198 48.9952 48.5278Z" fill="#1C2B46"/>
<path d="M49.3157 48.0639C49.9677 47.9479 50.1517 49.2639 49.5477 49.3679C48.9437 49.4719 48.7677 48.1639 49.3157 48.0639Z" fill="#1C2B46"/>
<path d="M49.5999 48.112C49.7159 48.168 49.8359 48.28 49.9599 48.268C50.0839 48.256 50.1919 48.1 50.2639 47.952C50.2639 47.952 50.2639 47.952 50.2879 47.952C50.3279 48.2 50.2879 48.476 50.0479 48.556C49.8079 48.636 49.6479 48.44 49.5479 48.196C49.5319 48.164 49.5559 48.088 49.5999 48.112Z" fill="#1C2B46"/>
<path d="M47.2322 52.3599C47.3362 52.4519 47.4442 52.5759 47.5922 52.5799C47.745 52.566 47.8933 52.5211 48.0282 52.4479C48.0282 52.4479 48.0522 52.4479 48.0282 52.4479C47.975 52.532 47.9002 52.6002 47.8114 52.6453C47.7227 52.6903 47.6235 52.7106 47.5242 52.7039C47.4477 52.6873 47.3772 52.6503 47.3201 52.5967C47.2631 52.5432 47.2216 52.4751 47.2002 52.3999C47.2002 52.3999 47.2002 52.3479 47.2322 52.3599Z" fill="#1C2B46"/>
<path d="M48.756 50.6798C48.756 50.6798 48.916 51.2758 48.952 51.5638C48.952 51.5918 48.888 51.6118 48.788 51.6318C48.5463 51.7066 48.2888 51.7137 48.0434 51.6523C47.798 51.591 47.5741 51.4635 47.396 51.2838C47.396 51.2598 47.396 51.2238 47.436 51.2398C47.8332 51.4458 48.2866 51.5174 48.728 51.4438C48.728 51.3638 48.42 50.4278 48.464 50.4198C48.69 50.4125 48.916 50.4354 49.136 50.4878C48.844 49.2318 48.336 48.0318 48.076 46.7758C48.076 46.7318 48.132 46.7078 48.148 46.7478C48.7169 48.0164 49.1564 49.3391 49.46 50.6958C49.496 50.8558 48.88 50.7118 48.756 50.6798Z" fill="#1C2B46"/>
<path d="M48.7474 51.528C48.6168 51.7825 48.4224 51.9989 48.1834 52.156C48.0506 52.2386 47.8954 52.2777 47.7394 52.268C47.4034 52.24 47.3394 51.944 47.3394 51.68C47.3497 51.5443 47.3752 51.4101 47.4154 51.28C47.8211 51.5039 48.2882 51.5909 48.7474 51.528Z" fill="#1C2B46"/>
<path d="M48.1833 52.1557C48.0506 52.2383 47.8954 52.2774 47.7394 52.2677C47.4034 52.2397 47.3394 51.9437 47.3394 51.6797C47.5132 51.6508 47.6918 51.6822 47.8453 51.7688C47.9989 51.8554 48.1182 51.9919 48.1833 52.1557Z" fill="#FF9ABB"/>
<path d="M41.7636 50.9919C42.8956 50.9919 42.8196 48.3919 42.8196 48.3919C42.8196 48.3919 47.4436 46.9159 47.2996 43.0079C48.1191 44.4909 49.4786 45.6012 51.0956 46.1079C51.0956 46.1079 50.3316 41.9079 46.8636 41.5599C46.8636 41.5599 42.4916 40.6359 40.6196 44.2679C38.7476 47.8999 41.0036 51.0039 41.7636 50.9919Z" fill="#1C2B46"/>
<path d="M47.276 42.7197C47.414 43.3065 47.4262 43.9159 47.312 44.5077C47.2081 45.1098 46.9792 45.6835 46.64 46.1917C46.556 46.319 46.4638 46.4406 46.364 46.5557L46.224 46.7357C46.172 46.7917 46.116 46.8437 46.06 46.8957C46.004 46.9477 45.844 47.1077 45.732 47.2077L45.364 47.4797C45.304 47.5237 45.244 47.5677 45.18 47.6077L44.984 47.7197L44.584 47.9397C44.312 48.0597 44.032 48.1637 43.752 48.2637C44.008 48.1077 44.272 47.9797 44.52 47.8237L44.888 47.5757L45.068 47.4517C45.128 47.4077 45.18 47.3597 45.236 47.3117L45.568 47.0317C45.676 46.9317 45.772 46.8237 45.872 46.7197L46.024 46.5637L46.156 46.3917C46.247 46.281 46.3312 46.1648 46.408 46.0437C46.7325 45.5551 46.9693 45.0137 47.108 44.4437C47.1796 44.1613 47.2291 43.8738 47.256 43.5837C47.2856 43.2967 47.2922 43.0078 47.276 42.7197Z" fill="#1C2B46"/>
<path d="M39.9997 47.4358L39.7197 48.0038L41.5917 49.3718L42.1917 48.0958L39.9997 47.4358ZM41.4597 48.7878L40.1677 47.9478L40.2277 47.8158L41.6797 48.3398L41.4597 48.7878Z" fill="#3A8DFE"/>
<path d="M40.0796 46.4318L40.0356 47.0638L42.2876 47.6278L42.3636 46.2158L40.0796 46.4318ZM41.9436 47.1318L40.4276 46.8438V46.6958L41.9716 46.6358L41.9436 47.1318Z" fill="#3A8DFE"/>
<path d="M42.6314 50.4838C42.6314 50.4838 41.1154 48.7517 40.3194 49.3117C39.5234 49.8717 40.7994 52.4798 41.8354 52.7398C41.9661 52.7833 42.1043 52.7998 42.2416 52.7883C42.3788 52.7767 42.5123 52.7374 42.6339 52.6727C42.7555 52.6079 42.8627 52.5192 42.9489 52.4117C43.0351 52.3043 43.0986 52.1805 43.1354 52.0478L42.6314 50.4838Z" fill="#EB9481"/>
<path d="M40.7036 50.0519C40.7036 50.0519 40.7036 50.0719 40.7036 50.0759C41.0413 50.201 41.3489 50.3955 41.6066 50.647C41.8643 50.8985 42.0663 51.2014 42.1996 51.5359C42.1515 51.4704 42.0898 51.4161 42.0186 51.3769C41.9474 51.3376 41.8686 51.3143 41.7875 51.3086C41.7064 51.3029 41.6251 51.3149 41.5491 51.3438C41.4732 51.3727 41.4044 51.4177 41.3476 51.4759C41.3476 51.4759 41.3476 51.5159 41.3716 51.5119C41.4896 51.459 41.6211 51.4441 41.7479 51.4691C41.8747 51.4942 41.9906 51.5581 42.0796 51.6519C42.2309 51.8106 42.365 51.9849 42.4796 52.1719C42.5156 52.2319 42.6276 52.1719 42.5956 52.1159C42.4996 51.1999 41.6716 50.0359 40.7036 50.0519Z" fill="#1C2B46"/>
<path d="M38.0997 58.88C33.0117 67.656 25.4077 87.8 24.0317 90.68C23.0997 92.636 33.3237 97.792 33.7597 96.368C34.3117 94.548 41.4077 71.084 41.8717 60.616C42.0877 55.768 39.7277 56.072 38.0997 58.88Z" fill="#EB9481"/>
<path d="M29.5995 100.848C30.1395 100.376 30.3995 100.656 30.1555 101.904C29.9115 103.152 27.9355 107.904 29.6475 108.444C31.3595 108.984 34.0475 102.268 34.2955 100.16C34.5435 98.0519 34.1595 94.5599 34.1595 94.5599C33.3715 95.7679 31.1995 98.5039 29.5995 100.848Z" fill="#EB9481"/>
<path d="M32.5997 108.184L19.7997 105.88C19.3997 105.848 19.1557 105.584 19.2237 105.288L20.3957 100.056C20.4599 99.9012 20.5738 99.7724 20.7194 99.6898C20.865 99.6072 21.0341 99.5755 21.1997 99.5999L33.9997 101.892C34.3997 101.928 34.6437 102.192 34.5757 102.484L33.4037 107.716C33.3435 107.874 33.2308 108.007 33.0845 108.092C32.9382 108.177 32.7671 108.21 32.5997 108.184Z" fill="#A6A6A6"/>
<path d="M32.7477 107.568L19.9237 105.264C19.5237 105.228 19.2837 104.964 19.3477 104.672L20.5237 99.4399C20.5832 99.282 20.6951 99.1494 20.8408 99.0642C20.9864 98.979 21.1569 98.9464 21.3237 98.9719L34.1477 101.276C34.5477 101.308 34.7877 101.572 34.7237 101.864L33.5597 107.1C33.4985 107.259 33.3845 107.393 33.2366 107.478C33.0888 107.563 32.9162 107.595 32.7477 107.568Z" fill="#C7C7C7"/>
<path d="M32.508 105.908C32.212 105.796 31.932 105.908 31.884 106.156C31.8775 106.298 31.9184 106.438 32.0002 106.555C32.082 106.671 32.2 106.757 32.336 106.8C32.632 106.912 32.912 106.8 32.96 106.556C32.9673 106.413 32.9269 106.272 32.845 106.154C32.7632 106.037 32.6446 105.95 32.508 105.908Z" fill="#1C2B46"/>
<path d="M24.7156 89.7601C22.1036 93.2801 19.7916 97.4241 19.7356 102.004C19.7187 102.513 19.8721 103.013 20.1716 103.424C20.1116 105.472 21.0596 106.12 21.0596 106.12C21.5876 108.044 22.6596 108.572 22.6596 108.572C22.6596 108.572 22.8116 110.224 23.9756 110.2C25.1396 110.176 25.7796 107.468 26.7756 105.492C29.1076 100.956 33.3476 95.8041 34.1476 94.5641L24.7156 89.7601Z" fill="#EB9481"/>
<path d="M25.5477 99.6639C24.852 100.984 24.2466 102.35 23.7357 103.752C23.2707 105.324 22.9231 106.928 22.6957 108.552C22.6957 108.563 22.6915 108.573 22.684 108.58C22.6765 108.588 22.6663 108.592 22.6557 108.592C22.6451 108.592 22.6349 108.588 22.6274 108.58C22.6199 108.573 22.6157 108.563 22.6157 108.552C22.7431 105.38 23.7363 102.303 25.4877 99.6559C25.5277 99.5719 25.5997 99.5999 25.5477 99.6639Z" fill="#1C2B46"/>
<path d="M23.0163 97.86C22.4483 99.208 21.4643 101.58 21.1083 106.124C21.1083 106.124 21.0843 106.124 21.0803 106.124C20.9247 103.24 21.5727 100.369 22.9523 97.832C22.9963 97.752 23.0563 97.768 23.0163 97.86Z" fill="#1C2B46"/>
<path d="M21.6393 96.9158C20.7593 99.2438 20.4953 100.824 20.1833 103.412H20.1553C20.2033 100.432 20.5553 99.3518 21.5633 96.8718C21.5993 96.7998 21.6713 96.8238 21.6393 96.9158Z" fill="#1C2B46"/>
</svg>
